<svg xmlns="http://www.w3.org/2000/svg" viewBox="0 0 313.61 98.68"><title>aol</title><path d="M0 0h307.51v92.58H0zm3.47 3.55V89H304V3.55z" fill="#1b4475"/><path d="M3.47 3.55H304V89H3.47zm124.15 81.68v-.65l.66-.59c0 2.58 1.55 3.87 4.07 3.11l-1.15-1.25c1-1.62.1-3.39.74-4.86-2.16-.71-2.44-.34-2.43 2.92l-1.24.1a7.12 7.12 0 0 0 .34-1.63c0-.55-.09-1.34-.44-1.57s-1 .21-1.58.34h-.46c-.63-.11-1.26-.27-1.9-.33-.46 0-1 .2-1.4.08-1.74-.47-2.26-.14-2.38 1.64a7.23 7.23 0 0 0-.08 1.69c.07.36.46.67.71 1v.29l-.49 1.09 1.77.18.4-.53a6.7 6.7 0 0 0 1.09.84c.79.39 1.62.68 2.24-.31h.35l2-.35zm80.76-.06a2.22 2.22 0 0 0 0-.26l1-.93c0 2.63 1.91 4.08 4 3l-.79-.89.39-5.47c-.72.12-1.73.06-1.85.35a14.59 14.59 0 0 0-.57 3h-1.23a7.4 7.4 0 0 0 .36-1.47c0-.56.07-1.35-.25-1.63s-1.08 0-1.65 0h-.65l-2.51.31h-.28c-1.84-1.07-2.72-.65-2.83 1.38v3.05l1.84-1.61v1.58l-2.24.35c1.2 1.32 1.94 1.83 2.55.27.34.26.66.55 1 .78.94.59 1.88.94 2.73-.15l1.85-.24.45-.76zM70.66 6.36v.4c-.26-.31-.46-.76-.79-.9A5.28 5.28 0 0 0 68 5.49c-.15 0-.31.58-.47.9h-.91l-.05-.05c-.25-.3-.59-.91-.74-.86a20.23 20.23 0 0 0-2.42 1c-.39-1.43-1.66-1.21-3.07-.86l.94 2c-.32.43-.9.87-.9 1.3 0 1.12-.72 2.84 1.17 3s1.5-1.55 1.6-2.73l1 .28-.44 2.16c.79.1 1.59.23 2.38.27.34 0 .7-.26 1-.22 2.73.3 2.73.31 2.63-2.34a1.41 1.41 0 0 1 0-.16l1 .33H71c-.45 2.24-.19 2.6 1.79 2.52.2 0 .41 0 .61-.06h1.08c2.32.07 2.69-.35 2.06-2.39l.35-.36.95-1.9 1.58.32A7.86 7.86 0 0 0 78 9.38c-.27.64-.46 1.71-.12 2.1a2.35 2.35 0 0 0 2.09.29c.38-.13.56-1.09.67-1.7a5.66 5.66 0 0 0 0-1.85c0-.32-.38-.6-.58-.9.28-.88-.11-1.39-1-1.47-1-.09-1.34.53-1.22 1.46a4.35 4.35 0 0 1-.84-.64c-1.07-1.39-2.14-1.67-3.89-.91h-.58c-.82-.4-1.53-.48-1.87.6zM5.55 31.12l.32.62L5 34l1.14.22c-.08.39 0 .88-.26 1.14-1.04 1.22-.88 2.24.68 2.84-1.79 1.34-2 2-1.07 3.52l1.92-1.55.06.08a5.91 5.91 0 0 0 .19 1.1 20.86 20.86 0 0 0 3.58-.21c.15 0 .21-1.1.14-1.67 0-.21-.53-.47-.84-.51a14.65 14.65 0 0 0-1.87 0L9 38c.93 0 2 .31 2.38-.06a1.69 1.69 0 0 0-.9-2.79c-1.43-.36-2.9-.6-4.34-.89l1.27-1c.35.3.66.75 1.06.86a26.19 26.19 0 0 0 2.82.48c.97-2.13.71-2.6-1.69-2.5a4.87 4.87 0 0 1-.6-.05l.31-1c.85-.11 2 .44 2.34-.8.15-.6-.29-1.34-.46-2v-.3c.87-2.29.46-2.89-1.9-2.76a1.29 1.29 0 0 1-.3-.05L7.1 23.92l.32-1.27a5.65 5.65 0 0 0 1.4 1.18c.7.27 1.82.62 2.2.29a2.76 2.76 0 0 0 .36-2.23c-.05-.27-1.13-.39-1.76-.48a5.41 5.41 0 0 0-1.7 0c-.3.05-.54.41-.8.64-.44 0-1.17 0-1.27.16a2.33 2.33 0 0 0-.06 1.59c.06.17.86.08 1.32.12a12.22 12.22 0 0 1-1.43 1.27c-.95.61-1.08 2.77-.17 3.64v.41zm295.76 30.31l-.69-.29c.26-.23.67-.42.76-.71a14.49 14.49 0 0 0 .37-2l-1.07-.07v-1.28c.74.15 1.07-.18 1-.91-.15-.89-.37-1.74-1.58-1.58a5.9 5.9 0 0 1 .79-.69c1.31-.79 1.15-1.84.72-3.12l-2.39 1.66-.07-.07v-1.13a17 17 0 0 0-3.31 0c-.26 0-.59.93-.54 1.4s.56.8 1 1a5.12 5.12 0 0 0 1.54.17l.11 1.46a7 7 0 0 0-1.26-.88 1.25 1.25 0 0 0-1.08 0 1.87 1.87 0 0 0 .69 3c1.47.38 3 .63 4.47.93l-.52.76-4.59-1.27c-1 2-.8 2.28 1.29 2.74.28.06.46.6.68.92-.79.21-1.78.22-2.28.72-.29.29.24 1.38.39 2.1v.29l-.18 2.58 2.33-.11.34.32v1a11.64 11.64 0 0 0-1.66-.22c-1.46 0-1.18 1.12-1.18 2s.26 1.39 1.3 1.19a8 8 0 0 1 2.15-.13c.81.06 1-.31.95-1l1.26.63-2.2 2.51.56-1.35-4.67-.23 1 2.46a2.14 2.14 0 0 0 0 .3c-1.22 1.94-.84 2.75 1.34 2.89a9.4 9.4 0 0 1 1.49.34v.33c-.73 0-1.46 0-2.18-.08-.93-.08-1.3.31-1.3 1.25 0 1.57.54 1.81 2.59 1.08a9.58 9.58 0 0 1 1.05.89c.71.78 1.47.73 1.9-.11a18.81 18.81 0 0 0 1.31-3.53c.08-.26-.36-.68-.56-1L301 74c.29-.65.64-1.28.87-1.95s-.06-1.16-.87-1.16c.09-1 1.13-2.33-.94-2.5a5.35 5.35 0 0 1 .94-.93 2.55 2.55 0 0 0 .34-3.67v-.42zM151.77 6.37h-.37c-.66-1.18-1.65-1-2.73-.8l.23 1.12h-1.26l-.64-1.2-2.2 1.2a2.62 2.62 0 0 0-3.49-1l1.29 1.87c-1.79.55-1.23 2-1.16 3.12a1.78 1.78 0 0 0 1.22 1.23c1.77.09 1.41-1.48 1.62-2.54l1.16.13c-.21.73-1.55 1.28-.43 2.21a1.82 1.82 0 0 0 2.93-1.2c.24-1.29.61-2.55.92-3.83l1 1.27c-.31.22-.83.4-.91.68-.25.93-.35 1.9-.55 3.18a6.85 6.85 0 0 0 2.25-.09c.24-.09.14-1.16.17-1.78V8.86l1.18.64c-.2 2.53.38 3 2.58 2.22h.59a7.65 7.65 0 0 0 2.43-.2c.23-.09 0-1.27 0-2l.33-.33.93-.31c-.1.55-.25 1.09-.3 1.65-.1 1.19.84 1.39 1.63 1.35.52 0 1.37-.51 1.45-.91a10.25 10.25 0 0 0 0-3.07c0-.22-.58-.38-.9-.56.6-.53.74-1-.17-1.33S159 6 158.91 7.33a5.19 5.19 0 0 1-.92-.77c-1-1.28-2.09-1.53-3.78-.79v.39c-.88-.49-1.78-1.41-2.44.21zm.93 80.41l1.93-.26.47-.3 2.79 1.4-.24-1.43h1.25c.41 1.26 1.1 1.26 2.58 0h.52c.75 1.41 1.9 1 3.26.76l-1.51-1.81c1.61-.53 1.46-1.87 1.29-3a2 2 0 0 0-1.28-1.41c-.4-.08-1 .69-1.44 1.16a7.25 7.25 0 0 0-.77 1.28l-.36-.23c0-.14.1-.28.14-.43a5.64 5.64 0 0 0 .36-1.32 3.63 3.63 0 0 0-1.83-.55 1.68 1.68 0 0 0-1.22.94c-.44 1.52-.69 3.09-1 4.65l-.86-.72c.34-.88.64-1.5.83-2.15s.32-1.5.48-2.27c-1.79-1-2.34-.72-2.66 1.14-.06.33-.6.58-.92.87a2.7 2.7 0 0 0 0-.76c-.18-.57-.37-1.57-.65-1.6a6.4 6.4 0 0 0-2.14.48l-2.9-.22.39 2.73-1.58-.31a1.94 1.94 0 0 0 0-.31c-.08-.71.08-1.72-.32-2a2.45 2.45 0 0 0-2.13-.13c-.33.14-.31 1.18-.38 1.82a4.8 4.8 0 0 0 0 1.54 3.47 3.47 0 0 0 .63 1c-.48.78-.13 1.35.62 1.43s1.59 0 1.56-1.12c.23.09.53.12.66.29 1.1 1.43 2.22 1.71 4 1zm-88.94-2.46l.16.13-.14-.15a11.58 11.58 0 0 0 .22-2.57c0-.41-.71-.75-1.09-1.12-.36.4-1 .8-1 1.21a2.41 2.41 0 0 0 1.85 2.5zm235.67-44.76a22.51 22.51 0 0 0-2.69-.93 1.34 1.34 0 0 0-1 .59c-.18.27-.18.95 0 1.09a2.2 2.2 0 0 0 1.37.36 5.55 5.55 0 0 0 1.43-.5c-.48 1.52.38 1.67 1.55 1.52v.7c-.85-.22-1.7-.5-2.57-.66-2-.37-2.4.09-1.88 2.1l2.87.49v.3a5.24 5.24 0 0 0-1.85.06c-.5.21-1.2.86-1.15 1.24s.7 1 1.21 1.34c.25.16.78-.13 1.18-.21v1a3.94 3.94 0 0 0-1.35-.25c-.5.09-1.29.37-1.34.68-.1.57.2 1.73.41 1.75a37.46 37.46 0 0 0 4.4 0 1.3 1.3 0 0 0 .06-.29l1.32.32c.52-1.2.21-1.9-1-2.18 1.13-1.15 2.34-2.28 1-4l-.55-.06-.12-.6 1.12-.11a4.87 4.87 0 0 0-.3-1.28 4.09 4.09 0 0 0-.88-.87c.77-.71 1.71-1.37.91-2.67zM7.43 53a17.32 17.32 0 0 0 2.57.92 1.44 1.44 0 0 0 1.17-.62 1.26 1.26 0 0 0-.11-1.22 2.25 2.25 0 0 0-1.43-.15A9.88 9.88 0 0 0 8 52.4l.31-1.58a11.14 11.14 0 0 1 1.7.12c1 .22 1.34-.26 1.43-1.13s-.19-1.26-1.12-1.23a8.09 8.09 0 0 1-1.68-.29v-.3h.78c.92 0 1.88-.1 2-1.29s-.86-1.38-1.78-1.47l-.33-.62c.35.09.73.32 1 .23.49-.14 1.24-.42 1.3-.75.1-.56-.21-1.7-.42-1.72a37.78 37.78 0 0 0-4.36 0 1.31 1.31 0 0 0-.05.29l-1.3-.43c-.44 1.17-.6 2.11 1 2.3a5.75 5.75 0 0 1-.61.63c-1.15.89-1.3 2-.4 3.39h.42l2.47 2.21c-2.55.31-3.69 1.53-3 3.32zm157.4-46.57l-3.08-1.22-.2.47 2.76 2.89h-.43l-1.37-.77v4.28l2-.4h.6c2.24.78 2.69.5 2.81-1.74 0-.25.06-.5.09-.76h.5l.06 2.58.3.23 2.28-.62h.55c1.18.93 2.2.74 2.39-.57a30.44 30.44 0 0 0 0-4.1l-1.46 1a10.74 10.74 0 0 0-2.39-1.93c-1-.41-2.23-1-3.15.3l-1.22-.54zm-29.65 1.84a7.09 7.09 0 0 0 0 1.7 8.48 8.48 0 0 0 .74 1.65l1.78-.84h.51c0 1.16.77 1.38 1.71 1.23s1.17-.83 1.06-1.74-.12-2-.18-2.94l.12-.15-.14.13-1.53 1L139 8l-.43-1c.84 0 1.79.2 2.13-.94-1.27-1-1.87-.68-2.12 1-.3-.34-.56-.88-.93-1a12.55 12.55 0 0 0-3-.4c-.34 0-.69.52-1 .8l-.1-.1c.3-.62.27-1.11-.57-.81a4.61 4.61 0 0 0-1.19.76l-2.69-1-.2.44L130.12 8c-1.34.26-.71 1.53-1.12 2.28-.13.25.25 1 .6 1.24.66.42 1.4.29 1.45-.67a8.48 8.48 0 0 0-.33-1.92c.71.23 1.09 0 1.27-.75a3.15 3.15 0 0 1 .52-.83l.34.19a11 11 0 0 0-.63 1.84c-.11.68-.3 1.64 0 2s1.34.3 2 .41l.57-3.48zM8 18.88h.4l-.9 1.45a9.46 9.46 0 0 0 1.18.32 11.94 11.94 0 0 0 1.38.06c1.92 0 2.11-.26 1.42-2.14v-.67l.13-.45c.52-1.85.27-2.19-1.56-2.32A17.34 17.34 0 0 1 8 14.76a11.06 11.06 0 0 1 2.68-.21c1.31 0 1.29-1 1.07-1.74-.12-.42-1-1-1.34-.9a1.82 1.82 0 0 1-2.29-.63c-.68-.76-1.21-.52-1.81.11a4.76 4.76 0 0 0-1.16 4.78c1.35-1.45 1.8.11 2.6.55v.45c-2.18 1.38-3 2.78-2.41 4.56zm244.4 65.43a9.17 9.17 0 0 0 0-1.84 7.07 7.07 0 0 0-.65-1.54l-1.87.87h-.5c0-1.17-.79-1.48-1.66-1.21a1.94 1.94 0 0 0-1.12 1.31 13.83 13.83 0 0 0 .06 3.21c0 .17.51.31.78.46l-.44 1.16c.32.12.69.39 1 .31a2.4 2.4 0 0 0 1-.75c.13-.15 0-.49.05-.74l.91 1c.6.69 2.58.82 3.08.25a4.82 4.82 0 0 1 1-.68l.06.06-.06.84 1.95-.7 2.9 1-1.06-2.44a13.48 13.48 0 0 0 .75-2.33 2 2 0 0 0-.46-1.48 1.45 1.45 0 0 0-1.23-.09 3.42 3.42 0 0 0-.25 1.7 6.88 6.88 0 0 0 .58 1.58l-1.22-.68-.82 1.74-.44-.24a11.06 11.06 0 0 0 .63-1.84c.11-.68.3-1.65 0-2s-1.34-.29-2-.4l-.54 3.48zm-227.47 0l1.86.89a13 13 0 0 1-.1-2.43 5.92 5.92 0 0 1 .76-1.6l.21 4.83a4.08 4.08 0 0 0 1.85-4c-.3-1.24-1.29-.74-2.05-.81s-1.66-.2-2.08.16-.39 1.35-.5 2.06a3.67 3.67 0 0 0 .08.91H24a9.16 9.16 0 0 0 0-2.15c-.11-.44-.64-.78-1-1.16-.4.41-1.11.8-1.13 1.23a19.08 19.08 0 0 0 .39 3.34L24 84.31a2.09 2.09 0 0 0 .8 2.94 8.23 8.23 0 0 0 2.75.58l.12-.48A16.83 16.83 0 0 1 26.2 86a20 20 0 0 1-1.25-1.69zm115.72 0c.57 2 2.68 3.32 4.32 2.68l-2.36-2.71 1.35.3v-4.23l-2.28.83h-.23a14.19 14.19 0 0 0-2.51-.44 7.75 7.75 0 0 0-.38 1.72c0 .2 0 .4-.07.6H138a5.41 5.41 0 0 0 0-.93c-.1-.51-.16-1.39-.4-1.45a3.25 3.25 0 0 0-2 .17c-.22.11-.06 1.09 0 1.67a4.09 4.09 0 0 0 .27.88l-.92.07a2.93 2.93 0 0 0 0-1.13c-.3-.62-.66-1.58-1.14-1.67-1-.21-1.34.74-1.37 1.63v3.48l1.74-.94c.74 1.88 2.77 2.72 5.22 2.06l-.71-1.32 1.63-1.23zM122 7.32l-.3-.3.78-1.39 1.72 3c-.28.17-.75.29-.8.51a26 26 0 0 0-.39 2.69l2.46-.31-.34-2.12a.78.78 0 0 1 0-.15l1.58-.62a10.89 10.89 0 0 0-.28 2.12 1.28 1.28 0 0 0 .78.9c.34.09 1.12-.18 1.14-.35.1-1.16.05-2.34.05-3.86l-1.7 1.2V7.32c.6-.29 1.2-.57 1.78-.89 0 0-.15-.6-.23-.6a13.33 13.33 0 0 0-1.69.19c-.08 0-.14.14-.21.22l.37 1.1c-1.07-1.06-2-2.44-3.86-1.88a5.45 5.45 0 0 1-4.62-.23c-.47-.28-1.25 0-2.07 0 .47.67.78 1.14 1.12 1.59s.65.8 1 1.2l-1.14-.45-.31 3.94c2 .86 2.33.63 2.35-1.48v-.46h.93l.29.36.73 1.84c.44-.21 1.17-.33 1.26-.64a18.6 18.6 0 0 0 .53-3.35c-.03-.19-.64-.34-.93-.46zm-38.5-.94a4.39 4.39 0 0 0-3.35-1l2.71 2.93-1.51-.19v4.11l2.4-.58c.81.23 1.92.63 2.57.25s.51-1.56.74-2.39a1.48 1.48 0 0 1 .2 1c-.12 1.24.41 1.92 1.67 1.81 1.43-.12 1.16-1.1 1-2.07 0-.3.25-.66.39-1l.06.06v1.09c0 .89.26 1.88 1.33 1.63a2.4 2.4 0 0 0 1.29-1.8 14 14 0 0 0-.31-3.31l-1.28.85c-1.76-2.37-3.3-2.93-5.51-2zM6.5 69.6c-.79 1.05-1.86 2-1 3.68l1.65-1.49 1.42 1.16-1.1 1-1.26-.78c-.17.22-.45.42-.44.62a13.69 13.69 0 0 0 .2 1.68c.47-.36 1-.7 1.41-1.09.09-.07.05-.29.07-.45a16.19 16.19 0 0 0 2.31 1.55 1.57 1.57 0 0 0 1.46-.24 2.34 2.34 0 0 0 .37-1.64c0-.37-.54-.68-.83-1h.42l.26-2.47c-.67 0-1.34.07-2 .14a3.58 3.58 0 0 0-.72.23l.5-1.25H6.79c.63-1.14.31-1.63-1.25-1.88l2.1-2.61.16.16-.7 1.62c1.28-.15 2.29-.33 3.3-.38s1.25-.81 1.31-1.59c.07-1-.68-1-1.39-1s-1.46.23-1.34-.9a2 2 0 0 0 .76 0c.58-.28 1.12-.63 1.68-1a6.07 6.07 0 0 0-1.42-1.2c-.58-.26-1.35-.09-2-.32-1.1-.41-1.26.14-1.26 1l-1.52-.34 2.59-2.11v.51l3.92.93c-.29-1.21-.24-2.26-.67-2.51S9.7 57.86 9 58l-.62-1.57a6.28 6.28 0 0 1 1.39.05c1.69.44 1.63-.61 1.62-1.7-.2 0-5.59-.23-5.6-.19a3 3 0 0 0-.42 1.19A3.9 3.9 0 0 0 5.89 57c-1.35 2-1.25 4 .38 5.35l.53-1.25 1.89 1.26a19.42 19.42 0 0 0-3.35 2.42 1.69 1.69 0 0 0 .22 2.58c-.31 1.04-.61 2.04.94 2.24zm210 11.27l-.57.31c-.43-.2-1.07-.69-1.26-.56-.51.37-1.25 1.1-1.15 1.51.26 1.13-1.1 2.7.81 3.41l.07.08V87l1.84-.42c.37-.09.75.26 1.18.34 1.05.2 2.21.85 3.09-.41a1.62 1.62 0 0 0 2.3-.38l3.15 1.36.23-.49-1.89-2c1.64-1.24.73-2.85 1-4.61l-2.23.46h-.43c-2.33-.83-2.87-.52-3 1.72 0 .26-.06.51-.09.76h-.5v-.92c.02-2.06-.57-2.41-2.6-1.54zm-45 3.13a8.63 8.63 0 0 0-.09-2.14 1.52 1.52 0 0 0-1.08-.92 1.77 1.77 0 0 0-1.27.76c-.21.32-.06.89-.07 1.35l-.7.08a4.16 4.16 0 0 0 0-1c-.1-.51-.17-1.28-.49-1.43a2.32 2.32 0 0 0-1.75.06c-.71.32-.55 4.17.12 4.78v1.36a5 5 0 0 0 1.29-.07c.2-.06.3-.47.44-.72l-1.45-.52a1.25 1.25 0 0 0-.31 0l1-1.17c.57.67 1 1.16 1.43 1.7 1 1.38 2 1.46 3.38.28.18-.15.65-.08.93 0a3.27 3.27 0 0 1 .76.64l.95-1.51c.9.7 1.42 2.3 2.65 1.57v-3.53a9.31 9.31 0 0 0 .16-1.53 1.57 1.57 0 0 0-.67-1 1.14 1.14 0 0 0-1.09.17 1.73 1.73 0 0 0-.29 1.28 6.5 6.5 0 0 0 .69 1.37c.05.11 0 .28-.06.54l-1.38-.91v2.1l-.63-.36a32.4 32.4 0 0 0 .27-4 8.6 8.6 0 0 0-2-.36l-.55 3.13zm28.18.31l.76.11a12.14 12.14 0 0 0 .72-2.34c.05-.48-.34-1-.54-1.5-.5.36-1.16.63-1.45 1.12s-.09 1.11-.11 1.68h-.64a4 4 0 0 0 .23-1.5 2.2 2.2 0 0 0-.92-1.26c-.24-.14-1.11.16-1.15.37-.25 1.45-.36 2.93-.52 4.4l.4.08 1.26-1.47c.1 2.47 1.38 3.68 3.56 3.12-.26-.52-.47-1-.75-1.46s-.63-.91-.94-1.35zM78.17 86.83l-1.9-1.89 1.23.17a20.91 20.91 0 0 0 0-3 2.07 2.07 0 0 0-.93-1.38c-.4-.2-1.36-.07-1.52.22a2.78 2.78 0 0 0 0 1.72 7.32 7.32 0 0 0 .6 1.39l-1.33-.82c-.59 2.47 1.3 4.69 3.58 4.24.12 0 .16-.4.24-.61a5.64 5.64 0 0 1 .75.09c1.4.35 1.73.06 1.44-1.34.47.44 1 .86 1.41 1.31a2.4 2.4 0 0 0 3.26-.12c1.13.64 2.13.71 2.82-.62a11.25 11.25 0 0 0 1.05.55c.81.32 1.63.61 2.44.91l.11-.4-1.1-2L92.56 84a3.15 3.15 0 0 0 4.49 3l-2.63-2.41 1.7.55c.17-1.28.38-2.44.43-3.6a1.2 1.2 0 0 0-.73-.93c-.62 0-1.52 0-1.81.37a3 3 0 0 0-.2 2 7.3 7.3 0 0 0 .63 1.67c-.65-.16-.92-1.46-1.89-.63a9.14 9.14 0 0 0 .33-1.48 3.73 3.73 0 0 0-.17-1.71 1.3 1.3 0 0 0-1.23-.17 3 3 0 0 0-.77 1.54c-.19 1-.23 2-.34 3.07l-2.78-2.14c-.85.81-.85.81-.35 2.14-1.5-.3-2.34.29-2.19 1.57l-2.15-1.11c.37-.66.85-1.12.81-1.53a16.62 16.62 0 0 0-.71-3.51c0-.15-1.11-.15-1.56.07-.22.11-.19.88-.14 1.34a9.57 9.57 0 0 0 .36 1.46l-1.66.13c.2-.47.6-1 .54-1.41a2.22 2.22 0 0 0-.85-1.58 1.86 1.86 0 0 0-1.72.44c-.65.82 0 3 .91 3.77L80 83.68l.31 1.9c-1.43-.52-1.88-.26-2.14 1.25zm23.46-1.89c.91-.51 1.45-3.43.68-4a1.37 1.37 0 0 0-1.25-.09 1.53 1.53 0 0 0-.69 2.24c.3.54.64 1.06 1 1.58L99.12 84a11.32 11.32 0 0 0 .53-2.23c0-.37-.43-1-.73-1.08-.51-.07-1.4.11-1.55.43a5.47 5.47 0 0 0 0 4.36L99.14 84a3 3 0 0 0 4 3.18zM228.08 5.76h-2L226.2 7l-1.52-1.36c-.88-.8-2.58-.74-2.86.11-1.21-.17-2.59-1.14-3.3.85-1.07-.83-1.95-2.15-3.65-1.17a17.58 17.58 0 0 1 1.32 1.43c.55.75 1 1.55 1.55 2.33l-1.3-.68a19.36 19.36 0 0 0 0 2.41 1.45 1.45 0 0 0 .61 1 1.46 1.46 0 0 0 1.3-.14c.22-.2.12-.85 0-1.26a8 8 0 0 0-.66-1.37h1.89c-.07.5-.37 1.13-.17 1.49A3.48 3.48 0 0 0 221 12.1c.3.14 1.3-.4 1.3-.63 0-1.37-.21-2.74-.34-4.1l-.72-.37-1.62 2.18-.15-1.8c1.38.27 2-.55 2.34-1.66l1.92 1.54-.13.13a4.49 4.49 0 0 0-.7.12 24.28 24.28 0 0 0 .23 3.93c0 .26 1.11.34 1.71.5a4.14 4.14 0 0 0 .32-1.34 19.6 19.6 0 0 0-.52-2.37l.72 1c1.39-.61 1-1.48.84-2.29 1.12.61 1.86.3 2.19-.94l1.26 1.27c-.82.73-1 3.74-.19 4.3a2.71 2.71 0 0 0 1.74.24c.18 0 .36-.78.35-1.2a11 11 0 0 0-.34-1.79l.9.52c.47-1.4-.53-3.84-1.8-4.13-.73-.11-1.74-.64-2.23.55zm-185 77.93l-1.23.31a3.84 3.84 0 0 0 .24-1.49 7.41 7.41 0 0 0-.92-1.68c-.49.43-1.25.78-1.4 1.3a6.94 6.94 0 0 0-.08 2.75c0 .36.6.66.92 1l-1 1.2-1.88-2.14.89.19c.15-1 .33-1.87.41-2.78 0-.51.06-1.44-.1-1.48a2.75 2.75 0 0 0-1.89.06c-.32.18-.34 1-.32 1.6a6.48 6.48 0 0 0 .39 1.5l-1.58-.31.58-2.72c-1.85-.76-2.61-.3-2.68 1.47a9.61 9.61 0 0 0 0 2.17c.07.34.59.59.9.88l-.33 1.3-2-1.56h.42c.2-1.36.42-2.73.59-4.09 0-.1-.3-.34-.47-.34a4.15 4.15 0 0 0-1.89.1c-.35.18-.55 1-.53 1.46a4.59 4.59 0 0 0 .41 1.42c-.38.76-.93 1.4-.79 1.66.44.82 1 1.85 1.79 2.12s2.09.78 2.86-.44c.73 0 1.61.31 1.57-.94 1.05.94 2.1 2.12 3.68 1.5 1-.38 2.66.09 2.58-1.82.32.31.63.64 1 .93a2.81 2.81 0 0 0 3.2.65c-.66-.69-1.24-1.26-1.76-1.87s-1-1.26-1.48-1.9l2.09 1.3.19-4c-2.58-.35-2.84-.08-2.34 2.25a2 2 0 0 1-.01.44zm189 2.18l-1.27-1.25a2.08 2.08 0 0 0 1.7-3.19 1.46 1.46 0 0 0-2.22-.64c-.41.24-.5 1.16-.56 1.78 0 .36.3.74.47 1.12h-1.58A15.68 15.68 0 0 0 229 82a1.23 1.23 0 0 0-1.59-1.38 2.25 2.25 0 0 0-1.58 1.14 7.52 7.52 0 0 0 .08 2.59c.17 2.08 1.08 2.7 2.79 1.84l-.29-1.31c.39.33 1 .6 1.12 1 .31.76.58 1.38 1.56 1.22.78-.13 1.55-.23 2.33-.35l.4-.06 5.28.38-.37-1H240c.24.31.61.92.68.89a23.27 23.27 0 0 0 2.12-1.2 2.67 2.67 0 0 0 3.52 1l-1.4-1.76.14-.13c1.86-.34 1-1.84 1.08-2.83a1.87 1.87 0 0 0-1.23-1.38c-1.8-.12-1.36 1.51-1.6 2.54l-1.16-.13a2.4 2.4 0 0 0 .31-.53c.14-.5.44-1.37.31-1.44a3.22 3.22 0 0 0-1.84-.47 1.7 1.7 0 0 0-1.17 1c-.44 1.5-.7 3.06-1 4.6l-1-1.27c.31-.34.79-.63.9-1a30.87 30.87 0 0 0 .56-3.17 7.1 7.1 0 0 0-2.27.09c-.23.08-.12 1.16-.15 1.79v1.08l-1.27-.62c.19-2.52-.3-3-2.11-2.36l-1 4.85zm29.8-78.54c-.3.26-.82.5-.85.78-.1 1.16 0 2.33 0 3.8l2.37-.54c-.21-.91-.35-1.83-.64-2.71a6.3 6.3 0 0 0-.86-1.34L264 9l.75-.8a15.79 15.79 0 0 0-.29 2.42c0 1 .95 1.49 1.56.9a4.49 4.49 0 0 0 .86-2.6c.09-.81.49-1.95-.89-2.25l.41-1.13.52-.42 1.38 2-.18.22c-.17.24-.44.46-.49.72a12.69 12.69 0 0 0-.24 2.15c0 .52 0 1.42.23 1.48a2.79 2.79 0 0 0 1.88-.11c.27-.13.27-1 .26-1.46a2.62 2.62 0 0 0-.22-.89c.62-.6 1.19-.9 1.32-1.33.26-.88-1.27-3.1-2.16-3.06-1.46.07-2.91.4-4.7.67L265.64 7l-1 1.26c-.57-2.55-2.64-4-4.32-3zm-153.06.94l.25-1.2c-.57-.51-1.08-.93-1.55-1.39a1.38 1.38 0 0 0-2.44.41l-1.75-.5-.14 1.74c-.23-.27-.48-.52-.7-.81a3.59 3.59 0 0 0-5.75.24c-1.12-1.7-2-2-3.92-1.1l1.92 1.66-1-.13v3.42a5.52 5.52 0 0 0 .42 1.33c.55-.28 1.45-.45 1.56-.85a8.31 8.31 0 0 0 0-2.53c.41.15 1.11.27 1.12.44.13 1.15-1 2.71.81 2.92s1-1.46 1.15-2.38l.66-3.39.53.05c.11.31.38.83.29.91-1.23 1-.63 2.4-.88 3.61s.43 1.35 1.31 1.2a5.58 5.58 0 0 0 1.29-.52h.24c1.75 1 2.45.72 2.77-1.18a5.86 5.86 0 0 0 .06-2c-.06-.34-.58-.59-.9-.88l.95-1.26L106.65 8c-.43 1-.91 1.93-1.25 2.93-.1.28.21 1 .37 1 .41 0 1.14-.15 1.2-.38a16.46 16.46 0 0 0 .29-2.63l1 .31c-.09.35-.34.76-.24 1a13 13 0 0 0 1 1.8c.45-.46 1.18-.86 1.28-1.38a19.37 19.37 0 0 0 .06-3.45zM50.61 84.93l1.2.56a27.21 27.21 0 0 0 0-3.27c-.06-.47-.56-.89-.86-1.34-.48.37-1.31.7-1.35 1.11a10 10 0 0 0 .4 2.65l-1.58.31a13.45 13.45 0 0 0 .27-2.89 1.7 1.7 0 0 0-1.21-1.14c-.39 0-1.13.65-1.2 1.1a16.48 16.48 0 0 0 0 3.37c0 .93.6 1 1.26.54a7 7 0 0 0 .94-1c.91 2.63 2 3.24 4.47 2.54zM286 6.69c.34.25.66.52 1 .75s.83.52 1.25.77c.29-.53.87-1.09.83-1.59-.14-1.82-2-2.44-3.77-1.38L286 6.7l-1-.15.49 4.81c1.19-.59 1.64-1.34 1.19-2.54-.24-.69-.46-1.41-.68-2.13zM20.58 86.2a9.16 9.16 0 0 0-1-1 11.9 11.9 0 0 0-1.39-.77c-.25.59-.8 1.24-.7 1.76.34 1.76 1.69 2.15 3.79 1.2l-.67-1.18c.65 0 1-.2.88-1-.26-1.27-.42-2.57-.63-3.92a1.77 1.77 0 0 0-1.08 2.36c.22.83.52 1.68.8 2.55zM59.38 7c.09-.66.41-1.51-.71-1.49-.39 0-.77.47-1.15.73l1.58.69a1.34 1.34 0 0 0 .3.05l-2.22 2.54C58.24 8 57.29 7 56.44 5.9a2.15 2.15 0 0 0-3 .15v.33c-1.06-.56-2.14-1.5-2.82-.12L48 5.35l-.27.54 2.67 3.2 1.08-1.83a35.06 35.06 0 0 0-.33 4.16 10.39 10.39 0 0 0 2.14.38l.22-2.27H54V10c0 .76-.14 1.65 1.05 1.7s1.45-.56 1.56-1.53c0-.24.38-.44.59-.66-.08.45-.32 1-.19 1.34s.62 1.09 1 1.12c.54 0 1.59-.37 1.6-.63A38.27 38.27 0 0 0 59.38 7zm-5.62 78.87c-.46.68-.46 1.35.41 1.56s1.44-.29 1.46-1.25c.43.28.88.53 1.29.84a3.84 3.84 0 0 0 5.2-1.02c1.15 1.27 2.37 2.42 4.43 1.19l-5.43-3.79.15 1.84H60a7.83 7.83 0 0 0 .83-1.79 4.07 4.07 0 0 0-.09-2.16c-.14-.36-.94-.54-1.47-.63-.2 0-.6.37-.71.65-.39 1 .46 3.22 1.45 3.93l-.76 1.54-1.94-1.42h1.19a16.45 16.45 0 0 0-.5-3.24c-.18-.5-1-.76-1.53-1.13a8.43 8.43 0 0 0-.63 1.5 2.68 2.68 0 0 0 .22 1l-.19.22c-1.62.33-.53 1.38-.55 2.12h-1.58a14.36 14.36 0 0 0 .7-1.68 5.06 5.06 0 0 0 .37-2.2c-.09-.45-.89-.75-1.37-1.12-.32.43-.83.83-.93 1.31a4.25 4.25 0 0 0 .06 2.14 5.8 5.8 0 0 0 1.19 1.59zm199-79.17c.37-.67.47-1.32-.45-1.53s-1.5.15-1.41 1.21a7 7 0 0 1-1.06-.6 4 4 0 0 0-5.52.71c-2.74-1.95-2.74-1.95-4.16-1.13L241.54 7c-1.77.1-1.72 1.71-2.19 2.79a2.16 2.16 0 0 0 .18 1.79 1.54 1.54 0 0 0 1.51.29 2.37 2.37 0 0 0 .75-1.64 25.27 25.27 0 0 0-.26-3.23l2.2 1.26-1-.05a11.19 11.19 0 0 0-.26 2 2.71 2.71 0 0 0 .5 1.61 1.41 1.41 0 0 0 1.35-.19 2.69 2.69 0 0 0 .14-1.7 7.88 7.88 0 0 0-.72-1.66l1.47.72c.12-.94 0-2 1.36-1.66a14.52 14.52 0 0 0-1.18 2.67 2.05 2.05 0 0 0 .65 1.56c.28.28 1.22.4 1.37.21a2.15 2.15 0 0 0 .45-1.65 18 18 0 0 0-1.33-2.78l.56-1.71c.43.52.92.84 1 1.24.22 1.23.15 2.53.45 3.73.11.43 1 .67 1.49 1 .19-.56.6-1.16.53-1.68a7.15 7.15 0 0 0-.93-1.92l1.18.89c1.33-.86 0-1.65.05-2.45l1.89.32a31.4 31.4 0 0 0-1.2 3.6c-.08.36.44 1 .85 1.27a1.39 1.39 0 0 0 1.27-.14c1-.8.33-4.17-.88-4.79zm-72.29 5l2.5-.31h.28c2 .93 2.68.56 2.83-1.51a5.12 5.12 0 0 0 0-1.7c-.1-.35-.6-.57-.93-.86l1-1.07c-1.39-1.2-1.85-1.08-2.24.45l-.91-1a1.9 1.9 0 0 0-2.84 0l-1.85.32.43.35-.47 2.15c0-2.64-1.81-4-4.1-3L175.5 7c-.22.39-.59.77-.63 1.18-.09 1.12 0 2.25 0 3.42 1.47.58 2.32 0 2.21-1.62a10.15 10.15 0 0 0-.38-1.66l.14-.14 1.2.68a5.53 5.53 0 0 0-.15 1.35c.07.55.16 1.31.52 1.54s1-.21 1.55-.35zM45.3 8.88a5.84 5.84 0 0 0-.1 1.68 1.55 1.55 0 0 0 .86 1c.34.09 1.14-.28 1.17-.52a34.7 34.7 0 0 0 .06-3.71L45.6 8.59V7.32l2.09-.77c-1.42-1.33-1.91-1.24-2.7.16a4.26 4.26 0 0 0-4.41-1.15c-.71.28-1.29.7-.28 1.53l.39-.58.59-.9 1.84 3c-1.84.45-.57 2-1.18 3.09a3.8 3.8 0 0 0 2.35-.26c.24-.15-.14-1.24-.24-1.91zM260.93 84a9.25 9.25 0 0 0 .26-2.13 1.43 1.43 0 0 0-.93-.92c-.3-.08-1 .28-1.05.5-.11 1.12-.05 2.26-.05 3.75l1.78-1.2v1.27c-.3 0-.68-.08-.9.07a2.88 2.88 0 0 0-.88 1c-.05.09.33.62.53.62.42 0 1 0 1.22-.31s0-.89 0-1.35a5.32 5.32 0 0 1 .66.62 4 4 0 0 0 4.68.94 1.57 1.57 0 0 0 .52-.69c0-.07-.27-.42-.38-.4a1.47 1.47 0 0 0-.7.39 1.61 1.61 0 0 0-.24.57l-.53-.08-1.2-2.29 1.15-3.66-2.77.46.38 2zm13.15 1.55c.18.07.42.1.54.23a4.43 4.43 0 0 0 5.61.52c.09-.08.08-.29.11-.44a3.57 3.57 0 0 0 4.38.94l2-.07-.5-2.36a5.35 5.35 0 0 0 .63-1.24c.29-1.13.23-2.21-1.11-2.67-.92-.32-1.3-.09-1.19 1 .17 1.77.14 3.56.2 5.33L283.23 85a5.36 5.36 0 0 0 .86-1.41 4.86 4.86 0 0 0 0-1.86 6.92 6.92 0 0 0-.62-1.43c-.65.35-1.55.54-1.9 1.09a22.61 22.61 0 0 0-1.51 3.5l-2.84 1-.93-1c.31-.23.86-.43.9-.7a9 9 0 0 0 0-2.46c-.16-1.16-1.11-1.3-2-1.12-1.07.22-.72 1-.5 1.73.11.34.23.67.35 1l-1.3-.23.37 2.42-1.25-.68-.94 1.62-3.08-2.12.25-.33 2.23 1.16a23.59 23.59 0 0 0-.59-3.94c-.12-.38-1.11-.66-1.69-.65-.29 0-.65.73-.82 1.19a3.91 3.91 0 0 0-.06 1.23c-.28.5-.93 1.2-.79 1.46a6.29 6.29 0 0 0 1.94 2.33c.74.47 1.88.88 2.58-.35 1.82.82 2.03.73 2.19-.89zm-167.74-2.17l-1.27-.31.56-2.2c-.7 0-1.8-.14-1.85 0a37.1 37.1 0 0 0-.77 4l1.45-.29-.84 2.11 1.09-.09 4.18 1 .27-.64a18.41 18.41 0 0 1-1.78-1.55 6.32 6.32 0 0 1-.75-1.41l1.49 1.12.54-4.07c-2.34-.4-2.41-.35-2.35 1.73.02.22.02.39.03.6zm176.5-75.74c-.16-2.36-1.52-3.24-4.1-2.47l2.07 1.66-.68.16-.65 4.91c.74-.27 1.56-.34 1.68-.66a16.56 16.56 0 0 0 .52-3h.88a7.47 7.47 0 0 0 0 2.12c.12.46.74.78 1.13 1.16.36-.44 1-.86 1-1.32a16.16 16.16 0 0 0-.37-3zm-75.41.93a11.59 11.59 0 0 0-.57 2.23c0 .37.41 1.06.69 1.09.51.05 1.48-.21 1.52-.47a36.61 36.61 0 0 0 .3-4.07l-.49-.07-1.46 1.3c-.08-2.36-1.67-3.64-4.18-3.28.26.36.49.69.73 1s.58.7.87 1c-.71.7-1.34 3.32-.92 4a1.28 1.28 0 0 0 1 .57c.4 0 1-.39 1.08-.68a6.86 6.86 0 0 0-.18-2.19 2.75 2.75 0 0 0-.5-.85zm-18.22.56l.14.14c-.09.35-.34.76-.24 1 .21.6.47 1.42.94 1.63.9.4 1.32-.38 1.37-1.17.07-1.14 0-2.29 0-3.67L190 8.35c-.58-2.66-1.71-3.55-3.72-2.73L187.71 8a22.07 22.07 0 0 0-1.21 2.75c-.1.33.35.82.54 1.23.43-.21 1.1-.33 1.25-.67a7.88 7.88 0 0 0 .35-2.07zm68.61-.87a10.55 10.55 0 0 0 0 2.59 1.69 1.69 0 0 0 1.35.83c.36 0 .86-.59 1-1a3 3 0 0 0 .06-1.54c-.15-.91-.4-1.8-.61-2.7l-1.9 1.87a2.92 2.92 0 0 0-4.38-3.07L255.31 7c-.25.2-.72.4-.72.61a13.73 13.73 0 0 0 .17 2.94c.08.42.6 1 .93 1s1.12-.5 1.15-.84a13.66 13.66 0 0 0-.2-2.68zm-139 76.38l-1.94-1.15c.17-.48.56-1.05.48-1.55a2.1 2.1 0 0 0-1-1.31 1.37 1.37 0 0 0-1.18.59 26.57 26.57 0 0 0-.37 3.69c0 .17.32.54.45.52 1.31-.16 1.84.87 2.67 1.53.49.38 1.34.31 2.45.52l-1.59-2.85a11.75 11.75 0 0 0 1.08-2.39c.1-.48-.35-1.07-.55-1.61-.49.44-1.39.9-1.37 1.31a10 10 0 0 0 .91 2.7zM301.3 25.17c.46-1.75.19-2.16-1.25-1.88.17-.29.27-.69.52-.85 1.45-.93 1.32-2.16.77-3.5l-.1-.1a2.23 2.23 0 0 0 .07-.77 3.38 3.38 0 0 1 .18-2.77c.3-.57.88-2-.52-2.65.39-.69 1.21-1.43.24-2.12-.26-.18-1.09.47-1.67.74a.83.83 0 0 1-.3 0c-1.09-.85-2.24-1.72-3.62-.71a1.43 1.43 0 0 0-.21 2.22 4.33 4.33 0 0 1 1.07-.28c1.5 0 3 .07 4.51.11L299.57 14c-1-1.55-2.19-1.05-3.34-.78-.43.1-1.14.45-1.13.65 0 .57.23 1.44.62 1.62A41.32 41.32 0 0 0 300 17l.1.1-.85 1.39a15.42 15.42 0 0 0-1.92-1.32c-.4-.2-1.13-.32-1.39-.1a2.45 2.45 0 0 0-.76 1.57c0 .41.46.86.71 1.29h-.34l-.13 2.53 2.4-.34a1.66 1.66 0 0 0 .29-.1l.19.22-.73 1.11h2.5c-.67 1.13-.35 1.61 1.25 1.88L299.23 28l-.34-.28.83-1.79a14.69 14.69 0 0 0-3.58.53c-.5.21-1.1 1.55-.89 1.89.7 1.08 2.57.17 3.3 1.6a2.47 2.47 0 0 0 1-.37 7.65 7.65 0 0 0 1.73-1.53c.72-.89 1.03-1.93.02-2.88zM34.34 5.75l2.89 2.43-.11.12-1.88-.87a17.08 17.08 0 0 0 .42 3.38A2.38 2.38 0 0 0 37.15 12c.83.24 1.09-.36 1.25-1.16a7.79 7.79 0 0 1 1-1.93 3.66 3.66 0 0 1-.1 1c-.35.85-.1 1.49.72 1.72 1 .28 1.37-.46 1.52-1.3a18.78 18.78 0 0 0 .31-2.43c0-.28-.3-.58-.43-.82l-2 1.79c-.57-2.54-2.71-4.37-5-3.13-1.09-.28-2.13-.48-1.88 1.25a27.2 27.2 0 0 0-5.09-1.23c-.85 0-1.27.35-1.17 1.23a3.06 3.06 0 0 0-3.13-1.56c-.84.09-1.69 0-2.54 0s-1.09.71-.76 1.45A5.59 5.59 0 0 0 20.74 8l-1.11.56c-1-2.34-2.41-3.1-4.79-2.67l.17.6a9.32 9.32 0 0 0-2.29-.74c-2-.11-4-.08-6 0-.47 0-1.32.35-1.33.57a5.18 5.18 0 0 0 .46 2c.09.25.44.4.67.59l-1.24.17-.05.59 3.8.71-.33-.86a11.84 11.84 0 0 1 1.5.68c2.72 1.7 5.7 1.91 8.93 1.74l-1-1.78.28-.31h.32l.27-.39.66-.89a8.36 8.36 0 0 0 .11 2.69c.18.48 1.13.67 1.73 1a9 9 0 0 0 .32-1.55V6.42l.55-.1a5.71 5.71 0 0 1 .43 1.61c0 1-.32 1.92-.36 2.88 0 .67-.11 1.68 1.07 1.37.86-.22 1.9-.49 1.51-1.85-.05-.18.14-.44.22-.66L26.2 7c1.12 1.08 1.91.33 2.71-.54l1 .76-.5.05c0 1.27-.07 2.54 0 3.8 0 .32.57.74 1 .86 1.34.41 1.64-.12 1.36-2.29l.17-.18c.26-.32.68-.61.75-1A4.88 4.88 0 0 0 32.46 7l1.17.49zm241 2.19l1.08.45c.88-1.08.31-1.86-.34-2.66-1.08-1.35-2.42-.87-4-.73.58.62.94 1 1.34 1.42s.9.82 1.36 1.22c-.77-.07-1 .33-.95 1a14.85 14.85 0 0 1-.22 2h-.52V7a4.77 4.77 0 0 0-2.56 3.62c-.15 1 .56 1.69 1.53 1.3a5.64 5.64 0 0 0 1-.7c.21.15.42.42.63.43.76 0 2 .27 2.2-.09a4.23 4.23 0 0 0 .11-2.47c-.06-.41-.45-.77-.67-1.15zm-37.26 1.27c.31-.4.92-.85.87-1.2A3.48 3.48 0 0 0 234 5.45l-1.85.37.73 1.59.59-.07.53-1.9 2.89 2.45-.17.17-1.82-.96a23.78 23.78 0 0 0 .56 4.1c.13.42 1.15.69 1.79.75.23 0 .63-.75.77-1.22a6.25 6.25 0 0 0 .08-1.55zm-50.69 74.17l-1.26-.31c0-.26.12-.57 0-.76a15.71 15.71 0 0 0-1-1.42c-.4.43-1 .79-1.15 1.3a24.24 24.24 0 0 0-.53 3.39 7.51 7.51 0 0 0 1.38-.85 20 20 0 0 0 1.32-1.66l-1.63 3.63c-1.16-1.07-2-1.84-2.88-2.67-.62-.61-1.17-.68-1.76 0a8.26 8.26 0 0 0 .22-2 1.43 1.43 0 0 0-.83-1c-.34-.08-1.12.3-1.15.54a33.21 33.21 0 0 0-.06 3.66l1.83-1.23c-.11 1.32 1.13 3.13 2.3 3.11s2.58-.26 4.3-.45a3.74 3.74 0 0 0 3.9.46 9.54 9.54 0 0 0-1.83-1.64 1.94 1.94 0 0 1-1.18-2.11l2 2.11.32-4.4c-2.1-.8-2.37-.61-2.32 1.54.02.25.01.5.01.76zm112.66-52l1.51.38-2.76 2.14c-.58-1.93-2.12-.89-3.65-1.44l.58 2.56 2.14-.5.34 1.63a5.42 5.42 0 0 0-1.71-.15 1.58 1.58 0 0 0-1 .91c-.09.27.31 1 .54 1 1.09.11 2.2 0 3.5 0L299 36.5l.34-.19a8.54 8.54 0 0 0 .86 1.22c.22.22.77.48.88.39.27-.24.59-.78.48-1a4.66 4.66 0 0 0-1.1-1.06l-.11-.11a3.37 3.37 0 0 0 1.29-4.3 4.11 4.11 0 0 0-.78-1l-.77 1a23.57 23.57 0 0 0-2.56-1.33 2.44 2.44 0 0 0-1.57 0c-.25.09-.57.8-.45 1a2.42 2.42 0 0 0 1.18 1c.67.22 1.45.11 2.11.35 1.07.35 1.2-.2 1.25-1.06zM72.14 86.89l-2.78-2.55.05-.05 1.7 1 .47-.16a24.64 24.64 0 0 0-.72-3.95c-.12-.35-1.23-.43-1.89-.49-.32 0-1.44 4.05-1.26 4.39l.08.13a3.75 3.75 0 0 0 4.86 2.17 13.06 13.06 0 0 0 1.68-.72l-1-1.82-1 2zM202.19 8l-.19-.1c-.19-2.1-2.18-3.19-5.05-1.94l2 1.29-.21.19c-.25.22-.68.41-.71.66-.13 1.12-.15 2.24-.22 3.37 2.27.76 2.27.76 2.37-2h1.26l-.76 2.37c.81 0 1.89.08 1.95-.12a37.42 37.42 0 0 0 .83-4.19zM18.07 82.74l.69-1.26-.21-.37c-2.89.92-6.26.19-8.63 2.86.13-1-.24-1.39-1.22-1.15a14.06 14.06 0 0 0-2.25.63 1.54 1.54 0 0 0-.86 1 31.3 31.3 0 0 0 0 3.3H10c.48 0 1.3-.27 1.36-.54.27-1.33 1.2-1 2-1l-1.1 1.45c1.63.52 2.12-.44 2.52-1.7h-.81c1.32-.74 2.66-1.46 3.95-2.25.16-.16 1.38-.52.15-.97zm276.9 4h.48c1.5 0 3 0 4.49.1 1 .06 1.38-.49 1.28-1.28a7 7 0 0 0-.81-1.82l.89-.44c-1.32-.7-2.55-1.43-4-.65l-.18.17a14.43 14.43 0 0 0-9.59-2.16l.92 2.39c-1.6-.48-1.07 1-1.57 1.49.58.48 1.33.79 1.47 1.27.33 1.15 1.12 1.1 1.95 1s1.39-.36 2.08-.37a19.85 19.85 0 0 1 2.62.32zm-40.23-10.2c.35-.1.7-.18 1-.31l29-11.53 7-2.8v-.48l-34.63-13.59-.28.39 3.81 8.19c-1.62.12-3 .28-4.41.31-7.76.12-15.53.24-23.29.28q-31.28.19-62.57.32-30 .15-60.07.31c-9.18 0-18.36 0-27.54.06a1.87 1.87 0 0 1-1.87-1c-1.85-3-3.85-5.82-5.76-8.74a1.52 1.52 0 0 0-1.81-.74c-1.58.28-3.21.31-4.81.5s-3 .4-4.68.64l6.51 9.36h-12.5A2 2 0 0 1 56.6 57c-2.29-2.7-4.52-5.45-6.8-8.15-.3-.35-.87-.83-1.2-.75-3 .71-6 1.53-9.17 2.37l5.3 7.27H33.92a2.88 2.88 0 0 1-1.83-.88C30 54.53 28 52.18 26 49.9c-.39-.43-1.08-1-1.45-.94-2.72.76-5.4 1.68-8.37 2.64l5.61 6.48h-7.37V68h9.65l.32.52-8.54 8.22c3.46.23 6.61.46 9.77.61a2 2 0 0 0 1.34-.6c1.93-2 3.88-3.94 5.68-6 1.66-1.93 3.37-3.44 6.19-3a24.57 24.57 0 0 0 4.22 0c1.21 0 2.42-.16 4-.27l-8.83 11c3.15.33 5.93.64 8.73.87a1.73 1.73 0 0 0 1.2-.54c3.36-3.55 6.67-7.16 10.05-10.7a2.87 2.87 0 0 1 1.8-.93c3.18-.08 6.36 0 9.54 0a10.77 10.77 0 0 1 1.42.24l-6.49 8.2c3.05.86 5.9 1.69 8.76 2.43a1.67 1.67 0 0 0 1.43-.3q3.51-4.58 6.87-9.29a2.66 2.66 0 0 1 2.4-1.35q28.55-.11 57.07-.26c9.8-.06 19.6-.2 29.4-.31l26.11-.31 25.17-.31c10.89-.12 21.79-.26 32.68-.33 2.15 0 4.3.25 6.68.39l-1.38 2.19-5.12 8.19-.35.28zm-50.4-38c4.06-4.21 7.85-8.23 11.75-12.14 2.54-2.54 5.24-4.92 7.89-7.35 2.2-2 1.76-4.74-1.13-5.48a21.59 21.59 0 0 0-5.72-.21 7 7 0 0 0-5.43 2.27c-5.23 5.94-10.59 11.77-15.74 17.77a3.61 3.61 0 0 1-4.4 1.13c-2.9-.91-5.79-1.85-8.87-2.84.13-.34.32-.91.57-1.45 1.94-4.21 3.87-8.43 5.87-12.61a1.88 1.88 0 0 0-.4-2.37c-2.28-2.51-7.82-2.36-9.75.42a34.09 34.09 0 0 0-2.88 5.34c-1.1 2.41-2.07 4.88-3 7.36a2.44 2.44 0 0 1-2.39 1.65 14.61 14.61 0 0 1-2.64-.08c-1.8-.23-3.59-.63-5.4-.77-1.12-.09-1.58-.43-1.57-1.58 0-2.71.07-5.43-.07-8.13a8.32 8.32 0 0 0-.87-4c-1.18-1.8-4.18-2.17-6.61-1.26-2 .74-3.09 2.46-3.1 4.94v8.45c0 1-.24 1.54-1.35 1.6-3.06.16-6.12.44-9.18.56a1.71 1.71 0 0 1-1.23-1c-1.33-3.83-2.64-7.68-3.79-11.57a3.74 3.74 0 0 0-3-3 27.11 27.11 0 0 0-6.36-.3c-2.93.27-4.12 2.63-3 5.35 1.67 4 3.35 7.95 5.11 12.11a19.23 19.23 0 0 1-2.52 1.23c-2.92.94-5.85 1.85-8.81 2.62a2.2 2.2 0 0 1-1.77-.73c-.91-1.07-1.51-2.38-2.42-3.45-4-4.68-8.08-9.26-12-14a7.66 7.66 0 0 0-4.66-2.85A14.54 14.54 0 0 0 92.5 14a12.24 12.24 0 0 0-2.92.41c-2.55.7-3.14 3.18-1.29 5.05s3.6 3.61 5.28 5.52c3.58 4.06 7.06 8.21 10.63 12.28a5.44 5.44 0 0 0 1.63.88l-.39.92c-2.91 1.36-5.93 2.53-8.7 4.13-2.39 1.38-4.1.85-6.18-.64-8.2-5.9-16.5-11.68-24.83-17.4a10 10 0 0 0-4-1.47c-3.17-.49-6 1.5-6.21 4.24a5.49 5.49 0 0 0 2.86 5.33c1.81 1.13 3.67 2.19 5.43 3.39C72.2 42.34 80.63 48 89 53.83c2.37 1.65 4.48 1.23 6.67 0 1.71-1 3.26-2.29 5-3.15A124.54 124.54 0 0 1 148.9 37.8c12-.66 24-.07 35.6 3.36 10.43 3.08 21 6 30.19 12.08 2.55 1.68 5 1.35 7.41-.33s4.71-3.23 7.1-4.79c8.9-5.81 17.79-11.65 26.74-17.38 1.84-1.18 2-2.72 1.82-4.58a3.9 3.9 0 0 0-3.12-3.48c-2.81-.83-5.32 0-7.68 1.53q-8.78 5.84-17.58 11.66-6.12 4.05-12.27 8.06a1.79 1.79 0 0 1-1.38.33c-3.81-1.82-7.57-3.74-11.39-5.66zm88-33.46l-3-.39.49 2L291.4 6l.67.87c-1.94 1-4.26 1.49-4.36 4.41a8 8 0 0 0 1.62-.11c.48-.13 1-.78 1.35-.66 2.23.79 3.79-.47 5.39-1.6a3.31 3.31 0 0 0 4.09-.08c1.23-1 .83-2.58.74-4.09-1.6 0-3.05-.06-4.5 0a3.66 3.66 0 0 0-1.5.68c-.66.41-1.28.88-1.92 1.33l-.25-.38 1.53-1.19-.34-.54zm-177.78 3.4c-.27-2.56-1.41-3.55-3.5-3L112 7c-1.19.84-1.21.93-1.06 5 .59-.09 1.38 0 1.7-.3 1.3-1.33.3-2.74.05-4.23l1.82 1.93-1 2.89c1.18-.36 2.55-.45 2.68-.89a15.94 15.94 0 0 0 .11-4zm94.66-3.08c1.79 1.21.92 2.79.91 4.23a5.3 5.3 0 0 1-.19.91c-.2 1.09.27 1.52 1.35 1.49 1.6 0 2-.89 1.71-2.53a2 2 0 0 0 .84-1.5 2.89 2.89 0 0 0-.84-1.68 3.28 3.28 0 0 0-3.78-.92zM7.07 78.72c1 1.17 2.27 1 3.53.63a5.15 5.15 0 0 0 1.21-.8 10.22 10.22 0 0 0-1.25-1.73c-.28-.26-1-.06-1.28-.3a2.48 2.48 0 0 0-3.37-.2c-1.21 1-.62 2.29-.56 3.74zm103.74 5c0 2.83 1.41 4.14 3.56 3.35L110.79 83l.88-2-.28-.46c-.72.18-1.69.14-2.11.6-.81.89-.47 2.92.44 3.86zM193 80.91l-.19-.41c-.8.15-2.13.09-2.31.51a3.85 3.85 0 0 0 .19 4l1.3-1.17c.24 2.78 1.3 3.78 3.43 3.3-.68-2.14-4.74-2.91-2.42-6.23zm1.68-69.26l.27.38c.76-.13 2 0 2.2-.43a5.39 5.39 0 0 0 0-4.15l-1.55 1.19c-.13-2.64-1.24-3.64-3.4-3.25.6 2.18 4.8 2.92 2.44 6.26zM12.05 79.83c-1.5.17-2.45.31-3.42.37s-1.74-.05-2.6.06c-.29 0-.65.48-.75.8a1 1 0 0 0 .28.94 1.21 1.21 0 0 0 1 0 3.94 3.94 0 0 0 .9-.82C8.59 82 9.71 83 11.08 82c.49-.39.59-1.28.97-2.17zm53 5.79c1.38-.66 2.73-3.15 2.26-4.07a2.11 2.11 0 0 0-1.56-.89c-.33 0-1 .73-1 1.15a31.54 31.54 0 0 0 .25 3.81zM84.54 85c1.42-.35 2.89-2.57 2.29-3.72-.24-.45-1.15-.68-1.78-.75-.27 0-.87.61-.87.94a34.49 34.49 0 0 0 .36 3.53zM228.18 7.69l-.65-.06a16.81 16.81 0 0 0-1.53 2.48 1.62 1.62 0 0 0 .34 1.5 2.2 2.2 0 0 0 1.7.29c.29-.07.6-.83.58-1.26a25.17 25.17 0 0 0-.44-2.95zM114.31 85.38a33.81 33.81 0 0 0 .12-3.57c0-.42-.54-1.14-.8-1.13a1.74 1.74 0 0 0-1.27.82c-.7 1.43-.12 2.68 1.95 3.88zM28.48 7.93l-.67-.1a14.94 14.94 0 0 0-1.51 2.26 1.27 1.27 0 0 0 1 1.88c1 .21 1.7-.24 1.67-1.28a17.76 17.76 0 0 0-.49-2.76zm250.08 76.89a12.58 12.58 0 0 0 1.63-2.6c.13-.38-.5-1.3-1-1.5a1.72 1.72 0 0 0-1.56.64 3.17 3.17 0 0 0 .93 3.46zm-82.8-1.87c-.58-.94.56-2.35-1.15-2.35-1.32 0-1.33 1.11-1.31 2 0 1.09.4 2.14 1.61 2.24.24.05.6-1.31.85-1.9zm-4-73.19c.73.77-.48 2.24 1.28 2.21 1.24 0 1.26-1.06 1.27-1.95 0-1.12-.38-2.14-1.57-2.31-.24-.04-.66 1.29-.99 2.04zm24.14-2.28l-.66-.26a23.12 23.12 0 0 0-1.71 3.15 1.73 1.73 0 0 0 .63 1.57c.76.4 1.46-.07 1.56-1 .11-1.12.11-2.3.17-3.47zm62.93-1c-1.34.82-2.28 3.65-1.74 4.45a1.52 1.52 0 0 0 1.16.48 1 1 0 0 0 .75-.7c0-1.35-.11-2.65-.18-4.26zm-14.23 78.9c.5-.23 1-.31 1.27-.61a7.13 7.13 0 0 0 1.23-2 1.85 1.85 0 0 0-.07-1.51 1.41 1.41 0 0 0-1.34-.3c-.34.15-.57.77-.67 1.22-.18.94-.25 1.82-.42 3.2zM234.44 7.73l-.86-.12a26 26 0 0 0-1 3.3c-.05.29.59.86 1 1 .23.1 1-.34 1-.54.05-1.18-.07-2.37-.14-3.64zM72.13 84.85l.73.09a19.3 19.3 0 0 0 1.06-3.08c.06-.35-.58-1.09-1-1.2s-1.16.58-1.17.92a21.19 21.19 0 0 0 .38 3.27zm199.69-.24l.73.11a17.85 17.85 0 0 0 1.09-3c.06-.3-.67-.91-1.16-1.1-.23-.09-1 .49-1 .76a25.47 25.47 0 0 0 .34 3.23zM34.37 8h-.57a14.69 14.69 0 0 0-1 2.66c-.06.37.45 1 .86 1.24.23.14 1.09-.17 1.13-.37.21-1.24.46-2.53-.42-3.53zM7.57 67.26l-.12.68a18 18 0 0 0 2.93 1c.31.06.77-.66 1.15-1-.38-.37-.74-1-1.13-1a15.3 15.3 0 0 0-2.83.32zm291.76-42l.1-.65a20.37 20.37 0 0 0-3.06-1c-.27 0-.85.69-1 1.16-.06.21.63.91 1 .91a20.29 20.29 0 0 0 2.96-.39zM183.56 80.59l-2.7.84 1.6 2.87.49-.21zm-94.2 3.34l.56-.1a8.12 8.12 0 0 0 .08-2.38c-.11-.44-.86-.72-1.32-1.07-.25.47-.81 1.06-.69 1.4a10.65 10.65 0 0 0 1.37 2.15zM48.8 8l-.35.1a8 8 0 0 0-.54 2.37c0 .45.78.84 1.21 1.26.3-.45.91-1 .82-1.32A12 12 0 0 0 48.8 8zM16.63 85.48l-2.33 2.16H17zm163.49 1.22l.09-.86a6.4 6.4 0 0 0-1.66-.24c-.16 0-.26.72-.38 1.11z" fill="#cfa784"/><path d="M254.57 76.36l5.12-8.18 1.38-2.18c-2.39-.15-4.53-.41-6.68-.39-10.89.07-21.79.21-32.68.33l-25.17.31-26.11.31c-9.8.11-19.6.25-29.4.31q-28.55.18-57.09.26a2.66 2.66 0 0 0-2.4 1.35q-3.35 4.71-6.87 9.29a1.67 1.67 0 0 1-1.43.3c-2.87-.74-5.71-1.57-8.76-2.43L71 67.42a10.77 10.77 0 0 0-1.42-.24c-3.18 0-6.36-.08-9.54 0a2.87 2.87 0 0 0-1.77.89c-3.38 3.54-6.69 7.14-10.05 10.7a1.73 1.73 0 0 1-1.2.54c-2.79-.23-5.58-.55-8.73-.87l8.83-11c-1.62.11-2.83.23-4 .27a24.57 24.57 0 0 1-4.22 0c-2.82-.39-4.53 1.12-6.19 3-1.8 2.09-3.75 4.06-5.68 6a2 2 0 0 1-1.34.6c-3.16-.15-6.31-.39-9.77-.61l8.54-8.22-.39-.48h-9.65v-9.92h7.36l-5.62-6.48c3-1 5.64-1.88 8.37-2.64.37-.1 1.06.51 1.45.94 2.06 2.28 4 4.63 6.12 6.88a2.88 2.88 0 0 0 1.83.88c3.42.09 6.85 0 10.81 0l-5.3-7.27c3.19-.84 6.17-1.66 9.17-2.37.33-.08.9.4 1.2.75 2.28 2.7 4.51 5.45 6.8 8.15a2 2 0 0 0 1.26.7c4.06.05 8.11 0 12.5 0l-6.51-9.36c1.71-.24 3.19-.47 4.68-.64s3.22-.22 4.81-.5a1.52 1.52 0 0 1 1.81.74C77 50.87 79 53.73 80.9 56.69a1.87 1.87 0 0 0 1.87 1c9.18 0 18.36 0 27.54-.06q30-.13 60.07-.31l62.57-.32c7.77 0 15.53-.17 23.29-.28 1.4 0 2.79-.19 4.41-.31l-3.81-8.19.28-.39 34.73 13.61v.48l-7 2.8-29 11.53c-.34.13-.69.21-1 .31z" fill="#fdd917"/><path d="M204.34 38.6c3.82 1.92 7.58 3.84 11.38 5.67a1.79 1.79 0 0 0 1.38-.33q6.16-4 12.27-8.06 8.79-5.82 17.58-11.66c2.36-1.57 4.87-2.37 7.68-1.53a3.9 3.9 0 0 1 3.12 3.48c.2 1.86 0 3.4-1.82 4.58-9 5.73-17.84 11.56-26.74 17.38q-3.58 2.34-7.1 4.79c-2.42 1.67-4.86 2-7.41.33-9.23-6.1-19.76-9-30.19-12.08-11.62-3.43-23.6-4-35.6-3.36a124.54 124.54 0 0 0-48.24 12.83c-1.77.86-3.32 2.15-5 3.15-2.19 1.28-4.29 1.7-6.67 0C80.63 48 72.2 42.34 63.79 36.65c-1.77-1.2-3.62-2.26-5.43-3.39a5.49 5.49 0 0 1-2.86-5.33c.2-2.74 3-4.74 6.21-4.24a10 10 0 0 1 4 1.47c8.33 5.72 16.62 11.5 24.83 17.4 2.08 1.5 3.79 2 6.18.64 2.77-1.6 5.79-2.77 8.7-4.13l.39-.92a5.44 5.44 0 0 1-1.63-.88c-3.56-4.07-7.04-8.21-10.62-12.27-1.68-1.91-3.5-3.7-5.28-5.52s-1.28-4.36 1.29-5.06A12.24 12.24 0 0 1 92.5 14a14.54 14.54 0 0 1 2.95.26 7.66 7.66 0 0 1 4.66 2.85c3.93 4.72 8 9.3 12 14 .91 1.07 1.51 2.38 2.42 3.45a2.2 2.2 0 0 0 1.77.73c3-.77 5.89-1.68 8.81-2.62a19.23 19.23 0 0 0 2.52-1.23c-1.76-4.17-3.44-8.14-5.11-12.11-1.14-2.72 0-5.08 3-5.35a27.11 27.11 0 0 1 6.36.3 3.74 3.74 0 0 1 3 3c1.16 3.89 2.47 7.73 3.79 11.57a1.71 1.71 0 0 0 1.23 1c3.06-.12 6.12-.4 9.18-.56 1.11-.06 1.37-.58 1.35-1.6-.05-2.82 0-5.63 0-8.45 0-2.48 1.09-4.2 3.1-4.94 2.44-.9 5.43-.54 6.61 1.26a8.32 8.32 0 0 1 .87 4c.14 2.71.1 5.42.07 8.13 0 1.15.45 1.49 1.57 1.58 1.81.14 3.59.55 5.4.77a14.61 14.61 0 0 0 2.64.08 2.44 2.44 0 0 0 2.39-1.65c.94-2.48 1.91-4.95 3-7.36a34.09 34.09 0 0 1 2.92-5.36c1.93-2.78 7.47-2.92 9.75-.42a1.88 1.88 0 0 1 .4 2.37c-2 4.18-3.93 8.4-5.87 12.61-.25.54-.44 1.11-.57 1.45 3.07 1 6 1.93 8.87 2.84a3.61 3.61 0 0 0 4.4-1.13c5.15-6 10.51-11.83 15.74-17.77a7 7 0 0 1 5.43-2.27 21.59 21.59 0 0 1 5.72.21c2.89.73 3.33 3.45 1.13 5.48-2.65 2.43-5.35 4.81-7.89 7.35-3.93 3.9-7.71 7.93-11.77 12.13zm84.13 44.47l-.92-2.39a14.44 14.44 0 0 1 9.59 2.16l1.14 1.28-1 .82-.65-.26-.05.2h.72c.84.68 1.55 1.7 3 1.06L299 84.2l.83-.64-2.5-.89c1.43-.78 2.66 0 4 .65l-.89.44a7 7 0 0 1 .81 1.82c.11.79-.28 1.34-1.28 1.28-1.49-.09-3-.07-4.49-.1H295a19.85 19.85 0 0 0-2.56-.29c-.7 0-1.38.3-2.08.37s-1.61.13-1.95-1c-.14-.48-.89-.79-1.47-1.27.51-.49 0-2 1.57-1.49l.29.33 1.65 1.87 1.78-.69.34.05 1.25.31.32 1.09 2.47-.69-2.8-.38-1.25-.31-.33-.22-3.41-1.05zM6.5 8.89c-.23-.19-.58-.34-.67-.59a5.18 5.18 0 0 1-.46-2c0-.22.86-.56 1.33-.57 2-.06 4-.09 6 0a9.32 9.32 0 0 1 2.3.79l-.17-.6c2.38-.44 3.75.33 4.79 2.67l-.62.87-.27.37h-.32l-.28.31 1 1.78c-3.23.17-6.21 0-8.93-1.74a11.84 11.84 0 0 0-1.5-.68l-.64-1.24 1.89-.44c-.86-1.63-2.31-1.25-3.82-1l1.56 1.45-1.21.61zm11.23.34l.18.14-.13-.19L16 7.21l-1.75 1zm72.6-.06c-.14.33-.44.69-.39 1 .15 1 .43 2-1 2.07-1.26.1-1.79-.57-1.67-1.81a1.48 1.48 0 0 0-.2-1c-.23.83-.21 2.07-.74 2.39s-1.75 0-2.57-.25l-2.4.58V8.07l1.51.19.32.64.33.33.48 1.43.46-1.09.28-.68L86.9 7l.17.15-.13-.15-1-1.24c2.21-.92 3.75-.36 5.51 2l1.28-.85a14 14 0 0 1 .27 3.32 2.4 2.4 0 0 1-1.34 1.71c-1.07.25-1.29-.74-1.33-1.63V9.22l.16-.41h-.13zm202-4.03l1.58-.39.34.54-1.53 1.19.25.38c.64-.45 1.26-.92 1.92-1.33a3.66 3.66 0 0 1 1.5-.68c1.45-.09 2.9 0 4.5 0 .09 1.51.49 3.09-.74 4.09a3.31 3.31 0 0 1-4.09.08c-1.6 1.12-3.17 2.39-5.39 1.6-.32-.12-.86.53-1.35.66a8 8 0 0 1-1.62.11c.11-2.92 2.42-3.4 4.36-4.41l-.67-.87-1.57.69-.49-2zM297 8.33l2.27-.13-1.06-.49 1.6-2.71-4.05.9v.36l2 .84-.86 1.14-.18.17zM298.11 22a1.66 1.66 0 0 1-.29.1l-2.4.34.13-2.53h.34c-.26-.43-.74-.88-.71-1.29a2.45 2.45 0 0 1 .76-1.57c.26-.22 1-.1 1.39.1a15.42 15.42 0 0 1 1.92 1.32l.85-1.39.2-.16-.3.08a41.32 41.32 0 0 1-4.28-1.47c-.39-.18-.58-1.05-.62-1.62 0-.2.71-.55 1.13-.65 1.15-.27 2.38-.77 3.34.78l1.43-1.4c1.4.63.82 2.07.52 2.65a3.38 3.38 0 0 0-.18 2.77 2.26 2.26 0 0 1-.07.77l-.07.28.17-.19c.55 1.34.68 2.58-.77 3.5-.25.16-.35.56-.52.85h-2.49l.73-1.11 1.13-1.08c.78-.7 1.71-1.39.2-2.3a7.16 7.16 0 0 1-1.11.63 11.14 11.14 0 0 1-1.53.3c2.36.29 2.36.29 2.46 1.39zM102 11.4a5.58 5.58 0 0 1-1.27.55c-.87.14-1.56 0-1.31-1.2s-.36-2.61.88-3.61c.09-.07-.19-.59-.29-.91l-.53-.05c-.28 1.12-.48 2.25-.72 3.38-.18.92.73 2.6-1.15 2.38s-.68-1.78-.81-2.94c0-.17-.71-.29-1.12-.44l-.32-.64V8l-.33-.33-.33-.33-1.87-1.67c1.9-.9 2.81-.6 3.92 1.1a3.59 3.59 0 0 1 5.75-.24c.22.28.46.54.7.81l.1 1.07.86-1.07c.31.29.84.54.9.88a5.86 5.86 0 0 1-.06 2c-.32 1.9-1 2.18-2.77 1.18.85-1.23.77-2.3-.55-3.16l-.18-.15.14.19zM13.38 86.18c-.84 0-1.77-.33-2 1-.05.27-.88.51-1.36.54-1.4.07-2.8 0-4.41 0a31.3 31.3 0 0 1 0-3.3 1.54 1.54 0 0 1 .86-1 14.06 14.06 0 0 1 2.25-.63c1-.24 1.35.19 1.22 1.15l-.31.32h-1.1l-1.76 3.25 3.94-.86v-.44l-2-.3-.08-.08 1-1.52.3-.31c2.37-2.67 5.74-1.94 8.63-2.86l.21.37-.69 1.26-.68.09.08.22.59-.33c1.23.45 0 .81-.12.89-1.29.79-2.63 1.51-3.95 2.25l-.64.33zm40.1-76.66l-.22 2.27a10.39 10.39 0 0 1-2.14-.38 35.06 35.06 0 0 1 .33-4.16l-1.08 1.84-2.67-3.2.3-.54 2.64.9c.68-1.38 1.76-.43 2.82.12v-.33a2.15 2.15 0 0 1 3-.15c.85 1.06 1.8 2.15.74 3.62-.2.22-.56.42-.59.66-.11 1-.49 1.57-1.56 1.53S54 10.76 54 10v-.47l.34-1.61 1.76 1.19.18-.25-2.19-2.07zM8.67 38.92a14.65 14.65 0 0 1 1.87 0c.31 0 .82.3.84.51.07.57 0 1.65-.14 1.67a20.86 20.86 0 0 1-3.58.21 6 6 0 0 1-.19-1.11l.41-.19-.11-.19-.36.3-1.92 1.6c-.92-1.55-.72-2.17 1.07-3.52-1.52-.6-1.72-1.62-.64-2.83.23-.25.18-.75.26-1.14 1.45.29 2.91.53 4.34.89a1.69 1.69 0 0 1 .9 2.79C11 38.3 10 38 9 38l-.35.94zm-1.16-1.47l1.29-.26L7 35.75l-.18.25.54 1.33-.16.2zm153.96 48.76c-1.47 1.25-2.16 1.24-2.58 0a.49.49 0 0 0 .06-.26l2.05-1.23-.43-1.45-1.74 2.58-.33.32h-.89c.32-1.55.58-3.13 1-4.65a1.68 1.68 0 0 1 1.22-.94 3.63 3.63 0 0 1 1.83.55 5.64 5.64 0 0 1-.36 1.32c0 .14-.09.29-.14.43l.36.23a7.25 7.25 0 0 1 .77-1.28c.43-.47 1-1.24 1.44-1.16a2 2 0 0 1 1.28 1.41c.16 1.15.31 2.49-1.29 3l1.57 1.92c-1.36.21-2.51.64-3.26-.76l-.4-.78-.24.09zM61.27 7.64l-.94-2c1.41-.35 2.69-.57 3.07.86a20.23 20.23 0 0 1 2.42-1c.16 0 .49.56.75.86l-.31.31-.65.6-1.48.4.8 1.39.84-1.6.57-.7.29-.33h.91l.33.33a5.37 5.37 0 0 0-.71 4.5 11.77 11.77 0 0 0 .66-1.8c.2-.59.45-1.17.69-1.75l1.26 1.58a1.41 1.41 0 0 0 0 .16c.1 2.65.1 2.64-2.63 2.34-.33 0-.69.24-1 .22-.8 0-1.59-.17-2.38-.27l.44-2.16-1-.28-.33-.33-.33-.33-1.27-1z" fill="#fdd917"/><path d="M26.2 7l-1 2.65c-.08.22-.28.48-.22.66.39 1.36-.64 1.63-1.51 1.85-1.18.3-1.1-.7-1.07-1.37 0-1 .33-1.92.36-2.88a5.71 5.71 0 0 0-.43-1.61l-.55.1v4.29a9 9 0 0 1-.32 1.55c-.6-.32-1.55-.51-1.73-1a8.36 8.36 0 0 1-.11-2.69L20.74 8a5.59 5.59 0 0 1-.94-1.08c-.33-.74-.2-1.37.76-1.45s1.7 0 2.54 0A3.06 3.06 0 0 1 26.21 7zm139.91 78.56c-.67-.61-.82-4.46-.12-4.78a2.32 2.32 0 0 1 1.75-.06c.32.15.38.92.49 1.43a4.19 4.19 0 0 1 0 1l.73.25.32.32 2 2.35.45-2 .52-3.17a8.6 8.6 0 0 1 2 .36 32.4 32.4 0 0 1-.27 4l.63.36-.95 1.51a3.27 3.27 0 0 0-.76-.64c-.28-.12-.75-.19-.93 0-1.37 1.18-2.38 1.1-3.38-.28-.39-.54-.86-1-1.43-1.7l-1 1.17zm1.55-1.56l-.18.19zm5.43 1.75l.07.05v-.1zM7.74 16.72c-.8-.44-1.25-2-2.6-.55a4.76 4.76 0 0 1 1.16-4.78c.61-.63 1.14-.86 1.81-.11a1.82 1.82 0 0 0 2.29.63c.3-.12 1.22.48 1.34.9.22.76.24 1.75-1.07 1.74a11.06 11.06 0 0 0-2.67.21 17.34 17.34 0 0 0 2.05.39c1.83.13 2.08.47 1.56 2.32l-.13.45-2.8-.58zM254 86.15a4.82 4.82 0 0 0-1 .68c-.5.57-2.48.44-3.08-.25l-.91-1-.54-1.25.22-.64 1.26-.63.64.64.32.32.32.32.32.32.79 1.38.42-1.7.54-3.48c.68.11 1.63 0 2 .4s.15 1.33 0 2a11.06 11.06 0 0 1-.63 1.84l.44.24.82-1.74 1.19.74.33.33.33.33 1.06 2.44-2.9-1-1.95.7.06-.84.12-.2zm-192.73-.91l-.15-1.84 5.42 3.74c-2.06 1.23-3.28.07-4.43-1.19a3.84 3.84 0 0 1-5.2 1.05c-.4-.32-.86-.56-1.29-.84l-.33-.33c0-.75-1.07-1.79.55-2.12l.68.85.27-.21-.76-.85a2.68 2.68 0 0 1-.22-1 8.43 8.43 0 0 1 .63-1.5c.53.37 1.35.64 1.53 1.13a16.45 16.45 0 0 1 .5 3.24h-1.15l1.94 1.42.74-1.54h1.23l.22.12zM250.91 6.37c0 .8 1.28 1.59-.05 2.45l-1.18-.89-.25-.1.21.15a7.15 7.15 0 0 1 .92 1.93c.08.52-.33 1.12-.53 1.68-.52-.33-1.38-.57-1.49-1-.31-1.2-.24-2.5-.45-3.73-.07-.4-.56-.73-1-1.24l-.56 1.71c-1.32-.38-1.24.71-1.36 1.66l-1.47-.72L241.53 7l-1.35-1.64c1.42-.82 1.42-.82 4.16 1.13a4 4 0 0 1 5.52-.71 7 7 0 0 0 1.06.6zm-2 .78a2 2 0 0 0-.27-.12l-.09.12a1.9 1.9 0 0 0 .26.12s.05-.08.08-.12zM130.12 8l-1.26-2.19.2-.44 2.69 1a4.61 4.61 0 0 1 1.19-.76c.84-.29.87.2.57.81l-.08.28.17-.19c.34-.28.69-.8 1-.8a12.55 12.55 0 0 1 3 .4c.37.1.62.64.93 1L139 8l-.11.62-1.26.62-.63-.36-1.73-2.4-.43 1.78-.57 3.47c-.66-.11-1.61 0-2-.41s-.15-1.33 0-2a11 11 0 0 1 .63-1.84l-.34-.19a3.15 3.15 0 0 0-.52.83c-.18.73-.57 1-1.27.75l-.32-.64-.33-.33zM6.8 61.15l-.53 1.25C4.64 61 4.55 59.06 5.89 57a3.9 3.9 0 0 1-.55-1.23 3 3 0 0 1 .42-1.19s5.4.14 5.6.19c0 1.09.07 2.14-1.62 1.7a6.29 6.29 0 0 0-1.39-.05l-.31-.32c-.64-1.16-1-.6-1.33.22l-.39.24.11.18.42-.26 1.19-.39.31.31L9 58l-.47.15.07.12L9 58c.7-.16 1.6-.66 2.06-.4s.39 1.3.67 2.51l-3.93-.9v-.51l-2.51 2.12 1.52.34zM199 7.26L197 6c2.87-1.25 4.86-.16 5.05 1.94l-.17.46.31-.34 1.35-.53a37.42 37.42 0 0 1-.83 4.19c-.06.2-1.14.08-1.95.12l.76-2.37h-1.26c-.1 2.79-.1 2.8-2.37 2 .06-1.12.08-2.25.22-3.37 0-.24.47-.44.72-.66l.66.6.24.42.19-.11-.25-.46zm-84.44 1.22l1.66-1.11a15.94 15.94 0 0 1-.11 4c-.13.44-1.5.53-2.68.89l1-2.89-1.82-1.93c.25 1.5 1.25 2.91-.05 4.23-.32.33-1.11.21-1.7.3-.15-4.06-.13-4.15 1.06-5l-.9-1.58c2.13-.46 3.26.53 3.54 3.09zm30.27-1.79l2.2-1.2.6 1.22-.33.33-1.84.79.26 1.1-.32.65-1.16-.13c-.21 1.05.15 2.62-1.62 2.54a1.78 1.78 0 0 1-1.22-1.23c-.07-1.12-.63-2.57 1.16-3.12l-1.29-1.87a2.62 2.62 0 0 1 3.49 1l.1.44.19-.09zm75.65 79.82c-.88 1.25-2 .61-3.09.41-.43-.08-.81-.44-1.18-.34l-1.84.42v-1.38l.9-.07a.49.49 0 0 0 .06.12h.09l-.17-.11-.11-1-.83 1c-1.91-.7-.55-2.28-.81-3.41-.1-.41.64-1.14 1.15-1.51.19-.13.82.35 1.26.56v2.83l1.26-.3.65.33zM69.36 84.34l2.78 2.55.32.07-.18-.22 1-2 1 1.82a13.06 13.06 0 0 1-1.68.72 3.75 3.75 0 0 1-4.86-2.17l-.03-.11c-.19-.34.94-4.41 1.26-4.39.67.06 1.78.14 1.89.49a24.64 24.64 0 0 1 .72 3.95l-.47.16-1.7-1-.19-.14zm50.72-74.88h-.93l-.33-.64-.64-1c-.33-.4-.67-.79-1-1.2s-.64-.91-1.12-1.59c.82 0 1.59-.23 2.07 0a5.45 5.45 0 0 0 4.62.23c1.85-.56 2.78.82 3.86 1.88v1.43l-1.58.62-1-.64-1.72-3-.64 1.45-.74-.1zM265.64 7L264 5.56c1.79-.27 3.24-.6 4.7-.67.89 0 2.42 2.18 2.16 3.06-.13.43-.7.73-1.32 1.33a2.62 2.62 0 0 1 .22.89c0 .51 0 1.33-.26 1.46a2.79 2.79 0 0 1-1.88.11c-.21-.06-.24-1-.23-1.48a12.69 12.69 0 0 1 .24-2.15c.05-.26.32-.48.49-.72l.59.39.13-.22-.54-.39-1.38-2-.52.42-.41 1.13-.33.33zm34.8 28.88a4.66 4.66 0 0 1 1.1 1.06c.11.2-.21.75-.48 1-.1.09-.66-.16-.88-.39a8.54 8.54 0 0 1-.86-1.22l-.34.19.56 1.46c-1.29 0-2.4.06-3.5 0-.23 0-.63-.76-.54-1a1.58 1.58 0 0 1 1-.91 5.42 5.42 0 0 1 1.71.21l-.34-1.63 1-.64 2.76-2.14-1.51-.38.77-1a4.11 4.11 0 0 1 .78 1 3.37 3.37 0 0 1-1.29 4.3l-.21.19zM138.55 85.56l.71 1.32c-2.45.66-4.48-.18-5.22-2.06l-1.74.95v-3.48c0-.89.33-1.84 1.37-1.63.48.1.83 1.05 1.14 1.67a2.93 2.93 0 0 1 0 1.13l.92-.07.33.33.33.33 1.89 1.26.32.33zM179.87 84c.59-.67 1.15-.6 1.76 0 .83.83 1.72 1.6 2.88 2.67l1.63-3.63 1.26.31a1.94 1.94 0 0 0 1.18 2.11 9.54 9.54 0 0 1 1.83 1.64 3.74 3.74 0 0 1-3.9-.46c-1.72.19-3 .43-4.3.45s-2.41-1.8-2.3-3.11zM167.16 6.06c.92-1.32 2.17-.71 3.15-.3a10.74 10.74 0 0 1 2.39 1.93l1.46-1a30.44 30.44 0 0 1 0 4.1c-.19 1.31-1.21 1.49-2.39.57V8.54l.15-.13h-.09a.45.45 0 0 0-.06.12l-1.26.3-1-.64L168 7zM301.36 44c1.34 1.76.14 2.89-1 4l-1.58.63-.65-.32-.33-.33v-1l2.87-2.28-2.25-.47-2.87-.49c-.52-2-.12-2.47 1.88-2.1.87.16 1.71.44 2.57.66l.64.92.11.6z" fill="#fdd917"/><path d="M32.46 7a4.88 4.88 0 0 1 .19 1.49c-.06.36-.48.65-.75 1l-.56-.67-.41-.55-.44-.27.33.32.34.61.58.7c.29 2.17 0 2.7-1.36 2.29-.38-.12-.93-.54-1-.86-.11-1.26 0-2.53 0-3.8l.5-.05-1-.76c-.8.87-1.59 1.62-2.71.54V7c-.09-.87.32-1.24 1.17-1.23A27.2 27.2 0 0 1 32.47 7zm176.76-1.6a3.28 3.28 0 0 1 3.81.93 2.89 2.89 0 0 1 .81 1.67 2 2 0 0 1-.84 1.5c.27 1.64-.11 2.5-1.71 2.53-1.08 0-1.55-.41-1.35-1.49a5.3 5.3 0 0 0 .19-.91c.01-1.44.87-3.02-.91-4.23zM34.34 87.12c-.77 1.22-2 .72-2.86.44s-1.34-1.3-1.79-2.12c-.14-.26.41-.9.79-1.66a4.59 4.59 0 0 1-.41-1.42c0-.5.18-1.28.53-1.46a4.15 4.15 0 0 1 1.89-.1c.17 0 .48.24.47.34-.17 1.37-.38 2.73-.59 4.09h-.42L34 86.82l.33.33zm250.37-.31a3.57 3.57 0 0 1-4.38-.94l-.32-1a22.61 22.61 0 0 1 1.51-3.5c.34-.55 1.25-.74 1.9-1.09a6.92 6.92 0 0 1 .62 1.43 4.86 4.86 0 0 1 0 1.86 5.36 5.36 0 0 1-.86 1.41l1.49 1.78zm16.6-10.24c.2.34.64.76.56 1a18.81 18.81 0 0 1-1.31 3.53c-.44.84-1.2.89-1.9.11a9.5 9.5 0 0 0-1.05-.89c-2.05.73-2.58.49-2.59-1.08 0-.95.37-1.33 1.3-1.25.72.06 1.45.06 2.18.08l.31 1.2-.31.31-.15.16h.1a.46.46 0 0 0 .06-.13l.31-.31zm-64.4-68.69L234 5.44A3.48 3.48 0 0 1 238.95 8c.05.35-.56.8-.87 1.2a.53.53 0 0 0-.06-.12h-.09l.18.12a6.25 6.25 0 0 1-.08 1.55c-.14.47-.55 1.24-.77 1.22-.64-.06-1.66-.33-1.79-.75a23.78 23.78 0 0 1-.56-4.1l1.83.95.32.05zm38.42.06c.23.38.61.75.65 1.15a4.23 4.23 0 0 1-.12 2.43c-.22.35-1.43.13-2.2.09-.22 0-.42-.28-.63-.43a5.64 5.64 0 0 1-1 .7c-1 .39-1.68-.26-1.53-1.3A4.77 4.77 0 0 1 273 7v3.64h.52a14.85 14.85 0 0 0 .22-2c0-.7.17-1.1.95-1l.65.33zM6.81 42.69a1.31 1.31 0 0 1 .05-.29 37.78 37.78 0 0 1 4.36 0c.21 0 .52 1.16.42 1.72-.06.33-.81.61-1.3.75-.3.08-.68-.14-1-.23l-.34.87L6.16 48l-.33.33-.39.28c-.89-1.35-.75-2.5.41-3.39a5.75 5.75 0 0 0 .61-.63l.33-.33 1.34-.5-1.33-1.08zm.26 36.03l-1.73 1.34c-.06-1.45-.65-2.76.56-3.74a2.48 2.48 0 0 1 3.37.2c.31.25 1 0 1.28.3a10.22 10.22 0 0 1 1.25 1.73 5.15 5.15 0 0 1-1.21.8c-1.25.39-2.52.54-3.52-.63zM244.92 85l1.38 1.93a2.67 2.67 0 0 1-3.52-1l-.33-.65-.33-.33-.31-1.59.33-.33 1.16.13c.24-1-.2-2.65 1.6-2.54a1.87 1.87 0 0 1 1.24 1.38c0 1 .78 2.49-1.08 2.83l-.35-.28-.36-.27L244 84l-.23-.14.23.14.32.31.28.34zM157.65 9.52c0 .68.21 1.86 0 2a7.65 7.65 0 0 1-2.43.2c-.81-2-.36-3.36 1.56-4l-2.54-1.93c1.66-.79 2.76-.51 3.76.77a5.19 5.19 0 0 0 .92.77l.33.33-.31 1.26-.93.31-.53-.51-.19.15zM80.36 85.57L80 83.68l1.63-.12a9.57 9.57 0 0 1-.36-1.46c0-.46-.08-1.24.14-1.34.45-.22 1.51-.22 1.56-.07a16.62 16.62 0 0 1 .72 3.51c0 .41-.44.87-.81 1.53l2.16 1.09a2.4 2.4 0 0 1-3.29.06c-.45-.45-.94-.87-1.41-1.31zm217.51-30.35l-.11-1.46a5.12 5.12 0 0 1-1.54-.17c-.41-.18-.93-.61-1-1s.28-1.36.54-1.4a17 17 0 0 1 3.31 0v1.13l-.91.63.35.34.63-.9 2.39-1.66c.42 1.28.58 2.33-.72 3.12a5.9 5.9 0 0 0-.79.69l-.33.33-.33.33h-1.57zM5.56 67.4a1.69 1.69 0 0 1-.22-2.58 19.42 19.42 0 0 1 3.35-2.42l.32.32H9c-.11 1.13.73.88 1.34.9s1.45 0 1.39 1c-.05.79-.23 1.54-1.31 1.59s-2 .23-3.3.38L7.81 65l.26-.37.13-.19-.2.13-.39.24-2.1 2.61zm33.8-58.52a7.79 7.79 0 0 0-1 1.93c-.15.8-.42 1.4-1.25 1.16a2.38 2.38 0 0 1-1.49-1.15 17.08 17.08 0 0 1-.42-3.38l1.88.87.47.43.15-.18-.51-.37-2.85-2.44c2.28-1.24 4.42.59 5 3.13zM8.68 70.55a3.58 3.58 0 0 1 .72-.23c.67-.07 1.34-.09 2-.14l-.26 2.47h-.42c.29.34.79.65.83 1a2.34 2.34 0 0 1-.37 1.64 1.57 1.57 0 0 1-1.46.24A16.19 16.19 0 0 1 7.42 74l1.1-1-1.4-1.22.33-.33.33-.33.33-.33H8l.64-.32zM301.3 25.17c1 1 .68 2 0 2.9a7.65 7.65 0 0 1-1.73 1.53 2.47 2.47 0 0 1-1 .37c-.73-1.43-2.6-.52-3.3-1.6-.22-.33.38-1.68.89-1.89a14.69 14.69 0 0 1 3.58-.53l-.83 1.79.34.28 2.08-2.88zM271.88 86.5c-.7 1.23-1.84.82-2.58.35a6.29 6.29 0 0 1-1.94-2.33c-.14-.27.5-1 .79-1.46l.09.42.13-.06-.24-.34a3.91 3.91 0 0 1 .06-1.23c.17-.46.53-1.19.82-1.19.59 0 1.57.27 1.69.65a23.59 23.59 0 0 1 .59 3.94l-2.23-1.16-.25.33 3.08 2.12zM121 85.25c-.25-.33-.65-.64-.71-1a7.23 7.23 0 0 1 .08-1.69c.11-1.78.64-2.11 2.38-1.64.43.12.94-.12 1.4-.08.64.05 1.27.21 1.9.33A6.94 6.94 0 0 1 126 83a23.92 23.92 0 0 1-1.19 2.58l-.32-.32-1.57-4-.64 2.42zm176.56-23.78c-.23-.32-.4-.85-.68-.92-2.09-.47-2.26-.77-1.29-2.74l4.59 1.27.52-.76 1.07.07a14.49 14.49 0 0 1-.37 2c-.09.29-.5.47-.76.71l-2.45.95-.27-.39-.37-.25zM226.19 7c.14.8.54 1.68-.84 2.29l-.72-1-.23-.08.24.07a19.6 19.6 0 0 1 .52 2.37 4.14 4.14 0 0 1-.32 1.34c-.6-.16-1.66-.24-1.71-.5a24.28 24.28 0 0 1-.23-3.93 4.58 4.58 0 0 1 .71-.12l.33.08-.19-.21-1.92-1.54c.28-.85 2-.91 2.86-.11L226.2 7zM118.84 84.62l1.59 2.85c-1.11-.21-2-.13-2.45-.52-.83-.66-1.36-1.69-2.67-1.53-.13 0-.46-.35-.45-.52a26.57 26.57 0 0 1 .37-3.69 1.37 1.37 0 0 1 1.18-.59 2.1 2.1 0 0 1 1 1.31c.08.49-.31 1.06-.48 1.55l1.94 1.15zm9.39-.62l1.24-.1c0-3.25.27-3.63 2.43-2.92-.64 1.48.28 3.24-.74 4.86l1.15 1.25c-2.52.76-4.12-.53-4.07-3.11zm29.42 2.19l.24 1.43-2.79-1.4-1.2-2.54.33-.33.33-.33c.32-.29.87-.54.92-.87.32-1.86.87-2.12 2.66-1.14-.16.77-.27 1.53-.48 2.27s-.48 1.27-.83 2.15l.86.72zM255.32 7l-1.9-1.79a2.92 2.92 0 0 1 4.38 3.07l-1.2-.16a13.66 13.66 0 0 1 .2 2.68c0 .34-.76.85-1.15.84s-.85-.63-.93-1a13.73 13.73 0 0 1-.17-2.94c0-.21.47-.41.72-.61l.32.31.24.12-.22-.14zm-46.03 77h1.23a14.59 14.59 0 0 1 .57-3c.12-.29 1.13-.23 1.85-.35l-.39 5.47.79.89c-2.13 1.07-4-.38-4-3zM178 8.88l-1.2-.68-.2-.2.07.32A10.15 10.15 0 0 1 177 10c.1 1.65-.74 2.2-2.21 1.62 0-1.17-.06-2.3 0-3.42 0-.41.41-.79.63-1.18l.29.33.24.11-.2-.15-.25-.31-1.3-1.46c2.3-1 4.06.41 4.1 3l-.33.33zm9.71-.88l-1.45-2.34c2-.82 3.14.07 3.72 2.73l1.44-1.26c0 1.38.05 2.53 0 3.67 0 .79-.47 1.57-1.37 1.17-.47-.21-.73-1-.94-1.63-.1-.28.15-.69.24-1l.06-.32-.19.18-.57.06-.32-.65-.33-.36-.33-.33zm35.35 72.87l2.23-.46c-.3 1.76.61 3.37-1 4.61l1.89 2-.23.49-3.15-1.36-1-2.76h.84zm.58 3.45l.23-.12s-.06-.11-.09-.11a1.12 1.12 0 0 0-.25 0zM185.19 7.33c.32.28.83.51.93.86a5.12 5.12 0 0 1 0 1.7c-.14 2.07-.86 2.45-2.83 1.51l.71-2.2-1.25-.94-.32-.65-.33-.33-.66-.28-.95-.95-.32-.32a1.9 1.9 0 0 1 2.84 0l.91 1 .33.33V7l.09 1.43.86-1.12zm22.23 1.24l-2.13-.36a2.75 2.75 0 0 1 .5.85 6.86 6.86 0 0 1 .18 2.19c0 .28-.68.63-1.08.68a1.28 1.28 0 0 1-1-.57c-.43-.7.21-3.31.92-4-.29-.34-.59-.68-.87-1s-.47-.64-.73-1c2.51-.36 4.1.92 4.18 3.28zm75.12-.31h-.88a16.56 16.56 0 0 1-.52 3c-.11.32-.93.39-1.68.66l.65-4.92.68-.16-2.07-1.66c2.58-.77 3.94.11 4.1 2.47l-.32.64zM110.81 83.7l-1.08 1.3c-.92-.95-1.25-3-.44-3.86.42-.46 1.39-.41 2.11-.6l.28.46-.88 2 3.57 4c-2.15.84-3.54-.47-3.56-3.3zM193 80.91c-2.28 3.32 1.79 4.09 2.42 6.25-2.13.48-3.18-.52-3.43-3.3L190.66 85a3.85 3.85 0 0 1-.19-4c.18-.42 1.5-.35 2.31-.51z" fill="#fdd917"/><path d="M228.38 84.93l.29 1.31c-1.72.86-2.62.24-2.79-1.84a7.52 7.52 0 0 1-.08-2.59 2.25 2.25 0 0 1 1.58-1.14A1.23 1.23 0 0 1 229 82a15.68 15.68 0 0 1-.28 1.65l-1.54.95.15.32h1.07zm-33.74-73.28c2.31-3.35-1.84-4.08-2.45-6.26 2.16-.43 3.28.63 3.4 3.25l1.49-1.19a5.39 5.39 0 0 1 0 4.15c-.19.4-1.44.3-2.2.43zm27.17-5.9c-.38 1.11-1 1.93-2.34 1.66l.15 1.8h-1.88c-.51-.78-1-1.58-1.55-2.33a17.58 17.58 0 0 0-1.32-1.43c1.7-1 2.57.34 3.65 1.17.7-2 2.09-1 3.3-.85zm62.92 81.07c-.06-1.78 0-3.57-.2-5.33-.11-1.11.26-1.34 1.19-1 1.34.46 1.4 1.54 1.11 2.67a5.35 5.35 0 0 1-.63 1.24l.5 2.36-2 .07zm15.95-29.74v1.27c-1.49-.3-3-.54-4.47-.93a1.87 1.87 0 0 1-.69-3 1.25 1.25 0 0 1 1.08 0 7 7 0 0 1 1.26.88l2.21 1.58.65.32zM174.56 85.57v-2.1l1.38.91c0-.25.11-.43.06-.54a6.5 6.5 0 0 1-.69-1.37 1.73 1.73 0 0 1 .29-1.28 1.14 1.14 0 0 1 1.09-.17 1.57 1.57 0 0 1 .67 1 9.31 9.31 0 0 1-.16 1.53v3.53c-1.23.73-1.75-.87-2.65-1.57zM301 12.64c-1.5 0-3-.1-4.51-.11a4.33 4.33 0 0 0-1.07.28 1.43 1.43 0 0 1 .21-2.22c1.39-1 2.53-.14 3.62.71a.88.88 0 0 0 .3 0c.57-.26 1.41-.92 1.67-.74 1 .68.15 1.43-.24 2.12zM42.16 85.87c.08 1.91-1.63 1.44-2.58 1.82-1.58.62-2.62-.56-3.68-1.5l-.32-.65v-1.85l1.58.31.33.65.33.33 1.88 2.14 1-1.2.33-.33 1.27.31zm-30.11-6.04c-.38.89-.48 1.78-1 2.16C9.71 83 8.59 82 7.48 81.2a3.94 3.94 0 0 1-.9.82 1.21 1.21 0 0 1-1 0 1 1 0 0 1-.28-.94c.1-.33.46-.77.75-.8.85-.11 1.73 0 2.6-.06s1.91-.22 3.4-.39zm226.67 6.37c.33-1.54.59-3.09 1-4.6a1.7 1.7 0 0 1 1.17-1 3.22 3.22 0 0 1 1.84.47c.13.07-.17.95-.31 1.44a2.39 2.39 0 0 1-.31.53l-.33.33L240 86.2h-1.3zM106.63 84a6.32 6.32 0 0 0 .75 1.41 18.41 18.41 0 0 0 1.78 1.59l-.27.64-4.18-1-1.09.09.84-2.11.33-.65.32-1 1.27.31.33.65zm41-77.3h1.26c-.31 1.27-.68 2.54-.92 3.83a1.82 1.82 0 0 1-2.93 1.2c-1.12-.93.22-1.48.43-2.21l.32-.65L147.34 7l.33-.33zm-99.2 78.23a7 7 0 0 1-.94 1c-.66.47-1.22.39-1.26-.54a16.48 16.48 0 0 1 0-3.37c.07-.45.81-1.13 1.2-1.1a1.7 1.7 0 0 1 1.21 1.14 13.46 13.46 0 0 1-.27 2.89zM257.8 8.28l1.9-1.87c.21.9.46 1.79.61 2.7a3 3 0 0 1-.06 1.54c-.18.44-.69 1-1 1a1.69 1.69 0 0 1-1.35-.83 10.56 10.56 0 0 1 0-2.59z" fill="#fdd917"/><path d="M235.58 83.07l1.27.62.33.32.33.33.32.64 1 1.27.37 1-5.28-.38-.4-.26.31-.95 2.11.39.19.17-.07-.29L235 84l.32-.64.32-.32zM8.37 50.83l-2.46-2.21v-.31l.28-.31 2.53.27a8.07 8.07 0 0 0 1.68.29c.93 0 1.21.4 1.12 1.23s-.44 1.35-1.43 1.13a11.14 11.14 0 0 0-1.7-.12zm267.89 34.1l.93 1 2.84-1 .32 1c0 .15 0 .36-.11.44a4.43 4.43 0 0 1-5.61-.52c-.12-.13-.36-.16-.54-.23l-.37-2.42 1.3.23.32.64.33.33.33.33.33.33zm-12.51-.62l1.2 2.29.53.08a1.61 1.61 0 0 1 .24-.57 1.47 1.47 0 0 1 .7-.39c.1 0 .41.33.38.4a1.57 1.57 0 0 1-.52.69 4 4 0 0 1-4.68-.94 5.32 5.32 0 0 0-.66-.62V84l1.58-.94.32.65.64.32.33.33zm-118.29.93a3.47 3.47 0 0 1-.63-1 4.8 4.8 0 0 1 0-1.54c.07-.64.05-1.68.38-1.82a2.45 2.45 0 0 1 2.13.13c.4.33.24 1.34.32 2a1.94 1.94 0 0 1 0 .31l-.32.64-1.27 1-.65.32zM80 7.33c.2.3.53.58.58.9a5.66 5.66 0 0 1 0 1.85c-.12.61-.29 1.57-.67 1.7a2.35 2.35 0 0 1-2.09-.29c-.34-.39-.15-1.47.12-2.1a7.86 7.86 0 0 1 1.46-1.76l.6-.31zm80.77 0c.31.19.87.34.9.56a10.25 10.25 0 0 1 0 3.07c-.08.4-.93.89-1.45.91-.79 0-1.74-.16-1.63-1.35 0-.55.19-1.1.3-1.65l1.58-1.26.33-.33zM43.11 8.58l-1.84-3-.59.9-.39.58c-1-.84-.42-1.25.28-1.53A4.26 4.26 0 0 1 45 6.7l.64.64v1.25l-.33.33-1.31.59-1-1zm256.63 61.64c.05.68-.14 1-.95 1a8 8 0 0 0-2.15.13c-1 .21-1.3-.34-1.3-1.19s-.28-2 1.18-2a11.64 11.64 0 0 1 1.66.22l.33.33 1 1.27.33.33zM7.12 22c.27-.22.51-.58.8-.64a5.41 5.41 0 0 1 1.7 0c.62.09 1.7.21 1.76.48a2.76 2.76 0 0 1-.38 2.28c-.38.33-1.5 0-2.2-.29a5.65 5.65 0 0 1-1.4-1.18L7.11 22zm87.32 62.64a7.3 7.3 0 0 1-.62-1.64 3 3 0 0 1 .2-2c.3-.38 1.2-.41 1.81-.37a1.2 1.2 0 0 1 .73.93c0 1.17-.26 2.33-.43 3.6l-1.7-.55zM219.62 9.21L221.24 7l.69.34c.14 1.37.34 2.74.34 4.1 0 .23-1 .76-1.3.63a3.48 3.48 0 0 1-1.51-1.42c-.2-.35.1-1 .17-1.49zM168 9.22c0 .25-.07.5-.09.76-.12 2.24-.58 2.52-2.81 1.74l.65-2.83L168 7zm-27.82 75.11l-1.63 1.23-.32-.33.27-2.23c0-.2 0-.41.07-.6a7.75 7.75 0 0 1 .38-1.72 14.17 14.17 0 0 1 2.51.44zM178.3 8.58l.47-2.15-.43-.35 1.85-.32.32.32c-.24.36-.69.72-.7 1.09 0 1.42.07 2.84.13 4.26-.53.14-1.24.55-1.55.35s-.45-1-.52-1.54a5.53 5.53 0 0 1 .13-1.36l.33-.33zm41.25 74.78c0-.25.08-.51.09-.76.13-2.24.66-2.55 3-1.72l-.83 2.51-1.59 2.18-.6-.09zm78.93-5.59a9.38 9.38 0 0 0-1.49-.34c-2.18-.14-2.56-.95-1.34-2.89l2.21.7A6.69 6.69 0 0 1 299 76a10.45 10.45 0 0 1 1 1.27zM65 85.62a31.54 31.54 0 0 1-.3-3.82c0-.42.67-1.16 1-1.15a2.11 2.11 0 0 1 1.56.89c.51.94-.84 3.46-2.26 4.08zM241.53 7a25.27 25.27 0 0 1 .26 3.25 2.37 2.37 0 0 1-.75 1.64 1.54 1.54 0 0 1-1.51-.29 2.16 2.16 0 0 1-.18-1.79c.48-1.09.43-2.69 2.19-2.79zm-92.32 76.69l-.39-2.69 2.89.22a17.12 17.12 0 0 1-.06 1.87c-.14 1-.6 1.76-1.82 1.58l-.33-.33-.32-.64zm81.06 0c-.17-.37-.5-.76-.47-1.12.06-.63.15-1.54.56-1.78a1.46 1.46 0 0 1 2.22.64 2.08 2.08 0 0 1-1.7 3.19l-.64-1z" fill="#fdd917"/><path d="M232.45 85.57l1-4.85c1.81-.61 2.3-.16 2.11 2.36l-.32.32-.24.6-1.26 1.58h-1.25zM99.14 84l-1.76 1.5a5.47 5.47 0 0 1 0-4.36c.14-.33 1-.51 1.55-.43.3 0 .75.71.73 1.08a11.32 11.32 0 0 1-.54 2.21zM300 49.88a1.3 1.3 0 0 1-.06.29 37.46 37.46 0 0 1-4.4 0c-.21 0-.51-1.18-.41-1.75.05-.31.85-.59 1.34-.68a3.94 3.94 0 0 1 1.35.25l.33.33.65.32 1.27 1.27zM183 11.39l-2.5.31c.1-1.61-.39-3.33.94-4.69l.64.32.33.33.32.65zm69.79-4.69c1.17.61 1.88 4 .94 4.72a1.39 1.39 0 0 1-1.27.14c-.41-.26-.93-.91-.85-1.27a31.4 31.4 0 0 1 1.2-3.6zm11.9 1.57l1-1.26.33-.33c1.39.31 1 1.44.89 2.25a4.49 4.49 0 0 1-.86 2.6c-.61.6-1.53.14-1.56-.9a15.79 15.79 0 0 1 .29-2.42zM34.36 85.56c-.31-.29-.83-.54-.9-.88a9.61 9.61 0 0 1 0-2.17c.06-1.77.83-2.23 2.68-1.47l-.52 2.65-1.26 1.9zM11.18 28.28c.17.68.61 1.42.46 2-.31 1.24-1.49.69-2.34.8l-.3-.29-.64-.32-1.56-1.24-.13-.72zm140.53 52.91a6.4 6.4 0 0 1 2.14-.48c.28 0 .47 1 .65 1.6a2.7 2.7 0 0 1 0 .76l-.33.33-.33.33-2.53 1.92c.45-1.45 1.22-2.88.33-4.43zm146.48-12.83v-1l3.16-3.62a2.54 2.54 0 0 1-.34 3.67 5.35 5.35 0 0 0-.94.93l-.33.33h-1.24l-.33-.33zM53.76 85.87a5.8 5.8 0 0 1-1.19-1.53 4.25 4.25 0 0 1-.06-2.14c.1-.48.61-.88.93-1.31.48.37 1.28.67 1.37 1.12a5.06 5.06 0 0 1-.37 2.2 14.36 14.36 0 0 1-.7 1.68zm150.83-4.69l2.51-.31a18.86 18.86 0 0 1-.26 3.25c-.11.46-.86.76-1.31 1.13l-.33-.33-.32-.64zM75.66 84a7.32 7.32 0 0 1-.6-1.39 2.78 2.78 0 0 1 0-1.72c.16-.29 1.12-.42 1.52-.22a2.07 2.07 0 0 1 .93 1.38 20.91 20.91 0 0 1 0 3l-1.23-.17-.28-.26-.35-.62zm171.83 1.56c-.27-.15-.76-.28-.78-.46a13.83 13.83 0 0 1-.06-3.21 1.94 1.94 0 0 1 1.12-1.31c.88-.27 1.67 0 1.66 1.21l-.71 1.9-.6.64-.66 1.25zM63.13 9.19c-.09 1.18.26 2.87-1.6 2.73s-1.17-1.86-1.17-3c0-.43.58-.87.9-1.3l1.27 1 .33.33.33.33zM40.61 85.87c-.32-.33-.87-.62-.92-1a6.94 6.94 0 0 1 .08-2.75c.15-.52.91-.87 1.4-1.3a7.41 7.41 0 0 1 .92 1.68 3.84 3.84 0 0 1-.24 1.5l-1 1.58-.33.33zm35.93-76.3c.63 2 .27 2.46-2.06 2.39-1.1-1.32-1-2.62.28-4.06zm198.18-1.93c-.45-.41-.92-.8-1.36-1.22S272.6 5.62 272 5c1.62-.14 3-.62 4 .73.65.81 1.23 1.58.34 2.66l-1.08-.45-.65-.33zM84.54 85a34.64 34.64 0 0 1-.36-3.53c0-.33.6-1 .87-.94.63.07 1.54.29 1.78.75.6 1.19-.83 3.41-2.29 3.72zm70.07-73.28c-2.2.81-2.78.31-2.58-2.22l.33-.32.32-.64L153.9 7h.71zm143.21 55.34l-2.33.11.18-2.58c1.39-.56 2.52-.06 3.74.74zM57.18 9.52L59.39 7a38.27 38.27 0 0 1 .23 4.31c0 .26-1.06.67-1.6.63-.37 0-.83-.66-1-1.12s.11-.89.19-1.34zm30.06 75.74c-.5-1.33-.5-1.33.35-2.14l2.78 2.14 1.1 2-.11.4c-.81-.3-1.64-.59-2.44-.91a11.25 11.25 0 0 1-1.05-.55l-.32-.65-.33-.33zM228.18 7.69a25.17 25.17 0 0 1 .46 2.94c0 .43-.29 1.18-.58 1.26a2.2 2.2 0 0 1-1.7-.29 1.62 1.62 0 0 1-.34-1.5 16.81 16.81 0 0 1 1.52-2.47zM80 83.68l-1.13 1.23c-1-.81-1.57-3-.91-3.77a1.86 1.86 0 0 1 1.72-.44 2.22 2.22 0 0 1 .85 1.58c.06.44-.34.94-.54 1.41zM95.68 8.57a8.31 8.31 0 0 1 0 2.53c-.12.4-1 .57-1.56.85a5.52 5.52 0 0 1-.42-1.33c-.06-1.1 0-2.21 0-3.42l1 .13.33.33.33.33.32.64zM73.4 12c-.2 0-.41.05-.61.06-2 .07-2.24-.29-1.79-2.52l.28-.64 1.26-1.58.92-.2zm67.36-4.67c.05 1 .06 2 .18 2.94s-.07 1.58-1.06 1.74-1.68-.07-1.71-1.23l.71-2.22.34-.22 1.53-1zm66.65 1.26l1.46-1.3.49.07a36.61 36.61 0 0 1-.3 4.07c0 .26-1 .52-1.52.47-.28 0-.72-.72-.69-1.09a11.59 11.59 0 0 1 .57-2.23z" fill="#fdd917"/><path d="M295.68 64.3c-.16-.73-.68-1.82-.39-2.1.5-.5 1.49-.51 2.28-.72l.31.58.33.06 1.58 1.27.44 1.46c-1.77-1.08-3.13-1.44-4.55-.55zM60 85.25c-1-.71-1.83-2.91-1.45-3.93.11-.28.5-.68.71-.65.53.09 1.32.27 1.47.63a4.07 4.07 0 0 1 .09 2.16 7.83 7.83 0 0 1-.82 1.8zM7.1 23.92L9 25.17h-.31l-3.17 3.64c-.91-.87-.78-3 .17-3.64a12.22 12.22 0 0 0 1.43-1.27zm13.47 62.27l.67 1.18c-2.1 1-3.44.56-3.79-1.2-.1-.52.45-1.17.7-1.76a11.9 11.9 0 0 1 1.39.77 9.16 9.16 0 0 1 1 1zm131.73.63c-1.78.74-2.9.45-4-1-.13-.17-.44-.2-.66-.29l-.32-.64V84l.32-.64 1.58.31.32.64.33.33 1.24 1.27z" fill="#fdd917"/><path d="M9 25.17a1.29 1.29 0 0 0 .3.05c2.36-.13 2.77.47 1.9 2.76a3.59 3.59 0 0 1-3.7-.8L9 25.49v-.33zm266 58.21c-.12-.33-.24-.67-.35-1-.23-.69-.57-1.51.5-1.73.89-.18 1.84 0 2 1.12a9 9 0 0 1 0 2.46c0 .27-.58.47-.9.7l-.33-.33-.33-.33-.33-.33-.32-.64zM286 6.7l-.69-1.46c1.75-1.06 3.63-.44 3.77 1.38 0 .51-.53 1.06-.83 1.59-.42-.26-.84-.5-1.25-.77s-.68-.5-1-.75zM50 84.64a10 10 0 0 1-.43-2.64c0-.41.88-.74 1.35-1.11.3.44.8.87.86 1.34a27.21 27.21 0 0 1 0 3.27l-1.2-.56-.58-.32zM37.17 84a6.48 6.48 0 0 1-.39-1.5c0-.55 0-1.42.32-1.6a2.75 2.75 0 0 1 1.9-.05c.16 0 .15 1 .1 1.48-.09.91-.27 1.82-.41 2.78l-.89-.19-.33-.33-.32-.59zM231.2 8.88a11 11 0 0 1 .34 1.79c0 .41-.17 1.17-.35 1.2a2.71 2.71 0 0 1-1.74-.24c-.84-.56-.63-3.57.19-4.3l.33.33.33.33 1 1zM203.36 84l-1.88 1.62v-3.05c.11-2 1-2.45 2.83-1.38l-.66 2.2-.33.65zM106.65 8l-1.58-1.89a1.38 1.38 0 0 1 2.44-.41c.46.47 1 .89 1.55 1.39l-.25 1.2-.64 1-1-.31-.33-.33-.32-.65zm155.22-.68a6.31 6.31 0 0 1 .86 1.34c.29.88.44 1.8.64 2.71l-2.37.54c0-1.47-.06-2.64 0-3.8 0-.28.55-.52.85-.78zm-28.48 79.5c-.78.12-1.56.22-2.33.35-1 .16-1.24-.46-1.56-1.22-.17-.42-.74-.69-1.12-1l.31-1.26h1.55l.64 1 1.27 1.25 1.25.64zm-119.08-1.44c-2.07-1.2-2.65-2.45-2-3.88a1.74 1.74 0 0 1 1.27-.82c.27 0 .77.71.8 1.13a33.81 33.81 0 0 1-.07 3.57zm-23.94-.12c.1-1 .14-2.06.34-3.07a3 3 0 0 1 .77-1.54 1.3 1.3 0 0 1 1.23.17 3.73 3.73 0 0 1 .17 1.71 9.13 9.13 0 0 1-.33 1.47l-2.2 1.25zM28.48 7.93a17.76 17.76 0 0 1 .5 2.76c0 1-.69 1.5-1.67 1.28a1.27 1.27 0 0 1-1-1.88 14.94 14.94 0 0 1 1.51-2.26zm267.23 66.32l-1-2.46 4.67.23-.56 1.35-.64.64-.33.33zM197.72 84l-1.35 1.46-.4-.08c.16-1.47.27-2.94.52-4.4 0-.2.9-.51 1.15-.37a2.2 2.2 0 0 1 .92 1.26 4 4 0 0 1-.23 1.5l-.64.64zM9.3 31.1l-.31 1H9l-1.58 1.21-1.27 1L5 34l.83-2.28.63-.64.32-.32 1.57-.31.65.35.32.32zm2.2-12.51c.69 1.88.5 2.16-1.42 2.14a11.94 11.94 0 0 1-1.38-.06 9.46 9.46 0 0 1-1.18-.32l.9-1.45.27-.32.31-.31z" fill="#fdd917"/><path d="M108.82 8.27l1.49-1.07a19.37 19.37 0 0 1-.06 3.45c-.1.52-.83.93-1.28 1.38a13 13 0 0 1-1-1.8c-.1-.28.15-.69.24-1l.64-1zm153.06-.94l-1.51-2.06c1.68-1 3.75.45 4.32 3L264 9l-2.08-1.73zm-74.49 76.05v-.77c-.05-2.15.22-2.34 2.32-1.54l-.32 4.4-2-2.11zm-45.69-2.19l2.28-.83v4.25l-1.35-.3V84l-.93-.64zm136.86 3.63a3.17 3.17 0 0 1-.92-3.46 1.72 1.72 0 0 1 1.56-.64c.48.2 1.11 1.13 1 1.5a12.58 12.58 0 0 1-1.64 2.6zm-82.8-1.88c-.25.59-.61 1.94-.85 1.92-1.21-.1-1.59-1.15-1.61-2.24 0-.93 0-2 1.31-2 1.71-.02.57 1.38 1.15 2.32zm-4.01-73.19c.33-.73.75-2.08 1-2 1.19.16 1.58 1.19 1.57 2.31 0 .89 0 1.92-1.27 1.95-1.78-.01-.57-1.49-1.3-2.26zM6.81 61.16c0-.86.15-1.42 1.26-1 .61.23 1.38.05 2 .32a6.07 6.07 0 0 1 1.4 1.27c-.56.32-1.1.68-1.68 1a2 2 0 0 1-.76 0H9l-.32-.32-1.88-1.28zM43.1 83.68c.49.63 1 1.29 1.48 1.9s1.1 1.18 1.76 1.87a2.81 2.81 0 0 1-3.2-.65c-.34-.29-.65-.62-1-.93L41.86 84l1.26-.31zM246.53 7.33a18 18 0 0 1 1.33 2.78 2.15 2.15 0 0 1-.45 1.65c-.15.19-1.08.07-1.37-.21a2.05 2.05 0 0 1-.65-1.56 14.52 14.52 0 0 1 1.16-2.67zm-30.64.14c-.06 1.17-.05 2.34-.19 3.5-.1.88-.8 1.35-1.56 1a1.73 1.73 0 0 1-.63-1.57 23.12 23.12 0 0 1 1.71-3.15zm62.93-1.02c.08 1.61.18 2.91.16 4.22a1 1 0 0 1-.75.7 1.52 1.52 0 0 1-1.16-.48c-.54-.79.41-3.62 1.75-4.44zM152 9.5l-1.27-.62-1-1-1-1.27-.23-1.12c1.08-.25 2.07-.38 2.73.8l.63.32.62 1.89-.32.64-.33.32zM9 32.05a4.87 4.87 0 0 0 .61.05c2.35-.09 2.66.37 1.71 2.53a26.19 26.19 0 0 1-2.82-.48c-.4-.11-.71-.56-1.06-.86L9 32zm291.05-.64c0 .86-.18 1.41-1.27 1-.66-.24-1.44-.12-2.11-.35a2.42 2.42 0 0 1-1.18-1c-.11-.18.2-.89.45-1a2.44 2.44 0 0 1 1.57 0 23.57 23.57 0 0 1 2.56 1.33zM264.6 85.38c.17-1.34.23-2.26.42-3.15.1-.45.32-1.07.67-1.22a1.41 1.41 0 0 1 1.34.3 1.85 1.85 0 0 1 .07 1.51 7.13 7.13 0 0 1-1.23 2c-.25.25-.76.33-1.27.56zM70.67 9.52l-1-.33-1.22-1.56-.64-1-.33-.33c.16-.32.32-.91.47-.9a5.28 5.28 0 0 1 1.86.38c.33.14.53.59.79.9.37.66 1.27 1.16.64 2.13zM27.46 81.18c.76.07 1.75-.43 2.05.81a4.08 4.08 0 0 1-1.85 4l-.19-4.85zM229.64 7.33l-1.26-1.27-.33-.33c.49-1.2 1.5-.67 2.22-.5 1.27.29 2.27 2.74 1.8 4.13l-.9-.52-1-1-.33-.33-.33-.33zm7.2 76.36v-1.08c0-.62-.08-1.7.15-1.79a7.1 7.1 0 0 1 2.27-.09 30.87 30.87 0 0 1-.56 3.17c-.11.4-.59.69-.9 1l-.32-.64-.33-.33-.33-.32zm-72.3-71.99l-2 .4V7.82l1.37.77.66.62zm-28.78 71.69a4.09 4.09 0 0 1-.27-.88c0-.58-.2-1.56 0-1.67a3.25 3.25 0 0 1 2-.17c.24.06.31.94.4 1.45a5.39 5.39 0 0 1 0 .93l-.39 1.09-1.14-.14-.33-.33-.33-.33zM119.15 9.51v.46c0 2.11-.38 2.35-2.35 1.48l.31-3.94 1.14.45.64 1 .33.64zm163.69-1.87l1.47-.41a16.16 16.16 0 0 1 .37 3c0 .46-.66.88-1 1.32-.39-.38-1-.71-1.13-1.16a7.47 7.47 0 0 1 0-2.12l.32-.64zm-205-.33l-.95 1.9-3.78-3.45c1.76-.74 2.82-.48 3.91.91a4.35 4.35 0 0 0 .84.66z" fill="#fdd917"/><path d="M43.11 83.69a2 2 0 0 0 0-.45c-.5-2.33-.24-2.6 2.34-2.25l-.19 4-2.16-1.31zM150.76 8.88v1.08c0 .62.07 1.69-.17 1.78a6.85 6.85 0 0 1-2.25.09c.21-1.28.3-2.25.55-3.18.08-.29.59-.46.91-.68l1 1zM92.55 84c1-.83 1.24.47 1.89.63L97.05 87a3.15 3.15 0 0 1-4.49-3zM39.34 8.89l2-1.79c.13.23.44.53.43.82a18.78 18.78 0 0 1-.31 2.43c-.15.84-.52 1.57-1.52 1.3-.82-.23-1.07-.87-.72-1.72a3.66 3.66 0 0 0 .1-1zm146.8 74.16a20 20 0 0 1-1.32 1.66 7.51 7.51 0 0 1-1.38.85 24.24 24.24 0 0 1 .53-3.39c.15-.5.75-.87 1.15-1.3a15.71 15.71 0 0 1 1 1.42c.11.19 0 .5 0 .76zm-84.81 1.58c-.32-.53-.66-1-1-1.58a1.53 1.53 0 0 1 .69-2.24 1.37 1.37 0 0 1 1.25.09c.77.61.23 3.53-.68 4l-.33-.33zm-50.72.3l2.28 2.54c-2.48.7-3.56.09-4.47-2.54l1.58-.29.65.32zm25.66 0l1.9 1.89c-.08.21-.12.59-.24.61-2.27.45-4.17-1.77-3.58-4.24l1.33.82.32.64.33.33zM24 84.31l-1.79 1.26a19.08 19.08 0 0 1-.39-3.34c0-.43.74-.82 1.13-1.23.34.38.88.72 1 1.16a9.16 9.16 0 0 1 0 2.15z" fill="#fdd917"/><path d="M99.12 84l2.21.62.33.33 1.51 2.24a3 3 0 0 1-4-3.18zm99.21-.62h.67l.32.65.33.33c.32.45.67.87.95 1.34s.49.95.75 1.46c-2.18.56-3.46-.65-3.56-3.12l.64-.64zm36.11-75.65c.07 1.23.19 2.46.15 3.68 0 .21-.77.64-1 .54-.43-.18-1.08-.75-1-1a26 26 0 0 1 1-3.3zM72.13 84.85a21.19 21.19 0 0 1-.39-3.27c0-.34.85-1 1.17-.92s1.08.84 1 1.2a19.3 19.3 0 0 1-1.06 3.08zM301 70.86c.81 0 1.12.42.87 1.16s-.58 1.3-.87 1.95a3.3 3.3 0 0 1-3.13 1.26v-.95l.33-.33.64-.64 2.2-2.51zm-97.64 14.71v-1.58l.33-.65 1.26.94.32.64.33.33 1.58 1.26.33.33c-.85 1.1-1.79.75-2.73.15-.36-.23-.68-.52-1-.78l-.32-.64zm-34.46-2.51c0-.46-.15-1 .07-1.35a1.77 1.77 0 0 1 1.27-.76 1.52 1.52 0 0 1 1.08.92 8.63 8.63 0 0 1 .09 2.14 3.87 3.87 0 0 1-1.16.19 3.55 3.55 0 0 1-1-.5l-.32-.32zm47.55-2.19c2-.88 2.62-.52 2.61 1.57v.92c-.09.94-.67.85-1.31.63l-.65-.33zM6.79 69.3h2.38l-.5 1.25-.67.31-.33.33-.33.33-.33.33-1.54 1.43c-.84-1.65.23-2.62 1-3.68l.33-.33zM82.86 8.27l-2.7-2.93a4.39 4.39 0 0 1 3.35 1l1.23 2.52-.32.28h-.94l-.33-.33-.32-.64zM122 7.32c.32.12.92.26.91.35a18.6 18.6 0 0 1-.53 3.35c-.09.31-.82.43-1.26.64l-.73-1.84zm175.88 39.74c-.4.09-.93.37-1.18.21-.51-.32-1.15-.84-1.21-1.34s.65-1 1.15-1.24a5.25 5.25 0 0 1 1.85-.06c.09.38.33.8.23 1.12a6.06 6.06 0 0 1-.86 1.34zM142.63 84.31L145 87c-1.64.64-3.75-.66-4.32-2.68l1-1 .63.94h.3zM45.6 8.59l1.68-1.21a34.7 34.7 0 0 1-.06 3.71c0 .23-.83.61-1.17.52a1.55 1.55 0 0 1-.86-1 5.84 5.84 0 0 1 .1-1.68l.33-.33zm60.74 74.79v-.62c-.06-2.08 0-2.13 2.35-1.73l-.54 4.07-1.52-1.1-.33-.65zM168.6 11.8l-.06-2.58 1-1 1 .64.7 2.53-2.34.61zM27.47 81.17a5.92 5.92 0 0 0-.76 1.6 13 13 0 0 0 .1 2.43l-1.86-.89a3.67 3.67 0 0 1-.08-.91c.11-.72.07-1.68.5-2.06s1.36-.13 2.08-.16zM209.3 84l-1 .93-.31.34c-.2-.23-.57-.46-.56-.68 0-1.23.16-2.46.26-3.69.57 0 1.33-.25 1.65 0s.27 1.07.25 1.63a7.4 7.4 0 0 1-.36 1.47zm40.63-2.2l1.87-.87a7.07 7.07 0 0 1 .65 1.54 9.2 9.2 0 0 1 0 1.84l-.87.32-.32-.32-.32-.32-.32-.32-.64-.64zM9.64 45.21c.93.09 1.87.25 1.78 1.47s-1 1.26-2 1.29h-.74l-1-.66c.31-.37.56-.62.77-.91s.37-.61.55-.92zm262.18 39.4a25.47 25.47 0 0 1-.37-3.19c0-.27.8-.85 1-.76.48.19 1.21.8 1.16 1.1a17.85 17.85 0 0 1-1.09 3zM126.66 8.59l1.7-1.2c0 1.51 0 2.69-.05 3.86 0 .16-.79.44-1.14.35a1.28 1.28 0 0 1-.78-.9 10.89 10.89 0 0 1 .28-2.12z" fill="#fdd917"/><path d="M73.11 5.76l3.79 3.45-.35.36-1.79-1.67c-1.32 1.44-1.37 2.74-.28 4.06L73.4 12V7.15l-.92.2V5.76z" fill="#d8b178"/><path d="M24.95 84.31A20 20 0 0 0 26.2 86a16.83 16.83 0 0 0 1.49 1.33l-.12.48a8.23 8.23 0 0 1-2.75-.58 2.09 2.09 0 0 1-.8-2.94h.93zM8 18.88l-2.7 2.85c-.56-1.78.23-3.18 2.41-4.56l1 .17.32.95H9l-.32.32zM260.94 84l-1.78 1.22c0-1.49-.06-2.63.05-3.75 0-.22.75-.58 1.05-.5a1.43 1.43 0 0 1 .93.92 9.25 9.25 0 0 1-.26 2.13zm-134.39-2.84c.54-.14 1.26-.55 1.58-.34s.43 1 .44 1.57a7.12 7.12 0 0 1-.34 1.63l-.66.59-.61.67c-.18-.31-.49-.62-.5-.94-.01-1.08.06-2.13.09-3.18zm11.11-70.38l-1.78.84a8.48 8.48 0 0 1-.74-1.65 7.11 7.11 0 0 1 0-1.7l1.83.63.64.32zm-33.2 73.84l-1.45.29a37.1 37.1 0 0 1 .77-4c0-.17 1.15 0 1.85 0l-.56 2.2-.32 1-.33.65zm75.43-.62l-1.83 1.22a33.21 33.21 0 0 1 .06-3.66c0-.24.81-.62 1.15-.54a1.43 1.43 0 0 1 .83 1 8.26 8.26 0 0 1-.22 2zM164.32 8.56l-2.76-2.89.2-.47 3.08 1.22 1 2.47-1.26.32zM126 86.82c-.62 1-1.45.7-2.24.31a6.87 6.87 0 0 1-1.09-.83l-.41-2.62a2.78 2.78 0 0 1 .94.3 14.13 14.13 0 0 1 1.26 1.27l.32.32z" fill="#fdd917"/><path d="M217.74 84c.64.21 1.23.31 1.31-.63h.5l.08 2.1.6.09 1.59-2.18 1 2.76a1.62 1.62 0 0 1-2.3.38z" fill="#d8b178"/><path d="M34.37 8c.87 1 .67 2.3.46 3.52 0 .2-.9.51-1.13.37-.41-.25-.92-.87-.86-1.24A14.69 14.69 0 0 1 33.8 8zm209.35.25a7.88 7.88 0 0 1 .72 1.66 2.69 2.69 0 0 1-.14 1.7 1.41 1.41 0 0 1-1.35.19 2.71 2.71 0 0 1-.5-1.61 11.19 11.19 0 0 1 .26-2l1 .05zM7.57 67.26a15.3 15.3 0 0 1 2.83-.39c.39 0 .75.67 1.13 1-.39.36-.84 1.08-1.15 1a18 18 0 0 1-2.93-1zm291.76-41.97a20.29 20.29 0 0 1-3 .43c-.34 0-1-.7-1-.91.13-.47.71-1.21 1-1.16a20.37 20.37 0 0 1 3.06 1zM44 9.51c.1.66.48 1.75.24 1.91a3.8 3.8 0 0 1-2.35.26c.62-1-.66-2.63 1.18-3.09l1 1zm218.51 73.56l-.38-2 2.77-.46-1.15 3.66-.33-.33-.64-.32-.32-.65zm35.36-48.53l-2.14.5-.58-2.56c1.53.56 3.07-.49 3.65 1.44l-1 .64zM199 83.38c0-.57-.15-1.25.11-1.68s.95-.76 1.45-1.12c.2.5.59 1 .54 1.5a12.14 12.14 0 0 1-.72 2.34l-.76-.11-.33-.33-.32-.65z" fill="#fdd917"/><path d="M297.86 75.23A3.3 3.3 0 0 0 301 74l.32 2.6-2.5 2.74-.31-1.2v-.33l1.48-.52A10.45 10.45 0 0 0 299 76a6.69 6.69 0 0 0-1.14-.77z" fill="#d8b178"/><path d="M7.43 53l-2.1 1.14c-.65-1.79.49-3 3-3.32L8 52.4l-.32.32-.26.28zm111.43 31.64a10 10 0 0 1-.86-2.7c0-.42.89-.88 1.37-1.31.2.54.65 1.14.55 1.61a11.76 11.76 0 0 1-1.08 2.39zm69.77-75.45a7.88 7.88 0 0 1-.35 2.07c-.15.34-.82.45-1.25.67-.2-.41-.64-.9-.54-1.23a22.07 22.07 0 0 1 1.22-2.7l.33.33.33.33.32.65zM300 41.7c-1.16.15-2 0-1.55-1.52l1-.64 2.12-1.19c.81 1.31-.13 2-.91 2.67zM125.1 9.19a.78.78 0 0 0 0 .15l.34 2.12-2.46.31a26 26 0 0 1 .39-2.69c.06-.22.52-.34.8-.51l1 .64z" fill="#fdd917"/><path d="M8 52.4a9.88 9.88 0 0 1 1.58-.46 2.25 2.25 0 0 1 1.43.15 1.26 1.26 0 0 1 .11 1.22 1.44 1.44 0 0 1-1.17.62A17.32 17.32 0 0 1 7.43 53l.33-.33.32-.32zm249.19 31.92a6.88 6.88 0 0 1-.58-1.58 3.42 3.42 0 0 1 .25-1.7 1.45 1.45 0 0 1 1.23.09 2 2 0 0 1 .46 1.48 13.48 13.48 0 0 1-.75 2.33l-.33-.33-.33-.33zm-193.43 0a2.41 2.41 0 0 1-1.85-2.5c0-.41.67-.81 1-1.21.38.37 1 .71 1.09 1.12a11.58 11.58 0 0 1-.26 2.57zm43.5-75.44a16.46 16.46 0 0 1-.29 2.63c-.06.23-.79.41-1.2.38-.16 0-.47-.73-.37-1 .34-1 .82-2 1.25-2.93l.32.65.33.33z" fill="#fdd917"/><path d="M9 25.49l-1.51 1.69a3.59 3.59 0 0 0 3.7.8v.3l-4.51.23.13.72H5.55v-.41l3.16-3.64zM295.68 64.3c1.42-.89 2.78-.53 4.5.5l-.44-1.46h1.57v.42l-3.16 3.62-.34-.32 1.59-1.73c-1.21-.8-2.35-1.3-3.74-.74l.02-.29z" fill="#d8b178"/><path d="M130.73 8.88a8.48 8.48 0 0 1 .33 1.92c-.05 1-.79 1.09-1.45.67-.35-.22-.74-1-.6-1.24.4-.75-.22-2 1.12-2.28l.33.33.32.64zm52.83 71.71l-.61 3.5-.49.21-1.6-2.87zM298.5 40.18a5.55 5.55 0 0 1-1.43.5 2.2 2.2 0 0 1-1.37-.36c-.19-.14-.18-.82 0-1.09a1.34 1.34 0 0 1 1-.59 22.51 22.51 0 0 1 2.69.93l-1 .64zM286 6.69c.25.71.48 1.44.75 2.14.46 1.19 0 1.94-1.19 2.54L285 6.55l.94.15zM89.36 83.93A10.65 10.65 0 0 1 88 81.78c-.12-.34.44-.92.69-1.4.46.35 1.21.63 1.32 1.07a8.12 8.12 0 0 1-.07 2.37zM20.58 86.2c-.28-.86-.58-1.72-.84-2.59a1.77 1.77 0 0 1 1.08-2.36c.21 1.36.37 2.65.63 3.92.17.81-.23 1-.88 1zM48.8 8a12 12 0 0 1 1.14 2.4c.09.35-.53.88-.82 1.32-.43-.42-1.17-.81-1.21-1.26a8 8 0 0 1 .54-2.37zm168.94 1.2a8 8 0 0 1 .66 1.37c.11.41.21 1.06 0 1.26a1.46 1.46 0 0 1-1.3.14 1.45 1.45 0 0 1-.61-1 19.36 19.36 0 0 1 0-2.41l1.3.68z" fill="#fdd917"/><path d="M165.79 8.89l-1-2.47 1.11-.91 1.22.54.88.95zm-11.18 2.83V7h-.71l.29-.86v-.39l2.54 1.93c-1.92.63-2.37 1.94-1.56 4zM84.73 8.89L83.5 6.38l2.44-.62 1 1.24z" fill="#d8b178"/><path d="M85.05 86.82c-.15-1.27.69-1.87 2.19-1.57l.33.33.32.65c-.69 1.33-1.69 1.27-2.82.62z" fill="#fdd917"/><path d="M207.75 80.88c-.1 1.23-.22 2.46-.26 3.69 0 .22.37.45.56.68l-.94 1.26-1.58-1.26c.46-.37 1.2-.67 1.31-1.13a18.86 18.86 0 0 0 .26-3.25zM126 86.82l-1.25-1.26A23.92 23.92 0 0 0 126 83a6.94 6.94 0 0 0 .12-1.81h.46c0 1-.1 2.1-.06 3.15 0 .32.33.63.5.94-.31.48-1.41.64-.61 1.56zM181.44 7c-1.33 1.36-.84 3.09-.94 4.69l-.57-.29c-.05-1.42-.16-2.84-.13-4.26 0-.37.45-.73.7-1.09z" fill="#d8b178"/><path d="M242.78 85.87a23.27 23.27 0 0 1-2.12 1.2c-.08 0-.45-.58-.68-.89l2.21-1.26.33.33.33.65zm57.27-31.28c1.21-.16 1.43.69 1.58 1.58.12.73-.21 1.05-1 .91l-.65-.32-.63-1.58.33-.33.33-.33z" fill="#fdd917"/><path d="M152.3 86.82l-1.23-.93.31-.29 2.53-1.92 1.2 2.54-.47.3-1-1.64-.78.41-.12 1.49z" fill="#d8b178"/><path d="M228.38 6.06c-.34 1.24-1.07 1.55-2.19.94l-.1-1.24h2l.33.33zM7.42 22.65l-.32 1.27c-.46 0-1.27.05-1.32-.12a2.33 2.33 0 0 1 .06-1.59c.09-.2.83-.12 1.27-.16l.32.65zm72-15.02l-1.58-.32c-.12-.93.2-1.55 1.22-1.46.85.07 1.24.58 1 1.47l-.65.32zM300 68.36c2.07.18 1 1.52.94 2.5l-1.26-.63-.33-.33.32-1.27.33-.33zM158.91 7.33C159 6 159.57 5.59 160.6 6s.77.8.17 1.33l-.33.33h-1.25l-.33-.33zm-11.28 78.23c0 1.14-.86 1.2-1.56 1.12s-1.1-.66-.62-1.43l.65-.32h1.25l.32.64zm-67.28 0c.28 1.39 0 1.69-1.44 1.34a5.64 5.64 0 0 0-.75-.09c.26-1.51.71-1.77 2.19-1.25zM7.42 74c0 .15 0 .37-.07.45-.45.38-.94.73-1.41 1.09a13.69 13.69 0 0 1-.2-1.68c0-.2.28-.4.44-.62l1.26.76zm9.21 11.48l.4 2.16H14.3zM8.67 9.51l.33.86-3.8-.71.05-.59 1.25-.18 2.21.64zM45 6.7c.79-1.4 1.28-1.49 2.7-.16l-2.09.77-.61-.62z" fill="#fdd917"/><path d="M300 41.7l.59-.65a4.08 4.08 0 0 1 .88.87 4.87 4.87 0 0 1 .3 1.28l-1.12.11-.64-.92z" fill="#d8b178"/><path d="M34.34 5.75l-.71 1.74L32.46 7c-.25-1.73.79-1.53 1.88-1.25zm239.74 79.81c-.16 1.62-.37 1.71-2.19.94l.94-1.62 1.25.68zM6.5 44.56c-1.59-.19-1.42-1.13-1-2.3l1.3.43v1.58l-.33.33zm0 25.04c-1.55-.2-1.24-1.2-.94-2.19 1.56.24 1.88.74 1.25 1.88l-.33.33zM126.68 7.33l-.37-1.1c.07-.08.14-.21.21-.22a13.33 13.33 0 0 1 1.69-.19c.08 0 .26.58.23.6-.58.32-1.18.6-1.78.89zM234 5.44l-.51 1.91-.59.07-.73-1.59 1.83-.38zM53.74 85.88h1.56l.33.33c0 1-.54 1.48-1.46 1.25s-.87-.88-.41-1.56zM154.19 6.15l-.29.85-1.9-.31-.25-.33c.68-1.61 1.58-.69 2.44-.21z" fill="#fdd917"/><path d="M9 45.5c-.18.31-.34.63-.55.92s-.46.54-.77.91l1 .66v.3L6.16 48z" fill="#d8b178"/><path d="M183.95 6.7c.38-1.53.84-1.64 2.24-.45l-1 1.07-1-.31V7l-.33-.33zm117.37 18.46c-1.6-.27-1.92-.75-1.25-1.88 1.44-.28 1.72.13 1.25 1.88zM252.8 6.69l-1.89-.32c-.09-1.06.5-1.41 1.41-1.21s.83.86.45 1.53zM180.12 86.7h-2c.13-.39.22-1.09.38-1.11a6.4 6.4 0 0 1 1.66.24zM105.07 6.07l-.95 1.26h-.94l.14-1.74 1.75.5zm98.59 80.12c-.61 1.56-1.35 1.05-2.55-.27l2.24-.35.32.64zm57.27-.95c0 .46.19 1 0 1.35s-.8.32-1.22.31c-.2 0-.58-.54-.53-.62a2.88 2.88 0 0 1 .88-1c.22-.14.59-.05.9-.07z" fill="#fdd917"/><path d="M53.48 9.52l.61-2.74 2.16 2.08-.18.25-1.75-1.19L54 9.53z" fill="#d8b178"/><path d="M249 85.56c0 .25.08.59-.05.74a2.4 2.4 0 0 1-1 .75c-.27.08-.63-.2-1-.31l.48-1.17H249zm-96.3 1.22l.12-1.49.78-.41 1 1.64zM14 85.88h.81c-.41 1.26-.9 2.22-2.52 1.7l1.1-1.45.64-.33z" fill="#fdd917"/><path d="M297.86 47.08a6.06 6.06 0 0 0 .86-1.34c.1-.31-.14-.74-.23-1.12v-.3l2.25.47z" fill="#d8b178"/><path d="M301.3 63.34h-1.56l1.57-1.92zM59.39 7a1.34 1.34 0 0 1-.3-.05l-1.58-.69c.38-.26.76-.72 1.15-.73 1.12 0 .81.82.71 1.49zM166.1 85.57a1.25 1.25 0 0 1 .31 0l1.45.52c-.14.25-.24.66-.44.72a5 5 0 0 1-1.29.07v-1.32zM300.36 48c1.21.29 1.53 1 1 2.18l-1.36-.3.31-1.89zM5.55 29.22H6.8v1.58l-.32.32h-.93zM72.53 5.76v1.57l-1.87-1c.34-1.05 1.05-.97 1.87-.57zM138.57 7c.25-1.64.84-1.92 2.12-1-.34 1.15-1.29.93-2.13.94zm-16.26 79.82l-1.77-.18.49-1.09c1.19-.34 1.2.45 1.28 1.27zm84.8-.31l.94-1.26.34-.08 1.34.64-.45.76-1.85.24-.33-.33zM35.9 86.19c0 1.25-.84 1-1.57.94l-.33-.32.32-1.27h1.24l.32.65zm90.48.61c-.79-.91.3-1.08.61-1.56h.64l.76 1.22z" fill="#fdd917"/><path d="M122 7.32l-1.6 2.5-.29-.36.85-2.54.74.1zm-20 4.08l-.34-3.11c1.32.85 1.4 1.92.55 3.16zm114.45 69.47l.68 2.83-1.26.3v-2.82zM183 11.39l-.32-3.14 1.25.94-.67 2.19zm-11.82.02l-.7-2.53 1.26-.3v2.82zm-1.95 72.27a3.55 3.55 0 0 0 1 .5 3.87 3.87 0 0 0 1.16-.19h.27l-.45 2zm35.69.64l-1.26-.94.66-2.2h.28zm96.39-22.89l-1.57 1.92-1.58-1.27 2.45-.95zM136.36 84l1.23.15.39-1.09h.52l-.25 2.21zM137 8.89l-1.83-.63h-.32l.43-1.78zm-14.69 77.93c-.08-.78-.09-1.62-1.28-1.28v-.29l1.26-1.58.41 2.62zm19.39-3.44l-1 1h-.49l1.28-3.16h.23q-.02 1.06-.02 2.16zM70.66 6.36l1.87 1-1.26 1.53c.64-1-.26-1.47-.64-2.13zm98.89 1.91l-1 1H168V7zm-5.02.93l1.26-.32-.65 2.83h-.6zm-26.87 1.58V9.2l1.26-.62-.71 2.22zm84.15 72.6l.83-2.51h.43l-.4 2.51zM9 18.28l-.32-.95 2.8.58v.67zM249.93 81.8l.06 1.27-1.26.63.71-1.9zm47.94-7.51v.95l-2.21-.7a2.11 2.11 0 0 1 0-.3zm-46.32 10.34l.87-.32h.33l-.42 1.7zm-18.15 1.88l-1.25-.64.3-.3h1.26z" fill="#d8b178"/><path d="M8.69 17.34l-1-.17v-.45zm152.78 68.87l-.08-.71.24-.09.4.78zm-3.82-76.69l-.38-.69.19-.15.53.51zM9.64 45.21l-.66.3.33-.92zM5.55 31.12h.95l-.63.64zm122.07 54.11h-.64l.61-.67zm36.7-76.67l.23.64-.66-.62zm-93.65.96l.61-.64-.28.64zm98.23 73.54v.33l-.73-.25zM151.77 6.37l.25.33-.63-.32zM8 18.88l.67-.29-.27.32zM301.36 44l-.55-.06z" fill="#d8b178"/><path d="M254.74 76.56l-.52.08.35-.28z" fill="#fdd917"/><path d="M139.21 8.35l-.34.22L139 8z" fill="#d8b178"/><path d="M140.74 7.31l.14-.13-.12.15z" fill="#fdd917"/><path d="M5.87 48.31v.31h-.42zm202.5 36.86l-.34.08.31-.34a2.23 2.23 0 0 1 .03.26zM53.45 6v.33zM295 86.76zm-61.61.06v-.32l.4.26zm-74.85-.66l.33-.32.09.1a.49.49 0 0 1-.06.26zM18.71 9.83l.29-.37z" fill="#d8b178"/><path d="M63.77 84.3l.14.15-.16-.13z" fill="#fdd917"/><path d="M18.1 10.14l.28-.31zm150.5 1.66l.3.23z" fill="#d8b178"/><path d="M297.31 82.67l2.5.89-.83.64 1.3 1.78c-1.47.65-2.19-.37-3-1.06l1-.82-1.14-1.28zm-8.51.69l3.41 1.05v.15l-1.78.69-1.65-1.87z" fill="#cfa784"/><path d="M293.79 84.95l2.8.38-2.47.69-.32-1.09zm-1.25-.31l1.25.31-1.25-.31z" fill="#d8b178"/><path d="M297.25 84.93h-.72l.05-.2.65.26zm-8.47-1.55l-.29-.33.34.29z" fill="#cfa784"/><path d="M292.22 84.56v-.15l.33.22zM7.69 8.27L6.13 6.82c1.5-.25 3-.62 3.82 1l-1.89.44zm10.03.97l-3.48-1 1.75-1 1.78 2z" fill="#d8b178"/><path d="M7.69 8.27h.37l.63 1.26-2.21-.65z" fill="#cfa784"/><path d="M17.77 9.19l.13.19-.18-.14z" fill="#d8b178"/><path d="M83.47 9.19h.94v.4L84 10.66zm-.62-.94l.32.64zm7.48.92l.1-.39h.13l-.16.41z" fill="#cfa784"/><path d="M84.45 9.57v-.4l.32-.28zM86.94 7l.14.18L86.9 7z" fill="#d8b178"/><path d="M83.16 8.88l.33.33z" fill="#cfa784"/><path d="M296.89 8.23l.86-1.14-2-.84v-.36l4.05-.9-1.6 2.72 1.06.49-2.26.13z" fill="#d8b178"/><path d="M297 8.33l-.28.07.18-.17z" fill="#d8b178"/><path d="M299.44 21.1c-.1-1.09-.1-1.09-2.46-1.39a11.14 11.14 0 0 0 1.53-.3 7.16 7.16 0 0 0 1.11-.63c1.52.91.59 1.6-.2 2.3zm-1.33.9l1.33-.85-1.13 1.08zm1.89-5l.29-.06-.2.16zm1.34 1.94l-.17.19.07-.28zM103.19 7.32h1l-.86 1.07zm-7.5 1.26l-.32-.64z" fill="#cfa784"/><path d="M101.61 8.28l-.14-.19.18.15z" fill="#d8b178"/><path d="M95.07 7.64l-.33-.33zm.31.36l-.33-.33zM9.61 84.31l-1 1.53-.11.16.2-.13 2 .3v.44l-3.94.86 1.76-3.18h1.1zm8.46-1.57l-.59.33-.08-.22.68-.09zM14 85.87l-.64.33z" fill="#cfa784"/><path d="M9.93 84l-.32.32.33-.32zM7.36 37.31L6.82 36l.18-.25 1.76 1.43-1.29.26zm1.31 1.61zm-1.26 1.25l.36-.3.11.19-.41.19z" fill="#cfa784"/><path d="M7.51 37.45l-.3.06.16-.2z" fill="#cfa784"/><path d="M158.87 85.84l1.74-2.58.43 1.45-2.04 1.23z" fill="#d8b178"/><path d="M67.83 6.69l.64 1c-.23.58-.48 1.16-.69 1.75a11.77 11.77 0 0 1-.66 1.8 5.37 5.37 0 0 1 .71-4.55zm-2.08.76l-.84 1.6-.8-1.39 1.48-.4zm2.7.18l1.26 1.58zm-5.93.95l-1.27-1z" fill="#cfa784"/><path d="M65.59 7.27l.65-.6.08.08-.57.7z" fill="#cfa784"/><path d="M66.61 6.42l-.29.33-.08-.08.31-.31zm.9-.04l.33.33zm-4.68 2.51l-.33-.33zm.32.32l-.33-.33zM167.68 84zm5.42 1.74l.08-.04-.01.09-.07-.05z" fill="#cfa784"/><path d="M168.92 83.37l.32.32z" fill="#d8b178"/><path d="M167.66 84l-.16.21.18-.19zm81.39 1.57h-1.58l.66-1.25h.37z" fill="#cfa784"/><path d="M250 83.05l.64.64zm-1.49 1.27h-.37l.6-.64z" fill="#d8b178"/><path d="M257.49 84.62l.33.33zM254 86.15l.18-.14-.12.2z" fill="#cfa784"/><path d="M250.6 83.68l.32.32zm.63.63l.32.32z" fill="#d8b178"/><path d="M257.17 84.31l.33.33z" fill="#cfa784"/><path d="M250.92 84l.32.32z" fill="#d8b178"/><path d="M56.06 83.54l.76.85-.27.21-.68-.85zm5.21 1.7l.19.14-.22-.12zm-5.64.96l-.33-.33zM248.89 7.15s-.08.12-.09.12a1.9 1.9 0 0 1-.26-.12s.07-.12.09-.12a1.93 1.93 0 0 1 .26.12zm.74.85l-.21-.15.25.1zm-118.89.9l-.32-.64z" fill="#cfa784"/><path d="M137.64 9.21l-.64-.33z" fill="#d8b178"/><path d="M133.61 6.44l-.17.19.08-.28zm-3.18 1.83l-.33-.33zM6.72 56.37c.32-.81.68-1.38 1.33-.22l-1.19.39z" fill="#cfa784"/><path d="M6.86 56.53l-.42.26-.11-.18.39-.24zM9 58l-.41.27-.07-.12L9 58zm-.63-1.55l-.31-.31.31.32zM199.48 8l-.66-.6.21-.19.62.63z" fill="#cfa784"/><path d="M199.66 7.89l.25.46-.19.11-.24-.46zm2.53.11l-.31.34.12-.44zm-54.85-1l-1.58 1.9-.26-1.1zm-2.51-.31l.27.37-.19.09-.1-.44zm.94 2.19l-.32.65zm1.88-2.19l-.33.33zm67.6 78.87l-.9.07-.06-.08.83-1 .11 1z" fill="#cfa784"/><path d="M215.87 84zm1.24-.32l.65.33z" fill="#d8b178"/><path d="M215.23 85.58l.17.11h-.09a.49.49 0 0 1-.06-.12zM72.29 86.75l.18.22-.32-.07zm-2.93-2.41l-.14-.19.19.14zm55.76-75.13l-1-.64zm-6.27-.31l-.64-1zm.31.62l-.33-.64zm149.09-2.35l.54.39-.13.22-.59-.39zm-2.3-.48l-.33.33zm31.91 27.87l1-.64zm2.58 1.32l-.32.08.21-.19z" fill="#cfa784"/><path d="M138.24 85.25l.32.33zm-2.19-1.57l.33.33zm-.31-.31l.33.33zM170.5 8.89l-1-.64zm1.24-.32a.45.45 0 0 1 .06-.12h.09l-.15.13z" fill="#d8b178"/><path d="M300.38 48l-.31 1.89-1.27-1.27zm-1.57.64l-.65-.32zm-.62-.31l-.33-.33zM31.73 9.64l-.58-.7.19-.16.56.67zm-.92-1.31L30.49 8l.44.23z" fill="#cfa784"/><path d="M31.15 8.94l-.34-.61.11-.09.41.55zM34 86.81l.33.33zm246.34-.92l-.32-1z" fill="#cfa784"/><path d="M298.49 79.61l.31-.31-.31.31zm.01.01a.46.46 0 0 1-.06.13h-.1l.15-.16z" fill="#d8b178"/><path d="M238.1 9.19l-.18-.12h.09a.53.53 0 0 1 .06.12zm-1.19-1.31l.15.22-.32-.1zm37.79-.25l.65.33zM6.8 44.26v-1.58l1.34 1.08z" fill="#cfa784"/><path d="M6.19 48l-.33.33z" fill="#d8b178"/><path d="M6.48 44.57l.33-.33zm235.69 40.38L240 86.2l1.89-2.84zm.62.94l-.33-.65zm-.31-.63l-.33-.33zm2.44-.26l-.29-.33.07-.07.35.28zm-.92-1l-.22-.15.22.15zm.35.31l.36.27-.07.07-.29-.34zm0 0L244 84l.31.32zm-2.52-.93l.33-.33zM159.21 7.63h1.27l-1.58 1.26zm-.31-.31l.33.33zM299.44 55.2l.63 1.58-2.21-1.58zm-.26-2.76l-.63.9-.35-.34.91-.63zm.89 2.13l-.33.33zm-.32.32l-.33.33zM7.64 64.81l.36-.24-.19.43zm.36-.24l.16-.16-.13.19zm.68-2.17l.32.32zM37.23 8.18l.51.37-.15.18-.47-.43zM8 70.86l.64-.32zm-.58.63l.33-.33zm.31-.31l.33-.33zm-.62.62l.33-.33zm261.01 11.27l.24.34-.13.06-.09-.42z" fill="#cfa784"/><path d="M124.49 85.26a14.13 14.13 0 0 0-1.27-1.26 2.78 2.78 0 0 0-.94-.3l.64-2.42zm.31.31l-.32-.32z" fill="#d8b178"/><path d="M297.85 62l-.31-.58.37.25z" fill="#cfa784"/><path d="M297.85 62l.06-.33.27.39z" fill="#d8b178"/><path d="M223.73 7.29l.19.21-.33-.08zm.91.96l-.24-.07.23.08z" fill="#cfa784"/><path d="M153.89 83.69l.33-.33z" fill="#d8b178"/><path d="M154.2 83.38l.33-.33zM255.62 7.31l.22.14-.24-.12zm-.02.02l-.31-.33.31.32zm-79.82.02l-.29-.35.33.3zm.89.99L176.6 8l.21.18z" fill="#cfa784"/><path d="M175.82 7.31l.2.15-.24-.11zm2.5 1.26l-.33.33zm10.32.64l-.32-.65zm.56-.08l.19-.18-.06.32zm-1.2-.86l-.33-.33zm.34.31l-.34-.33zm35.31 75.74l-.1-.21a1.12 1.12 0 0 1 .25 0s.06.07.09.11zM184.25 7l1 .31-.86 1.12z" fill="#cfa784"/><path d="M182.7 8.27l-.32-.65zm-.62-.94l-.64-.33zm1.86 1.87z" fill="#d8b178"/><path d="M183.94 6.69l.33.33z" fill="#cfa784"/><path d="M180.51 6.08l-.32-.32zm1.88 1.56l-.33-.33z" fill="#d8b178"/><path d="M282.85 7.63l-.32.64zm-54.14 76.05l-.31 1.26h-1.07l-.15-.32zM300 56.77l.65.32zM35.6 85.57h-1.26l1.26-1.9v1.9zM41.86 84l.31 1.89-1.27-.31zm-5.94 2.2l-.32-.65zm1.23-2.2l.33.65zm3.45 1.89l.33-.33zm-3.14-1.27l.33.33zm67.3-.62l.32-1zm1.56-.64l.33.65zm-1.88 1.28l.33-.65z" fill="#cfa784"/><path d="M233.7 85.57L235 84l1 1.85-.12.12z" fill="#d8b178"/><path d="M237.46 84.3l.32.64z" fill="#cfa784"/><path d="M235 84l.32-.64zm.94 1.84l.07.29-.19-.17z" fill="#d8b178"/><path d="M236.83 83.68l.33.32z" fill="#cfa784"/><path d="M235.27 83.38l.32-.32z" fill="#d8b178"/><path d="M237.14 84l.33.33zm37.86-.63l.32.64zm.95 1.25l.33.33zm-.31-.31l.33.33zm-.32-.31l.33.33zm-12.83-.95l.32.65zm.31.63l.64.32zm.63.32l.33.33zm-116.1.95h-1.27l1.27-1zm-1.25-.02l-.65.32zm1.56-1.56l-.32.64zM79.4 7.64l.6-.32zm81.06 0l.33-.33zM44.05 9.52l-1-1zM45 6.69l.64.64zm.62 1.88l-.33.33zm254.13 60.09l-.32 1.27-1-1.27zm-.33 1.25l.33.33zm-1.25-1.57l.33.33zM7.44 22.67L7.11 22zM151.38 85.6l-.31.29-1.24-1.27c1.22.18 1.68-.56 1.82-1.58a17.12 17.12 0 0 0 .06-1.87c.88 1.55.12 2.98-.33 4.43zm-1.86-1.28l-.32-.64zm.32.31l-.33-.33zm81.06.01l-.64-1z" fill="#cfa784"/><path d="M6.8 30.8v-1.57l1.57 1.26zm2.2 0l-.64-.32zm.31.31L9 30.79z" fill="#d8b178"/><path d="M300.06 68.34l-.33.33z" fill="#cfa784"/><path d="M205.23 84.95l-.32-.64zm.32.31l-.33-.33z" fill="#d8b178"/><path d="M76 84.64l-.35-.64zm.29.31l-.29-.33z" fill="#cfa784"/><path d="M152 6.69l1.9.31-1.26 1.58zm.33 2.52l.32-.64zm-.33.31l.33-.32z" fill="#d8b178"/><path d="M87.87 86.2l-.32-.65zm-.31-.63l-.33-.33zM9 25.49l-.33-.32h.31zm138.64 60.08l-.32-.64zm-97.01-.63l-.63-.32zm179.63-77l1 1zm-.63-.63l.33.33zm.31.32l.33.33z" fill="#cfa784"/><path d="M203.67 83.37l-.33.65z" fill="#d8b178"/><path d="M108.84 8.25l-.64 1zm-1.84.33l-.32-.65zm.27.32l-.33-.33zm191.54 64.45l-.64.64zm-.62.65l-.33.33zm-99.84 9.37l-.64.64zM9 32l-1.58 1.31z" fill="#cfa784"/><path d="M6.49 31.11l.32-.32zM8.68 18.6l.32-.33zm133.64 65.71l-.63-.94.93.64z" fill="#d8b178"/><path d="M142.32 84.31l.3-.3v.31zm8.46-75.42l-1-1zm77.61-2.81l-.33-.33zM101.64 84.95l-.33-.33zM199 83.37l.32.65zm.27.63l.33.33zm4.4 2.2l-.32-.64z" fill="#cfa784"/><path d="M207.1 86.5l.33.33z" fill="#d8b178"/><path d="M6.48 69.61l.33-.33zm1.58-17.23l-.32.32zm-.31.32l-.33.3zm290.73-12.51l1-.64z" fill="#cfa784"/><path d="M8.71 85.91L8.5 86l.13-.21z" fill="#fdd917"/><path d="M312.72 97.78a3.05 3.05 0 1 1 .89-2.16 2.94 2.94 0 0 1-.89 2.16zm-4-4a2.54 2.54 0 0 0-.76 1.86 2.57 2.57 0 0 0 .76 1.87 2.62 2.62 0 0 0 3.71 0 2.65 2.65 0 0 0 0-3.73 2.61 2.61 0 0 0-3.71 0zm1.79.17a2.55 2.55 0 0 1 .91.12.83.83 0 0 1 .52.85.73.73 0 0 1-.33.66 1.27 1.27 0 0 1-.48.16.81.81 0 0 1 .57.33.92.92 0 0 1 .18.52v.49a.54.54 0 0 0 0 .17h-.55v-.44a.82.82 0 0 0-.32-.77 1.42 1.42 0 0 0-.66-.11h-.47v1.32h-.59v-3.31zm.64.53a1.54 1.54 0 0 0-.71-.12h-.5v1.21h.53a1.6 1.6 0 0 0 .56-.07.6.6 0 0 0 .12-1z" fill="#231f20"/></svg>