<svg xmlns="http://www.w3.org/2000/svg" viewBox="0 0 267.22 267.22"><title>bear</title><path d="M267.22 133.88c-.17 0-.38 0-.49.11a9.57 9.57 0 0 0-.77.75Q200.35 200.34 134.75 266c-.35.35-1 .57-.87 1.26h-.54c0-.17 0-.38-.11-.49a9.57 9.57 0 0 0-.75-.77Q66.87 200.35 1.26 134.75c-.35-.35-.57-1-1.26-.87v-.54c.17 0 .38 0 .49-.11a9.57 9.57 0 0 0 .77-.75Q66.87 66.87 132.47 1.26c.35-.35 1-.57.87-1.26h.54c0 .17 0 .38.11.49a9.57 9.57 0 0 0 .75.77Q200.34 66.87 266 132.47c.35.35.57 1 1.26.87zM133.65 4.49L4.41 133.73c1.74 2 128.4 128.55 129.31 129.18l129.14-129.14v-.12.09z" fill="#99d4c8"/><path d="M133.65 4.49l129.24 129.25v-.09.12L133.72 262.92c-.92-.63-127.57-127.19-129.31-129.19zm-.11 14.65L19.21 133.47v.27L133.45 248h.26c5.93-5.6 113.52-113.34 114.28-114.42z" fill="#fd0"/><path d="M133.53 19.14L248 133.59c-.78 1.09-108.37 108.82-114.3 114.41h-.26L19.2 133.74v-.27zm35.23 60.1a1.14 1.14 0 0 0 1.08-1.08v-.27a2.94 2.94 0 0 0 .26-.83 17 17 0 0 1 1-4 33.7 33.7 0 0 0 .89-4.31 4.66 4.66 0 0 0-.23-3c.09-1.25-.61-2.24-1.08-3.31a.71.71 0 0 0-.81-.5c0-.45 0-.9-.51-1.08a.78.78 0 0 1-.33-.17 4.19 4.19 0 0 0-3.3-1.17 27.33 27.33 0 0 0-3.27.21 11.64 11.64 0 0 0-3.76 1.07 48.15 48.15 0 0 0-4.7 2.76 8.61 8.61 0 0 1-4.87 1.63 6 6 0 0 0-1.71.12 1.11 1.11 0 0 1-.94 0 4.47 4.47 0 0 0-2.55-.63l-1.16-1.39a7.92 7.92 0 0 1-1.91 1.06c-.32.19-.58.4-.95.32-.68-.15-1.26.25-1.9.32-.24 0-.48.22-.71.21a2.62 2.62 0 0 0-1.69.52 8.52 8.52 0 0 1-2.75.83 1.08 1.08 0 0 1-.67 0c-1.05-.43-2.19-.53-3.26-.93a3.28 3.28 0 0 0-2.72-.19 1.8 1.8 0 0 1-1.93.07c-.21-.15-.73.06-.88-.11-.37-.42-.46.24-.79.12s-.86.1-1.19-.06c-.95-.46-1.92-.12-2.78-.25l-2.08 1.66c-1.41-.21-2.87-1.12-4.41-.29-.6-.49-1.15-1-1.75-1.4-.84-.57-1.72-1.05-2.58-1.59a15.88 15.88 0 0 0-4.06-1.61 12.53 12.53 0 0 0-3.15-.54 15.19 15.19 0 0 0-2.73.21 11.68 11.68 0 0 0-3.24 1 7.33 7.33 0 0 0-1.37.93 6.27 6.27 0 0 0-2.52 3.21 6.4 6.4 0 0 0-.44 2.11c.07 1-.21 1.94.27 2.86-.14 1.63.54 3.11.85 4.65a17.85 17.85 0 0 0 .76 2.51c.3.82.56 1.66.82 2.5.36 1.18.31 1.36-.61 2.09a1.86 1.86 0 0 1-.44.19l.51.42c-.17 0-.4 0-.49.1a1.19 1.19 0 0 1-1.18.44 2.18 2.18 0 0 0-.49 0v.14l.8.16c.17 1.28-1.21 1-1.61 1.76a2 2 0 0 1 0 .67 4.07 4.07 0 0 1-.81 1.95 6.3 6.3 0 0 0-1.79 2.34c-.2.41-.43.81-.63 1.22a3.59 3.59 0 0 0-.56 2.2c0 .13-.14.29-.23.43a2.58 2.58 0 0 0-.31 1.95 3.64 3.64 0 0 1 0 1.86c-.37.81-.1 1.53-.23 2.51.39-.59.76-.46 1.1-.48-.35 1-.68 2.05-1 3.07a3.67 3.67 0 0 0-.31 1.49v2l.78.5-.82 1.28c.29.5.58.72 1.11.45a3.85 3.85 0 0 1 .91-.2l-.35 1.38c-.4 0-.23.34-.27.54h-.27a1.91 1.91 0 0 0-1 2.4 2.14 2.14 0 0 1 .16.74 1.52 1.52 0 0 0 1.37 1.8c-.09.5.09.94-.22 1.43a1.43 1.43 0 0 0 .09 1.26 2.13 2.13 0 0 1-.26 2.08c-.21.34-.46.66-.73 1l1.38 1.65a2.4 2.4 0 0 0-.14 2c.26.73 1.17.61 1.5 1.26-.1.52.13 1.09-.26 1.63a.58.58 0 0 0 .4.84c.7-.05.86.44 1.09.87l1-.39c-.2.62 0 1-.25 1.55a7 7 0 0 0-.37 1.73c-.11.5.25.73.53 1s.58.17.93 0a5.13 5.13 0 0 1 1.32-.37 15.72 15.72 0 0 1-.42 2.36c-.12.35-.32.6 0 .93s.19.77.73.81c.18 0 .35.2.58.34l1.44-1.27a6 6 0 0 0 .16 1.11c.11.31.4.27.78.06-.16.53.06 1-.23 1.45s-.08 1 .42 1.37a3.75 3.75 0 0 0 1.48.22 1.6 1.6 0 0 1 .73.1 4.13 4.13 0 0 1 1.7 1.13 1.38 1.38 0 0 0 1.09.66c.21 0 .95.15.72.82a9.22 9.22 0 0 0 .86.74c.44.3.89.54 1 1.12a.66.66 0 0 0 .8.51v.26c0 .04.35.19.43.34s.07.53.21.71c.26.33.55.74 1.09.58.38-.11.66.13 1 .27a1.32 1.32 0 0 0 .84 1.25c.33.15.66.22.82.72a1.54 1.54 0 0 0 1.41 1c.77 0 1 .31 1 1a.66.66 0 0 0 .95.58c.38-.13.74-.31 1.2-.51a4.49 4.49 0 0 1 0 .56 1.55 1.55 0 0 0 .52 1.39c.25.22.71.21 1.08.31.18 1 .23 1 1 1a2.1 2.1 0 0 0 1.17-.45c.48-.29.87-.72 1.34-1a2.12 2.12 0 0 1 1-.4c.24 0 .48.32.73.49h.16l1.21-.8c.35.37.77.63.69 1.25 0 .29.22.61.39 1 .61-.57 1.47-.49 2-1.07a.51.51 0 0 1 .81 0 .88.88 0 0 0 .94.36c.44-.62.3-1.7 1.41-1.82.42.25.31 1.06 1 1 .14-.28.25-.54.39-.8.43-.78.86-.8 1.35-.08a2.31 2.31 0 0 1 .17.39 4 4 0 0 1 1.23-.57c1.21-.05 2.5-.27 3.54.54.57.44.95.07 1.39-.06.68.81 1.43 1.34 2.3 1.13.64-.45 1.07-.94 1.57-1a1.66 1.66 0 0 0 1-.56.72.72 0 0 1 1-.14 1.89 1.89 0 0 0 1.33.38.88.88 0 0 0 .21-.1l.14-.82c.92.69 1.41.09 1.92-.42l.66.61 1.14-1a15.1 15.1 0 0 0 1.67 1.5l.59-1.17h.68c.34.12.64.49 1.11.12l-.34-.76a1.37 1.37 0 0 0 .61-1.13 3.76 3.76 0 0 1 .28-1.13c.84-.33.82.78 1.17.67s.38-.85.71-1.11a1.22 1.22 0 0 1 1.32-.2c.26.12.53-.22.55-.58s0-.86 0-1.29h.5c.22.57.7.29 1 .19a6.65 6.65 0 0 0 1.66-.84 5 5 0 0 0 1.63-1.45c.42-.78 1-1.45 1.4-2.24.43.1.69-.3 1.05-.38.69-.15.7-1 1.36-1.25l.7.35c.17-.44.73-.53.68-1.12s0-1.36 1-1.44c.14 0 .26-.23.38-.36l1.12-1.2a8.35 8.35 0 0 0 .93 0 .65.65 0 0 0 .64-.81c1 0 1.13-.78 1.08-1.59l1.4-.08v-1.26l1.08-.12c-.05-.56 0-1.13-.18-1.49-.33-.52.09-.61.26-.87.35.29.61.84 1.21.42-.19-.23-.47-.46-.06-.74.14-.09.31-.13.44-.22.49-.32.57-.45.3-1.07a1.63 1.63 0 0 1 .25-1.8 1.86 1.86 0 0 0 .44-1.45v-.27c.26 0 .61 0 .75-.11a3.7 3.7 0 0 0 .84-1.25 1.88 1.88 0 0 0 0-1.32c-.24-.48.24-.89 0-1.26a2.34 2.34 0 0 1-.18-2 14.24 14.24 0 0 0 .25-2.2l-.87-.79c.4-.34.28-.84.29-1.31h.54a14.1 14.1 0 0 1 0-1.43 1.62 1.62 0 0 0-.31-1.35c-.56-.48.14-.78 0-1.15 0 0-.07-.06-.09-.1a20.36 20.36 0 0 1-1-3.25 3.39 3.39 0 0 1 0-1.15l.52.41a18.79 18.79 0 0 0-.76-4.14 20.88 20.88 0 0 0-1.49-3.7 3.38 3.38 0 0 1-.5-1.15 9.44 9.44 0 0 0-.26-1.38 1.93 1.93 0 0 0-.2-.59 2.29 2.29 0 0 1-.35-1.8 1.16 1.16 0 0 0-.16-.6c-.5-1-1-1.95-1.54-2.88a.76.76 0 0 1 .08-1c.45-.55.43-.6-.27-1.2-.36-.63-1.06-.8-1.63-1.25.14-.48-.19-1 .23-1.6.18-.24 0-.7-.17-1.1s-.74-1-.59-1.65-.31-.83-.85-1c.19-.43-.12-.9.26-1.38.18-.23 0-.76 0-1.15-.69-.06-.2-.7-.33-1.08zM126.77 201c-.66-.13-1.09-.46-1.64-.61a13.12 13.12 0 0 0-2.6-.23 5.17 5.17 0 0 0-3.92 1.63 6.39 6.39 0 0 0-1 1.32 12.58 12.58 0 0 1-.8 1.55c-.49.58.16 1.35-.44 1.86-.09.08 0 .34 0 .52.08.91.12 1.83.29 2.72a4 4 0 0 0 .66 1.47 11.39 11.39 0 0 0 4.72 4.14v-2.47a2.88 2.88 0 0 1 1.77-2.78 1.32 1.32 0 0 1 .72-.23h1.22a1.55 1.55 0 0 1 .83.3 5 5 0 0 1 2.23 3.12c.15.43.23.88.32 1.2l-1.07.83c-.2 1.27.08 2.24 1.3 2.72-.1.18-.17.33-.26.46a1.57 1.57 0 0 1-1.82.76 2.09 2.09 0 0 1-1.43-1.95 8.53 8.53 0 0 0-.14-.94c-.73.72-1.3 1.27-1.85 1.85-1.39 1.48-1.66 4.88 1.15 5.81a3.59 3.59 0 0 0 1.83.39c1.14-.33 2.43-.46 3.21-1.62a16.68 16.68 0 0 0 3.7 4.45c1.36-1.4 2.82-2.61 3.59-4.41a6.87 6.87 0 0 0 3.13 1.57c.55.2.79-.24 1.21-.22a1.81 1.81 0 0 0 1-.16 3.51 3.51 0 0 0 1.59-4.55 9.18 9.18 0 0 0-2.14-2.62c-.11-.13-.33-.17-.54-.26-.11 2.4-.32 2.27-1.51 2.67-.87.29-1.39-.4-1.92-1.1l1.2-1v-2l-.76-.54a3.78 3.78 0 0 1 .48-2.33 3.6 3.6 0 0 1 1.73-2.11 3 3 0 0 1 1.9-.29 2.64 2.64 0 0 1 2.62 2.43c0 .2.18.39.19.59a3.63 3.63 0 0 1-.07 1.26 1.55 1.55 0 0 0 0 1.1h.31c.44-.26.86-.53 1.29-.8a8.17 8.17 0 0 0 3.93-5.6 7.55 7.55 0 0 0-.23-4.06 6.87 6.87 0 0 0-1.1-2.1c-1.28-1.56-2.81-2.74-5-2.57h-.95a7.17 7.17 0 0 0-3.16 1 11.43 11.43 0 0 0-1.05-3.48 23.94 23.94 0 0 0-2.2-3.82 27.67 27.67 0 0 1-3.05-5.22c-.13-.32-.28-.64-.4-.92h-.24a19 19 0 0 1-2.19 4.37 50 50 0 0 0-3.28 5.4 11.91 11.91 0 0 0-.89 2.74 3.54 3.54 0 0 1-.47.76zm-15.91-30.45a7.3 7.3 0 0 0 1.21-.94 5.15 5.15 0 0 0 .51-5.2 5.28 5.28 0 0 0-2.07-2.12 5.36 5.36 0 0 0-2.91-.8H97.4c-.18 5.9-.11 18.25.1 19.47h10.53a7.8 7.8 0 0 0 1.77-.27c.31-.08.57-.36.89-.45.68-.21 1-.8 1.5-1.26 1.56-1.54 1.59-3.52 1.32-5.47-.16-1.22-1.31-2.27-2.64-2.98zm55.59 10.41h2.31a9.5 9.5 0 0 0 2.3-.11c-.28-.4-.63-.67-.64-1a15.17 15.17 0 0 1-.32-2.05 15.85 15.85 0 0 0 0-3 3.18 3.18 0 0 0-1.66-2.84 3.31 3.31 0 0 1-.53-.42 3.19 3.19 0 0 0 1.74-1.15 5.55 5.55 0 0 0 .84-4.91c-.73-2.28-1.29-2.69-2.91-3.46a5.69 5.69 0 0 0-2.45-.6h-10.37v19.48h4v-7.53h4a5.47 5.47 0 0 1 1.9.3 1.86 1.86 0 0 1 1 1.07 8.69 8.69 0 0 1 .35 2 9.26 9.26 0 0 0 .45 4.2zm-34.52 0v-3.5h-10.71v-4.88h9.35V169h-9.4v-2.06a11.91 11.91 0 0 1 .06-2h10.18v-3.4h-14.26v19.39zm20.11 0c-.07-.33-.12-.57-.18-.81-.37-1.5-1.06-2.89-1.51-4.37s-1-2.74-1.34-4.17a5.43 5.43 0 0 1-1-2.42c-.27-.88-.66-1.72-.91-2.6-.45-1.56-1-3.07-1.6-4.6a.67.67 0 0 0-.68-.5h-4.3l-6.94 19.47h3.84c.47 0 .68-.21.8-.67.22-.85.53-1.67.79-2.5.11-.36.27-.62.7-.62h6.77c.33 1.17.61 2.22.92 3.26a.64.64 0 0 0 .66.53c1.3-.03 2.59-.02 3.94-.02z" fill="#98d4c7"/><path d="M156.87 147.4h-.5v1.29c0 .44-.3.7-.55.58a1.22 1.22 0 0 0-1.32.2c-.33.26-.39 1-.71 1.11s-.33-1-1.17-.67a3.76 3.76 0 0 0-.28 1.13 1.37 1.37 0 0 1-.61 1.13l.34.76c-.47.37-.77 0-1.11-.12l-.94-1.09c-.75.1-.63.7-.89 1.34a2.72 2.72 0 0 0-1.14-2.23l-1.17 1.17c-.76-.35-.76-.34-1.38.23-.15.14-.32.27-.46.39l-.82-.62c-.88.35-.33 1.15-.61 1.59l-1.8-.83c-.44.35-.76.8-1.13.85a1.59 1.59 0 0 0-1.4 1.35 1.1 1.1 0 0 1-1.31-.4c-.26-.39-.51-.78-.78-1.16-.16-.22-.35-.43-.58-.7l-1 1.38a6.08 6.08 0 0 0-2.5-1.59l-.65 1a.94.94 0 0 0-1.54 0l-.57-.89h-1.13l-.8 1.59-.46-1.33h-1.6l-.41 2c-.27-.54.15-1.35-.86-1.47l-1.08 2-.49-.28-.74.59-.44-.43c.1-.49.19-.85.24-1.22s-.07-.79-.57-.87l-1.47 1.13c-.45-1.06-1.56-.24-2.17-.81-.89.72-1.46 1.8-2.67 2.14l-.34-.41c.33-.91 1.16-1.77.33-2.87l-1.49 1.11v-1.79a3.82 3.82 0 0 0-.91.41 2.48 2.48 0 0 1-1.4.83c-.36-.7.27-1.58-.47-2.13l-.67.31c-.92.41-1.51.09-1.68-.88a3.3 3.3 0 0 0-.28-.83c-.06-.12-.29-.28-.34-.25-.22.13-.33.27-.62 0s-.61 0-.92 0l.29-1.56-1.76.53c-.54-.71.46-1.34-.16-2.12-.13.25-.2.37-.26.5a.72.72 0 0 1-.81.49 3.11 3.11 0 0 1-.25-1c.07-1-.75-1.23-1.27-1.74-.63.22-.74-.39-.87-.69s-.25-.6-.55-.63-.45.19-.68.3c-.19-.2-.41-.33-.49-.53a1.78 1.78 0 0 0-1.54-1.15.57.57 0 0 1-.33-.17.77.77 0 0 0-1.24-.12c-.17.13-.52 0-.77 0a1.58 1.58 0 0 1-.11-1.52c.11-.31.29-.6.39-.92a7.27 7.27 0 0 0 .15-1 1.12 1.12 0 0 1-1.19.41l-.87-2.53-1.61 2.52c-.67-.41-.5-1.15-.35-1.66a5.92 5.92 0 0 0 .5-2.22c.75-.78-.12-1.36-.12-2.2-.9.57-.91 1.49-1.51 2.14a2.67 2.67 0 0 0-.26-.36c-.1-.1-.24-.24-.36-.24s-.24.14-.37.22l-.3-.73.76-.71a3.85 3.85 0 0 1 .31-2.16c-.6-.4-1 0-1.51.15-.65-.93.68-1.56.31-2.46-.64.39-.95 1.16-2 1.45.24-.31.41-.43.4-.53a7 7 0 0 1 .89-2.75c.07-.17.15-.34.23-.51a3.16 3.16 0 0 1-2 .72.67.67 0 0 1-.68-.65 2.25 2.25 0 0 1 .52-1.68 4.31 4.31 0 0 0 1.13-2.15l-1.81 1.43-.63-.92 2.62-4.39c-.81.13-1.19.86-1.81 1.25-.2-.61.11-1.14-.22-1.66s.54-.9.42-1.41l-.9-.62-.84.2.73-1.53L85 114c.5-.69 1.09-1.21 1-2 .4 0 .23-.34.27-.54.13 0 .32.06.4 0 .55-.51 1.07-1 1.57-1.55-.17-.26-.26-.4-.35-.54-.38-.65-.37-.64-1.17-.39-.32.1-.66.15-1.29.29l1.39-1.51c-.24-1-1.16-.38-1.64-.74.56-.66 1.34-1.12 1.62-2.15l-1.55.73a9.37 9.37 0 0 0 .55-.84c.2-.41.72-.76.22-1.33-.09-.1.06-.51.21-.69.35-.41.76-.76 1.12-1.11a2.56 2.56 0 0 0 0-.72 1 1 0 0 0-.39-.5c-.09-.05-.29.11-.45.14-.33.05-.66.07-1 .11a1.83 1.83 0 0 1 1.07-1.26A9.83 9.83 0 0 0 88 98.24c-.93-.09-1.52.75-2.37.35l.64-1.27-.6-.32c.35-.76.61-1.4 1.37-1.6.08 0 .13-.12.19-.19s.18-.35 0-.54c-.63-.56-.75-.72-.54-1s0-1 .68-1.14a.54.54 0 0 0 .33-.18 3.49 3.49 0 0 0 .54-1.13c.1-.34.7-.56.73-.87.07-.56.38-.7.79-.88a12.2 12.2 0 0 0 1.24-.79v-.2l-.7-.08v-1.8c.74-.32.83-.43 1.84-1.52a1.26 1.26 0 0 0 .27-1 3.65 3.65 0 0 0 1.63-.93 1.38 1.38 0 0 1-.2-1.63c.22-.43 0-.59-.07-.9-.2-.69-.65-1.24-.86-1.95A34.8 34.8 0 0 1 91.69 74c-.81-1-.46-2.22-.76-3.32a8.87 8.87 0 0 1 0-2.82 3.62 3.62 0 0 1 .41-1.31 7.1 7.1 0 0 1 2.79-2.67 10.27 10.27 0 0 1 3.61-1.38c.33-.06.64-.21 1-.26s.76.06 1-.09a4.68 4.68 0 0 1 2.09-.18c.79 0 .8 0 1.94.53a22.73 22.73 0 0 1 3.23 1.64 31.87 31.87 0 0 1 2.87 1.93 2.69 2.69 0 0 0 2 1c.67.58 1.55.41 2.31.78v-.78a5.3 5.3 0 0 1 3.16.53c.12.08.35 0 .53 0a2.86 2.86 0 0 0 .4-.09v-.94l1-.11.16-.76a6.06 6.06 0 0 0 1.51.53 3.51 3.51 0 0 1 1.72.31l.64-.57.29.09c.51.19 1.06.68 1.54.42.69-.37 1.59 0 2.15-.72 0-.06.25 0 .35 0a34.19 34.19 0 0 0 4 1.11 5.31 5.31 0 0 0 3.57-.44c.43-.18.84-.36 1.28-.5a8 8 0 0 1 2.6-.23 5.66 5.66 0 0 0 3.39-1.32l1.06 1.06h2.17l.63 1.26a2.21 2.21 0 0 1 2.1-.74h2.3a1.54 1.54 0 0 0 1.06-.39 9 9 0 0 1 1.95-1.15 11 11 0 0 0 1.94-1.17 21 21 0 0 1 4.56-2.37 17.78 17.78 0 0 1 4.23-.84 5.72 5.72 0 0 1 4.11 1.15c.37.26.69.84 1.32.71 0 .14-.06.34 0 .4a5 5 0 0 1 1.29 3.24 34.14 34.14 0 0 1 .07 4.32c0 .38-.21.65-.27 1a20.85 20.85 0 0 1-.31 2.18c-.21.69-.34 1.39-.54 2.08a7.88 7.88 0 0 1-.72 1.42c-.49-.18-.89.6-1.37.18a7.57 7.57 0 0 1 .35-1 15.76 15.76 0 0 0 1.41-5.72 42.5 42.5 0 0 0 0-5 3.12 3.12 0 0 0-1.48-2.73 8.75 8.75 0 0 0-2.07-.88c-.29 0-.55-.2-.84-.26a12.84 12.84 0 0 0-3.53.32 16.59 16.59 0 0 0-2.25.73c-.79.2-1.37.85-2.2.91-1.19 1-2.62 1.55-3.85 2.47s-2.49 1.69-3.93 2.65l2.25-.34a3 3 0 0 1-.88 1.08 8.75 8.75 0 0 0-1.11.88c-.25.29-.89.14-.81.81 1-.47 2-.92 2.93-1.41.2-.1.28-.41.46-.58.42-.4.49-1.27 1.4-1 .1 0 .25-.23.41-.3.57-.26.74-.91 1.23-1.22a16.89 16.89 0 0 1 2.09-1.16c1.63-.73 3.28-1.45 4.95-2.09a6.51 6.51 0 0 1 4.21-.1 2.28 2.28 0 0 1 1.35.95 1.39 1.39 0 0 1 .24 1.45c-1.22.17-1.64 1.13-2.19 2.12l1.07.22L166 69c.55.14.53.11.73 0 .42-.29.58-1 1.26-.87h.54c.36.57.93 1.09.28 1.84a.53.53 0 0 0 0 .5c.55.68 0 1.18-.35 1.56a22.5 22.5 0 0 1-2.09 1.78c-.23.19-.48.36-.72.53a8.56 8.56 0 0 1-.86.54c-.08 0-.24 0-.32-.06l.27-.72a22.8 22.8 0 0 1-3.52.52l-.12-1.16C160 74 159 74.47 158 75a2.09 2.09 0 0 1-.88.17l-.27-.27a3.63 3.63 0 0 0 1.83-1.13 1.14 1.14 0 0 1 .64-.38 13.07 13.07 0 0 0 2.73-1.22 11.09 11.09 0 0 0 1.95-1.26c.13-.09.15-.33.34-.76a28 28 0 0 0-2.8 1.39 24.61 24.61 0 0 1-3.54 1.88c-.41.18-.78.29-1.1-.13v-.54c.16-.16.45-.32.44-.48a5.13 5.13 0 0 0-.27-1.08c-.49.07-1 .11-1.48.22a2.79 2.79 0 0 0-.8.34 11 11 0 0 1-1.51.93c-1.25.48-2.49 1.15-4.06.78.17-.19.26-.39.4-.43a5.64 5.64 0 0 0 2.91-1.45.55.55 0 0 1 .33-.17c.78-.05 1-.76 1.53-1.19.12-.11 0-.47 0-.79a8.21 8.21 0 0 0-2.68 1.91 5.11 5.11 0 0 1-3.48 1.41l-.2-.27-.34.27c-.63 0-1.21.59-1.91.13.12-.92 1.3-.67 1.66-1.5l-1.07.13c-.38.05-.9.29-1.12.13-.66-.48-1.1 0-1.63.18s-.76.65-1.4.23a2.82 2.82 0 0 0 1.67-1.67c-.86-.29-1.44.37-2.13.61-.42.15-.76.6-1.36.32.27-1.43-1.33-1-1.74-1.78-.49.36-.72 1.07-1.5.71a6.77 6.77 0 0 1 0-.8 8.89 8.89 0 0 1 .25-1L135 70.32l-1.74-.67v-1.8c-.9.62-.6 1.7-1.2 2.54-.75-.33-1.73-.11-2.45-.93l-.34.7-.29.61c-.32-.59-.73-1-.76-1.46 0-.74-.55-.72-1.1-1v1.61a1.29 1.29 0 0 1-1.77-.13c-.31-.3-.7-.5-1-.78s-.59-.58-.89-.88c.06.86.7 1.53.33 2.4l-1.3-.67a.58.58 0 0 0-.85.16c.17.19.34.38.5.58s.3.4.48.64c-.89.44-1.13-.36-1.51-.6-1 .41-2 0-3 .27.51.36.11.52 0 .7l-.92-.46-.1.3c-.59.27-.75-.63-1.34-.21 0 .7 1.19.85.73 1.76a2.9 2.9 0 0 1-2.17-.8c-.32-.23-.58-.36-.93-.19.3.77 1.46.76 1.6 1.7a7.4 7.4 0 0 0-1.61.52c-.65.39-1.17 1-2 1 0 0-.1.13-.15.19s-.17.31-.28.33c-.71.13-1.43.23-2.1.33l-.12.7a7.1 7.1 0 0 1-1.73-.29 1.12 1.12 0 0 0-.94 0c-.62.2-1.29.37-1.84-.26l.56-.66c-.5-.56-1-.8-1.31-.48-.47.55-1 .43-1.59.44h-1.69l1.36 1-.48 1h-.7l.66.77a3.36 3.36 0 0 0-2 .4 1.17 1.17 0 0 1-1.55-.22 2.31 2.31 0 0 0-1.05-.7 1.09 1.09 0 0 1-.82-1c0-.84-.59-1.31-1-1.92-.08-.14-.15-.28-.29-.54l.85.25c0-.19.08-.28.06-.36a8.47 8.47 0 0 0-.27-.84c-.21-.55.46-.35.56-.7.22-.78.57.09.88 0a4.81 4.81 0 0 1 1-.09l-3-2a2.8 2.8 0 0 0-.46-.2c.39-.39.24-.8 0-1.21l.84-.16-.71-1.13 1-.24-.58-1.12a4.94 4.94 0 0 1 1.81-1.3 8 8 0 0 0 .93-.61c-.62-.75-.62-.75-1.18-.48a21.71 21.71 0 0 0-2.27 1.4 2.79 2.79 0 0 0-1.49 2.36 1.06 1.06 0 0 1-.09.37 2.93 2.93 0 0 0-.2 2.56 4.07 4.07 0 0 1 .27 1.9c0 .72.61 1.13.58 1.81 0 .23.23.46.24.7a6.6 6.6 0 0 0 1.16 3 6.84 6.84 0 0 1 1.35 3.29 9.28 9.28 0 0 0 2.41-.34c.5-.17 1.23-.18 1.49-.52.39-.51.91-.49 1.36-.71.14-.07.21-.27.32-.4.6-.74 1.18-1.5 1.81-2.22a.8.8 0 0 1 .69-.22 20.12 20.12 0 0 0 2.07.55c.42.11 1.06.2 1.13 1a5.33 5.33 0 0 1-.68.6 2.63 2.63 0 0 1-1.11.54c-.75 0-.12.87-.65 1-.07 0-.12.13-.19.18l-1.46 1.21v1.39a7.64 7.64 0 0 0-2.7 2.65.67.67 0 0 0-.11.38 1.6 1.6 0 0 1-.87 1.67c-.77.43-1.54.88-2.41 1.38l.93.62c-.19.32-.89.51-.17 1.11l-3 1.93a4.19 4.19 0 0 1 1 .06c.26.09.32-.44.65-.13a1 1 0 0 0 .75.1 2.14 2.14 0 0 0 .79-.37 7.63 7.63 0 0 1 1-.79.83.83 0 0 0 .36-1.29c-.21-.38.16-.68.44-.88.8-.55 1.61-1.09 2.46-1.58a11.59 11.59 0 0 1 3.23-1.32c2.1-.47 2.32-1 4.76-.08a9 9 0 0 0-1.86.34 7.65 7.65 0 0 1-1.65.26 10 10 0 0 0-1.62.63l.8.3c-.94.76-2.27 1.23-2 2.67-.7.58-1.64.74-2 1.86a8.47 8.47 0 0 1 1-.25 4.47 4.47 0 0 1 .73 0c-.14.5.56.31.58.84l-1.63 1.35a3.08 3.08 0 0 0 1.42-.13 7.69 7.69 0 0 1 1.94-.5c.79 0 1.25-.48 1.86-.77a2.28 2.28 0 0 1 .91-.07h3l-1.37-1.1 1.15.13c.1 0 .24.08.28 0 .47-.47 1.15-.25 1.72-.56a3.67 3.67 0 0 1 3.15-.24 4.43 4.43 0 0 0 1.87.38 4 4 0 0 1 2.26.74c.47.3.87.72 1.34 1a2.58 2.58 0 0 0 .83.17l-.24-1.24a6 6 0 0 1 2.32 2.84c.54 1 .87 2.16 1.41 3.2a2.25 2.25 0 0 1 .16 1.73l-.71-1c0 1-.05 1.88 0 2.73a5.53 5.53 0 0 1-.83 3c-.28.54-.5.64-1 .55a.65.65 0 0 1-.57-.88 1 1 0 0 0-.65-1.2c-.61-.27-.91-.82-1.42-1.17-.62-.07-1.36.25-1.82-.49-.73 0-1.37-.63-2.22-.11s-.79.31-1.45 1.15a2.48 2.48 0 0 0 .95-.07c.91-.51 1.64 0 2.4.34a7 7 0 0 1 1.8 1.53 7.67 7.67 0 0 1 2.1 4.8 9.35 9.35 0 0 1-.92 4.48c-.31.77-.64 1.54-1 2.37l.81-.19.83-.19a16.16 16.16 0 0 1-.88 5.29 6.74 6.74 0 0 1-1.25 2.59 15.28 15.28 0 0 0-1.23 1.52A5.64 5.64 0 0 0 118 128a1.67 1.67 0 0 1-.44.91 5.75 5.75 0 0 0-1.56 2.89c-.59.63-.35 1.55-.79 2.25-.19.3 0 .89-.16 1.13-.45.53.48.77.14 1.2a2.13 2.13 0 0 1 .28 2.1 1.42 1.42 0 0 0 0 .54 1.46 1.46 0 0 0 1.35 1.45v1.59c.32.24.74.4.77.6.13 1 1.06 1.61 1.2 2.55l.64-.31.48 1.38c.57.12 1.19-.12 1.91.34-.17-.46-.27-.77-.4-1.06a14.79 14.79 0 0 1-.81-2.1 9.4 9.4 0 0 1-.51-2.08c0-.8-.25-1.54-.3-2.32a12.08 12.08 0 0 1 0-2 3.91 3.91 0 0 0-.32-1.9 3.39 3.39 0 0 1 .17-2.94 2.64 2.64 0 0 1 1 .23 1.36 1.36 0 0 1 .53 1.25c0 .22 0 .5-.07.64-.44.51 0 1.16-.28 1.65s-.16 1.22-.16 1.82.32.87.25 1.38c-.19 1.51.47 2.83.94 4.2a1.11 1.11 0 0 0 .78.71 14.71 14.71 0 0 0 2 .35c1.11.19 2.16-.37 3.27-.27.54-.42 1.28-.06 1.75-.33s1.11 0 1.52-.25 1-.16 1.5-.27c.11-.11.21-.2.3-.3.44-.52 1.35-.89.62-1.82v-.13c.56-.29 0-.94.45-1.32.18-.17-.2-1-.45-1-1.2 0-1.41-1.15-2.1-1.74-.27-.23-.07-.94.26-1.17a6.86 6.86 0 0 1 .75-.41v-1.42a2 2 0 0 0-2.68-1.92l-1.31.43c-.55.18-.6.26-.47 1.12.31-.14.71-.2.9-.43.42-.51.94-.44 1.46-.42a1.38 1.38 0 0 1 1.3 1.39 3.55 3.55 0 0 1-1 2.15 3.89 3.89 0 0 1-1.91-1.11 1.2 1.2 0 0 0-1.35-.5c-.09.92 1.23 1.06.93 2.07a2.41 2.41 0 0 1-1.86-.35 5.41 5.41 0 0 1-1.88-1.77c-.17-.25-.5-.47-.51-.73-.05-.89 0-1.79 0-2.69.42-.36.17-.84.22-1.26a.8.8 0 0 0-.15-.44c-.52.1-.32-.44-.55-.61-.45-.34.24-.49.17-.79a1.31 1.31 0 0 1 0-.4c.09-1.09.17-2.18.28-3.27 0-.16.16-.29.21-.45.12-.41.52-.79.07-1.25-.07-.07 0-.38.07-.49.39-.44.18-1 .15-1.42s-.45-.7-.05-1.17 0-.89.27-1.37a13 13 0 0 0 1-2.83 5.71 5.71 0 0 1 2.14-2.89 1.33 1.33 0 0 1 1.6-.26 3 3 0 0 0-.29.67c0 .18-.14.53.19.54.65 0 .13.63.44.79l1 .1c0 .6-.71.75-.6 1.37a1.75 1.75 0 0 1-.3 1.17c-.35.49 0 .93-.25 1.51l1.81-.35a3.55 3.55 0 0 1-.37.54 5.47 5.47 0 0 1-.56.4c.13.13.18.22.26.25.7.28.64 1.1 1.08 1.57.06.07-.09.4-.21.56a.73.73 0 0 1-.45.19c-.57.07-.76.51-1 1l.6.2a2.87 2.87 0 0 1-.15 1.09c-.37.82 0 1.21.86 1.27 1.12.08 2.24.22 3.39.33-.06.52-.3.8-.78.74a6.42 6.42 0 0 0-3 .57 11.53 11.53 0 0 0-2.67 1.06c-.57.39-1.23.68-1.1 1.67.38-.06.72-.09 1-.17a17.86 17.86 0 0 1 2.69-.65 48.88 48.88 0 0 0 5.44-.27 13.47 13.47 0 0 1 2.7 0 8 8 0 0 1 .87.14 10.48 10.48 0 0 1 2.81 1.14l-1.26.46 1.89 1.57c.09.85-.39 1.31-.67 1.89s-.82.67-1.21 1c-.56.51-1 .09-1.55 0a4.38 4.38 0 0 1-.69-.27c-.67.63-.71.63-.73 1s-.08.76-.58.9c-.2.06-.38.32-.5.53a2.83 2.83 0 0 1-1.6 1.45 2.81 2.81 0 0 0-.34.16.77.77 0 0 0-.51.82v2.16a1.57 1.57 0 0 0 1.5 1.59c1-.05 2 .34 3-.23a.54.54 0 0 1 .51 0c.33.39.75.19 1.13.22s.89-.14 1.2 0c.77.43 1.54.12 2.25.25a9.65 9.65 0 0 1 1-1.29 3 3 0 0 0 1-2.43 10.08 10.08 0 0 1 .05-1.33 1.32 1.32 0 0 1 .29-.81c.44-.36-.31-.47-.09-.78a1.51 1.51 0 0 0 .19-.72 6.41 6.41 0 0 0 0-1c0-.16-.16-.4-.11-.45.47-.42.11-.76 0-1.16a5.13 5.13 0 0 1-.17-2.89 7.08 7.08 0 0 1 1.2 3.35 24.08 24.08 0 0 1 0 3.78c0 1.27-.17 2.54-.26 3.81v.13c-.59.91-.09 1.88-.33 3 .8-.74.8-.74 1.05-1.53l.64.37a2.74 2.74 0 0 0 .25-.85c0-.38.17-.75.41-.75.48 0 .35-.43.56-.59.47-.37-.27-.58-.1-1l.44-.37c.2-.15.52-.26.58-.45.15-.43.37-1 .21-1.33-.28-.54-.1-1-.18-1.55 0 0 .09-.11.24-.28l.39.67c.19-.33.42-.54.43-.76a15.2 15.2 0 0 0 0-2.56c0-.37-.39-.94-.68-1-.64-.12-1.28-.68-2-.15v1c-.23-.26-.42-.38-.49-.56-.29-.74-.5-1.51-.84-2.22a1.78 1.78 0 0 1 0-1.69 1.22 1.22 0 0 0 .05-1.13c-.13-.26 0-.67 0-1.16l1.05.75a3.94 3.94 0 0 0-.14-.82 8.22 8.22 0 0 1-.76-2 1.38 1.38 0 0 0-1.33-1.28l.54.74-.16.13-1.84-1.11-1.12 1c-.12-.24-.15-.46-.28-.56a2.85 2.85 0 0 1-1.16-2.77 2 2 0 0 0 0-.67 3.41 3.41 0 0 0-1.8-2.54l-.48 2a16.54 16.54 0 0 0-1.35-2.69c-.6-.8-.77-1.78-1.39-2.55-.35-.43 0-.88.14-1.33a.8.8 0 0 1 .93-.53c.63.8.9 1.85 1.73 2.51a2.77 2.77 0 0 0 .6.25 5.24 5.24 0 0 1 0-3.17 8 8 0 0 0-.07-2 5.3 5.3 0 0 0-.2-.82H143l.64 1.88.25-.07-.27-1.28c.49.09.89.18 1.3.24s.29 1 1 .8l.37-1.11c-.22-.89-1.49-.06-1.61-1.08.48-.56 1.12-.53 1.86-.48l1.49 2.24.36-.74c.6.85 1.15 1.62 1.68 2.4.05.08 0 .24 0 .36-.4 0-.47-.72-1-.39-.11.61.83 1.06.42 1.79l-.34-.27c-.32.67.57 1.26 0 1.93l-1.6-1.92a32.91 32.91 0 0 0 1.29 3.69c-.56-.3-.89-.48-1.22-.64 0 0-.12 0-.26.06l.39 1.29-.58.28a11.4 11.4 0 0 0 2.63 3.49l.45-.27.95.69c-.06-.57.1-.91-.13-1.31-.14-.24-.23-.78-.12-.86.71-.47.35-1 .26-1.59 0-.06.07-.15.12-.22l.53.5a4.41 4.41 0 0 0 .6-.83 4.67 4.67 0 0 0 .18-1 5.38 5.38 0 0 1 1.54 2.88 16.15 16.15 0 0 1 .46 2.1c.24 1.26.83 2.47.62 3.8 0 .06-.12.11-.21.18l-.53-.26c-.07.4-.08.78-.46 1.05a.93.93 0 0 0-.26 1.38 1.17 1.17 0 0 1 .11.63 7 7 0 0 0 .46 2.38 12.42 12.42 0 0 1 .59 2.58c0 .77.38 1.45.46 2.21.09-.48.49-.83.4-1.35a9.29 9.29 0 0 1 0-1.22 2.18 2.18 0 0 0-.22-1.13c-.1-.17.34-.63.48-1a1.72 1.72 0 0 0 0-.54c0-.24 0-.48.06-.72h.2l.69 1.89a3.78 3.78 0 0 0-.08-1.8 5.93 5.93 0 0 1-.31-2.84c.08-.55.23-1.08.4-1.85l.74-.62v-1.78h.33a1.15 1.15 0 0 1 1.34.72c.33.71.91 1.31 1.27 2a1.08 1.08 0 0 0 1 .77.47.47 0 0 1 .34.26 10.6 10.6 0 0 1 .54 1.53c.1.42 0 .85-.54.88-.66 0-.82.37-.8.95s0 .91 0 1.35a2.41 2.41 0 0 0 .34.7l.2-.06v-1.35l1.07.38v-1.56l1.12-.38c.47-.15.61.39 1 .52.49-.72 1-1.4.37-2.26.1-1-.65-1.72-.92-2.56l-1.61.81c-.34-.25-.91-.46-1-.76a12.54 12.54 0 0 0-1-2.29c-.16-.39-.14-.94-.41-1.16-.58-.48.06-.79.07-1.16a2.14 2.14 0 0 1 1.43-2c.07 0 .11-.12.23-.25v-1.07c.24.09.48.28.62.22.6-.27.77 0 1.08.5a3 3 0 0 1 .41 1.73 2.83 2.83 0 0 0 0 1.07c.56 1.32.81 2.73 1.24 4.08a9.37 9.37 0 0 1 .65 3.12 2.85 2.85 0 0 0 .34 1.07c0 .06.23 0 .39.08l.07-.4a6.48 6.48 0 0 0-.25-1.78c-.06-.76 0-1.53 0-2.29 1.21-.3.9-1.62 1.56-2.32l1.15.27c-.25-.89-.44-1.66-.7-2.41s-.6-1.64-.91-2.46a23.34 23.34 0 0 0-2.8-5.6 5 5 0 0 1-1-1.62 4.32 4.32 0 0 1 0-2.27c.39-1.13.42-2.33.85-3.39l1.18.5a6.4 6.4 0 0 0-1.22-1.72 2 2 0 0 1-.49-2.11l1 .29c-.24-.43-.52-.71-.55-1a3 3 0 0 0-.72-1.47 17.49 17.49 0 0 0-1.73-2.26 7.47 7.47 0 0 1-.68-.93c-.23-.33-.45-.66-.15-1.08 0 0-.08-.25-.17-.32s-.5-.33-.73-.51c-.61-.47-1.21-1-1.82-1.44a2.57 2.57 0 0 1 1.51.11 12.07 12.07 0 0 1 5 4.74.27.27 0 0 1 0 .25c-.47.41.06.75.19.92 1 1.36 2.14 2.66 3.26 4-.74.39-.54 1-.19 1.7l.56 1.08a9 9 0 0 0-.45.82c-.06.13-.09.37 0 .45.45.44 0 .6-.19.82-.47-.11-.54-.83-1.34-.72a2.9 2.9 0 0 1 .65 2 2.23 2.23 0 0 0 .86 1.67 3.21 3.21 0 0 1 1.2 1.8c.25.84.8 1.64.62 2.59-.17-.22-.43-.41-.5-.66a1.88 1.88 0 0 0-1.88-1.6c-.4 0-.54 0-.42.4a4.71 4.71 0 0 0 .35 1.35.68.68 0 0 1 0 .64c-.42.43-.17.92-.24 1.36a2.86 2.86 0 0 1 1.12 1.89 2.4 2.4 0 0 0 .26.69c.2.42.24 1 1 1.09.27-1.45.84-2.84.64-4.34a2.56 2.56 0 0 1 .51.39c.25.31.45.65.67 1l.23-.1-.9-4.18a1.64 1.64 0 0 1 1.58.54c.42.35.67.94 1.33 1a2.53 2.53 0 0 0-.95-1.75 2.85 2.85 0 0 1-.48-.48 2.9 2.9 0 0 1-.93-2.32 15.88 15.88 0 0 1 .25-2.06c.21-.78-.1-1.65.29-2.45.06-.12-.14-.38-.24-.56-.47-.79-.95-1.58-1.44-2.39.46-.36.72-.86 1.21-1 .53.33.78 1.12 1.7.69L172 99.42c-.69-.16-.87-.84-1-1.32a3.63 3.63 0 0 0-.8-1.3 5.46 5.46 0 0 1-1.49-2.9.75.75 0 0 0-.24-.43 3.32 3.32 0 0 1-.87-1.4 1.76 1.76 0 0 0-1.11-1.15c-.53-.2-1-.93-.71-1.26.45-.56 0-.59-.31-.67-.44-.13-.92-.18-1.37-.29a.35.35 0 0 1-.23-.23c0-.09.12-.29.17-.29.89.13.84-.7 1.21-1.13-.37-.5-.73-.92-1.42-.8a1 1 0 0 1-.58-.2c-.43-.24-.84-.5-1.25-.76.82-.47 1.86-.2 2.71-.8a3.4 3.4 0 0 0-.65-.38c-.4-.13-.85-.14-1.23-.3a1.88 1.88 0 0 1-.8-.64c-.1-.15 0-.5.1-.71s-.13-.18-.21-.27a3.54 3.54 0 0 1-.37-.64c.68.22 1.28-.17 1.57.36a1.35 1.35 0 0 0 .94.65c.72.22.71.24 1.18-.54l-2-1.26a7.94 7.94 0 0 1 2.2-.18 1.82 1.82 0 0 1 .59.2 15.06 15.06 0 0 0 2.07.33h.56l-.7 1.37c-.69 0-1.31-.6-2-.12a25.63 25.63 0 0 0 3 1.2.67.67 0 0 1 .5.82 2.44 2.44 0 0 0 .53 1.81v.26l-.95.24c.5.56.94 1 .64 1.7-.22.52 0 .87.46.84a6.28 6.28 0 0 1 1.78.29c0 .34.11.73-.28 1s-.29.54-.25.83a2.7 2.7 0 0 0 .27 1 17.68 17.68 0 0 0 1.18 1.8c.15.2.07.25 0 .4s-.14.4-.06.49c.44.54.15 1.19.3 1.77l.79.79a5.36 5.36 0 0 0 .77 3 15.31 15.31 0 0 1 1.23 2.72 6 6 0 0 0 .43 1.84 3.06 3.06 0 0 1 .27 1.77c0 .07-.07.15-.1.2l-.72.12c.38 1.2.69 2.33 1.12 3.41a3.55 3.55 0 0 1 .25 1.38l-.85-.33c.14 1.06.89 1.51 1.39 2.1V116c-.73-.08-.88.66-1.34.91a8.18 8.18 0 0 0 1 1.52 1.32 1.32 0 0 1 .28 1.57 2.22 2.22 0 0 0 .09 2s-.06.15-.1.22c-.34-.07-.41-.76-1-.35l1.43 2.5c-.28.56-.43 1.11-1.08 1.26-.28.07-.33.39-.29.67v.27c-.64 0-.9.33-.8.9s-.37.37-.58.62V130l-.78.13v.67c0 .1-.12.08-.15.07l-.35-.13c-.75-.27-1.07-.07-1.07.72a1.64 1.64 0 0 0 .13.75 1.34 1.34 0 0 1 0 1.15h-.94l-.09 1.4-.86-.4a7.25 7.25 0 0 0-.41 1c-.13.49-.2 1-.29 1.5-.64.22-1.26.36-1.79-.31-.17.45 0 1-.61 1.13l-.77-.3c-.22.63.23 1.4-.76 1.7l-1.1-1.73c-.38.84.46 1.23.43 1.88s0 1.31 0 1.93c-.72.14-1.24-.54-1.9-.11.11.71 0 1.25-1 1.28-.25 0-.47.39-.38.75a1 1 0 0 1-1.07-1.06.75.75 0 0 0-.6-.83l.36 3c-.35.48-.93.69-.87 1.36 0 .14-.31.47-.4.45-.68-.2-1 .85-1.74.43l-.24-.11a4.83 4.83 0 0 1-.33.68.7.7 0 0 1-.82.4zM96.09 97.22a6.28 6.28 0 0 0-3 2.82h.37c.57-.37 1.13-.75 1.68-1.14a1.62 1.62 0 0 0 .38-.38 4.16 4.16 0 0 0 .38-.65c.07-.15.09-.33.26-.75l-.16.13.12.12a1.24 1.24 0 0 0 .12-.16s-.04-.06-.15.01zm11.29 13.94c0 .65.09 1.29-.51 1.84a.78.78 0 0 0-.11 1.19l.6-.34v1.07c.46.09.8.06 1-.29s.41-.73.63-1.09a1.47 1.47 0 0 1 1.43-.71c-.7.78-.71.79-.21 1.59.24.38.08.6-.11.94s.38.31.55.64v1.48c.45-.34.82-.61 1.18-.9a1.4 1.4 0 0 1 1.29-.46c-.36 1-1.23 1.77-1.51 3.11.45-.45.67-.69.92-.92a2.44 2.44 0 0 1 1-.72 25 25 0 0 0-2.46 6 4.17 4.17 0 0 0-.34 2.54 3.42 3.42 0 0 0 .43-.6 8.16 8.16 0 0 0 .51-1.94 8.84 8.84 0 0 1 1.59-3.54c.09-.14.33-.17.51-.26a1.42 1.42 0 0 1-.17 1.44 1.29 1.29 0 0 0-.13 1.33c.26-.47 1.39-1.9 1.66-1.9.87 0 1.18-.62 1.49-1.26 0-.08.13-.13.19-.19a7.17 7.17 0 0 0 1.69-4.94l-.56-.23v-1.14c-.25-.09-.38-.27-.37-.4 0-.42.09-.85.14-1.38l-1.12.87v-1.3l-1.23 1.6c-.05-.43-.32-.57-.65-.7a.55.55 0 0 1-.25-.79c.33-.38.6-.88 1.2-1 .23 0 .58-.22.62-.38.07-.34.19-.41.51-.43s.46-.24.7-.24.47.25.7.24a3.82 3.82 0 0 1 2.56.62c.5-.57-.05-.93-.17-1.34s-.55-.34-.91-.36c-.12 0-.23-.17-.35-.26.72-.64.74-.93.09-1.35-.17-.11-.36-.2-.54-.31-.54-.37-.62-.35-1.19.34l1.36 1.32v.54c-.36 0-.67-.09-.88 0s-.5.36-.9 0c-.2-.17-.67-.08-.89-.42s-.69-.63-.9-1.11-.73-.51-1.15-.79l-.24.68h-1.52c.09 1.26-1 1.07-1.49 1.53-1.08-.66.38-.91.1-1.48-.34-.18-1 0-1.06-.77l.86-.62a12.71 12.71 0 0 0-.89-1.55c-.46-.59-.13-1.16-.22-2l1 1.42c0-.92.71-1.19 1-1.75.7 0 .63-.59.76-1.08.7 0 1.47.14 2.13-.48v-.61a4.08 4.08 0 0 0 .58 0c.42-.07.83-.42 1.28 0 .07.07.36 0 .48-.1a.68.68 0 0 1 .84-.05c.16.08.4 0 .56.06a3.81 3.81 0 0 1 .63.47l.3-.64c.63 1.23 2 1.22 3 1.88.17-.24.68-.4.21-.83a.39.39 0 0 1-.09-.23c-.18-1.57-1.23-2.67-2.13-3.85a4.63 4.63 0 0 0-1.14-.76l-.37.61-2.11-.72-.27.48-1.11-.56c-.21.3-.2.78-.73.59l-2.25-.77a3.82 3.82 0 0 0-1.09-.3 12.62 12.62 0 0 0-5.19.52 12.9 12.9 0 0 0-2.87 1.51c.89.43 1.65-.58 2.56 0a3.15 3.15 0 0 0-.79.13 26.76 26.76 0 0 0-3.12 1.6 11.21 11.21 0 0 0-2.6 2.22 1.56 1.56 0 0 1-2 .62 2.83 2.83 0 0 0 .8-1.51h-.53a9.6 9.6 0 0 0 .66-.81 2 2 0 0 0 .13-.61c-.69.33-1.28.57-1.82.88a4.46 4.46 0 0 0-2.2 3.43 2.86 2.86 0 0 1-.62 1.65 2.11 2.11 0 0 0-.25.78c.74-.36 1.28.28 2 0-.38.64-1.22.87-.79 1.71a23.21 23.21 0 0 0 3.44-3.93 8.2 8.2 0 0 1 2-2.26 27.72 27.72 0 0 1 2.32-1.55 7.61 7.61 0 0 1 2.31-.94c.46-.1.62.14.72.51a13.88 13.88 0 0 1 2.34.19 21.25 21.25 0 0 0-2.29.7c-.66.33-1.58.5-1.81 1.57H105l-.66.91c.5.15.73.39.63.86.64.47-.32.53-.2.94.5 0 1-.57 1.55-.13a4.45 4.45 0 0 0-1.54 2.25.53.53 0 0 0 .1.09c.62.35 1-.62 1.61-.24.3.66.29.93-.18 1.41a22.86 22.86 0 0 0-3.47 4.93 35.65 35.65 0 0 0-2.94 6.81c.13 0 .24.06.3 0a12 12 0 0 0 2.35-3.46 16.47 16.47 0 0 1 2-3.63 24 24 0 0 0 1.59-2c.24-.39.55-1 1.23-.88 0 .51-.33.84-.55 1.23-.34.62-1 1.16-.75 2a.69.69 0 0 0 .75-.61c.1-.33.36-.13.55-.17zm36.78 34.66c0-1.7.06-1.71-1.64-1.67H142a9.33 9.33 0 0 0-3 .26c-.79.27-1.6.48-2.41.69a6.08 6.08 0 0 1-2.39.4c-.33 0-.64-.23-1-.25a7.39 7.39 0 0 0-1.75 0c-.65.11-1.17-.31-1.78-.3h-2.56c-.17 0-.42 0-.49.1-.37.51-1 .53-1.48.68s-.72.25-.74.73.22.68.64 1a8.74 8.74 0 0 0 4.72 1.26 32.11 32.11 0 0 0 7.31-.19c1.24-.24 2.53-.17 3.79-.31a3 3 0 0 0 2.44-1.22c.23-.42.58-.66.86-1.18zm-40.41-27.75a11.23 11.23 0 0 0-1.5 3.17c-.23.67-.29 1.41-.57 2.06s.8.42.56 1c.41.18.5-.24.65-.41a6.11 6.11 0 0 0 .44-.89c.07-.11.25-.16.43-.27-.07.41-.14.72-.17 1-.05.54.43.55.73.76a2.86 2.86 0 0 1 .53.77h.86a5.58 5.58 0 0 0 .33 1.13c.11.22.41.34.76.6a24.62 24.62 0 0 0 .31-3c0-.32 0-.6-.32-.82s-.26-.72-.17-1.09c.28-1.09.3-1.08-.66-1.61l.34-1.12h-.67c-.51.72-.64 1.61-1.51 2.14l.35-2.39c-.74.03-.56-.49-.72-1.03zm8-47a3 3 0 0 0-1.17-2.26c-1.28-.86-2.24-2.07-3.47-3-.89-.67-1.73-1.45-2.68-2a4.4 4.4 0 0 0-4.48-.3 12.3 12.3 0 0 0 1.24.65 19 19 0 0 1 6.28 3.74c.78.71 1.55 1.44 2.38 2.09a17.83 17.83 0 0 0 1.89 1.06zM99.56 107l-1 .87-.13-.9c-.25.14-.43.34-.58.32-.85-.12-1 .57-1.22 1.09-.34.85-.55 1.74-.81 2.62.84.22.84.22 1.34 1.29-.27.46-.68.88-.47 1.6a18.66 18.66 0 0 0 1.44-1.46c.94-1.19 1.2-2.79 2.25-3.93.09-.09-.08-.58-.1-.58-.78.08-.28-.65-.72-.92zm-3.76 21.1c.29.09.6.11.73.27s.33.62.23.78c-.2.34-.4.64-.06.92a3.68 3.68 0 0 0 .92.42c.1.39-.18 1 .46 1.17a4.29 4.29 0 0 0 .92-2.45c.44-.49.2-1.09.27-1.64s.19-1.09.26-1.64a1.58 1.58 0 0 0-.07-.45c-.83-.07-.61.91-1.2 1-.29-.59-.29-.59-1.3-.21l-.3-.63zm31.87-8.19c-.53-.31-.66.26-1 .46l-.5-1.37c-.1.1-.25.18-.29.3a7 7 0 0 0-.68 3c.12.93 0 1.88 0 2.82a5.62 5.62 0 0 0 .31 1.89c.15.35.21 1 .86 1l1.28-1.25c-.29-.2-.73-.33-.81-.58a6.79 6.79 0 0 1-.14-3.85 20.64 20.64 0 0 1 .97-2.42zm-15.29 18.25a5 5 0 0 0 .4-2.66v-4a4.72 4.72 0 0 1 .43-2.12c.25-.54-.11-.61-.32-.92A10.34 10.34 0 0 0 112 130a8.18 8.18 0 0 0-.53 2.2 8.36 8.36 0 0 0 .14 2.77 16.32 16.32 0 0 1 .44 2.65c.01.17.22.38.33.54zm-14.13-20.91a3.16 3.16 0 0 0 1.79-2 10.34 10.34 0 0 0 .58-3 4 4 0 0 1 .1-.76c0-.27.11-.53.19-1l-1.6 1.51c-.67-.23-.77.47-.83.72a18.6 18.6 0 0 1-.71 3.08 5.28 5.28 0 0 0 .67-.41 2.41 2.41 0 0 1 .6-.14zm-4.51 2.59a1.92 1.92 0 0 0-.85 1.36c-.14.5-.31 1 .14 1.47.09.09 0 .35 0 .53a4.5 4.5 0 0 0 .38 2.27 6.91 6.91 0 0 0 1.19-4.79c-.6-.03-.69-.46-.86-.85zm8 6l-.2-.11a3.12 3.12 0 0 0-.39.78c-.25 1.33-.56 2.66-.8 4a19.5 19.5 0 0 1-.88 3.25l1.3.76.86-2.78-.77-.14a4.79 4.79 0 0 1 0-1.78c.23-.51.22-1.06.44-1.58a9.25 9.25 0 0 0 .46-2.36zm31 4a11.47 11.47 0 0 0-5.39.88 1.92 1.92 0 0 0-1.13 1c.61.64.85.69 1.52.25a9.76 9.76 0 0 1 3.74-1.35 7.39 7.39 0 0 0 1.19-.36c.12-.01.1-.26.12-.38zm-41.65-9.21c.24-.05.44-.05.46-.11.31-.9.6-1.81.88-2.72a2.66 2.66 0 0 0 .14-.74 1 1 0 0 0-.15-.63c-.32-.32-.31-.55 0-.88.1-.11 0-.4 0-.69a1.86 1.86 0 0 0-.29.21 6.53 6.53 0 0 0-.93 1.22 7.8 7.8 0 0 0-.55 1.91c0 .19.29.44.41.68s0 .26 0 .4zM99 93.21c-1.48 1.27-3.28 1.75-4.35 3.25.08 0 .16.1.23.09a2.24 2.24 0 0 0 .5-.08 10.91 10.91 0 0 0 3-1.89c.4-.28.52-.74.62-1.37zm15 38.82c-.39.57-.65.94-.9 1.31-.07.1-.17.29-.13.34.47.54.13 1.2.28 1.78a8 8 0 0 0 .75 1.41zm-23.83-16.45c.48-.27.9-.46 1-1 0-.13.54-2 .52-2.18s-.13-.1-.2-.14c-.76.52-.84.5-1 1.08s-.62 1.37-.32 2.24zm15.31 23.93a.94.94 0 0 0 1.23-.55c.2-.44.52-.92.36-1.44-.06-.19-.22-.4-.66-.18-.86.42-.92.32-.93 1.08v1.09zm34.94-6.63a1.3 1.3 0 0 0-1.4-.9 5.8 5.8 0 0 1-.67 0c-1.46 0-2.05.57-2.22 2.12.61.27.56-.43.61-.57a2 2 0 0 1 1.37-1.24c.48-.19 1 .19 1.35.55a.63.63 0 0 0 .96.04zm-6.07-.24a3.92 3.92 0 0 0-.47 2.43 4.16 4.16 0 0 0 .52 2.41c.05-.78-.11-1.45.28-2a.44.44 0 0 0 0-.39c-.42-.72-.18-1.49-.33-2.45zm-26-4.72a5.61 5.61 0 0 0 .65-.74 1.45 1.45 0 0 0 .26-.81 3 3 0 0 0-.35-.86l-1 .93c.09.56-.2 1.1.42 1.48zm66.11-8.77c-.4-.59-.78-1.18-1.2-1.75a.66.66 0 0 0-1-.15c.26 1.18 1.21 1.54 2.18 1.9zm-8.56-48.6c.46.12.53-.07.31-.63zM148 71l-.23-.1c0 .07-.1.16-.08.22a.8.8 0 0 0 .17.23z" fill="#282220"/><path d="M157.14 75.19A2.09 2.09 0 0 0 158 75c1-.55 2-1 3.11-1.54l.12 1.16a22.8 22.8 0 0 0 3.52-.52l-.27.72c.09 0 .24.11.32.06a8.56 8.56 0 0 0 .86-.54c.25-.17.49-.34.72-.53a22.5 22.5 0 0 0 2.09-1.78c.37-.39.9-.89.35-1.56a.53.53 0 0 1 0-.5c.65-.74.08-1.27-.28-1.84l-.2-.27-.34.27c-.68-.1-.84.58-1.26.87-.2.13-.18.16-.73 0l1.34-1.59-1.07-.22c.55-1 1-1.95 2.19-2.12a1.39 1.39 0 0 0-.24-1.45 2.28 2.28 0 0 0-1.35-.95 6.51 6.51 0 0 0-4.21.1c-1.67.63-3.31 1.36-4.95 2.09a16.89 16.89 0 0 0-2.09 1.16c-.49.31-.66 1-1.23 1.22-.15.07-.3.32-.41.3-.91-.22-1 .65-1.4 1-.18.17-.26.48-.46.58-1 .49-1.94.94-2.93 1.41-.08-.67.56-.52.81-.81a8.75 8.75 0 0 1 1.11-.88 3 3 0 0 0 .88-1.08l-2.25.34c1.43-1 2.72-1.75 3.93-2.65s2.66-1.5 3.85-2.47c.83-.06 1.4-.71 2.2-.91a16.59 16.59 0 0 1 2.25-.73 12.84 12.84 0 0 1 3.53-.32c.29.05.55.22.84.26a8.75 8.75 0 0 1 2.07.88 3.12 3.12 0 0 1 1.42 2.84 42.5 42.5 0 0 1 0 5 15.76 15.76 0 0 1-1.45 5.74 7.57 7.57 0 0 0-.35 1c.47.42.88-.36 1.37-.18a7.88 7.88 0 0 0 .72-1.42c.19-.69.33-1.39.54-2.08a20.85 20.85 0 0 0 .31-2.18c.06-.32.28-.59.27-1a34.14 34.14 0 0 0-.07-4.32 5 5 0 0 0-1.29-3.24c-.07-.06 0-.26 0-.4a.71.71 0 0 1 .81.5c.47 1.07 1.17 2.06 1.08 3.31a4.66 4.66 0 0 1 .23 3 33.7 33.7 0 0 1-.89 4.31 17 17 0 0 0-1 4 2.94 2.94 0 0 1-.26.83l-.42-.54h-1.07c-.37.26-.42.84-.92.93-.14.63.21 1.33-.3 1.93a3.86 3.86 0 0 1 .46.16 3.39 3.39 0 0 1 .38.25.88.88 0 0 0 .52-.91c0-.19-.11-.48.26-.48.13.39-.36 1 .46 1.14 0 .39.21.92 0 1.15-.39.48-.08.95-.26 1.38.55.19 1 .4.85 1s.36 1.13.59 1.65.35.86.17 1.1c-.42.56-.09 1.12-.23 1.6.58.45 1.28.62 1.63 1.25a6.28 6.28 0 0 0-1.78-.29c-.48 0-.68-.31-.46-.84.29-.7-.14-1.14-.64-1.7l.95-.24c0-.09.07-.21 0-.26a2.44 2.44 0 0 1-.53-1.81.67.67 0 0 0-.5-.82 25.63 25.63 0 0 1-3-1.2c.72-.48 1.34.08 2 .12l.7-1.37h-.56a15.06 15.06 0 0 1-2.07-.33 1.82 1.82 0 0 0-.59-.2 7.94 7.94 0 0 0-2.2.18l2 1.26c-.47.78-.47.76-1.18.54a1.35 1.35 0 0 1-.94-.65c-.29-.53-.89-.14-1.57-.36a3.54 3.54 0 0 0 .37.64c.08.08.36-.06.21.27s-.21.56-.1.71a1.88 1.88 0 0 0 .8.64c.38.16.83.17 1.23.3a3.4 3.4 0 0 1 .65.38c-.86.6-1.89.34-2.71.8.42.25.83.52 1.25.76a1 1 0 0 0 .58.2c.7-.12 1.05.29 1.42.8-.38.42-.32 1.26-1.21 1.13 0 0-.17.19-.17.29a.35.35 0 0 0 .23.23c.45.11.92.16 1.37.29.29.09.77.11.31.67-.26.32.18 1.06.71 1.26a1.76 1.76 0 0 1 1.11 1.15 3.32 3.32 0 0 0 .87 1.4.75.75 0 0 1 .24.43 5.46 5.46 0 0 0 1.49 2.9 3.63 3.63 0 0 1 .8 1.3c.12.48.3 1.15 1 1.32l1.46 2.4c-.93.42-1.17-.37-1.7-.69-.49.17-.75.67-1.21 1 .49.81 1 1.6 1.44 2.39.11.18.3.44.24.56-.39.8-.08 1.68-.29 2.45a15.88 15.88 0 0 0-.25 2.06 2.9 2.9 0 0 0 .93 2.32 2.85 2.85 0 0 0 .48.48 2.53 2.53 0 0 1 .95 1.75c-.66-.11-.91-.69-1.33-1a1.64 1.64 0 0 0-1.58-.54l.9 4.18-.23.1c-.22-.33-.42-.67-.67-1a2.56 2.56 0 0 0-.51-.39c-.1-.27.25-.68-.27-.81.18-.95-.37-1.75-.62-2.59a3.21 3.21 0 0 0-1.2-1.8 2.23 2.23 0 0 1-.86-1.67 2.9 2.9 0 0 0-.65-2c.8-.12.87.6 1.34.72.16-.21.64-.38.19-.82-.07-.07 0-.31 0-.45a9 9 0 0 1 .45-.82l-.56-1.08c-.35-.67-.55-1.31.19-1.7-1.12-1.36-2.23-2.66-3.26-4-.13-.17-.66-.51-.19-.92a.27.27 0 0 0 0-.25 12.07 12.07 0 0 0-5-4.74 2.57 2.57 0 0 0-1.51-.11c.61.48 1.21 1 1.82 1.44.23.18.5.32.73.51s.2.27.17.32c-.29.42-.08.75.15 1.08a7.47 7.47 0 0 0 .68.93 17.49 17.49 0 0 1 1.71 2.25 3 3 0 0 1 .72 1.47c0 .31.31.59.55 1l-1-.29a2 2 0 0 0 .49 2.11A6.4 6.4 0 0 1 166 105l-1.18-.5c-.43 1.06-.46 2.26-.85 3.39a4.32 4.32 0 0 0 0 2.27 5 5 0 0 0 1 1.62 23.34 23.34 0 0 1 2.8 5.6c.31.82.63 1.63.91 2.46s.44 1.53.7 2.41l-1.15-.27c-.67.7-.35 2-1.56 2.32v2.29a6.48 6.48 0 0 1 .25 1.78l-.07.4c-.16 0-.36 0-.39-.08a2.85 2.85 0 0 1-.34-1.07 9.37 9.37 0 0 0-.65-3.12c-.43-1.36-.68-2.76-1.24-4.08a2.83 2.83 0 0 1 0-1.07 3 3 0 0 0-.41-1.73c-.3-.5-.48-.77-1.08-.5-.13.06-.38-.13-.62-.22v1.07c-.12.13-.16.22-.23.25a2.14 2.14 0 0 0-1.43 2c0 .38-.65.68-.07 1.16.27.23.26.78.41 1.16a12.54 12.54 0 0 1 1 2.29c.06.3.63.51 1 .76l1.61-.81c.27.84 1 1.54.92 2.56.61.86.12 1.54-.37 2.26-.36-.13-.5-.67-1-.52l-1.12.38V131l-1.07-.38v1.35l-.2.06a2.41 2.41 0 0 1-.34-.7c-.06-.44 0-.9 0-1.35s.14-.91.8-.95c.5 0 .64-.46.54-.88a10.6 10.6 0 0 0-.54-1.53.47.47 0 0 0-.34-.26 1.08 1.08 0 0 1-1-.77c-.35-.74-.94-1.34-1.27-2a1.15 1.15 0 0 0-1.34-.72h-.33v1.78l-.74.62c-.17.77-.31 1.31-.4 1.85a5.93 5.93 0 0 0 .31 2.84 3.78 3.78 0 0 1 .08 1.8l-.69-1.89h-.2c0 .24 0 .48-.06.72a1.72 1.72 0 0 1 0 .54c-.15.35-.58.8-.48 1a2.18 2.18 0 0 1 .22 1.13 9.29 9.29 0 0 0 0 1.22c.08.52-.31.88-.4 1.35-.08-.76-.41-1.44-.46-2.21a12.42 12.42 0 0 0-.59-2.58 7 7 0 0 1-.46-2.38 1.17 1.17 0 0 0-.11-.63.93.93 0 0 1 .26-1.38c.38-.27.38-.65.46-1.05l.53.26c.09-.07.2-.12.21-.18.21-1.33-.38-2.54-.62-3.8a16.15 16.15 0 0 0-.46-2.1 5.38 5.38 0 0 0-1.54-2.88 4.67 4.67 0 0 1-.18 1 4.41 4.41 0 0 1-.6.83l-.53-.5c0 .08-.13.16-.12.22.1.56.45 1.12-.26 1.59-.11.07 0 .61.12.86.23.4.07.74.13 1.31l-.95-.69-.45.27a11.4 11.4 0 0 1-2.63-3.49l.58-.28-.39-1.29c.14 0 .22-.09.26-.06.33.16.66.34 1.22.64a32.91 32.91 0 0 1-1.29-3.69l1.6 1.92c.54-.67-.35-1.25 0-1.93l.34.27c.42-.73-.52-1.17-.42-1.79.56-.33.62.37 1 .39 0-.12.08-.28 0-.36-.53-.78-1.08-1.55-1.68-2.4l-.36.74-1.49-2.24c-.74 0-1.38-.08-1.86.48.12 1 1.39.19 1.61 1.08l-.37 1.11c-.71.19-.51-.73-1-.8s-.82-.15-1.3-.24l.27 1.28-.25.07-.61-1.9h-1.58a5.3 5.3 0 0 1 .2.82 8 8 0 0 1 .07 2 5.24 5.24 0 0 0 0 3.17 2.77 2.77 0 0 1-.6-.25c-.83-.66-1.1-1.71-1.73-2.51a.8.8 0 0 0-.93.53c-.18.44-.49.89-.14 1.33.63.77.8 1.75 1.39 2.55a16.54 16.54 0 0 1 1.35 2.69l.48-2a3.41 3.41 0 0 1 1.8 2.54 2 2 0 0 1 0 .67 2.85 2.85 0 0 0 1.16 2.77c.13.1.16.32.28.56l1.12-1 1.84 1.11.16-.13-.54-.74a1.38 1.38 0 0 1 1.33 1.28 8.22 8.22 0 0 0 .76 2 3.94 3.94 0 0 1 .14.82l-1.05-.75c0 .49-.17.89 0 1.16a1.22 1.22 0 0 1-.05 1.13 1.78 1.78 0 0 0 0 1.69c.34.71.54 1.49.84 2.22.07.18.26.3.49.56v-1c.75-.52 1.39 0 2 .15.29.05.64.63.68 1a15.2 15.2 0 0 1 0 2.56c0 .22-.24.43-.43.76l-.39-.67c-.15.17-.25.23-.24.28.08.51-.1 1 .18 1.55.17.33-.06.9-.21 1.33-.07.19-.39.3-.58.45l-.44.37c-.17.4.57.61.1 1-.21.17-.07.59-.56.59-.24 0-.43.37-.41.75a2.74 2.74 0 0 1-.25.85l-.64-.37c-.25.79-.25.79-1.05 1.53.24-1.09-.26-2.07.33-3v-.13c.09-1.27.21-2.54.26-3.81a24.08 24.08 0 0 0 0-3.78 7.08 7.08 0 0 0-1.2-3.35 5.13 5.13 0 0 0 .17 2.89c.14.4.5.74 0 1.16-.05 0 .1.29.11.45a6.41 6.41 0 0 1 0 1 1.51 1.51 0 0 1-.19.72c-.22.31.53.42.09.78a1.32 1.32 0 0 0-.29.81 10.08 10.08 0 0 0-.05 1.33 3 3 0 0 1-1 2.43 9.65 9.65 0 0 0-1 1.29c-.71-.13-1.48.18-2.25-.25-.31-.17-.8 0-1.2 0s-.8.17-1.13-.22a.54.54 0 0 0-.51 0c-1 .57-2 .18-3 .23a1.57 1.57 0 0 1-1.5-1.59v-2.16a.77.77 0 0 1 .51-.82 2.81 2.81 0 0 1 .34-.16 2.83 2.83 0 0 0 1.6-1.45c.12-.21.3-.47.5-.53.5-.14.57-.46.58-.9s.06-.39.73-1a4.38 4.38 0 0 0 .69.27c.51.11 1 .53 1.55 0 .38-.35.92-.43 1.21-1s.76-1 .67-1.89l-1.89-1.57 1.26-.46a10.48 10.48 0 0 0-2.81-1.14 8 8 0 0 0-.87-.14 13.47 13.47 0 0 0-2.7 0 48.88 48.88 0 0 1-5.44.27 17.86 17.86 0 0 0-2.69.65c-.32.08-.66.11-1 .17-.14-1 .53-1.28 1.1-1.67a11.53 11.53 0 0 1 2.67-1.06 6.42 6.42 0 0 1 3-.57c.48.06.72-.21.78-.74-1.15-.11-2.27-.25-3.39-.33-.87-.06-1.23-.45-.86-1.27a2.87 2.87 0 0 0 .15-1.09l-.6-.2c.26-.45.45-.89 1-1a.73.73 0 0 0 .45-.19c.12-.15.28-.49.21-.56-.44-.47-.38-1.29-1.08-1.57-.08 0-.13-.12-.26-.25a5.47 5.47 0 0 0 .56-.4 3.55 3.55 0 0 0 .37-.54l-1.81.35c.2-.58-.1-1 .25-1.51a1.75 1.75 0 0 0 .33-1.19c-.11-.62.58-.77.6-1.37l-1-.1c-.31-.16.22-.77-.44-.79-.33 0-.22-.36-.19-.54a3 3 0 0 1 .29-.67 1.33 1.33 0 0 0-1.6.26 5.71 5.71 0 0 0-2.14 2.89 13 13 0 0 1-1 2.83c-.25.49 0 1-.27 1.37s0 .79.05 1.17.23 1-.15 1.42c-.1.11-.15.41-.07.49.45.46.06.85-.07 1.25 0 .16-.19.3-.21.45-.11 1.09-.19 2.18-.28 3.27a1.31 1.31 0 0 0 0 .4c.07.3-.62.45-.17.79.23.17 0 .7.55.61a.8.8 0 0 1 .15.44c0 .42.21.9-.22 1.26 0 .9-.07 1.79 0 2.69 0 .25.34.48.51.73a5.41 5.41 0 0 0 1.88 1.77 2.41 2.41 0 0 0 1.86.35c.3-1-1-1.15-.93-2.07a1.2 1.2 0 0 1 1.35.5 3.89 3.89 0 0 0 1.91 1.11 3.55 3.55 0 0 0 1-2.15 1.38 1.38 0 0 0-1.3-1.39c-.52 0-1-.1-1.46.42-.19.23-.58.29-.9.43-.13-.86-.09-.94.47-1.12l1.31-.43a2 2 0 0 1 2.68 1.92v1.42a6.86 6.86 0 0 0-.75.41c-.33.23-.53.94-.26 1.17.69.58.9 1.75 2.1 1.74.25 0 .63.82.45 1-.41.38.11 1-.45 1.32v.13c.73.93-.18 1.3-.62 1.82-.09.1-.19.19-.3.3-.48.12-1 0-1.5.27s-1-.06-1.52.25-1.21-.09-1.75.33c-1.1-.09-2.15.46-3.27.27a14.71 14.71 0 0 1-2-.35 1.11 1.11 0 0 1-.78-.71c-.47-1.37-1.12-2.7-.94-4.2.06-.51-.25-.93-.25-1.38s-.21-1.23.16-1.82-.16-1.14.28-1.65c.12-.13.06-.42.07-.64a1.36 1.36 0 0 0-.53-1.25 2.64 2.64 0 0 0-1-.23 3.39 3.39 0 0 0-.17 2.94 3.91 3.91 0 0 1 .32 1.9 12.08 12.08 0 0 0 0 2c0 .78.28 1.52.3 2.32a9.4 9.4 0 0 0 .51 2.08 14.79 14.79 0 0 0 .81 2.1c.13.3.23.6.4 1.06-.72-.46-1.34-.22-1.91-.34l-.48-1.38-.64.31c-.14-.94-1.07-1.53-1.2-2.55 0-.2-.44-.36-.77-.6v-1.59a1.46 1.46 0 0 1-1.35-1.45 1.42 1.42 0 0 1 0-.54 2.13 2.13 0 0 0-.28-2.1c.34-.43-.59-.67-.14-1.2.21-.24 0-.83.16-1.13.44-.7.2-1.62.79-2.25a5.75 5.75 0 0 1 1.48-2.76 1.67 1.67 0 0 0 .44-.91 5.64 5.64 0 0 1 1.19-2.33 15.28 15.28 0 0 1 1.23-1.52 6.74 6.74 0 0 0 1.25-2.59 16.16 16.16 0 0 0 .88-5.29l-.83.19-.81.19c.34-.83.67-1.59 1-2.37a9.35 9.35 0 0 0 .92-4.48 7.67 7.67 0 0 0-2.1-4.8 7 7 0 0 0-1.8-1.53c-.76-.37-1.49-.85-2.4-.34a2.48 2.48 0 0 1-.95.07c.65-.84.74-.71 1.45-1.15s1.49.06 2.22.11c.45.74 1.19.43 1.82.49.51.35.81.9 1.42 1.17a1 1 0 0 1 .65 1.2.65.65 0 0 0 .57.88c.54.09.76 0 1-.55a5.53 5.53 0 0 0 .83-3c-.06-.85 0-1.7 0-2.73l.71 1A2.25 2.25 0 0 0 126 99c-.53-1-.86-2.18-1.41-3.2a6 6 0 0 0-2.32-2.84l.24 1.24a2.58 2.58 0 0 1-.83-.17c-.47-.31-.86-.73-1.34-1a4 4 0 0 0-2.26-.74 4.43 4.43 0 0 1-1.87-.38 3.67 3.67 0 0 0-3.15.24c-.57.31-1.24.09-1.72.56h-.28l-1.06-.24 1.43 1.11h-3a2.28 2.28 0 0 0-.91.07c-.61.29-1.07.78-1.86.77a7.69 7.69 0 0 0-1.94.5 3.08 3.08 0 0 1-1.42.13l1.63-1.35c0-.53-.72-.33-.58-.84a4.47 4.47 0 0 0-.73 0 8.47 8.47 0 0 0-1 .25c.35-1.13 1.29-1.28 2-1.86-.3-1.44 1-1.91 2-2.67l-.8-.3a10 10 0 0 1 1.62-.63 7.65 7.65 0 0 0 1.65-.26 9 9 0 0 1 1.86-.34c-2.44-.87-2.67-.39-4.76.08a11.59 11.59 0 0 0-3.23 1.32c-.84.49-1.65 1-2.46 1.58-.28.19-.65.5-.44.88a.83.83 0 0 1-.38 1.23 7.63 7.63 0 0 0-1 .79 2.14 2.14 0 0 1-.79.37 1 1 0 0 1-.75-.1c-.33-.31-.39.23-.65.13a4.19 4.19 0 0 0-1-.06l3-1.93c-.72-.59 0-.79.17-1.11l-.93-.62c.87-.5 1.63-.95 2.41-1.38a1.6 1.6 0 0 0 .87-1.67.67.67 0 0 1 .11-.38 7.64 7.64 0 0 1 2.7-2.65v-1.41l1.46-1.21c.07-.06.12-.17.19-.18.53-.1-.1-.93.65-1a2.63 2.63 0 0 0 1.11-.54 5.33 5.33 0 0 0 .68-.6c-.07-.76-.7-.84-1.13-1a20.12 20.12 0 0 1-2.07-.55.8.8 0 0 0-.69.22c-.63.72-1.21 1.47-1.81 2.22-.11.13-.18.33-.32.4-.45.23-1 .2-1.36.71-.26.34-1 .35-1.49.52a9.28 9.28 0 0 1-2.46.24 6.84 6.84 0 0 0-1.35-3.29 6.6 6.6 0 0 1-1.16-3c0-.24-.25-.47-.24-.7 0-.68-.63-1.09-.58-1.81a4.07 4.07 0 0 0-.27-1.9 2.93 2.93 0 0 1 .2-2.56 1.06 1.06 0 0 0 .09-.37 2.79 2.79 0 0 1 1.49-2.36A21.71 21.71 0 0 1 96 64c.56-.27.56-.27 1.18.48a8 8 0 0 1-.93.61 4.94 4.94 0 0 0-1.81 1.3l.56 1.1-1 .24.71 1.13-.84.16c.21.41.36.82 0 1.21a2.8 2.8 0 0 1 .46.2l3 2a4.81 4.81 0 0 0-1 .09c-.31.11-.66-.76-.88 0-.1.35-.77.15-.56.7a8.47 8.47 0 0 1 .27.84c0 .07 0 .17-.06.36l-.85-.25c.13.25.2.4.29.54.37.61.93 1.08 1 1.92a1.09 1.09 0 0 0 .82 1 2.31 2.31 0 0 1 1.05.7 1.17 1.17 0 0 0 1.55.22 3.36 3.36 0 0 1 2-.4l-.66-.77h.7l.48-1-1.36-1h1.69c.56 0 1.12.11 1.59-.44.27-.32.81-.07 1.31.48l-.56.66c.54.63 1.22.46 1.84.26a1.12 1.12 0 0 1 .94 0 7.1 7.1 0 0 0 1.73.29l.12-.7c.67-.1 1.39-.2 2.1-.33.11 0 .19-.21.28-.33s.11-.2.15-.19c.88.09 1.39-.56 2-1a7.4 7.4 0 0 1 1.61-.52c-.14-.94-1.3-.93-1.6-1.7.35-.17.61 0 .93.19a2.9 2.9 0 0 0 2.17.8c.45-.91-.71-1.05-.73-1.76.58-.42.75.48 1.34.21l.1-.3.92.46c.15-.18.54-.33 0-.7 1-.22 2 .14 3-.27.38.23.62 1 1.51.6-.18-.24-.32-.45-.48-.64s-.33-.38-.5-.58a.58.58 0 0 1 .85-.16l1.3.67c.37-.87-.27-1.55-.33-2.4.29.29.57.61.89.88s.72.48 1 .78a1.29 1.29 0 0 0 1.77.13v-1.46c.54.28 1 .27 1.1 1 0 .45.43.87.76 1.46l.29-.61.34-.7c.72.83 1.69.6 2.45.93.6-.84.3-1.93 1.2-2.54v1.8l1.74.67 2.36-1.86a8.89 8.89 0 0 0-.25 1 6.77 6.77 0 0 0 0 .8c.78.36 1-.35 1.5-.71.41.8 2 .36 1.74 1.78.6.28.94-.17 1.36-.32.69-.24 1.27-.89 2.13-.61a2.82 2.82 0 0 1-1.59 1.6c.65.41 1-.07 1.4-.23s1-.65 1.63-.18c.23.16.74-.08 1.12-.13l1.07-.13c-.36.83-1.54.58-1.66 1.5.7.46 1.28-.12 1.91-.13h.54a5.11 5.11 0 0 0 3.48-1.41 8.21 8.21 0 0 1 2.68-1.91c0 .32.1.68 0 .79-.48.42-.75 1.14-1.53 1.19a.55.55 0 0 0-.33.17 5.64 5.64 0 0 1-2.91 1.47c-.13 0-.22.24-.4.43 1.57.37 2.81-.3 4.06-.78a11 11 0 0 0 1.51-.93 2.79 2.79 0 0 1 .8-.34c.49-.11 1-.15 1.48-.22a5.13 5.13 0 0 1 .27 1.08c0 .15-.29.32-.44.48s-.29.27-.43.26c-1.24-.1-2.3.53-3.43.85a4.18 4.18 0 0 0-1.4.81c-.15.12-.1.5-.12.67l1-.14-.31.82a23.22 23.22 0 0 0 4.15-2l-.65-.31 1.16-.36c.32.42.69.31 1.1.13a24.61 24.61 0 0 0 3.54-1.89 28 28 0 0 1 2.8-1.39c-.18.43-.21.67-.34.76a11.09 11.09 0 0 1-1.89 1.28 13.07 13.07 0 0 1-2.73 1.22 1.14 1.14 0 0 0-.64.38 3.63 3.63 0 0 1-1.83 1.13 3 3 0 0 1-.56.26 17.71 17.71 0 0 0-4 1.64c-.12.06-.18.23-.26.35.15.06.31.2.43.17a5.58 5.58 0 0 0 .92-.39 8.21 8.21 0 0 1 3.76-1.1c.48-.05-.08.1-.65.14s-.77.65-1.41.67c-.48 0-.93.54-1.4.84 1.71-.07 3.16-.77 3.46-1.66-1 .06-.93 0-.84-.11.24-.22.7-.14.84-.56zm4.6 27l-.27-.27a4.51 4.51 0 0 0-.2-.59c-.09-.19-.35-.37-.32-.53.12-.77-.48-1.2-.84-1.68-.94-1.25-2.06-2.37-3-3.63a2.74 2.74 0 0 0-2.48-1.15 8.87 8.87 0 0 1-1.35 0 2.11 2.11 0 0 1-.64-.27 4.06 4.06 0 0 1 .19-.86 4.92 4.92 0 0 1 .57-.73c-.33-.12-.58-.3-.8-.26-.67.1-1.32.31-2 .41s-1.35.54-2.14.31l.57-.68c-.47-.08-.94 0-.93-.57-.59-.11-1.24.15-1.77-.3a1.94 1.94 0 0 1-1.37.27 2 2 0 0 0-1.61.67l-.56.56-1.56-.21-.21-.61c-.57.45-1.34.53-1.48 1.37-.5.25-.46.8-.67 1.2a12.43 12.43 0 0 0-1.11 2 10.89 10.89 0 0 0-.91 4.35v2.58h.15l.5-2.07a4.74 4.74 0 0 1 .41.93c.06.38 0 .76.26 1.12a2.68 2.68 0 0 1 .29 1c.13.48.58.19.81.35s.31.45.49.72a5.57 5.57 0 0 1 .85-1c.47-.34.13-.85.39-1.28.64.22 1.06-.14 1.46-.59s.82-.83 1.29-1.3c.66.24 1.14-.32 1.73-.52v.74c.33.11.69.22 1 .35a1.13 1.13 0 0 1 .84.9c0 .05-.1.12-.21.23-.13-.09-.26-.19-.4-.27a2.89 2.89 0 0 0-3.69.88c-.15.2-.26.43-.39.65a5.16 5.16 0 0 0-1 3.38.77.77 0 0 0 .68.74c.21-.27.38-.67.67-.81a5.94 5.94 0 0 1 1.79-.55 12.52 12.52 0 0 0 2.92-1.11c.18-.07.31-.3.44-.47s.43-.59.67-.91c.88 1.27 2.17 2 3 3 .81-.28.73-.91.6-1.37-.25-.87-1.16-1-2-1.28 1.18-1.3 2.45-2.4 2.87-4.21l-1 .35c.18-.61.34-1.12.47-1.64 0-.08-.1-.2-.2-.38l-.81.67c-.62-.23-1.23-.39-1.5-1 0-.12-.18-.27-.28-.28-.73-.05-.64-.7-.88-1.25l-1 2-1-.52-.83 1.34-.24-.31.46-1.88c-1.21-.13-1.21 1-1.74 1.62-.1-.47-.05-1-.66-1.11-.67.32-.87 1.06-1.19 1.69l-.79-.39a9.34 9.34 0 0 1-.67 1c-.1.12-.34.11-.58.18.21-.87.35-1.61.57-2.34a3.89 3.89 0 0 1 1.06-2.13c.6-.48 1-1.25 1.81-1.55l-.23 1.32c.56-.56.91-.95 1.31-1.3s.7-.92 1.35-1.1c.35.82-.86.88-.67 1.67h1.27a6.62 6.62 0 0 0 2.2-.22 4.75 4.75 0 0 1 2.3-.26c.5.06 1.39 0 1.44.77s.63.77 1 1a3.39 3.39 0 0 0 1.08.32s.05.12.08.18l-.76.2v.26a23.63 23.63 0 0 1 5.72 3.81 1.19 1.19 0 0 0 1 .4c.09.09.18.18.36.91.1-.19.19-.29.17-.32a2.1 2.1 0 0 0-.26-.32zm-6.49-24.15a8.74 8.74 0 0 0 3.6-1.23c-1.47-.21-2.5.59-4.24 1.4.19.1.29.19.32.17a2.1 2.1 0 0 0 .32-.26c-.18.07-.36.09-.01-.04zM118.73 76l-1.26-.31-.48 1.4a1.68 1.68 0 0 1-.49 0 2.58 2.58 0 0 0-2.26 0 1.89 1.89 0 0 1-.54 0h-1.13c-.07.23-.1.46-.14.46a12.68 12.68 0 0 1-2.35-.07 5.54 5.54 0 0 0-1.68-.06c.11.54.35.77.83.76.1 0 .21.09.35.15l-.32.67h1.24c-1.27.76-2.52.41-3.68.69a5.08 5.08 0 0 0 1.58.09 1.28 1.28 0 0 1 1.37.72 4.86 4.86 0 0 1-1.08.36 14.55 14.55 0 0 0-3.2 1.09c-.54.17-.66.52-.47 1.06a4.21 4.21 0 0 0 1.43 0 21.8 21.8 0 0 1 4.55-.73 9.78 9.78 0 0 1 4.21.57c1.25.36 2.6.93 3 2.46a1.63 1.63 0 0 1-1.44.81c.19.62.7.83 1 1.22a2.38 2.38 0 0 1 .2.59 1.52 1.52 0 0 1-.49-.1c-.39-.24-.76-.52-1.22-.84a2.14 2.14 0 0 1-.28.62c-.57.54-.62.62-.13 1a5.16 5.16 0 0 0 3.75 1.18v-.52c.37-.1.55.17.79.38.49.42.81 1.06 1.5 1.29l.26-.55 1 .53c-.25-.74.18-.94.69-1.21a1.08 1.08 0 0 1 1.5.3c.08.08.29 0 .57 0l-.61-1.23a1.84 1.84 0 0 1 .37-.35c.1-.06.26 0 .65.15l-.13-.16-.12.12a1.24 1.24 0 0 0 .16.12s.05-.05-.16-.24c.14-.61-.34-1.06-.5-1.68.95.23 1.21 1.2 2 1.5.46.17.77.72 1.18 1.12V90c0 .65-.19.79-.87.85h-.27c-.56.05-.72.24-.76.82a3.23 3.23 0 0 1-.12 1 1.26 1.26 0 0 0 0 .94c.15.57.67 1.15.24 1.84a1 1 0 0 1-.35-.13 9 9 0 0 1-1.62-2.08c-.17-.28-.36-.16-.65-.84-.1.19-.19.29-.17.32a2.09 2.09 0 0 0 .26.32 13.08 13.08 0 0 0 .8 2.24 23.6 23.6 0 0 0 1.59 3.8 14.69 14.69 0 0 1 1 2.91c1.13-.3 1.37.54 1.7 1.35.07-.45.19-1 0-1.28a4.89 4.89 0 0 1-.48-1.84 12.45 12.45 0 0 0-.28-1.63c-.35-.93-.27-1.92-.56-2.86.89 1.13 1 2.58 1.51 3.82h.6c.22.5.46 1 .66 1.49.06.16 0 .36 0 .53s.13.09.21.13l.81-.31c0 .8.47 1 1 1.17l.53-1.41.77 1a7.3 7.3 0 0 0 .46-2.15 4.59 4.59 0 0 1 .3-1.28 2.84 2.84 0 0 1 .17 2c-.43.81-.12 1.39.2 2.17.17-.69.35-.21.54-.11a5.72 5.72 0 0 0 .41-2.4 10.31 10.31 0 0 1 .29-2.31 4.87 4.87 0 0 0 .25-.71 5 5 0 0 1 .27-.89c-.31-.23-.44-.73-.95-.71l-.52 1.34-.21-.06.33-2.51c-.43.44-.39 1.15-1.08.91.09-.52.18-1 .23-1.44 0-.13-.11-.36-.21-.38-.61-.15-.24-.52-.25-.88l1 .24c1.28-2 2-4.36 4-5.89l.65.32c.09-.09.19-.13.21-.2.26-1 .68-1.19 1.51-.63a1.45 1.45 0 0 0 .57.25c.28 0 .49-.3.88 0s.79 0 1.19 0a1.08 1.08 0 0 0 1.07-.5 6 6 0 0 0 1.76-.17 22 22 0 0 1 2.84-1 2.21 2.21 0 0 0 1.45-2.2h-2.52s-.06-.06-.14-.15v-.61h-.85c-.27 0-.43-.09-.43-.16-.07-.64-.46-.36-.77-.29a4.67 4.67 0 0 0-.46.19c-.13 0-.15.36-.38.18-.22-.54 1-.55.43-1.21-1.09.39-1.92 1.29-3.1 1.59.28-.79.27-.78-.37-1.28a1.59 1.59 0 0 1-.28-.35l-1.23.63-.57-.17.56-1.28a2.06 2.06 0 0 0-1.55.8 2.11 2.11 0 0 1-1.33.83l-.89-1.36c-.76 0-.52 1.18-1.34 1.07-.2-.38 0-.64.13-1s-.16-.62-.22-1c0-.09.17-.2.2-.31.12-.48.15-.95-.4-1.26l-1.3 1.34c-.3-.29-.66-.53-.15-1 .1-.09 0-.41 0-.63h-.75l-.13.84-1.31-.36a13 13 0 0 1-.24 3.37c-.07.47.07 1-.44 1.33-.12.08 0 .47 0 .71s.16.31.16.47v2.84c0 .95.23 1.91.25 2.86v7.7a3.28 3.28 0 0 0 .69 2.49l-1.31.81c-.17-.26-.41-.45-.43-.67a25.59 25.59 0 0 1-.26-3.26c0-1.24-.5-2.43-.3-3.67a.35.35 0 0 0-.06-.24c-.41-.55-.19-1.24-.44-1.85s.16-1.26-.09-1.71c-.34-.62 0-1 0-1.56.1-.69-.33-1.32-.38-2s-.53-1.19-.3-2c.19.29.3.48.42.65.31.42.32 1 .9 2 .1-.19.19-.29.17-.32a2.1 2.1 0 0 0-.26-.32v-1.48a8.93 8.93 0 0 0-.81-2.88 3.51 3.51 0 0 1 0 .76c0 .16-.2.28-.34.47l-.61-1.22c-.83.09-.07.56-.2.8-.64.11-.61-.48-.86-.77l-.42.72-1.66-2h-.25l.34.92-.89.16v.64c-.29.09-.73.14-.74.24-.1.77-.85.6-1.21 1-.27-.41-.42-.83-.71-1s-.4-1-1-1.06c0-.58 0-1.15-.06-1.73v-.29l-1-.65.29-1 1.2 1a4 4 0 0 0-2-3.22 2 2 0 0 0-1.23-.19zm38.46 37.68l1.32 1.46v-1.26l.22-.12 1.06 1.35c-.13-1-.2-1.79-.36-2.57 0-.21-.09-.2.12-.32a1.26 1.26 0 0 0 .51-.63c.05-.14-.2-.37-.19-.55 0-.59-.57-1.11-.18-1.76.75.52.6 1.51 1.13 2.13 1.63-1.93 1-3.92-.67-6.36l.38-.38 1.47 1.53s.06.09.1.09.06-.06.14-.14a8.46 8.46 0 0 0-3.7-4.42c-.45-.28-1-.88-1.9-.36l1.43 1.43v.18l-.78.15 1.08 2.5c-.48.55-1.18.9-1.12 1.69l-.9.17c.58.73 1 1.35 1.55 1.93.27.31.38.58 0 1.08l-1.75-1.76-.34.58H155c-.17.7.71 1.33 0 2 0 0 .21.43.36.63.51.65 1 1.29 1.57 1.94zm-8.61-26.59a5.63 5.63 0 0 1 1 0c.94.21 1.26.73 1 1.56-.06.17-.13.34-.23.59a9 9 0 0 0 2.15 0 7.72 7.72 0 0 1 3.3 0 17.61 17.61 0 0 1 3.9 1.27c-.36.13-.7.38-.85.3-.56-.3-1.1-.08-1.67-.07a2.43 2.43 0 0 0 .7.49 30.17 30.17 0 0 0 3 1.25 29.68 29.68 0 0 1 2.75 1.51 2.91 2.91 0 0 0 .44.16c-.38-1.56-2-2-2.85-3.15l.87-.52c-.06-.28 0-.81-.23-.9-.8-.39-1.25-1.3-2.27-1.39a6.14 6.14 0 0 1-1.69-.84l1.65-.35c-.77-.36-1.46-.43-2-.73-.7-.42-1.42.08-2.15-.41l1.05-.78a12 12 0 0 0-5.88.66 2.73 2.73 0 0 0-1.99 1.35zm4.76 27.23c0 1-.2 1.81.37 2.45a25.88 25.88 0 0 1 1.42 2.52 6.49 6.49 0 0 1 1.24 2.59c0 .12.41.11.75.25a.37.37 0 0 0 .55-.3 8.45 8.45 0 0 0 .28-1.64v-2a7.67 7.67 0 0 0-.77-2.78 7.14 7.14 0 0 0-1.87-2.36l-.12.76-.93-.22c-.26 1.01-.32 1.11-.92.72zm12.44 6.87l.56-1.1a3.76 3.76 0 0 0 .28-3.18 17 17 0 0 0-3.38-5.77c-.37.36.22 1.21-.69 1.2a7.09 7.09 0 0 0 0 1.64 7.82 7.82 0 0 0 .71 1.32c.23.49.4 1 .61 1.5.61 1.37 1.2 2.74 1.91 4.39zm-54.52-35.95l1-1L112 84c.68-1.13 1.61.29 2.37-.24 0-.06-.07-.15-.12-.17a12.85 12.85 0 0 0-2.61-.55 43.57 43.57 0 0 0-5.42.3 2.7 2.7 0 0 0-1.38.54c-.26.18-.33.61-.49.94l.72.26-1.9 1.24a4.45 4.45 0 0 0 1.43-.13c1.63-.83 3.45-.76 5.16-1.23.17 0 .4.1.6.14zM158 79.49l.76.43c-.71.45 0 .79 0 1.14a.57.57 0 0 0 .86.31 1.44 1.44 0 0 1 1.13-.21 2.07 2.07 0 0 0 1.71-.69l-.49-.49c.4-1 .23-1.22-.76-1.27a5.46 5.46 0 0 0-3.21.78zm-18.2 45.9l2.14 2.14s.07-.1 0-.16a7.5 7.5 0 0 1-.58-1.66 11 11 0 0 1-.22-1.92 2.76 2.76 0 0 0-.76-1.94c.08 1-.77.4-.8.48-.19.59 1.34 1.1 0 1.64a.37.37 0 0 0 0 .09c.42.48.15 1.04.22 1.33zm10.85-13.92v-1c0-.14.11-.37.21-.39.59-.15.37-.53.2-.79a6.8 6.8 0 0 0-.77-.87l-1.27.42a4 4 0 0 0 1.63 2.63zm-15.08-36.4l.51-1c-.47-.73-1.15-.43-1.73-.46s-.8.27-.73.82a11.3 11.3 0 0 0 .4 1.46l.81-1.46zm-14.35-.51c-.06 1.71.16 2.07 2.07 3.51a5.5 5.5 0 0 0-2.07-3.51zm17.95 2.11a11.75 11.75 0 0 0 .58-1.3c0-.07-.4-.23-.44-.39-.13-.61-.53-.39-.78-.23-.85.55-.79 1.05.13 1.56.14.09.26.19.5.36zm-11.67-3.28c-.14 1.49-.14 1.49.42 2.4l1.09-.44c.11-1.19-1.21-1.01-1.51-1.96zm12.5 47.7c-.31.72 0 .64.36.58z" fill="#b27c60"/><path d="M126.77 201a3.54 3.54 0 0 0 .34-.75 11.91 11.91 0 0 1 .89-2.74 50 50 0 0 1 3.28-5.4 19 19 0 0 0 2.19-4.37h.24c.12.28.28.6.4.92a27.67 27.67 0 0 0 3.05 5.22 23.94 23.94 0 0 1 2.2 3.82 11.42 11.42 0 0 1 1.05 3.48 7.18 7.18 0 0 1 3.16-1h.95c2.2-.17 3.73 1 5 2.57a6.87 6.87 0 0 1 1.1 2.1 7.55 7.55 0 0 1 .23 4.06 8.17 8.17 0 0 1-3.93 5.6c-.43.27-.85.54-1.29.8h-.31a1.55 1.55 0 0 1 0-1.1 3.63 3.63 0 0 0 .07-1.26c0-.2-.16-.39-.19-.59a2.64 2.64 0 0 0-2.62-2.43 3 3 0 0 0-1.9.29 3.6 3.6 0 0 0-1.73 2.11 3.78 3.78 0 0 0-.48 2.33l.76.54v2l-1.2 1c.54.7 1.05 1.39 1.92 1.1 1.2-.4 1.4-.28 1.51-2.67.21.1.43.13.54.26a9.18 9.18 0 0 1 2.14 2.62 3.51 3.51 0 0 1-1.59 4.55 1.81 1.81 0 0 1-1 .16c-.42 0-.67.42-1.21.22a6.87 6.87 0 0 1-3.13-1.57c-.77 1.81-2.23 3-3.59 4.41a16.68 16.68 0 0 1-3.7-4.45c-.78 1.16-2.07 1.29-3.21 1.62a3.59 3.59 0 0 1-1.83-.39c-2.81-.94-2.54-4.33-1.15-5.81.54-.58 1.12-1.13 1.85-1.85a8.53 8.53 0 0 1 .14.94 2.09 2.09 0 0 0 1.43 1.95 1.57 1.57 0 0 0 1.82-.76c.09-.13.16-.28.26-.46-1.22-.47-1.49-1.45-1.3-2.72l1.07-.83c-.08-.32-.16-.77-.32-1.2a5 5 0 0 0-2.23-3.12 1.55 1.55 0 0 0-.83-.3h-1.22a1.32 1.32 0 0 0-.72.23 2.88 2.88 0 0 0-1.77 2.78v2.47a11.39 11.39 0 0 1-4.72-4.14 4 4 0 0 1-.66-1.47c-.17-.89-.21-1.81-.29-2.72 0-.18-.07-.44 0-.52.61-.51 0-1.29.44-1.86a12.58 12.58 0 0 0 .8-1.55 6.39 6.39 0 0 1 1-1.32 5.17 5.17 0 0 1 3.92-1.63 13.12 13.12 0 0 1 2.6.23c.68.11 1.12.45 1.77.6z" fill="#ffdc00"/><path d="M110.87 170.53c1.34.71 2.49 1.76 2.65 2.94.27 1.95.24 3.93-1.32 5.47-.46.45-.82 1-1.5 1.26-.31.1-.57.38-.89.45a7.8 7.8 0 0 1-1.77.27H97.51c-.21-1.23-.28-13.57-.1-19.47h10.21a5.36 5.36 0 0 1 2.91.8 5.28 5.28 0 0 1 2.07 2.12 5.15 5.15 0 0 1-.51 5.2 7.3 7.3 0 0 1-1.22.96zm-9.42 7.17h5.2a3.32 3.32 0 0 0 1.67-.52 2.64 2.64 0 0 0 1.11-1.41 2.51 2.51 0 0 0-.45-2.41 1.89 1.89 0 0 0-1.48-.77c-2-.07-4 0-6 0zm0-8.65h5.66a2 2 0 0 0 1.14-.5 8.64 8.64 0 0 0 .72-.62v-1.74l-.49-.49a2.09 2.09 0 0 0-1.72-.72h-5.31zm65.01 11.89a9.26 9.26 0 0 1-.37-4.15 8.69 8.69 0 0 0-.35-2 1.86 1.86 0 0 0-1-1.07 5.47 5.47 0 0 0-1.9-.3h-4v7.53h-4v-19.48h10.36a5.69 5.69 0 0 1 2.45.6c1.62.77 2.17 1.18 2.91 3.46a5.55 5.55 0 0 1-.84 4.91 3.19 3.19 0 0 1-1.74 1.15 3.31 3.31 0 0 0 .53.42 3.18 3.18 0 0 1 1.66 2.84 15.85 15.85 0 0 1 0 3 15.17 15.17 0 0 0 .32 2.05c0 .28.36.55.64 1a9.5 9.5 0 0 1-2.3.11c-.83-.01-1.59-.07-2.37-.07zm-7.67-10.82c1.79 0 3.46.07 5.12 0a2.34 2.34 0 0 0 2.57-1.86 2.42 2.42 0 0 0-2-3.23c-1.87-.14-3.76 0-5.66 0zm-26.85 10.79h-14.79v-19.38h14.26v3.4h-10.18a11.91 11.91 0 0 0-.06 2v2.06h9.4v3.53h-9.35v4.88h10.71z" fill="#252627"/><path d="M152 180.94h-4a.64.64 0 0 1-.66-.53c-.31-1-.59-2.1-.92-3.26h-6.77c-.44 0-.59.26-.7.62-.26.84-.57 1.66-.79 2.5-.12.46-.33.67-.8.67h-3.84l6.94-19.47h4.3a.67.67 0 0 1 .68.5c.55 1.53 1.16 3 1.6 4.6.25.89.65 1.72.91 2.6a5.43 5.43 0 0 0 1 2.42c.34 1.42.92 2.77 1.34 4.17s1.15 2.87 1.51 4.37c.12.24.2.48.2.81zM142.9 166c-.91 2.55-1.72 5.07-2.55 7.61h4.95z" fill="#242526"/><path d="M169.85 61.94c-.63.13-.94-.44-1.32-.71a5.72 5.72 0 0 0-4.11-1.15 17.78 17.78 0 0 0-4.23.84 21 21 0 0 0-4.56 2.37 11 11 0 0 1-1.94 1.17 9 9 0 0 0-1.95 1.15 1.54 1.54 0 0 1-1.06.39h-2.3a2.21 2.21 0 0 0-2.1.74l-.63-1.26h-2.17l-1.06-1.06a5.66 5.66 0 0 1-3.42 1.31 8 8 0 0 0-2.6.23c-.44.14-.86.32-1.28.5a5.31 5.31 0 0 1-3.57.44 34.19 34.19 0 0 1-4-1.11c-.11 0-.31-.07-.35 0-.56.69-1.46.34-2.15.72-.48.26-1-.23-1.54-.42l-.29-.09-.64.57a3.51 3.51 0 0 0-1.72-.31 6.06 6.06 0 0 1-1.51-.53l-.16.76-1 .11v.94a2.86 2.86 0 0 1-.4.09c-.18 0-.41.08-.53 0-1-.66-2.08-.52-3.22-.53h.06a.75.75 0 0 0-.08-.2h-.16a.5.5 0 0 0 .19.16 3 3 0 0 1 .06.78c-.76-.37-1.64-.2-2.31-.78a2.69 2.69 0 0 1-2-1 31.87 31.87 0 0 0-2.8-1.92 22.73 22.73 0 0 0-3.22-1.66c-1.14-.55-1.15-.58-1.94-.53a4.68 4.68 0 0 0-2.09.18c-.29.15-.7 0-1 .09s-.64.19-1 .26a10.27 10.27 0 0 0-3.61 1.38 7.1 7.1 0 0 0-2.79 2.67 3.62 3.62 0 0 0-.41 1.31 8.87 8.87 0 0 0 0 2.82c.3 1.1 0 2.35.76 3.32a34.8 34.8 0 0 0 1.3 4.73c.21.71.66 1.26.86 1.95.09.31.29.47.07.9a1.38 1.38 0 0 0 .2 1.63 3.65 3.65 0 0 1-1.63.93l-.5-.43a1.86 1.86 0 0 0 .44-.19c.92-.73 1-.91.61-2.09-.26-.84-.52-1.68-.82-2.5a17.85 17.85 0 0 1-.76-2.51c-.31-1.54-1-3-.85-4.65-.48-.92-.2-1.91-.27-2.86a6.4 6.4 0 0 1 .44-2.11 6.27 6.27 0 0 1 2.52-3.21 7.33 7.33 0 0 1 1.37-.93 11.68 11.68 0 0 1 3.24-1 15.19 15.19 0 0 1 2.73-.21 12.53 12.53 0 0 1 3.15.54 15.88 15.88 0 0 1 4.06 1.61c.86.54 1.75 1 2.58 1.59.61.41 1.15.92 1.75 1.4 1.53-.83 3 .08 4.41.29l2.08-1.66c.86.13 1.83-.21 2.78.25.33.16.84-.08 1.19.06s.41-.53.79-.12c.15.16.67 0 .88.11a1.8 1.8 0 0 0 1.93-.07 3.28 3.28 0 0 1 2.72.19c1.07.4 2.21.51 3.26.93a1.08 1.08 0 0 0 .67 0 8.52 8.52 0 0 0 2.75-.83 2.62 2.62 0 0 1 1.69-.52c.24 0 .47-.19.71-.21.64-.07 1.22-.47 1.9-.32.36.08.63-.13.95-.32a7.92 7.92 0 0 0 1.91-1.06l1.19 1.34a4.47 4.47 0 0 1 2.55.63 1.11 1.11 0 0 0 .94 0 6 6 0 0 1 1.71-.12 8.61 8.61 0 0 0 4.8-1.58 48.15 48.15 0 0 1 4.66-2.78 11.64 11.64 0 0 1 3.76-1.07 27.33 27.33 0 0 1 3.27-.21 4.19 4.19 0 0 1 3.3 1.17.78.78 0 0 0 .33.17c.58.16.54.65.53 1.1z" fill="#b27c60"/><path d="M106.83 149c.32 0 .74-.13.92 0s.4.12.62 0c.05 0 .28.13.34.25a3.3 3.3 0 0 1 .28.83c.17 1 .76 1.29 1.68.88l.67-.31c.74.55.11 1.43.47 2.13a2.48 2.48 0 0 0 1.4-.83 3.82 3.82 0 0 1 .91-.41v1.79l1.49-1.11c.82 1.1 0 2-.33 2.87l.34.41c1.21-.35 1.79-1.43 2.67-2.14.61.57 1.72-.25 2.17.81l1.47-1.13c.51.08.63.43.57.87s-.14.74-.24 1.22l.44.43.74-.59.49.28 1.08-2c1 .12.59.92.86 1.47l.41-2h1.56l.46 1.33.8-1.59h1.13l.57.89a.94.94 0 0 1 1.54 0l.65-1a6.08 6.08 0 0 1 2.5 1.59l1-1.38c.23.27.42.47.58.7.27.38.52.77.78 1.16a1.1 1.1 0 0 0 1.31.4 1.59 1.59 0 0 1 1.4-1.35c.37 0 .69-.5 1.13-.85l1.8.83c.28-.44-.27-1.24.61-1.59l.82.62c.14-.12.31-.25.46-.39.62-.58.62-.58 1.38-.23l1.13-1.13a2.72 2.72 0 0 1 1.14 2.23c.26-.65.14-1.24.89-1.34l.94 1.09h-.68l-.59 1.17a15.1 15.1 0 0 1-1.67-1.5l-1.14 1-.66-.61c-.51.51-1 1.1-1.92.42l-.14.82a.88.88 0 0 1-.21.1 1.89 1.89 0 0 1-1.33-.38.72.72 0 0 0-1 .14 1.66 1.66 0 0 1-1 .56c-.5.1-.93.59-1.57 1-.86.21-1.62-.31-2.3-1.13-.45.14-.83.5-1.39.06-1-.81-2.33-.59-3.54-.54a4 4 0 0 0-1.23.57 2.31 2.31 0 0 0-.17-.39c-.49-.73-.92-.7-1.35.08-.14.26-.26.52-.39.8-.72 0-.6-.76-1-1-1.1.12-1 1.2-1.41 1.82a.88.88 0 0 1-.94-.36.51.51 0 0 0-.81 0c-.57.58-1.43.5-2 1.07-.17-.41-.43-.73-.39-1 .08-.62-.34-.88-.69-1.25l-1.21.8h-.16c-.25-.17-.49-.5-.73-.49a2.12 2.12 0 0 0-1 .4c-.47.31-.86.73-1.34 1a2.1 2.1 0 0 1-1.17.45c-.8 0-.85 0-1-1-.37-.1-.82-.09-1.08-.31a1.55 1.55 0 0 1-.52-1.39 4.49 4.49 0 0 0 0-.56c-.46.2-.82.38-1.2.51a.66.66 0 0 1-.95-.58c0-.73-.23-1-1-1a1.54 1.54 0 0 1-1.41-1c-.16-.49-.49-.56-.82-.72a1.32 1.32 0 0 1-.92-1.27z" fill="#ac7f64"/><path d="M86 112c.13.82-.46 1.34-1 2l1 .24-.73 1.53.84-.2.9.62c.13.51-.78.83-.42 1.41s0 1 .22 1.66c.62-.39 1-1.12 1.81-1.25L86 122.34l.63.92 1.81-1.43a4.31 4.31 0 0 1-1.1 2.17 2.25 2.25 0 0 0-.52 1.68.67.67 0 0 0 .68.65 3.16 3.16 0 0 0 2-.72c-.08.17-.16.34-.23.51a7 7 0 0 0-.89 2.75c0 .11-.16.22-.4.53 1-.29 1.32-1.06 2-1.45.37.9-1 1.53-.31 2.46.46-.1.91-.55 1.51-.15a3.85 3.85 0 0 0-.31 2.16l-.76.71.3.73c.13-.08.25-.22.37-.22s.26.14.36.24a2.67 2.67 0 0 1 .26.36c.6-.65.61-1.57 1.51-2.14 0 .84.87 1.42.12 2.2a5.92 5.92 0 0 1-.5 2.22c-.14.51-.32 1.25.35 1.66l1.61-2.52.87 2.53a1.12 1.12 0 0 0 1.19-.41 7.27 7.27 0 0 1-.15 1c-.1.32-.28.6-.39.92a1.58 1.58 0 0 0 .11 1.52c.25 0 .6.11.77 0a.77.77 0 0 1 1.24.12.57.57 0 0 0 .33.17 1.78 1.78 0 0 1 1.54 1.09c.07.19.3.33.49.53.23-.11.47-.32.68-.3s.42.33.55.63.24.91.87.69c.52.5 1.34.77 1.27 1.74a3.11 3.11 0 0 0 .25 1 .66.66 0 0 1-.8-.51c-.15-.58-.6-.83-1-1.12a9.22 9.22 0 0 1-.86-.74c.23-.67-.51-.82-.72-.82a1.38 1.38 0 0 1-1.09-.66 4.13 4.13 0 0 0-1.7-1.13 1.6 1.6 0 0 0-.73-.1 3.75 3.75 0 0 1-1.48-.22c-.5-.38-.72-.83-.42-1.37s.06-.93.23-1.45c-.38.2-.67.25-.78-.06a6 6 0 0 1-.16-1.11l-1.44 1.27c-.23-.14-.4-.33-.58-.34-.53 0-.5-.53-.73-.81s-.07-.59 0-.93a15.72 15.72 0 0 0 .42-2.36 5.13 5.13 0 0 0-1.32.37c-.35.22-.62.33-.93 0s-.65-.49-.53-1a7 7 0 0 1 .37-1.73c.27-.5.06-.93.25-1.55l-1 .39c-.23-.43-.39-.92-1.09-.87a.58.58 0 0 1-.4-.84c.39-.54.16-1.11.26-1.63-.33-.64-1.23-.52-1.5-1.26a2.4 2.4 0 0 1 .14-2l-1.38-1.65c.26-.37.51-.69.73-1a2.13 2.13 0 0 0 .26-2.08 1.43 1.43 0 0 1-.09-1.26c.31-.49.14-.93.22-1.43a1.52 1.52 0 0 1-1.37-1.8 2.14 2.14 0 0 0-.16-.74 1.91 1.91 0 0 1 1-2.4c.08-.01.19.05.27.05zm6.5-27.89a1.26 1.26 0 0 1-.27 1c-1 1.08-1.1 1.2-1.84 1.52v1.8l.7.08v.2a12.2 12.2 0 0 1-1.31.76c-.41.19-.72.32-.79.88 0 .31-.64.53-.73.87a3.49 3.49 0 0 1-.54 1.13.54.54 0 0 1-.33.18c-.67.11-.41.78-.68 1.14s-.09.46.54 1c.22.19.22.35 0 .54s-.12.17-.19.19c-.76.2-1 .84-1.37 1.6l.63.33-.64 1.27c.86.4 1.44-.44 2.37-.35a9.83 9.83 0 0 1-1.49 1.13 1.83 1.83 0 0 0-1.07 1.26c.37 0 .7-.06 1-.11.16 0 .36-.19.45-.14a1 1 0 0 1 .39.5 2.56 2.56 0 0 1 0 .72c-.36.35-.78.71-1.12 1.11-.15.18-.3.59-.21.69.5.57 0 .92-.22 1.33a9.37 9.37 0 0 1-.55.84l1.55-.73c-.28 1-1.06 1.49-1.62 2.15.49.36 1.4-.27 1.64.74l-1.39 1.51c.63-.14 1-.19 1.29-.29.79-.26.79-.26 1.17.39.08.15.18.28.35.54-.51.51-1 1-1.57 1.55-.07.07-.26 0-.4 0l.35-1.38a3.85 3.85 0 0 0-.91.2c-.52.27-.82 0-1.11-.45l.82-1.28-.78-.5v-2a3.67 3.67 0 0 1 .31-1.49c.37-1 .7-2 1.13-3.19 0-.08 0 0-.08 0l.12.12a1.24 1.24 0 0 0 .12-.16s-.05-.05-.16 0c-.42.14-.79 0-1.18.6.14-1-.14-1.71.23-2.51a3.64 3.64 0 0 0 0-1.86 2.58 2.58 0 0 1 .31-1.95c.09-.14.25-.3.23-.43a3.59 3.59 0 0 1 .56-2.2c.21-.41.43-.81.63-1.22a6.3 6.3 0 0 1 1.79-2.34 4.07 4.07 0 0 0 .81-1.95 2 2 0 0 0 0-.67c.41-.8 1.78-.48 1.61-1.76l-.8-.16v-.16a2.18 2.18 0 0 1 .49 0 1.19 1.19 0 0 0 1.26-.48c.09-.1.33-.07.5-.11zM177.69 116v-2.28c-.5-.6-1.25-1-1.39-2.1.36.14.61.23 1 .41.08 0 0 0 0-.08l-.12.12a1.24 1.24 0 0 0 .16.12s.05-.05 0-.16a9.08 9.08 0 0 0-.37-1.46c-.42-1.08-.73-2.21-1.12-3.41l.72-.12c0-.06.1-.13.1-.2a3.06 3.06 0 0 0-.27-1.77 6 6 0 0 1-.43-1.84 15.31 15.31 0 0 0-1.23-2.72 5.36 5.36 0 0 1-.77-3l-.79-.79c-.14-.58.15-1.22-.3-1.77-.07-.09 0-.36.06-.49s.18-.2 0-.4a17.68 17.68 0 0 1-1.18-1.8 2.7 2.7 0 0 1-.27-1c0-.3-.09-.63.25-.83s.27-.62.28-1c.69.6.72.65.27 1.2a.76.76 0 0 0-.08 1c.56.93 1 1.91 1.54 2.88a1.16 1.16 0 0 1 .16.6 2.29 2.29 0 0 0 .35 1.8 1.93 1.93 0 0 1 .2.59 9.44 9.44 0 0 1 .26 1.38 3.38 3.38 0 0 0 .5 1.15 20.88 20.88 0 0 1 1.49 3.7 18.79 18.79 0 0 1 .76 4.14l-.52-.41a3.39 3.39 0 0 0 0 1.15 20.36 20.36 0 0 0 1 3.25s.08.06.09.1c.12.37-.57.67 0 1.15a1.62 1.62 0 0 1 .31 1.35 14.1 14.1 0 0 0 0 1.43zm-7.3 20.85c.09-.5.16-1 .29-1.5a7.25 7.25 0 0 1 .41-1l.86.4.09-1.4h.96a1.34 1.34 0 0 0 0-1.15 1.64 1.64 0 0 1-.13-.75c0-.78.32-1 1.07-.72l.35.13s.07 0 .15-.07 0-.23 0-.35v-.32l.78-.13v-1.89c.21-.24.66-.12.58-.62s.16-.93.8-.9a1.86 1.86 0 0 1-.44 1.45 1.63 1.63 0 0 0-.25 1.8c.27.62.19.75-.3 1.07-.14.09-.31.13-.44.22-.41.28-.12.51.06.74-.6.42-.85-.13-1.21-.42-.17.26-.6.35-.26.87.23.36.13.94.18 1.49l-1.08.12v1.26l-1.4.08c.06.81-.02 1.56-1.07 1.59z" fill="#b27c60"/><path d="M162.55 143.07c-.09-.37.13-.75.38-.75.93 0 1.07-.57 1-1.28.66-.43 1.18.25 1.9.11v-1.93c0-.65-.8-1-.43-1.88l1.1 1.73c1-.3.53-1.07.76-1.7l.77.3c.57-.14.44-.67.61-1.13.52.68 1.15.53 1.79.31a.65.65 0 0 1-.64.81 8.35 8.35 0 0 1-.93 0l-1.12 1.2c-.12.13-.24.35-.38.36-.95.08-1 .74-1 1.44s-.51.68-.68 1.12l-.7-.35c-.67.2-.67 1.1-1.36 1.25-.39.1-.62.49-1.07.39zm14.06-16.76c0-.29 0-.61.29-.67.65-.15.8-.7 1.08-1.26l-1.43-2.5c.63-.41.7.28 1 .35 0-.08.12-.18.1-.22a2.22 2.22 0 0 1-.09-2 1.32 1.32 0 0 0-.28-1.57 8.18 8.18 0 0 1-1-1.52c.46-.24.61-1 1.34-.91 0 .47.11 1-.29 1.31l.87.79a14.24 14.24 0 0 1-.25 2.2 2.34 2.34 0 0 0 .18 2c.24.36-.24.78 0 1.26a1.88 1.88 0 0 1 0 1.32 3.7 3.7 0 0 1-.84 1.25c-.07.2-.42.13-.68.17zm-19.74 21.09a.7.7 0 0 0 .78-.38 4.83 4.83 0 0 0 .33-.68l.24.11c.71.42 1.06-.63 1.74-.43.09 0 .42-.3.4-.45-.06-.67.53-.87.87-1.36l-.36-3a.75.75 0 0 1 .6.83 1 1 0 0 0 1.07 1.06c-.4.78-1 1.46-1.4 2.24a5 5 0 0 1-1.63 1.45 6.65 6.65 0 0 1-1.66.84c-.28.06-.76.37-.98-.23z" fill="#b27c60"/><path d="M168.77 79.25c-.37 0-.28.29-.26.48a.88.88 0 0 1-.52.91 3.39 3.39 0 0 0-.38-.25 3.86 3.86 0 0 0-.46-.16c.51-.6.16-1.3.3-1.93.5-.1.55-.67.92-.93h1.07l.42.54v.27l-1.08.41z" fill="#373537"/><path d="M104.13 146.86a.72.72 0 0 0 .81-.49c.06-.13.13-.25.26-.5.63.78-.38 1.41.16 2.12l1.76-.53-.29 1.56c-.31-.14-.58-.38-1-.27-.54.15-.82-.25-1.09-.58-.14-.18-.1-.5-.21-.71s-.3-.21-.43-.34.03-.12.03-.26zm64.64-67.61v-.67l1.08-.41a1.14 1.14 0 0 1-1.08 1.08zm-82.49 32.18c0 .21.13.52-.27.54-.01-.2-.14-.52.27-.54z" fill="#b27c60"/><path d="M116.55 112l1.13-.89c-.05.53-.09 1-.14 1.38 0 .13.12.31.37.4V114l.56.23a7.17 7.17 0 0 1-1.69 4.94c-.06.07-.15.12-.19.19-.31.65-.62 1.24-1.49 1.26-.27 0-1.4 1.43-1.66 1.9a1.29 1.29 0 0 1 .13-1.33 1.42 1.42 0 0 0 .17-1.44c-.18.09-.42.12-.51.26a8.84 8.84 0 0 0-1.59 3.54 8.16 8.16 0 0 1-.51 1.94 3.42 3.42 0 0 1-.43.6 4.17 4.17 0 0 1 .34-2.54 25 25 0 0 1 2.46-6 2.44 2.44 0 0 0-1 .72c-.25.23-.48.47-.92.92.28-1.34 1.15-2.06 1.51-3.11a1.4 1.4 0 0 0-1.29.46c-.36.28-.73.55-1.18.9V116c-.17-.33-.82-.16-.55-.64s.35-.56.11-.94c-.51-.8-.49-.81.21-1.59a1.47 1.47 0 0 0-1.43.71c-.21.36-.4.73-.63 1.09s-.56.37-1 .29v-1.07l-.6.34a.78.78 0 0 1 .11-1.19c.6-.54.5-1.18.67-2.17-.05-.14-.15-.08-.15 0a2.22 2.22 0 0 0 .12.38c0-.16.09-.33 0-.33-.35.37-.62.21-.7.54a.69.69 0 0 1-.75.61c-.23-.86.4-1.39.75-2 .22-.4.58-.73.55-1.23a.77.77 0 0 1 .3-.22 4.81 4.81 0 0 0 .87-.49c-.63-.23-.74.14-.87.49a.77.77 0 0 0-.3.22c-.68-.1-1 .49-1.23.88a24 24 0 0 1-1.59 2 16.47 16.47 0 0 0-2 3.63 12 12 0 0 1-2.35 3.46h-.3a35.65 35.65 0 0 1 2.94-6.81 22.86 22.86 0 0 1 3.47-4.93c.48-.48.48-.76.18-1.41-.64-.38-1 .59-1.61.24a.52.52 0 0 1-.1-.09 4.45 4.45 0 0 1 1.54-2.25c-.56-.45-1.05.14-1.55.13-.13-.41.83-.47.2-.94.11-.47-.13-.71-.63-.86l.66-.91h-1.16c.24-1.07 1.15-1.24 1.81-1.57a21.25 21.25 0 0 1 2.29-.7 13.86 13.86 0 0 0-2.34-.19c-.1-.37-.25-.61-.72-.51a7.61 7.61 0 0 0-2.31.94 27.72 27.72 0 0 0-2.32 1.55 8.2 8.2 0 0 0-2 2.26 23.21 23.21 0 0 1-3.44 3.93c-.42-.84.41-1.07.79-1.71-.76.26-1.3-.38-2 0a2.11 2.11 0 0 1 .25-.78 2.86 2.86 0 0 0 .62-1.65A4.46 4.46 0 0 1 96.61 99c.54-.31 1.12-.55 1.82-.88a2 2 0 0 1-.13.61c-.19.29-.44.54-.66.87v-.06a.75.75 0 0 0-.2.08v.16a.5.5 0 0 0 .16-.19 1.52 1.52 0 0 1 .53-.06 2.83 2.83 0 0 1-.8 1.51 1.56 1.56 0 0 0 2-.62 11.21 11.21 0 0 1 2.6-2.22 26.76 26.76 0 0 1 3.07-1.6 3.15 3.15 0 0 1 .79-.13c-.9-.61-1.67.4-2.56 0a12.9 12.9 0 0 1 2.87-1.51 12.62 12.62 0 0 1 5.19-.52 3.82 3.82 0 0 1 1.09.3l2.25.77c.53.19.52-.29.73-.59l1.11.56.27-.48 2.09.83.37-.61a4.63 4.63 0 0 1 1.14.76c.9 1.17 1.94 2.27 2.13 3.85a.39.39 0 0 0 .09.23c.47.43 0 .59-.21.83-1-.66-2.37-.65-3-1.88l-.3.64a3.81 3.81 0 0 0-.63-.47c-.16-.07-.41 0-.56-.06a.68.68 0 0 0-.84.05c-.12.1-.4.16-.48.1-.45-.41-.85-.06-1.28 0a4.08 4.08 0 0 1-.58 0v.61c-.66.62-1.43.45-2.13.48-.13.49-.06 1.07-.76 1.08-.3.56-1 .82-1 1.75l-1-1.42c.09.8-.24 1.37.22 2a12.71 12.71 0 0 1 .89 1.55l-.86.62c.06.78.71.59 1.06.77.28.57-1.19.81-.1 1.48.48-.46 1.59-.27 1.49-1.53H114l.24-.68c.43.27 1 .44 1.15.79s.64.72.9 1.11.69.25.89.42c.4.33.58.14.9 0s.52 0 .88 0v-.54h.27c.12.09.23.25.35.26.36 0 .8 0 .91.36s.68.77.17 1.34a3.82 3.82 0 0 0-2.56-.62c-.23 0-.46-.24-.7-.24s-.46.22-.7.24-.44.09-.51.43c0 .17-.39.34-.62.38-.6.1-.87.6-1.2 1a.55.55 0 0 0 .25.79c.33.14.6.28.65.7l1.23-1.6v1.33c-.27.33-.27.33 0 .78.04-.44.04-.69.05-.91z" fill="#b27c5f"/><path d="M144.16 145.82c-.28.51-.63.75-.86 1.15a3 3 0 0 1-2.42 1.22c-1.26.14-2.56.07-3.79.31a32.11 32.11 0 0 1-7.31.19 8.74 8.74 0 0 1-4.72-1.26c-.42-.28-.66-.47-.64-1s.3-.6.74-.73 1.11-.16 1.48-.68c.07-.1.32-.1.49-.1h2.56c.61 0 1.13.41 1.78.3a7.39 7.39 0 0 1 1.75 0c.33 0 .64.2 1 .25a6.08 6.08 0 0 0 2.39-.4c.81-.21 1.62-.42 2.41-.69a9.33 9.33 0 0 1 3-.26h.54c1.66-.01 1.64 0 1.6 1.7zm-3 .5h-3.2a11.8 11.8 0 0 0-3.11.32 7.69 7.69 0 0 1-1.93.2 4.81 4.81 0 0 1-2 0c-1-.39-2-.12-3-.23a.7.7 0 0 0-.82.64 2.06 2.06 0 0 0 1.76.71 37.65 37.65 0 0 0 5.57-.24c1.14-.24 2.35-.06 3.54-.26a12.24 12.24 0 0 0 3.2-1.14z" fill="#ad7a5e"/><path d="M103.75 118.07c.16.54 0 1.06.73 1l-.35 2.39c.88-.53 1-1.42 1.51-2.14h.67l-.34 1.12c1 .53.94.52.66 1.61-.1.37-.22.79.17 1.09s.28.5.32.82a24.62 24.62 0 0 1-.31 3c-.35-.26-.65-.38-.76-.6a5.58 5.58 0 0 1-.33-1.13h-.86a2.86 2.86 0 0 0-.53-.77c-.3-.22-.78-.23-.73-.76 0-.31.1-.62.17-1-.19.11-.37.15-.43.27a6.11 6.11 0 0 1-.44.89c-.15.18-.24.59-.65.41.23-.55-.85-.3-.56-1s.34-1.38.57-2.06a11.23 11.23 0 0 1 1.49-3.14z" fill="#af7b5f"/><path d="M111.74 71.05a17.83 17.83 0 0 1-1.9-1.13c-.83-.65-1.6-1.37-2.38-2.09a19 19 0 0 0-6.28-3.74 12.3 12.3 0 0 1-1.24-.65 4.4 4.4 0 0 1 4.48.3c.94.59 1.79 1.37 2.68 2 1.23.93 2.19 2.14 3.47 3a3 3 0 0 1 1.17 2.31z" fill="#ad7a5f"/><path d="M99.56 107c.45.22-.06 1 .67.91 0 0 .19.49.1.58-1.05 1.14-1.31 2.74-2.25 3.93a18.66 18.66 0 0 1-1.44 1.46c-.21-.71.2-1.13.47-1.6-.49-1.07-.49-1.07-1.34-1.29.26-.88.48-1.77.81-2.62.2-.52.37-1.2 1.22-1.09.15 0 .34-.18.58-.32l.13.9z" fill="#af7b5f"/><path d="M170.66 115.49c.2 1.51-.37 2.89-.64 4.34-.71 0-.75-.67-1-1.09a2.4 2.4 0 0 1-.26-.69 2.86 2.86 0 0 0-1.12-1.89c.07-.44-.18-.93.24-1.36a.68.68 0 0 0 0-.64 4.71 4.71 0 0 1-.35-1.35c-.12-.37 0-.41.42-.4a1.88 1.88 0 0 1 1.88 1.6c.07.25.33.44.5.66s-.19.69.33.82z" fill="#ad7a5f"/><path d="M95.8 128.1l.86-2.43.3.63c1-.38 1-.38 1.3.21.58-.11.37-1.1 1.2-1a1.58 1.58 0 0 1 .07.45c-.07.55-.19 1.09-.26 1.64s.17 1.15-.27 1.64a4.29 4.29 0 0 1-.92 2.45c-.64-.21-.36-.78-.46-1.17a3.68 3.68 0 0 1-.92-.42c-.34-.29-.13-.59.06-.92.1-.17-.07-.58-.23-.78s-.44-.2-.73-.3z" fill="#af7b5f"/><path d="M127.67 119.91a20.64 20.64 0 0 0-.94 2.34 6.79 6.79 0 0 0 .14 3.85c.08.25.52.38.81.58l-1.28 1.25c-.65.05-.71-.61-.86-1a5.62 5.62 0 0 1-.31-1.89c0-.94.08-1.89 0-2.82a7 7 0 0 1 .68-3c0-.11.18-.19.29-.3l.5 1.37c.3-.12.45-.68.97-.38z" fill="#a9785e"/><path d="M112.38 138.16c-.11-.18-.32-.37-.34-.58a16.32 16.32 0 0 0-.44-2.65 8.36 8.36 0 0 1-.14-2.77A8.18 8.18 0 0 1 112 130a10.34 10.34 0 0 1 .89-1.55c.21.31.56.39.32.92a4.72 4.72 0 0 0-.43 2.12v4a5 5 0 0 1-.4 2.67z" fill="#a4765e"/><path d="M98.25 117.25l.79-2a2.41 2.41 0 0 0-.6.14 5.28 5.28 0 0 1-.67.41 18.6 18.6 0 0 0 .71-3.08c.05-.26.15-1 .83-.72l1.6-1.47c-.09.42-.15.69-.19 1a4 4 0 0 0-.1.76 10.34 10.34 0 0 1-.58 3 3.16 3.16 0 0 1-1.79 1.96z" fill="#ad7a5e"/><path d="M156.87 73.3l-1.16.36.65.31a23.22 23.22 0 0 1-4.15 2l.31-.82-1 .14c0-.16 0-.54.12-.67a4.18 4.18 0 0 1 1.4-.81c1.13-.32 2.19-.94 3.43-.85.13 0 .28-.17.43-.26z" fill="#373537"/><path d="M93.74 119.83c.17.38.3.82.87.84a6.91 6.91 0 0 1-1.19 4.79 4.5 4.5 0 0 1-.42-2.26c0-.18.08-.43 0-.53-.45-.47-.28-1-.14-1.47a1.92 1.92 0 0 1 .88-1.37z" fill="#ad7a5f"/><path d="M101.76 125.88a9.25 9.25 0 0 1-.38 2.4c-.23.52-.21 1.06-.44 1.58a4.79 4.79 0 0 0 0 1.78l.77.14-.86 2.78-1.3-.76a19.5 19.5 0 0 0 .88-3.25c.24-1.33.55-2.66.8-4a3.12 3.12 0 0 1 .39-.78zm31.03 4c0 .16 0 .37-.05.39a7.39 7.39 0 0 1-1.19.36 9.76 9.76 0 0 0-3.75 1.37c-.68.44-.91.39-1.52-.25a1.92 1.92 0 0 1 1.13-1 11.47 11.47 0 0 1 5.38-.87z" fill="#a4765e"/><path d="M91.15 120.66v-1.75c0-.11-.44-.48-.41-.68a7.8 7.8 0 0 1 .55-1.91 6.53 6.53 0 0 1 .93-1.22 1.86 1.86 0 0 1 .29-.21c0 .29.09.58 0 .69-.31.33-.32.55 0 .88a1 1 0 0 1 .15.63 2.66 2.66 0 0 1-.14.74c-.28.91-.57 1.82-.88 2.72-.05.06-.25.06-.49.11z" fill="#a9785e"/><path d="M99 93.21c-.15.64-.26 1.1-.65 1.36a10.91 10.91 0 0 1-3 1.89 2.24 2.24 0 0 1-.5.08c-.07 0-.15-.06-.23-.09 1.14-1.45 2.95-1.97 4.38-3.24zM114.09 132v4.84a8 8 0 0 1-.75-1.41c-.15-.57.19-1.23-.28-1.78 0 0 .06-.23.13-.34.25-.31.51-.71.9-1.31z" fill="#a4765e"/><path d="M156.06 76a6.07 6.07 0 0 0-2.71.95 5.58 5.58 0 0 1-.92.39c-.12 0-.29-.11-.43-.17.09-.12.15-.29.26-.35a17.71 17.71 0 0 1 4-1.64 3 3 0 0 0 .56-.26l.27.27c-.14.42-.6.34-.88.55a1.19 1.19 0 0 0-.15.26z" fill="#292221"/><path d="M90.17 115.58c-.3-.87.17-1.56.33-2.26s.22-.55 1-1.08c.07 0 .19.09.19.14s-.51 2.06-.52 2.18c-.1.56-.52.75-1 1.02z" fill="#a0745d"/><path d="M105.48 139.51v-1.08c0-.76.07-.66.93-1.08.44-.22.6 0 .66.18.16.52-.17 1-.36 1.44a.94.94 0 0 1-1.23.54z" fill="#a4765e"/><path d="M140.42 132.88a.63.63 0 0 1-1 0c-.37-.37-.87-.75-1.35-.55a2 2 0 0 0-1.37 1.24c0 .14 0 .84-.61.57.17-1.55.76-2.11 2.22-2.12a5.8 5.8 0 0 0 .67 0 1.3 1.3 0 0 1 1.44.86z" fill="#a0745d"/><path d="M96.09 97.22a4.48 4.48 0 0 1-.17.65 4.16 4.16 0 0 1-.38.65 1.62 1.62 0 0 1-.38.38c-.55.39-1.11.77-1.68 1.14-.09.06-.24 0-.37 0a6.28 6.28 0 0 1 2.98-2.82z" fill="#a4765e"/><path d="M119.27 107.64H119l-1.36-1.32c.58-.69.65-.71 1.19-.34.17.12.36.2.54.31.63.43.63.71-.1 1.35z" fill="#e1e1e3"/><path d="M134.35 132.64c.15 1-.09 1.73.33 2.41a.44.44 0 0 1 0 .39c-.39.58-.22 1.26-.28 2a4.16 4.16 0 0 1-.52-2.41 3.92 3.92 0 0 1 .47-2.39z" fill="#a0745d"/><path d="M108.33 127.92c-.63-.38-.36-1-.42-1.48l1-.93a3 3 0 0 1 .35.86 1.45 1.45 0 0 1-.26.81 5.61 5.61 0 0 1-.67.74z" fill="#a9785e"/><path d="M174.44 119.15c-1-.36-1.92-.72-2.19-1.9a.66.66 0 0 1 1 .15c.41.6.75 1.17 1.19 1.75z" fill="#a0745d"/><path d="M165.89 70.55l.31-.63c.21.56.15.75-.31.63zm-17.68 2.2h-.54l.34-.27zM148 71l-.15.36a.8.8 0 0 1-.17-.23c0-.06.05-.15.08-.22zm20-2.84l.34-.27.2.27z" fill="#292221"/><path d="M96.17 97.12s.09.08.08.09a1.24 1.24 0 0 1-.12.16l-.13-.12z" fill="#a4765e"/><path d="M124.41 93c.19 0 .39-.08.56.2a9 9 0 0 0 1.66 2.13 1 1 0 0 0 .35.13c.43-.69-.09-1.27-.24-1.84a1.26 1.26 0 0 1 0-.94 3.23 3.23 0 0 0 .12-1c0-.58.2-.77.76-.82h.27c.68-.05.83-.2.87-.85v-.64c-.4-.4-.72-1-1.18-1.12-.81-.3-1.08-1.27-2-1.5.16.62.63 1.07.5 1.68h-.4a1.84 1.84 0 0 0-.37.35l.61 1.23h-.57a1.08 1.08 0 0 0-1.5-.3c-.51.27-.94.47-.69 1.21l-1-.53-.26.55c-.69-.23-1-.87-1.5-1.29-.24-.2-.42-.47-.79-.38-.38-.42-.74-.86-1.14-1.25-.1-.1-.32-.07-.49-.1a2.38 2.38 0 0 0-.2-.59c-.26-.4-.77-.6-1-1.22a1.63 1.63 0 0 0 1.44-.81c-.39-1.53-1.74-2.1-3-2.46a9.78 9.78 0 0 0-4.21-.57 21.8 21.8 0 0 0-4.55.73 4.21 4.21 0 0 1-1.46 0c-.19-.54-.07-.89.47-1.06a14.55 14.55 0 0 1 3.2-1.09 4.86 4.86 0 0 0 1.08-.36 1.28 1.28 0 0 0-1.37-.72 5.08 5.08 0 0 1-1.58-.09c1.16-.29 2.41.07 3.68-.69h-1.24l.32-.67c-.14-.06-.24-.15-.35-.15-.47 0-.72-.22-.83-.76a5.54 5.54 0 0 1 1.68.06 12.68 12.68 0 0 0 2.35.07l.14-.46h1.13a1.89 1.89 0 0 0 .54 0 2.58 2.58 0 0 1 2.26 0 1.68 1.68 0 0 0 .49 0l.48-1.4c.45.11.85.21 1.38.39.08 0 0 0 0-.08l-.12.12a1.24 1.24 0 0 0 .16.12s.05-.05 0-.16a4.91 4.91 0 0 1-.41-1.12 2 2 0 0 1 1.23.19 4 4 0 0 1 2 3.22l-1.2-1-.29 1 1 .65v.29c0 .58 0 1.15.06 1.73.62.07.59.77 1 1.06s.44.61.71 1c.36-.45 1.12-.28 1.21-1 0-.1.45-.15.74-.24v-.64l.89-.16-.34-.92h.25l1.66 2 .42-.72c.24.29.22.89.86.78.13-.25-.63-.71.2-.8l.61 1.22c.14-.19.3-.31.34-.47a3.51 3.51 0 0 0 0-.76 8.93 8.93 0 0 1 .81 2.88v1.48c-.49-.32-.5-.92-.81-1.34-.13-.17-.23-.36-.42-.65-.24.8.25 1.36.3 2s.49 1.3.38 2c-.08.52-.37.94 0 1.56.25.45-.12 1.21.09 1.71s0 1.3.44 1.85a.35.35 0 0 1 .06.24c-.2 1.25.31 2.43.3 3.67a25.59 25.59 0 0 0 .26 3.26c0 .22.26.41.43.67l1.31-.81a3.28 3.28 0 0 1-.69-2.49v-7.7c0-1-.2-1.91-.25-2.86s0-1.89 0-2.84c0-.16-.14-.31-.16-.47s-.1-.63 0-.71c.5-.36.37-.85.44-1.33a13 13 0 0 0 .24-3.37l1.31.36.13-.84h.75c0 .22.09.54 0 .63-.51.43-.14.68.15 1l1.3-1.34c.55.31.52.78.4 1.26 0 .12-.22.22-.2.31.06.33.33.72.22 1s-.33.59-.13 1c.82.11.58-1 1.34-1.07l.89 1.36a2.11 2.11 0 0 0 1.33-.83 2.06 2.06 0 0 1 1.55-.8l-.58 1.17.57.17 1.23-.63a1.59 1.59 0 0 0 .28.35c.64.5.65.5.37 1.28 1.18-.31 2-1.2 3.1-1.59.58.66-.64.66-.43 1.21.23.18.24-.13.38-.18a4.67 4.67 0 0 1 .46-.19c.31-.07.7-.35.77.29 0 .07.28.15.43.16s.53 0 .85 0v.61c.08.09.11.15.14.15h2.52a2.21 2.21 0 0 1-1.45 2.2 22 22 0 0 0-2.84 1 6 6 0 0 1-1.76.17 1.08 1.08 0 0 1-1.07.5c-.4-.05-.92.14-1.19 0s-.6.07-.88 0a1.45 1.45 0 0 1-.57-.25c-.83-.56-1.25-.39-1.51.63 0 .07-.12.11-.21.2l-.65-.32c-2 1.53-2.75 3.9-4 5.89l-1-.24c0 .37-.37.73.25.88.1 0 .22.26.21.38 0 .46-.14.92-.23 1.44.69.24.65-.47 1.08-.91l-.38 2.46.21.06.52-1.34c.5 0 .64.48.95.71a5 5 0 0 0-.27.89 4.87 4.87 0 0 1-.25.71 10.31 10.31 0 0 0-.29 2.31 5.72 5.72 0 0 1-.41 2.4c-.19-.1-.37-.59-.54.11-.32-.78-.63-1.36-.2-2.17a2.84 2.84 0 0 0-.17-2 4.59 4.59 0 0 0-.3 1.28 7.3 7.3 0 0 1-.46 2.15l-.77-1-.53 1.41c-.57-.17-1-.37-1-1.17l-.81.31c-.07 0-.2-.08-.21-.13s0-.38 0-.53c-.2-.5-.43-1-.66-1.49h-.6c-.54-1.24-.62-2.69-1.51-3.82.29.94.21 1.93.56 2.86a12.45 12.45 0 0 1 .28 1.63 4.89 4.89 0 0 0 .48 1.84c.2.31.07.83 0 1.28-.33-.81-.57-1.65-1.7-1.35a14.69 14.69 0 0 0-1-2.91 23.6 23.6 0 0 1-1.59-3.8 13.08 13.08 0 0 1-.79-2.24zm-3.1-10.54l-.93-.82c-.36-.31-.86-.56-1.06-1s-.3-.32-.5-.45c-.82-.55-1.85-.58-2.67-1.06a5.28 5.28 0 0 0-3.25-.45 2.58 2.58 0 0 0 .38.21c.57.15 1.15.27 1.7.47.18.06.57 0 .54.43 0 .12.38.27.58.39s.45.24.65.39.31.24.34.39 0 .58-.11.6c-.92.19-.36.63-.07.75.58.22.86.74 1.31 1.08a2.82 2.82 0 0 0 2.43.85c0-.75-1.29-.93-.7-1.85.42.1.75.61 1.36.11z" fill="#292221"/><path d="M161.47 102a1.19 1.19 0 0 1-1-.4 23.63 23.63 0 0 0-5.72-3.81v-.26l.76-.2c0-.07 0-.17-.08-.18a3.39 3.39 0 0 1-1.08-.32c-.37-.28-1-.3-1-1s-.94-.71-1.44-.77a4.75 4.75 0 0 0-2.3.26 6.62 6.62 0 0 1-2.2.22h-1.27c-.19-.79 1-.85.67-1.67-.64.18-.93.73-1.35 1.1s-.75.74-1.31 1.3l.23-1.32c-.84.3-1.21 1.06-1.81 1.55a3.89 3.89 0 0 0-1.06 2.13c-.22.72-.36 1.47-.57 2.34.24-.07.48-.06.58-.18a9.34 9.34 0 0 0 .67-1l.79.39c.32-.63.52-1.36 1.19-1.69.61.14.56.63.66 1.11.52-.64.53-1.76 1.74-1.62L146 99.8c-.6.15-.56.62-.54 1.08-.59.2-1.07.76-1.73.52-.47.47-.9.86-1.29 1.3s-.82.81-1.46.59c-.26.43.08.94-.39 1.28a5.57 5.57 0 0 0-.85 1c-.18-.27-.28-.58-.49-.72s-.68.13-.81-.35a2.68 2.68 0 0 0-.29-1c-.29-.36-.2-.74-.26-1.12a4.74 4.74 0 0 0-.41-.93l-.5 2.07h-.13v-2.58a10.89 10.89 0 0 1 .91-4.35 12.43 12.43 0 0 1 1.11-2c.22-.41.18-1 .67-1.2.15-.84.92-.92 1.48-1.37l.21.61 1.56.21.56-.56a2 2 0 0 1 1.61-.67 1.94 1.94 0 0 0 1.37-.27c.53.45 1.18.19 1.77.3 0 .59.46.49.93.57l-.57.68c.79.23 1.45-.2 2.14-.31s1.32-.31 2-.41c.22 0 .47.15.8.26a4.92 4.92 0 0 0-.57.73 4.06 4.06 0 0 0-.19.86 2.11 2.11 0 0 0 .64.27 8.87 8.87 0 0 0 1.35 0 2.74 2.74 0 0 1 2.48 1.15c.95 1.25 2.07 2.37 3 3.63.36.48 1 .91.84 1.68 0 .16.23.34.32.53a4.51 4.51 0 0 1 .2.72zm-21.21-7.82c.34-.28.87-.38 1-1-.9-.3-.79.55-1 .96z" fill="#2a2322"/><path d="M145.51 100.88c0-.46-.06-.93.54-1.08l.19.21.83-1.34 1 .52 1-2c.24.55.14 1.2.88 1.25.1 0 .23.16.28.28.27.65.88.81 1.5 1l.81-.67c.1.19.22.3.2.38-.13.52-.29 1-.47 1.64l1-.35c-.42 1.81-1.69 2.91-2.87 4.21.86.29 1.77.41 2 1.28.13.46.21 1.09-.6 1.37-.87-1.07-2.16-1.78-3-3-.23.32-.44.62-.67.91s-.26.4-.44.47a12.52 12.52 0 0 1-2.92 1.11 5.94 5.94 0 0 0-1.79.55c-.29.14-.46.54-.67.81a.77.77 0 0 1-.68-.74 5.16 5.16 0 0 1 1-3.38c.13-.22.24-.45.39-.65a2.89 2.89 0 0 1 3.69-.88c.14.08.27.18.4.27.11-.11.22-.18.21-.23a1.13 1.13 0 0 0-.84-.9c-.35-.13-.71-.24-1-.35zm-.6 3.92v.34a2.5 2.5 0 0 0 .78.32 4.54 4.54 0 0 0 1.42-.13.54.54 0 0 0 .24-.79c-.14-.24-.36-.67-.83-.25-.19.16-.6 0-.88.13a4 4 0 0 0-.73.38z" fill="#2d2725"/><path d="M157.19 113.68l-.25.21c-.52-.65-1.05-1.29-1.57-1.94-.15-.2-.4-.59-.36-.63.71-.67-.17-1.31 0-2h.87l.34-.58 1.78 1.76c.41-.5.3-.77 0-1.08-.5-.58-1-1.2-1.55-1.93l.9-.17c-.06-.79.64-1.13 1.12-1.69l-1.08-2.5.78-.15v-.18l-1.43-1.43c.9-.51 1.46.08 1.9.36a8.46 8.46 0 0 1 3.7 4.42c-.08.08-.11.14-.14.14s-.06-.06-.1-.09l-1.53-1.53-.38.38c1.69 2.44 2.31 4.42.67 6.36-.53-.62-.38-1.61-1.13-2.13-.39.65.21 1.17.18 1.76 0 .18.24.41.19.55a1.26 1.26 0 0 1-.51.63c-.2.11-.16.1-.12.32.16.78.23 1.57.36 2.57l-1.06-1.35-.22.12v1.26z" fill="#2b2422"/><path d="M148.58 87.09a2.73 2.73 0 0 1 2-1.39 12 12 0 0 1 5.88-.66l-1.05.78c.73.49 1.45 0 2.15.41.49.3 1.18.37 2 .73l-1.65.35a6.14 6.14 0 0 0 1.69.84c1 .09 1.47 1 2.27 1.39.19.09.16.62.23.9l-.87.52c.85 1.2 2.47 1.59 2.85 3.15a2.91 2.91 0 0 1-.44-.16 29.68 29.68 0 0 0-2.75-1.51 30.17 30.17 0 0 1-3-1.25 2.43 2.43 0 0 1-.7-.49c.57 0 1.11-.23 1.67.07.16.08.49-.16.85-.3a17.61 17.61 0 0 0-3.9-1.27 7.72 7.72 0 0 0-3.3 0 9 9 0 0 1-2.15 0c.1-.25.17-.42.23-.59.27-.84-.05-1.36-1-1.56a5.63 5.63 0 0 0-1.01.04zm4.76 27.22c.6.38.7.28.92-.75l.93.22.12-.76a7.14 7.14 0 0 1 1.87 2.36 7.67 7.67 0 0 1 .77 2.78v2a8.45 8.45 0 0 1-.28 1.64.37.37 0 0 1-.55.3c-.34-.14-.73-.13-.75-.25a6.49 6.49 0 0 0-1.24-2.59 25.88 25.88 0 0 0-1.42-2.52c-.57-.62-.33-1.47-.37-2.43zm12.44 6.88c-.7-1.65-1.29-3-1.88-4.39-.21-.5-.38-1-.61-1.5a7.82 7.82 0 0 1-.71-1.32 7.09 7.09 0 0 1 0-1.64c.91 0 .32-.84.69-1.2a17 17 0 0 1 3.38 5.77 3.76 3.76 0 0 1-.28 3.18z" fill="#2a2322"/><path d="M111.26 85.24l-.89-.16c-.21 0-.43-.19-.6-.14-1.7.47-3.53.4-5.16 1.23a4.45 4.45 0 0 1-1.43.13l1.9-1.24-.72-.26c.16-.33.24-.76.49-.94a2.7 2.7 0 0 1 1.38-.54 43.57 43.57 0 0 1 5.42-.3 12.85 12.85 0 0 1 2.61.55c.05 0 .08.11.12.17-.76.53-1.69-.88-2.37.24l.21.24z" fill="#2d2725"/><path d="M158 79.49a5.46 5.46 0 0 1 3.25-.79c1 .05 1.16.3.76 1.27l.49.49a2.07 2.07 0 0 1-1.71.69 1.44 1.44 0 0 0-1.13.21.57.57 0 0 1-.86-.31c-.08-.34-.75-.68 0-1.14z" fill="#2b2422"/><path d="M139.8 125.39c-.07-.29.23-.85-.17-1.32a.37.37 0 0 1 0-.09c1.37-.54-.16-1 0-1.64 0-.08.88.55.8-.48a2.76 2.76 0 0 1 .76 1.94 11 11 0 0 0 .22 1.92 7.5 7.5 0 0 0 .58 1.66v.15zm-20.26-36.14v.52a5.16 5.16 0 0 1-3.75-1.18c-.49-.39-.44-.47.13-1a2.14 2.14 0 0 0 .28-.62c.46.32.83.6 1.22.84a1.52 1.52 0 0 0 .49.1c.38.42.74.86 1.14 1.25.11.09.33.06.49.09z" fill="#312926"/><path d="M150.65 111.47a4 4 0 0 1-1.62-2.63l1.27-.42a6.8 6.8 0 0 1 .77.87c.17.27.4.65-.2.79-.1 0-.19.25-.21.39-.03.31-.01.62-.01 1z" fill="#2d2725"/><path d="M135.56 75.07l-.73-.67-.83 1.45a11.3 11.3 0 0 1-.4-1.46c-.07-.55.18-.84.73-.82s1.26-.27 1.73.46z" fill="#312926"/><path d="M121.22 74.56a5.5 5.5 0 0 1 2.07 3.51c-1.91-1.44-2.14-1.8-2.07-3.51z" fill="#373537"/><path d="M158.16 75.69a7.77 7.77 0 0 1-4.51 1.81c.47-.3.92-.83 1.4-.84.63 0 .84-.63 1.41-.67a15.7 15.7 0 0 0 1.7-.3z" fill="#403632"/><path d="M139.16 76.67c-.24-.17-.37-.28-.51-.36-.92-.51-1-1-.13-1.56.25-.16.65-.38.78.23 0 .16.46.32.44.39a11.75 11.75 0 0 1-.58 1.3z" fill="#312926"/><path d="M127.5 73.39c.29 1 1.62.77 1.5 2l-1.09.44c-.55-.95-.55-.95-.41-2.44z" fill="#373537"/><path d="M155.24 78.08c1.1-.63 2.13-1.44 3.6-1.23a8.74 8.74 0 0 1-3.6 1.23z" fill="#403632"/><path d="M140 121.09l.36.58c-.36.05-.69.14-.36-.58z" fill="#312926"/><path d="M170.66 115.49c-.52-.13-.17-.55-.27-.81.52.12.17.54.27.81z" fill="#282220"/><path d="M130.73 86.38l-.09-.64a2.1 2.1 0 0 1 .26.32l-.17.32z" fill="#292221"/><path d="M154.6 78.26l.64-.09a2.1 2.1 0 0 1-.32.26s-.12-.07-.32-.17z" fill="#403632"/><path d="M124.32 92.4l.09.64a2.09 2.09 0 0 1-.26-.32l.17-.32z" fill="#292221"/><path d="M161.83 102.87l-.09-.64a2.1 2.1 0 0 1 .26.32l-.17.32z" fill="#2a2322"/><path d="M126.28 88.6s-.08.09-.09.08a1.24 1.24 0 0 1-.16-.12l.12-.12z" fill="#292221"/><path d="M161.47 102l.27.27z" fill="#2a2322"/><path d="M101.45 177.69v-5.14h6a1.89 1.89 0 0 1 1.48.77 2.51 2.51 0 0 1 .45 2.41 2.64 2.64 0 0 1-1.11 1.41 3.32 3.32 0 0 1-1.67.52z" fill="#95cfc3"/><path d="M101.46 169v-4h5.31a2.09 2.09 0 0 1 1.72.72l.49.49v1.74a8.64 8.64 0 0 1-.72.62 2 2 0 0 1-1.14.5zm57.33 1.12V165c1.9 0 3.79-.11 5.66 0a2.42 2.42 0 0 1 2 3.23 2.34 2.34 0 0 1-2.57 1.86c-1.64.1-3.31.03-5.09.03z" fill="#96d0c4"/><path d="M142.9 166l2.39 7.61h-4.95c.84-2.55 1.66-5.07 2.56-7.61z" fill="#94cbc1"/><path d="M114 67.07l-.12-.16c.06 0 .15-.06.16 0a.75.75 0 0 1 .08.2z" fill="#282220"/><path d="M86.16 101.17s.09.08.08.09a1.24 1.24 0 0 1-.12.16l-.12-.12z" fill="#98d4c7"/><path d="M177.4 112.13s-.08.09-.09.08a1.24 1.24 0 0 1-.16-.12l.12-.12zm-69.69-3.57c.09-.4.21-.77.83-.54zm8.83 3.44v.76c-.26-.44-.26-.44 0-.76zm-8.85-1.51l-.19.67a2.22 2.22 0 0 1-.12-.38s.1-.09.31-.29zM97.64 99.65l-.16.12c0-.06-.06-.15 0-.16a.75.75 0 0 1 .2-.08zm10 8.81l-.27.27z" fill="#282220"/><path d="M141.17 146.32a12.24 12.24 0 0 1-3.22 1.13c-1.19.2-2.4 0-3.54.26a37.65 37.65 0 0 1-5.57.24 2.06 2.06 0 0 1-1.76-.71.7.7 0 0 1 .82-.64c1 .11 2-.17 3 .23a4.81 4.81 0 0 0 2 0 7.69 7.69 0 0 0 1.93-.2 11.8 11.8 0 0 1 3.11-.32c1.06-.03 2.17.01 3.23.01z" fill="#2b2422"/><path d="M121.31 82.5c-.61.54-.94 0-1.36 0-.59.91.71 1.1.7 1.85a2.82 2.82 0 0 1-2.43-.85c-.45-.33-.73-.85-1.31-1.08-.29-.11-.85-.56.07-.75.08 0 .14-.4.11-.6s-.2-.29-.34-.39-.43-.26-.65-.39-.59-.28-.58-.39c0-.46-.36-.37-.54-.43-.55-.2-1.13-.31-1.7-.47a2.58 2.58 0 0 1-.38-.21 5.28 5.28 0 0 1 3.25.45c.82.48 1.85.51 2.67 1.06.2.13.36.17.5.45s.69.64 1.06 1z" fill="#ad7a5f"/><path d="M119.54 89.25c-.17 0-.39 0-.49-.1-.4-.4-.76-.83-1.14-1.25.17 0 .39 0 .49.1.41.4.77.83 1.14 1.25zM119 76.16s-.08.09-.09.08a1.24 1.24 0 0 1-.16-.12l.12-.12zm21.26 17.98c.22-.41.11-1.26 1-1-.13.63-.66.72-1 1z" fill="#b27c60"/><path d="M144.91 104.8a4 4 0 0 1 .74-.39c.29-.08.69 0 .88-.13.48-.41.7 0 .83.25a.54.54 0 0 1-.24.79 4.54 4.54 0 0 1-1.42.13 2.5 2.5 0 0 1-.78-.32z" fill="#e1e1e3"/><path d="M184.24 247.43a8.06 8.06 0 1 1 2.36-5.71 7.75 7.75 0 0 1-2.36 5.71zm-10.6-10.61a6.7 6.7 0 0 0-2 4.9 6.78 6.78 0 0 0 2 4.94 6.91 6.91 0 0 0 9.81 0 7 7 0 0 0 0-9.84 6.9 6.9 0 0 0-9.79 0zm4.74.45a6.74 6.74 0 0 1 2.41.32 2.19 2.19 0 0 1 1.37 2.24 1.93 1.93 0 0 1-.86 1.75 3.35 3.35 0 0 1-1.3.42 2.14 2.14 0 0 1 1.52.87 2.43 2.43 0 0 1 .48 1.37v1.31a1.42 1.42 0 0 0 .08.46l.05.11h-1.46v-1.17a2.16 2.16 0 0 0-.83-2 3.75 3.75 0 0 0-1.73-.28h-1.23v3.48h-1.56v-8.84zm1.68 1.39a4.05 4.05 0 0 0-1.89-.33h-1.33v3.2h1.41a4.23 4.23 0 0 0 1.49-.2 1.59 1.59 0 0 0 .32-2.68z" fill="#231f20"/></svg>