<svg xmlns="http://www.w3.org/2000/svg" viewBox="0 0 346.67 346.75"><title>lion</title><path d="M346.67 176.36a4.87 4.87 0 0 1-.3.4c-.19.2-.39.4-.59.6q-84.22 84.22-168.41 168.45c-.76.76-1.14.8-1.92 0Q88 258.36.56 170.95c-.81-.81-.68-1.19 0-1.92Q84.85 84.83 169 .58c.77-.77 1.15-.78 1.92 0Q258.38 88 345.83 175.47c.28.28.54.53.84.89zm-170.3 167.53c.36-.34.68-.63 1-.94q82.77-82.77 165.56-165.53c.82-.82.92-1.23 0-2.11Q257 89.44 171.14 3.5c-.9-.9-1.33-.85-2.2 0Q86.29 86.23 3.59 168.9c-1.14 1.14-1.14 1.14 0 2.24L138.8 306.39 175.45 343c.28.32.55.57.92.89z" fill="#fbb826"/><path d="M221.54 343.69c1.19-3.18 2.41-6.24 3.52-9.34a2 2 0 0 1 2.41-.92c.28.16.19.4.21.62.25 4 .49 8 .76 11.95 0 .6-.13.81-.71.73s-1 .24-1-.66c-.13-3.29-.34-6.58-.52-9.88-.42 0-.34.38-.43.61q-1.61 4.5-3.2 9c-.18.5-.3.92-1 .92s-.83-.46-1-.94c-1-3-2.14-6-3-9.08a4.86 4.86 0 0 0-.34-.64c-.2 3.44-.41 6.56-.56 9.67 0 .71-.14 1.08-1 1-.65 0-.78-.2-.73-.83.29-3.9.53-7.8.78-11.7 0-.47.1-.92.74-.81s1.5-.42 1.86.71c.92 2.88 1.92 5.74 2.89 8.6zM208 340.8v-4.91c0-.7-.1-1-.89-.94s-1.52 0-2.27 0c-.54 0-1 .09-1-.75s.28-.84.91-.83h8.15c.68 0 .86.18.88.86s-.33.77-.87.72h-.12c-1 .07-2.39-.44-3 .21s-.15 1.9-.15 2.9v7.79c0 .81-.3.86-1 .89s-.81-.32-.8-.92c.16-1.67.16-3.35.16-5.02z" fill="#27221f"/><path d="M176.37 343.89c-.34-.32-.64-.57-.92-.85l-36.65-36.65L3.55 171.14c-1.1-1.1-1.1-1.1 0-2.24Q86.28 86.22 168.94 3.52c.87-.87 1.3-.91 2.2 0Q257 89.44 343 175.31c.89.89.79 1.29 0 2.11Q260.11 260.17 177.35 343c-.35.26-.62.55-.98.89zm153.5-168.07a8.61 8.61 0 0 1-1.17-.84Q250 96.29 171.29 17.55c-.86-.86-1.25-.73-2 0Q93.44 93.49 17.55 169.32c-.76.76-.81 1.15 0 1.94Q96.26 249.93 175 328.64c1.15 1.15 1.15 1.15 2.33 0L325.86 180c1.1-1.1 2.21-2.2 3.31-3.31a2.26 2.26 0 0 0 .7-.87z" fill="#8b5f3d"/><path d="M329.87 175.82a2.26 2.26 0 0 1-.7.9c-1.1 1.11-2.2 2.21-3.31 3.31L177.28 328.61c-1.18 1.18-1.18 1.18-2.33 0q-78.7-78.7-157.42-157.38c-.79-.79-.74-1.18 0-1.94Q93.44 93.49 169.27 17.6c.78-.78 1.17-.91 2 0Q250 96.3 328.7 175a8.61 8.61 0 0 0 1.17.82zm-105.08-64.69a14.87 14.87 0 0 1 2.43-.52c1.15 0 1.3-.64 1.13-1.57a24.12 24.12 0 0 0-8.27-14.73c-.51-.43-.64-.64-.13-1.18a10.29 10.29 0 0 0 2.17-11.51c-.25-.64-.11-.94.43-1.24q2-1.1 4-2.24c.32-.19.9-.27.83-.71s-.63-.41-1-.54a39.63 39.63 0 0 0-22.16-1.32c-.49.11-.87.23-1.28-.22a16.53 16.53 0 0 0-6.11-4.12c-.58-.23-.62-.47-.24-1 1.15-1.44 2.24-2.91 3.38-4.35.44-.55.53-.85-.34-1a25.64 25.64 0 0 0-8.46.15 24.64 24.64 0 0 0-9.28 3.97 7.39 7.39 0 0 1 .35-2.56c.14-.71.08-1-.82-.87a16.93 16.93 0 0 0-10.12 4.7c-.38.37-.7.55-1.25.25a25.61 25.61 0 0 0-10.26-3 29.54 29.54 0 0 0-13.29 1.74c-.91.34-.69.65-.11 1.09.89.69 1.76 1.41 2.88 2.31a16.54 16.54 0 0 0-7.87 1.08c-2.47 1.14-4.41.81-6.84-.27a18.41 18.41 0 0 0-15.33.31c-1 .43-.89.8-.2 1.41s1.26 1.35 2 1.93.79 1 .13 1.78c-3.86 4.65-4.57 9.88-2.57 15.5a1.57 1.57 0 0 1-.52 1.86 34.59 34.59 0 0 0-9.83 20.83c-.09.93.13 1.32 1.15 1.17 1.48-.22 3-.33 4.47-.49a1.6 1.6 0 0 1-.33 1.1 55 55 0 0 0-2.69 6.66 69.56 69.56 0 0 0-3.17 16 72.29 72.29 0 0 0 .29 14.47c.21 1.68.2 1.68 1.91 1.36l1.53-.27c.78-.15 1.18 0 1.41.93a85.81 85.81 0 0 0 9 22 76.14 76.14 0 0 0 8.36 11.68c.62.72 1 .88 1.52-.1s1.16-1.92 1.7-2.89c.33-.59.55-.72 1.1-.17a67.43 67.43 0 0 0 26.25 16c.92.32 1 .53.36 1.3-1.23 1.38-2.34 2.87-3.68 4.54 4.2 0 7.91-1 11.88-2-1 2-1.82 3.67-2.64 5.39-.16.34-.58.7-.29 1.07s.66-.06 1-.1a1.64 1.64 0 0 0 .35-.07c9.37-3.28 17.26-8.6 23.08-16.76.45-.64.82-.82 1.56-.52 1.4.57 2.87 1 4.27 1.57a1.5 1.5 0 0 0 2.11-.5 52.13 52.13 0 0 0 3.17-4.65 45 45 0 0 0 4.93-12.17c.16-.67.28-1.23 1.23-.79s2.18.79 3.25 1.21a1 1 0 0 0 1.41-.36 81.31 81.31 0 0 0 16.41-33.73c.6-2.54.54-2.56 3.16-2.11 1.49.25 1.47.25 1.62-1.25a49 49 0 0 0-5.48-28 46 46 0 0 0-3.65-5.48zM175.2 259c-4.06 6.33-7.75 12.71-8.07 20.53-.57-.42-1-.77-1.46-1.07-2.7-1.77-5.58-2.65-8.71-1.29-3.29 1.42-5 3.33-4.84 6.66.22 4 2.82 6.54 5.94 8.64.45.3.52 0 .6-.36a17.34 17.34 0 0 1 1-2.94c1.56-3.33 3.85-3.31 6.39-1.09a4.73 4.73 0 0 1 .76.92 10.75 10.75 0 0 1 1.65 5.91c0 .59-.07 1-.69 1.19a1 1 0 0 0-.81 1 1 1 0 0 0 .86 1c.92.25.77.81.28 1.32a2.15 2.15 0 0 1-2.07.65 6.09 6.09 0 0 1-2.57-1.23c-.23-.18-.4-.49-.79-.13-1.2 1.08-1.63 3.87-.78 5.13a4.12 4.12 0 0 0 7.27-.16c.24-.43.38-1 .93-1.28.32 1 .59 2 .93 3a14.76 14.76 0 0 0 3.1 5.62 1.26 1.26 0 0 0 2.11 0 12.61 12.61 0 0 0 2.8-4.69c.47-1.25.87-2.53 1.37-4 .51.77.89 1.41 1.33 2a4 4 0 0 0 5.9.45c1.69-1.64 1.86-2.94.7-5.16-.44-.85-.82-1.6-1.85-.51a4.15 4.15 0 0 1-2.05.92 2.22 2.22 0 0 1-1.92-.44c-.82-.58-.75-1.15.16-1.53a1.12 1.12 0 0 0 .83-1.05c0-.58-.39-.82-.88-1-.31-.11-.77-.11-.73-.63.17-2.78.39-5.64 2.69-7.56 2.84-2.36 4.81-1.67 6.17 1.33a14 14 0 0 1 .9 2.6c.17.74.44.87 1 .45 2.92-2 5.2-4.54 5.64-8.23a5.48 5.48 0 0 0-1.56-4.61c-3.54-3.54-8.06-3.83-12.15-.87a4.07 4.07 0 0 1-1.45.95c-.13-7.82-3.97-14.12-7.93-20.44zm27.93-32.56a3.84 3.84 0 0 1 .32.44c3.18 8.62 7.47 16.74 11.29 25.07a1.32 1.32 0 0 0 1.43.93c1.84-.06 3.68 0 5.52 0 .64 0 .92-.12.92-.85v-34.3c0-.7-.24-.88-.9-.86a41.76 41.76 0 0 1-4.32 0c-1.09-.08-1.31.28-1.29 1.32.1 7.85-.19 15.72.52 23.84a9.29 9.29 0 0 1-.45-.88c-2.8-8.14-6.91-15.68-10.56-23.43a1.26 1.26 0 0 0-1.37-.83c-2.08 0-4.16.06-6.24 0-.82 0-1.08.18-1.07 1 .05 3.6 0 7.2 0 10.79v23c0 1 .29 1.22 1.2 1.17a30 30 0 0 1 4 0c1.1.08 1.38-.26 1.37-1.36-.1-8.26.05-16.49-.38-25.07zm-10.69 7.81a21 21 0 0 0-.52-5.2c-1-4.35-2.82-8.17-6.67-10.69a13.77 13.77 0 0 0-19.67 5.24 23.76 23.76 0 0 0-1 20.83c2.16 5.46 6.17 8.78 12.26 9 6.44.2 11-2.78 13.67-8.61a24.14 24.14 0 0 0 1.93-10.6zm-64.63.65v16.92c0 .59-.07 1.06.82 1.06h17.64c.63 0 .83-.19.82-.82 0-1.72-.06-3.44 0-5.16 0-.83-.28-1-1-1h-10.2c-.94 0-1.11-.28-1.09-1.14.06-2.4 0-4.8 0-7.2V218c0-1-.28-1.28-1.26-1.22a43 43 0 0 1-4.68 0c-.93-.05-1.11.27-1.11 1.14.07 5.68.06 11.32.06 16.96zm23.36 0v16.9c0 .84.23 1.1 1.07 1.07 1.6-.06 3.2-.07 4.79 0 .93 0 1.22-.22 1.21-1.18v-33.67c0-1-.26-1.23-1.2-1.18-1.55.08-3.12.07-4.67 0-.91 0-1.22.19-1.21 1.17.03 5.61 0 11.25 0 16.88z" fill="#fbb826"/><path d="M224.79 111.13a46 46 0 0 1 3.64 5.43 49 49 0 0 1 5.48 28c-.15 1.5-.13 1.51-1.62 1.25-2.62-.44-2.56-.43-3.16 2.11a81.31 81.31 0 0 1-16.41 33.73 1 1 0 0 1-1.41.36c-1.08-.42-2.21-.72-3.25-1.21s-1.07.13-1.23.79a45 45 0 0 1-4.93 12.17 52.13 52.13 0 0 1-3.17 4.65 1.5 1.5 0 0 1-2.11.5c-1.39-.59-2.86-1-4.27-1.57-.74-.3-1.11-.11-1.56.52-5.82 8.16-13.71 13.48-23.08 16.76a1.64 1.64 0 0 1-.35.07c-.34 0-.73.44-1 .1s.12-.73.29-1.07c.83-1.72 1.68-3.42 2.64-5.39-4 1-7.69 2-11.88 2 1.34-1.67 2.45-3.15 3.68-4.54.68-.76.56-1-.36-1.3a67.43 67.43 0 0 1-26.25-16c-.56-.56-.78-.43-1.1.17-.54 1-1.19 1.9-1.7 2.89s-.89.82-1.52.1A76.14 76.14 0 0 1 121.8 180a85.81 85.81 0 0 1-9-22c-.23-.91-.63-1.08-1.41-.93l-1.53.27c-1.72.32-1.71.32-1.91-1.36a72.29 72.29 0 0 1-.29-14.47 69.56 69.56 0 0 1 3.17-16 55 55 0 0 1 2.69-6.66 1.6 1.6 0 0 0 .33-1.1c-1.49.16-3 .27-4.47.49-1 .15-1.24-.24-1.15-1.17A34.59 34.59 0 0 1 118 96.26a1.57 1.57 0 0 0 .52-1.86c-2-5.62-1.3-10.85 2.57-15.5.65-.79.59-1.18-.13-1.78s-1.29-1.32-2-1.93-.77-1 .2-1.41a18.41 18.41 0 0 1 15.33-.31c2.43 1.07 4.37 1.41 6.84.27a16.54 16.54 0 0 1 7.87-1.08c-1.12-.9-2-1.62-2.88-2.31-.57-.45-.8-.76.11-1.09a29.54 29.54 0 0 1 13.29-1.74 25.61 25.61 0 0 1 10.26 3c.55.31.86.12 1.25-.25a16.93 16.93 0 0 1 10.12-4.7c.9-.1 1 .16.82.87a7.39 7.39 0 0 0-.35 2.56 24.64 24.64 0 0 1 9.27-3.92 25.64 25.64 0 0 1 8.46-.15c.88.12.78.42.34 1-1.14 1.44-2.24 2.92-3.38 4.35-.38.48-.35.72.24 1a16.53 16.53 0 0 1 6.11 4.12c.42.45.79.33 1.28.22a39.63 39.63 0 0 1 22.16 1.32c.36.13.93.14 1 .54s-.51.52-.83.71q-2 1.14-4 2.24c-.54.3-.68.6-.43 1.24A10.29 10.29 0 0 1 220 93.13c-.51.54-.38.75.13 1.18a24.12 24.12 0 0 1 8.22 14.69c.16.93 0 1.53-1.13 1.57a14.87 14.87 0 0 0-2.43.56zm-83 55.1a.25.25 0 0 0 .26.24.42.42 0 0 0 .46.31l.31.26a31.3 31.3 0 0 0 9.33 5.3 4.06 4.06 0 0 1 2.63 2.32 12.74 12.74 0 0 0 1.82 2.8c4 4.94 9.1 7.63 15.59 6.86 6.2-.73 10.51-4.3 13.55-9.56a3.16 3.16 0 0 1 1.93-1.56 35.54 35.54 0 0 0 11.25-6 .64.64 0 0 0 .75-.49 2 2 0 0 0 .54-.21 35.22 35.22 0 0 0 8.74-9.61 32.27 32.27 0 0 0 3.05-7.09 14.1 14.1 0 0 1 1.93 3.32c.35.72.74.75 1.28.26a19.16 19.16 0 0 0 1.92-1.8c3.76-4.45 4.63-9.68 3.74-15.2-1.3-8.06-5.46-14.56-11.56-19.89-.63-.55-1-.54-1.56.12a9.78 9.78 0 0 1-3.66 2.77.7.7 0 0 1-.12-.72 25.47 25.47 0 0 0-.06-9.52c-1.71-8.45-6.45-14.27-14.8-16.91-1.3-.41-1.41-.3-1.51 1a17.2 17.2 0 0 1-1 4.66 15.53 15.53 0 0 0-7.92-4.3c-.66-.15-.89 0-1 .67a11.45 11.45 0 0 1-2.93 6.1c-.49-.63-.91-1.25-1.41-1.8-2.59-2.83-5.93-4.09-9.63-4.61a1.5 1.5 0 0 0-1.35.59 16.74 16.74 0 0 0-4.2 7.36 32.4 32.4 0 0 1-1-7.06c0-.87-.28-1-1.08-.72a17.34 17.34 0 0 0-5.57 3.44c-4.28 3.95-6.52 9-7.78 14.56a40.44 40.44 0 0 0-.85 6.14 7.47 7.47 0 0 1-2.69-3.18c-.5-1.16-1.08-1.12-2-.59a33.65 33.65 0 0 0-9.48 7.62c-4.37 5.11-7.14 10.86-6.8 17.78a15.35 15.35 0 0 0 2.72 7.94c.53.79 1 .8 1.56 0a7.71 7.71 0 0 1 .6-.75 20 20 0 0 1 3.48-3.29 22.5 22.5 0 0 0 .42 4.08 29.11 29.11 0 0 0 7.53 14.21 16.24 16.24 0 0 0 4.38 3.81c-.08.27.02.33.18.34zm-13.16-86.1c-.87.24-.79.59-.2 1.12.8.72 1.51 1.54 2.3 2.27a1.18 1.18 0 0 1 .3 1.57 11 11 0 0 0-.77 6.78c.79 3.68 2.7 6.42 6.39 7.72.64.23 1 .17 1.29-.53A18.37 18.37 0 0 1 146.5 89c.69-.19 1.37-.41 2.07-.55s1-.57.77-1.36a10.43 10.43 0 0 0-2.2-3.93c-4.41-5-12.44-6-18.32-3.41-.14.07-.44.08-.2.38zm70 8.81c.14.14.25.32.42.41 3.74 1.87 6 5 7.71 8.7.93 2 .89 2 2.89 1.08a6.34 6.34 0 0 0 .73-.41c4.24-2.73 5.86-8.44 3.74-13.5a1.29 1.29 0 0 1 .37-1.73c1-.93 1.94-1.93 3-3-.52-.2-.88-.11-1.11-.38 0-.06.12-.17.11-.18a.87.87 0 0 0-.27-.19 17 17 0 0 0-13.56.06 11.59 11.59 0 0 0-6.53 6.3c-.8 1.91-.79 1.92 1.14 2.49a3.18 3.18 0 0 0 1.35.35zM175.2 259c4 6.34 7.83 12.65 7.94 20.5a4.07 4.07 0 0 0 1.45-.95c4.09-3 8.61-2.67 12.15.87a5.48 5.48 0 0 1 1.56 4.58c-.44 3.68-2.72 6.19-5.64 8.23-.6.42-.86.29-1-.45a14 14 0 0 0-.9-2.6c-1.36-3-3.32-3.69-6.17-1.33-2.3 1.91-2.53 4.77-2.69 7.56 0 .52.42.52.73.63.49.18.88.42.88 1a1.12 1.12 0 0 1-.83 1.05c-.92.38-1 1-.16 1.53a2.22 2.22 0 0 0 1.92.44 4.15 4.15 0 0 0 2.05-.92c1-1.1 1.41-.35 1.85.51 1.16 2.23 1 3.53-.7 5.16a4 4 0 0 1-5.9-.45c-.44-.59-.82-1.23-1.33-2-.5 1.46-.9 2.74-1.37 4a12.61 12.61 0 0 1-2.8 4.69 1.26 1.26 0 0 1-2.11 0 14.76 14.76 0 0 1-3.1-5.62c-.34-1-.62-2-.93-3-.55.31-.69.85-.93 1.28a4.12 4.12 0 0 1-7.27.16c-.85-1.26-.42-4.05.78-5.13.39-.35.56 0 .79.13a6.09 6.09 0 0 0 2.57 1.23 2.15 2.15 0 0 0 2.07-.65c.48-.51.64-1.07-.28-1.32a1 1 0 0 1-.86-1 1 1 0 0 1 .81-1c.62-.2.71-.6.69-1.19a10.75 10.75 0 0 0-1.65-5.91A4.73 4.73 0 0 0 166 288c-2.54-2.21-4.83-2.24-6.39 1.09a17.34 17.34 0 0 0-1 2.94c-.09.32-.15.67-.6.36-3.12-2.1-5.72-4.62-5.94-8.64-.18-3.33 1.55-5.24 4.84-6.66 3.13-1.36 6-.48 8.71 1.29.46.3.9.65 1.46 1.07.36-7.76 4.05-14.15 8.12-20.45z" fill="#8b5f3d"/><path d="M203.12 226.42c.42 8.54.28 16.81.34 25.08 0 1.1-.28 1.45-1.37 1.36a30 30 0 0 0-4 0c-.92.05-1.21-.19-1.2-1.17V217.9c0-.86.25-1.06 1.07-1 2.08.06 4.16 0 6.24 0a1.26 1.26 0 0 1 1.37.83c3.65 7.75 7.76 15.3 10.56 23.43a9.29 9.29 0 0 0 .45.88c-.71-8.13-.43-16-.52-23.84 0-1 .2-1.4 1.29-1.32a41.76 41.76 0 0 0 4.32 0c.66 0 .9.16.9.86v34.3c0 .73-.29.86-.92.85-1.84 0-3.68-.05-5.52 0a1.32 1.32 0 0 1-1.43-.93c-3.83-8.33-8.11-16.45-11.29-25.07a3.84 3.84 0 0 0-.29-.47zm-10.68 7.8a24.14 24.14 0 0 1-2 10.54c-2.67 5.82-7.23 8.81-13.67 8.61-6.09-.19-10.1-3.51-12.26-9a23.76 23.76 0 0 1 1-20.83 13.77 13.77 0 0 1 19.67-5.24c3.85 2.51 5.71 6.34 6.67 10.69a21 21 0 0 1 .59 5.23zm-7.44.3a16.76 16.76 0 0 0-1.82-8.05c-1.19-2.21-2.94-3.75-5.56-3.75s-4.37 1.51-5.6 3.7a16 16 0 0 0-1.85 7.11 17 17 0 0 0 2.06 10c2.76 4.55 8.13 4.47 10.81-.13 1.52-2.59 1.96-5.5 1.96-8.88zm-57.19.36v-16.92c0-.87.17-1.19 1.11-1.14a43 43 0 0 0 4.68 0c1-.05 1.27.2 1.26 1.22-.05 6.52 0 13 0 19.56v7.2c0 .86.15 1.16 1.09 1.14 3.4-.06 6.8 0 10.2 0 .74 0 1.06.13 1 1-.07 1.72 0 3.44 0 5.16 0 .63-.19.82-.82.82h-17.64c-.89 0-.82-.47-.82-1.06q-.06-8.52-.06-16.98zm23.35.01v-16.9c0-1 .3-1.21 1.21-1.17 1.55.07 3.12.08 4.67 0 .94 0 1.2.23 1.2 1.18v33.67c0 1-.28 1.23-1.21 1.18-1.59-.07-3.2-.07-4.79 0-.84 0-1.08-.22-1.07-1.07.01-5.63-.01-11.26-.01-16.89z" fill="#27221f"/><path d="M141.54 166a16.24 16.24 0 0 1-4.38-3.81 29.11 29.11 0 0 1-7.52-14.19 22.5 22.5 0 0 1-.42-4.08 20 20 0 0 0-3.48 3.29 7.71 7.71 0 0 0-.6.75c-.55.76-1 .74-1.56 0a15.35 15.35 0 0 1-2.72-7.94c-.33-6.92 2.44-12.68 6.8-17.78a33.65 33.65 0 0 1 9.48-7.62c1-.52 1.53-.57 2 .59a7.47 7.47 0 0 0 2.69 3.18 40.44 40.44 0 0 1 .85-6.14c1.26-5.57 3.5-10.61 7.78-14.56a17.34 17.34 0 0 1 5.57-3.44c.79-.31 1-.16 1.08.72a32.4 32.4 0 0 0 1 7.06 16.74 16.74 0 0 1 4.2-7.36 1.5 1.5 0 0 1 1.35-.59c3.7.52 7 1.78 9.63 4.61.5.55.93 1.18 1.41 1.8a11.45 11.45 0 0 0 2.93-6.1c.12-.72.35-.82 1-.67a15.53 15.53 0 0 1 7.92 4.3 17.2 17.2 0 0 0 1-4.66c.1-1.34.21-1.46 1.51-1 8.36 2.64 13.1 8.47 14.8 16.91a25.47 25.47 0 0 1 .06 9.52.7.7 0 0 0 .12.72 9.78 9.78 0 0 0 3.66-2.77c.54-.66.94-.67 1.56-.12 6.1 5.33 10.26 11.82 11.56 19.89.89 5.52 0 10.75-3.74 15.2a19.16 19.16 0 0 1-1.92 1.8c-.55.49-.93.46-1.28-.26a14.1 14.1 0 0 0-1.88-3.45 32.27 32.27 0 0 1-3.15 7.09 35.22 35.22 0 0 1-8.74 9.61 2 2 0 0 1-.54.21c.06-.54.54-.76.86-1.09a11.53 11.53 0 0 0 3.61-8.24 28.52 28.52 0 0 0-1.94-10.3c-3.39-8.57-9.53-14.41-17.91-18a1.92 1.92 0 0 0-1-.55 38.31 38.31 0 0 0-24-.17c-.34.11-.83.09-.9.63a1.79 1.79 0 0 0-.35.08c-11 4.83-17.87 12.92-19.7 25-.65 4.3 0 8.27 3.15 11.55a1.26 1.26 0 0 1 .15.38zM193 117.73a15.8 15.8 0 0 0-2.07-8.55 5.93 5.93 0 0 0-8.21-2.27 11.44 11.44 0 0 0-3.45 2.74 25.09 25.09 0 0 0-5.63 12.76c-.17 1 .17 1.22 1.05 1.32a37.9 37.9 0 0 1 14.93 4.82c.64.37.88.32 1.18-.39a27.76 27.76 0 0 0 2.2-10.43zm-43.7-.73a27.34 27.34 0 0 0 2.29 11.39c.19.44.34.63.85.33a38.34 38.34 0 0 1 15.46-5c.8-.09.86-.45.76-1.1a25.72 25.72 0 0 0-4.66-11.8 13.8 13.8 0 0 0-3.52-3.39c-3.72-2.43-7.5-1.45-9.54 2.48a16 16 0 0 0-1.64 7.09z" fill="#fbb826"/><path d="M141.54 166a1.26 1.26 0 0 0-.17-.41c-3.15-3.28-3.8-7.25-3.15-11.55 1.83-12.05 8.7-20.14 19.7-25a1.77 1.77 0 0 1 .35-.08 24.15 24.15 0 0 0 10.11 18.58c-.07.08-.1.16-.16.19s-.35.18-.54.26a27.92 27.92 0 0 1-18.68 1.73c-1.38-.34-1.4-.36-.59-1.44.36-.48.52-.95 0-1.35s-.89-.11-1.26.26a5.5 5.5 0 0 0-.8 5.52c.27.5.64.76 1.16.51a.77.77 0 0 0 .37-1.11 2.83 2.83 0 0 1-.28-1.78 2.38 2.38 0 0 1 .46.12 27.48 27.48 0 0 0 10.46 3.17c.56 0 .63.38.75.75a14.69 14.69 0 0 0 2.57 4.83c2.9 3.55 6.55 5.38 11.17 4.39 4.88-1 7.65-4.47 9.3-9 .25-.68.5-1.06 1.28-1.08a19.13 19.13 0 0 0 5.82-1.28c1.73-.63 3.42-1.38 5.15-2.08a3.31 3.31 0 0 1-.24 1.92c-.18.46-.13.9.36 1.11s.88 0 1.14-.54a5.36 5.36 0 0 0-.65-5.32c-.38-.45-.82-.89-1.41-.44s-.33 1 .09 1.43c.65.69.57 1-.42 1.29a29.07 29.07 0 0 1-12.7.43 23.6 23.6 0 0 1-7.22-2.53 29.85 29.85 0 0 0 5.64-5.19 22.46 22.46 0 0 0 5.06-13.3c8.38 3.61 14.52 9.44 17.91 18a28.52 28.52 0 0 1 1.94 10.3 11.53 11.53 0 0 1-3.61 8.24c-.32.33-.8.55-.86 1.09-.41-.07-.55.25-.75.49a35.54 35.54 0 0 1-11.25 6 3.16 3.16 0 0 0-1.93 1.56c-3 5.26-7.35 8.83-13.55 9.56-6.49.76-11.57-1.92-15.59-6.86a12.74 12.74 0 0 1-1.82-2.8 4.06 4.06 0 0 0-2.63-2.32 31.3 31.3 0 0 1-9.33-5.3l-.31-.26c-.1-.19-.2-.37-.46-.31 0-.19-.06-.28-.26-.24 0-.2-.05-.28-.25-.25z" fill="#fff"/><path d="M216.35 80.12c.23.27.6.18 1.11.38-1 1.05-2 2.05-3 3a1.29 1.29 0 0 0-.37 1.73c2.12 5.06.51 10.78-3.74 13.5a6.34 6.34 0 0 1-.73.41c-2 .94-2 .92-2.89-1.08-1.7-3.66-4-6.83-7.71-8.7-.16-.08-.28-.27-.42-.41a11.54 11.54 0 0 1 2.72-4.16 16.93 16.93 0 0 1 15.03-4.67zM146.5 89a18.37 18.37 0 0 0-8.58 10.05c-.27.7-.64.75-1.29.53-3.69-1.3-5.6-4-6.39-7.72a11 11 0 0 1 .77-6.78 1.18 1.18 0 0 0-.3-1.57c-.79-.73-1.51-1.54-2.3-2.27-.59-.54-.67-.89.2-1.12a17.05 17.05 0 0 1 5.81 0c5.46 1 9.79 3.57 12.08 8.88z" fill="#fbb826"/><path d="M216.35 80.12a16.93 16.93 0 0 0-15 4.66 11.54 11.54 0 0 0-2.72 4.16 3.18 3.18 0 0 1-1.37-.34c-1.93-.57-1.94-.58-1.14-2.49a11.59 11.59 0 0 1 6.53-6.3 17 17 0 0 1 13.56-.06.87.87 0 0 1 .27.19s-.09.12-.13.18zM146.5 89c-2.3-5.31-6.62-7.89-12.08-8.92a17.05 17.05 0 0 0-5.81 0c-.24-.3.07-.31.21-.38 5.88-2.55 13.9-1.59 18.32 3.41a10.43 10.43 0 0 1 2.2 3.93c.24.79.05 1.2-.77 1.36s-1.38.42-2.07.6z" fill="#27221f"/><path d="M198.85 167.19c.2-.24.34-.57.75-.49a.64.64 0 0 1-.75.49zm-56.85-.74c.26-.06.36.12.46.31a.42.42 0 0 1-.46-.31zm.45.29l.31.26z" fill="#fbb826"/><path d="M141.77 166.22c.2 0 .28.05.26.24a.25.25 0 0 1-.26-.24z" fill="#fbb826"/><path d="M141.53 166c.2 0 .28 0 .25.25-.16-.03-.26-.09-.25-.25zM185 234.52c0 3.38-.43 6.29-2 8.92-2.67 4.6-8 4.68-10.81.13a17 17 0 0 1-2.06-10 16 16 0 0 1 1.85-7.11c1.23-2.19 3-3.7 5.6-3.7s4.37 1.54 5.56 3.75a16.76 16.76 0 0 1 1.86 8.01z" fill="#fbb826"/><path d="M184.18 129.06a22.46 22.46 0 0 1-5.06 13.3 29.85 29.85 0 0 1-5.64 5.19 23.6 23.6 0 0 0 7.22 2.53 29.07 29.07 0 0 0 12.7-.43c1-.25 1.07-.6.42-1.29-.43-.45-.7-1-.09-1.43s1 0 1.41.44a5.36 5.36 0 0 1 .65 5.32c-.26.51-.61.76-1.14.54s-.54-.65-.36-1.11a3.31 3.31 0 0 0 .24-1.92c-1.73.7-3.42 1.45-5.15 2.08a19.13 19.13 0 0 1-5.82 1.28c-.77 0-1 .4-1.28 1.08-1.65 4.48-4.42 7.91-9.3 9-4.62 1-8.27-.85-11.17-4.39a14.69 14.69 0 0 1-2.57-4.83c-.12-.37-.19-.72-.75-.75a27.48 27.48 0 0 1-10.46-3.17 2.38 2.38 0 0 0-.46-.12 2.83 2.83 0 0 0 .28 1.78.77.77 0 0 1-.37 1.11c-.53.25-.9 0-1.16-.51a5.5 5.5 0 0 1 .8-5.52c.37-.38.8-.62 1.26-.26s.36.86 0 1.35c-.81 1.08-.79 1.09.59 1.44A27.92 27.92 0 0 0 167.7 148c.18-.08.36-.17.54-.26s.09-.1.16-.19A24.15 24.15 0 0 1 158.28 129c.07-.54.56-.52.9-.63a38.31 38.31 0 0 1 24 .17 1.92 1.92 0 0 1 1 .52zM178.63 157c.17-.22.32-.4.46-.59a13.8 13.8 0 0 0 1.83-3.75c.18-.59.06-.72-.54-.8a27.36 27.36 0 0 1-8.68-2.51 1.37 1.37 0 0 0-1.35 0 28.85 28.85 0 0 1-6.9 2.26c-.92.2-2.36-.25-2.63.83s.54 2 1.1 3c.1.17.21.34.31.51.29.52.56.46 1 .1 4.8-3.79 10.07-3.62 14.64.43.22.07.44.23.76.52zM193 117.73a27.76 27.76 0 0 1-2.2 10.43c-.3.71-.54.76-1.18.39a37.9 37.9 0 0 0-14.93-4.82c-.88-.1-1.22-.33-1.05-1.32a25.09 25.09 0 0 1 5.63-12.76 11.44 11.44 0 0 1 3.45-2.74 5.93 5.93 0 0 1 8.21 2.27 15.8 15.8 0 0 1 2.07 8.55zm-2.73 0a12.9 12.9 0 0 0-.69-4.59c-1.53-4.23-5.14-5.12-8.42-2.07-2.91 2.71-4.19 6.22-4.84 10-.12.68.21.9.76.85s1.38.67 1.63-.5a9.77 9.77 0 0 1 2.88-5.4c2.25-2 4.6-1.36 5.52 1.52a7.22 7.22 0 0 1 .27 1.16 11.86 11.86 0 0 1-.52 5.43c-.37 1.15.74 1 1.2 1.35s.59-.3.71-.59a18.85 18.85 0 0 0 1.51-7.14zM149.3 117a16 16 0 0 1 1.63-7.05c2-3.93 5.82-4.91 9.54-2.48a13.8 13.8 0 0 1 3.52 3.39 25.72 25.72 0 0 1 4.67 11.77c.1.65 0 1-.76 1.1a38.34 38.34 0 0 0-15.46 5c-.51.3-.66.11-.85-.33a27.34 27.34 0 0 1-2.29-11.4zm2.74.6a18.11 18.11 0 0 0 1.37 7.12c.14.36.14 1.33.85.83s2.11-.22 1.66-1.74a10.71 10.71 0 0 1-.22-5.9 3.21 3.21 0 0 1 5.83-1.58 9.53 9.53 0 0 1 2.57 4.9c.17.84.55.93 1.31.79s.57-.71.5-1.16a15.3 15.3 0 0 0-.42-2c-.94-3.28-2.32-6.3-5.16-8.38s-5.71-1.32-7.24 1.78a11.14 11.14 0 0 0-1.09 5.31z" fill="#27221f"/><path d="M178.63 157c-.31-.24-.54-.4-.74-.58-4.58-4-9.84-4.21-14.64-.43-.46.36-.72.43-1-.1-.1-.17-.21-.34-.31-.51-.56-.93-1.34-2-1.1-3s1.71-.63 2.63-.83a28.85 28.85 0 0 0 6.9-2.26 1.37 1.37 0 0 1 1.35 0 27.36 27.36 0 0 0 8.68 2.51c.6.08.72.21.54.8a13.8 13.8 0 0 1-1.83 3.75c-.11.2-.31.38-.48.65z" fill="#8b5f3d"/><path d="M190.28 117.75a18.85 18.85 0 0 1-1.5 7.21c-.12.29-.15 1-.71.59s-1.57-.21-1.2-1.35a11.86 11.86 0 0 0 .52-5.43 7.22 7.22 0 0 0-.27-1.16c-.93-2.89-3.27-3.56-5.52-1.52a9.77 9.77 0 0 0-2.88 5.4c-.25 1.17-1.06.45-1.63.5s-.88-.17-.76-.85c.65-3.81 1.93-7.32 4.84-10 3.28-3.06 6.89-2.16 8.42 2.07a12.9 12.9 0 0 1 .69 4.54zm-38.28-.18a11.14 11.14 0 0 1 1.06-5.33c1.52-3.1 4.44-3.84 7.24-1.78s4.23 5.11 5.16 8.38a15.3 15.3 0 0 1 .42 2c.07.45.38 1-.5 1.16s-1.14 0-1.31-.79a9.53 9.53 0 0 0-2.57-4.9 3.21 3.21 0 0 0-5.83 1.58 10.71 10.71 0 0 0 .22 5.9c.45 1.52-1 1.31-1.66 1.74s-.71-.47-.85-.83a18.11 18.11 0 0 1-1.38-7.13z" fill="#fff"/></svg>