<svg xmlns="http://www.w3.org/2000/svg" viewBox="0 0 267.22 267.22"><title>tiger</title><path d="M185.48 231.91h.13c.59 1.75 1.18 3.5 1.78 5.25.12.35.1.95.68.77a1.37 1.37 0 0 0 .71-.78c.7-1.85 1.36-3.72 2.07-5.72l.35 6.5h1.11l-.51-8c-1.39-.07-1.4-.07-1.82 1.08-.61 1.66-1.2 3.33-1.82 5.07l-1.77-5.07c-.43-1.23-.43-1.24-1.81-1l-.54 8 1.06-.05zm-5.57-1v7.06h1.14v-7.08h2.34V230h-5.9v.9z" fill="#fff"/><path d="M267.22 133.7c-.73.71-1.48 1.41-2.2 2.13L134.27 266.57c-.2.2-.39.43-.58.65h-.17l-19-19.06-114-114-.52-.46v-.17c1.06-1 2.13-2.06 3.18-3.11L130.4 3.19c1.05-1.05 2.08-2.12 3.12-3.19h.17c.19.22.37.44.58.65l132.24 132.23c.22.22.47.43.71.64zM133.61 262.08c.28-.26.52-.47.74-.69q63.54-63.53 127.09-127.06c.57-.57.57-.88 0-1.45Q197.88 69.37 134.35 5.82c-.22-.22-.46-.43-.74-.69-.28.26-.52.47-.74.69q-63.51 63.5-127 127c-.63.63-.63.95 0 1.57q63.53 63.48 127 127c.22.22.46.43.74.69z" fill="#f68d2d"/><path d="M185.48 231.91l-.37 6-1.11.09.54-8c1.38-.2 1.38-.2 1.81 1l1.77 5.07c.62-1.74 1.22-3.41 1.82-5.07.42-1.16.43-1.15 1.82-1.08l.51 8h-1.07l-.35-6.5c-.72 2-1.37 3.87-2.07 5.72a1.37 1.37 0 0 1-.71.78c-.58.17-.56-.42-.68-.77-.6-1.75-1.19-3.5-1.78-5.25zm-5.56-1.04h-2.43V230h5.9v.88h-2.34v7.08h-1.14z" fill="#120f0d"/><path d="M133.61 262.08c-.28-.26-.52-.47-.74-.69q-63.51-63.5-127-127c-.63-.63-.64-.94 0-1.57q63.53-63.48 127-127c.22-.22.46-.43.74-.69.28.26.52.47.74.69q63.54 63.54 127.09 127.06c.57.57.57.87 0 1.45q-63.56 63.52-127.09 127.06c-.22.22-.46.43-.74.69zm0-242.42c-.28.26-.52.46-.74.68l-11.2 11.2Q71 82.18 20.38 132.81c-.6.6-.7.91 0 1.57q56.29 56.24 112.54 112.53c.57.57.87.58 1.45 0q56.23-56.31 112.55-112.59c.59-.59.53-.9 0-1.45Q190.61 76.63 134.35 20.36c-.22-.23-.45-.43-.74-.7z" fill="#ffe500"/><path d="M133.61 19.66c.28.27.52.47.74.7q56.27 56.26 112.55 112.52c.55.55.62.85 0 1.45q-56.3 56.26-112.57 112.58c-.58.58-.88.56-1.45 0Q76.64 190.62 20.35 134.38c-.66-.66-.56-1 0-1.57Q71 82.19 121.67 31.54l11.2-11.2c.22-.22.46-.42.74-.68zm-38.49 70c-.83 1-1.53 1.85-2.16 2.71a25.85 25.85 0 0 0-2.62 3.79c-2.17 4.47-4 9.12-6.59 13.37a5.3 5.3 0 0 0-.75 3.7l2.17-.26c-1 3.31-3.19 6.18-2.73 9.74l3.49-2.58v1.49c-.37 3.79-.76 7.59-1.12 11.38a6.12 6.12 0 0 0 .44 3.57l2.12-2a8.82 8.82 0 0 1 .86 4.11 13.23 13.23 0 0 0 1.83 6 1.87 1.87 0 0 0 2.07 1.13 2.34 2.34 0 0 1 2.66 1.22 51.07 51.07 0 0 1 2.53 5c.62 1.45 1 3 1.52 4.6 1.32-.79 1.62-2.15 2.19-3.3a14.94 14.94 0 0 0 4.65 4.77c1.09.65 2.21 1.26 3.41 1.94a7.47 7.47 0 0 1 5.08-3.64 11.82 11.82 0 0 1 6.35.57l-1.66 2.65c2.42-.72 4.59-.92 6.64.5-.8.77-.8 1 0 1.3 1.91.8 3.82 1.58 6.09.92l-.42 1.48.17.19 3.09-1.74 2.62 1.43.11-1.21c2.25.61 4-.85 6-1.25l-1.08-.94a17.7 17.7 0 0 1 3.49-1.15 16.52 16.52 0 0 1 3.56.35l-1.71-2.66c1.57-.27 3.06-.6 4.57-.76a4 4 0 0 1 4.26 2.09c.59 1 1.37 1.94 2.13 3 1-3 4-4.4 5.36-7 1.5.42 1.69 1.78 2.24 3a8.9 8.9 0 0 0 1-.75c1.86-1.85 3.7-3.71 5.55-5.56 1.25-1.25 2.55-2.47 3-4.37l.79 2a18.11 18.11 0 0 0 2.86-9.71l.21-.06 1.13 1.65c1.59-1.92 1.82-4.23 2.12-6.5a21.39 21.39 0 0 0 0-7l1.62 1.45a4.89 4.89 0 0 0 .51-4.2c-.95-3.14-2-6.23-3.1-9.33-.22-.67-.48-1.32-.79-2.19 1.24.66 2.06 1.63 3.57 1.55l-3.58-7.79 1.66.24.23-.27c-.73-1.86-1.38-3.74-2.2-5.56a33.53 33.53 0 0 0-6.18-9 18.07 18.07 0 0 1-1.36-1.9c1.48-.34 2-.73 2.33-2.06a9.89 9.89 0 0 1 2.69-5c2.1-2.14 2.53-5 2.49-7.95-.05-4-2-6.84-5.27-8.89a6.63 6.63 0 0 0-4.8-.79 21.11 21.11 0 0 0-9.84 4.62 11.63 11.63 0 0 1-3.37 1.91c-1.5.54-3-.18-4.39-.68a55 55 0 0 0-18.44-3.42 67.66 67.66 0 0 0-9.48.68 36.59 36.59 0 0 0-11 3 4.69 4.69 0 0 1-4.9-.3 17 17 0 0 1-1.68-1.25 20.7 20.7 0 0 0-8.13-4.25c-3.93-1.07-6.63-.15-9.2 3a11.12 11.12 0 0 0-2.44 8.32 9.81 9.81 0 0 0 3.54 7.15 3.79 3.79 0 0 1 .87 1.43 14.22 14.22 0 0 1 .53 1.93 2.61 2.61 0 0 0 2.59 2.38zM138.06 224c2.38 1.44 4.22 1.7 5.67.67a3.05 3.05 0 0 0 1.25-3.08 5.11 5.11 0 0 0-2.78-3.7c-.28 1.91-.62 2.41-1.65 2.49a1.46 1.46 0 0 1-1.75-1.19l.26-.21a1.77 1.77 0 0 0 .16-3 .68.68 0 0 1-.24-.5c.37-1.52.83-3 2.31-3.84a3 3 0 0 1 4.5 2.17v2.74a8 8 0 0 0 .81-.35c3-1.75 4.71-4.16 4.62-7.8-.08-3.1-2.61-6.83-6.61-6.53a30.93 30.93 0 0 0-3.61.7.91.91 0 0 1-.11-.19 40.56 40.56 0 0 0-1.87-4.66c-1.47-2.68-3.58-5-4.58-8.15-1 2.89-2.76 5.09-4.2 7.51a38.13 38.13 0 0 0-2 4.34 8.63 8.63 0 0 0-.35 1.4 7 7 0 0 0-8 .67c-2.82 2.65-2.82 8.07 0 10.83a10.33 10.33 0 0 0 3.16 2.18v-2.09a3.05 3.05 0 0 1 2.17-3.05 3.1 3.1 0 0 1 3.48 1.21 17.63 17.63 0 0 1 1.17 2.51.76.76 0 0 1-.33 1.09 1.83 1.83 0 0 0-.55 1.11c-.18 1 .51 1.53 1.21 2-.46 1-.89 1.24-1.8 1.16-1.51-.13-1.53-1.32-1.63-2.44-2.14 1.13-3.48 3.35-2.55 5.41a3.41 3.41 0 0 0 1.53 1.56c1.88.88 3.62.25 5.11-.89 1.06 1.26 2.06 2.42 3 3.61.43.52.76.51 1.18 0 1.01-1.31 2.02-2.51 3.02-3.69zM128 178.17h3.77c-.5 2.38-1.88 3.64-4 3.69a4.19 4.19 0 0 1-4.48-3.46 14.3 14.3 0 0 1-.1-4.15 6.91 6.91 0 0 1 1.08-2.89c1.72-2.62 6.29-2.06 7 .77a.71.71 0 0 0 .53.4h3.23a22.89 22.89 0 0 0-.91-2.46c-2.3-4.53-10.14-4.83-13.06-.25a11.16 11.16 0 0 0-.9 10.54c2 5.13 7.83 6.24 11.84 2.42 0 0 .15 0 .24-.05l.31 1.81h2.3v-9.35H128zm36.39-1.89c.1-.11.15-.19.22-.23 1.79-.88 2.46-3.32 2-5.42a4.37 4.37 0 0 0-4.16-3.51c-2.94-.12-5.88-.09-8.82-.12-.07 0-.15.07-.2.09v17.45h3.46v-6.77h2.66c2.78 0 3.11.36 3.15 3.18 0 1.2.16 2.41.25 3.62h4.07c0-.2-.05-.36-.1-.52a15.38 15.38 0 0 1-.59-2 18.86 18.86 0 0 1 0-2.09c-.16-1.51-.41-2.96-1.98-3.67zm-13.85 5.1h-9.1V177h8v-3.2h-7.94v-3.6h8.66v-3.14h-12.25v17.49h12.59zm-47.38-11.17v14.36h3.64v-14.4h5V167H98.23v3.19zm10.31-3.21v17.53h3.41V167z" fill="#f68d2d"/><path d="M95.12 89.7a2.61 2.61 0 0 1-2.58-2.38 14.22 14.22 0 0 0-.54-1.93 3.79 3.79 0 0 0-.93-1.54 9.81 9.81 0 0 1-3.54-7.15A11.12 11.12 0 0 1 90 68.38c2.57-3.16 5.27-4.08 9.2-3a20.7 20.7 0 0 1 8.13 4.25 17 17 0 0 0 1.67 1.24 4.69 4.69 0 0 0 4.9.3 36.59 36.59 0 0 1 11-3 67.66 67.66 0 0 1 9.48-.68 55 55 0 0 1 18.44 3.42c1.41.5 2.89 1.22 4.39.68a11.63 11.63 0 0 0 3.37-1.91 21.11 21.11 0 0 1 9.78-4.68 6.63 6.63 0 0 1 4.8.79c3.27 2.05 5.21 4.9 5.27 8.89 0 2.94-.39 5.81-2.49 7.95a9.89 9.89 0 0 0-2.69 5c-.3 1.33-.85 1.73-2.33 2.06a18.07 18.07 0 0 0 1.36 1.9 33.53 33.53 0 0 1 6.18 9c.82 1.81 1.47 3.7 2.2 5.56l-.23.27-1.66-.24 3.58 7.79c-1.51.08-2.33-.89-3.57-1.55.32.87.57 1.52.79 2.19 1 3.11 2.15 6.2 3.1 9.33a4.89 4.89 0 0 1-.51 4.2l-1.62-1.45a21.39 21.39 0 0 1 0 7c-.3 2.27-.53 4.58-2.12 6.5l-1.13-1.65-.21.06a18.11 18.11 0 0 1-2.86 9.71l-.79-2c-.43 1.9-1.72 3.12-3 4.37-1.85 1.85-3.69 3.72-5.55 5.56a8.9 8.9 0 0 1-1 .75c-.55-1.17-.74-2.53-2.24-3-1.36 2.62-4.34 4-5.36 7-.76-1.06-1.54-2-2.13-3a4 4 0 0 0-4.26-2.09c-1.51.16-3 .49-4.57.76l1.71 2.66a16.52 16.52 0 0 0-3.56-.35 17.7 17.7 0 0 0-3.49 1.15l1.08.94c-2 .4-3.75 1.86-6 1.25l-.11 1.21-2.62-1.43-3.08 1.91-.17-.19.42-1.48c-2.27.66-4.18-.11-6.09-.92-.76-.32-.75-.53 0-1.3-2.05-1.42-4.22-1.22-6.64-.5l1.66-2.65a11.82 11.82 0 0 0-6.35-.57 7.47 7.47 0 0 0-5.08 3.64c-1.2-.68-2.31-1.3-3.41-1.94a14.94 14.94 0 0 1-4.65-4.77c-.58 1.16-.87 2.51-2.19 3.3-.51-1.59-.9-3.14-1.52-4.6a51.07 51.07 0 0 0-2.53-5 2.34 2.34 0 0 0-2.66-1.22 1.87 1.87 0 0 1-2.04-1.04 13.23 13.23 0 0 1-1.83-6 8.82 8.82 0 0 0-.86-4.11l-2.12 2a6.12 6.12 0 0 1-.44-3.57c.36-3.8.75-7.59 1.12-11.38v-1.49l-3.49 2.58c-.46-3.56 1.71-6.43 2.73-9.74l-2.17.26a5.3 5.3 0 0 1 .75-3.7c2.62-4.25 4.42-8.9 6.59-13.37A25.85 25.85 0 0 1 93 92.41c.59-.85 1.29-1.67 2.12-2.71zM161 76.3l-1.41.1c1.9-1.62 2.54-3.89 3.59-6.12a17.17 17.17 0 0 0-4.48 4.63 12.57 12.57 0 0 1-1.35 1.46l-.24-.15.11-2.05-4.25.58.92-1.24-.14-.28h-4.15V73l.93-.42c-2.63-.81-5.06-1.57-7.5-2.3s-4.71.16-7 1.19a2.94 2.94 0 0 0 2.89 2c1.88.18 3.78.21 5.67.23a10.52 10.52 0 0 1 4.63 1.08 15 15 0 0 1 1.85 1.28l-.13.3h-2.17l-.06.22c.85.53 1.74 1 2.55 1.61 1.06.76 2.09 1.57 3.08 2.41a1.44 1.44 0 0 1 .42 1.72 25.78 25.78 0 0 0-10.84-6.23 2.54 2.54 0 0 0-2.79.62c-1.3 1.37-2.3 1.15-3.58.14a3.41 3.41 0 0 0-.44-.29 1.25 1.25 0 0 0-1.78.27 2.09 2.09 0 0 0-.17 2.4c.48.47 1 .95 1.4 1.44 1.37 1.5 1.37 1.5 2.2-.17l6.74 1c2.14.34 4.16.91 5.31 3v.88a16.12 16.12 0 0 1-2.48-.86 5.61 5.61 0 0 0-4.93-.1 3.31 3.31 0 0 1-3.76-1.08c-.7-.79-1.57-.65-2.5-.35-1.86.61-2.45.24-2.94-1.66l-.1-.34c-.62 2.34-1 2.59-3.27 1.91a2.19 2.19 0 0 0-2.46.6 3.09 3.09 0 0 1-2.53 1.15 7.61 7.61 0 0 0-5.49.08c-1.07.4-2.18.72-3.29 1-.42.12-.91.19-.89-.52a9.17 9.17 0 0 1 1.31-1.11 38.47 38.47 0 0 1 11.29-4c.21 0 .57.23.75.45s.27.65.48.91.56.43.94 0c.55-.59 1.18-1.1 1.76-1.67.2-.19.52-.48.47-.65a3.82 3.82 0 0 0-1.52-2.73 2.11 2.11 0 0 0-2.5.39 3.05 3.05 0 0 1-2.56.48 6 6 0 0 0-2.49-.15 23.73 23.73 0 0 0-7.83 3.08 6.54 6.54 0 0 1-2 .92 6.29 6.29 0 0 1-1.82-.12 6.48 6.48 0 0 1 3.28-2.74c1.06-.47 2.07-1.08 3.1-1.62l-.13-.28-4 .71-.13-.28A10.51 10.51 0 0 1 122 74a31.7 31.7 0 0 0 8.35-1.61c.67-.23 1.32-.53 2.16-.87a6.66 6.66 0 0 0-4.15-1.65 33 33 0 0 0-5.88.64 54.29 54.29 0 0 0-7.13 2c-1.93.68-3.59 1.83-3.74 4.23 0 .19-.48.51-.73.5a1 1 0 0 1-1-1.16 3.13 3.13 0 0 0-1.64-3L108 73l.08.19.44 1.54-.2.12-5-5.19c1 2.36 1.77 4.8 3.53 6.7-1.94 0-2.85-1.14-3.55-2.86a14.3 14.3 0 0 0-2.82-4.73c-2.8-2.78-6.15-3-9 .21a10.35 10.35 0 0 0-2.44 5.77c-.24 2-.1 4 1.59 5.36a8.69 8.69 0 0 1 3.14 5.62c.29 1.86 1.48 2.66 3.4 2.67l1.34.32A4.5 4.5 0 0 1 96.42 91c-1 .63-2 1.2-2.94 1.87a2.82 2.82 0 0 0-1.25 2.31l3-.77.13.31c-1.57 1.93-4.27 2.8-5.32 5.5 1.31-.51 2.18-1.65 3.63-1.44l-4 5.17.21.2 2-1a1.88 1.88 0 0 1-.54 1c-.93.92-1.94 1.78-2.79 2.76a15.27 15.27 0 0 0-1.38 2.29l.29-.17.73-.1a20.42 20.42 0 0 1 2.49-.29c.84 0 1.08.5.63 1.23a7 7 0 0 1-1.05 1.27c-.89.88-1.85 1.69-2.71 2.6a4.93 4.93 0 0 0-1.47 3.61l3-1.14-1.35 7.24.23.08 2.36-2a4.75 4.75 0 0 1-1.26 3.08 7.57 7.57 0 0 0-1.46 6.17l1-1.15a7.63 7.63 0 0 1 .79 1.7c.25 1.42.41 2.86.54 4.31a12.89 12.89 0 0 0 1 5c.58-.52 1.09-.95 1.57-1.41s1-1 1.48-1.52l.25.08a16.09 16.09 0 0 0 3.73 8.88l.49-1.92a5.8 5.8 0 0 1 .7 1c.35.92.66 1.85 1 2.79a4.43 4.43 0 0 0 2.11 2.83l.38-2.23c2.67 1.68 3.59 4.79 5.93 6.66l1.11-2.69a11.2 11.2 0 0 0 2.52.71c1.56.05 3.13-.11 4.69-.17a2.58 2.58 0 0 0 2.2-1.73 1.87 1.87 0 0 0-.51-2.22 4.72 4.72 0 0 0-.85-.75 11.92 11.92 0 0 0-7.88-2 2.29 2.29 0 0 0-2.27 1.79c-.45-1.69.21-3.63-1.67-5l-.51 2.19h-.25l-1.15-4.25c-.14.28-.38.69-.56 1.12a15.61 15.61 0 0 1-.61 1.62 1.11 1.11 0 0 1-.82.48c-.19 0-.49-.39-.55-.64a12.5 12.5 0 0 1-.23-1.81c-.14-1.64-.26-1.72-1.75-1.17 0 0-.1 0-.26-.05a12.51 12.51 0 0 1 .51-1.28 12.79 12.79 0 0 1 .78-1.17c-1.24-.13-1.8.84-2.89 1.53l.33-3.53-2.42 1.22c.57-1.47 1.11-2.71 1.54-4 .36-1.09.1-1.34-1.06-1.2-.37 0-.73.18-1.1.25s-.52.07-.78.11l-.15-.32a6 6 0 0 1 1.57-1.06c2.12-.59 4.16-.44 5.64 1.41a11.34 11.34 0 0 0 7.26 3.95 4.6 4.6 0 0 1 3.61 2.5 5.3 5.3 0 0 0 3.56 2.74 13.36 13.36 0 0 0 2.67.37c1.67.06 3.35 0 5.27 0a3.53 3.53 0 0 1-3.36 1.2c-1.2-.06-2.4-.23-3.94-.39a15.22 15.22 0 0 0 1.56 2.44 7 7 0 0 0 6.17 1.89 14.65 14.65 0 0 0 7.5-2.79 4.15 4.15 0 0 0 1.88-3.72 4.71 4.71 0 0 0-1.83-3.15 14.31 14.31 0 0 1-2.28-2.59 4.4 4.4 0 0 0-3.14-2.22 3 3 0 0 1-2.81-2.87c0-.37-.09-.75-.13-1.12a3.76 3.76 0 0 1 1.08-2.4c.06.55.12 1 .15 1.47.11 1.28.69 1.7 1.77 1.05a6.85 6.85 0 0 1 5.54-.57 9.75 9.75 0 0 0 5.43-.06 5.08 5.08 0 0 1 4.3.33 3.21 3.21 0 0 0 .81.32 1 1 0 0 0 1.42-1c.07-.5.12-1 .19-1.65a4.1 4.1 0 0 1 1.05 3 3.46 3.46 0 0 1-3 3.53 2.87 2.87 0 0 0-1 .34 5.23 5.23 0 0 0-1.74 1.35 13.54 13.54 0 0 1-3.29 3.67 3.7 3.7 0 0 0 0 5.67 13.88 13.88 0 0 0 10.27 3.52 8.43 8.43 0 0 0 5.12-2.4 2 2 0 0 0 .76-1.93c-1.2.11-2.34.26-3.49.32a3.49 3.49 0 0 1-3.21-1.11l2.91-.27a12.57 12.57 0 0 0 8.69-4.07 9.49 9.49 0 0 1 5.31-3.13 9 9 0 0 0 6.5-4.25 8 8 0 0 1 1.36-1.39c1.07 2.61.48 4.85-.64 7.11l-.49-1.17-3.23 5.74-.32-.78-4.43 6.87-1.22-2.74-3.92 5.48c-.1-.35-.14-.51-.19-.67-.19-.62-.16-1.57-.94-1.57-.5 0-1.11.66-1.47 1.16-1 1.38-1.85 2.84-2.78 4.29 2.9 0 6.09-.69 7.92 2.8 2.52-2.51 4.73-5 5.57-8.36l1.8 2.83h.31l.86-3.76 1.83 1.75c1.49-2.25 1.52-4.59 1.28-7.22l2.36 4.27c1.51-2 1.12-4.35 1.73-6.76L176 141c1.31-2.51 1.11-5.27 1.33-8.19l1.63 2.48h.24a13.79 13.79 0 0 0 .09-2.72c-.27-1.73-.73-3.43-1.11-5.14l.22-.2 1.92 1.58c.28-4.29-1.24-8-3.39-11.47l.34-.28 3 1.86a10.18 10.18 0 0 0-1.28-4.86c-.65-1.42-1.29-2.85-1.89-4.29-.08-.18.14-.49.22-.73l3.59 1c-.8-3-3.42-4.51-4.88-6.9l2 1 .19-.22-4-5.18c1.47-.22 2.33 1 3.62 1.4-1-2.65-3.75-3.51-5.29-5.47l.14-.3 3 .81a3.72 3.72 0 0 0-1.78-2.66c-1-.75-2.16-1.37-3.18-2.14a15.18 15.18 0 0 1-1.63-1.67l1.45-.32a4.18 4.18 0 0 0 .68-.1c1.42-.45 2.26-1.19 1.89-2.7a3.52 3.52 0 0 1 1-3.12c1-1.12 2-2.21 3-3.3a6.28 6.28 0 0 0 1.35-6.86c-1.06-2.89-2.85-5.14-6.08-5.6a7.27 7.27 0 0 0-7.61 3.69 18.13 18.13 0 0 0-1.51 3.21 3.89 3.89 0 0 1-2.07 2.55zm-37 77.3h.92c1.71 0 3.42.18 4.65 1.57 2.06 2.32 6.75 2.29 8.9 0a5.51 5.51 0 0 1 2.57-1.3 17 17 0 0 1 3-.3c-.13-1-.23-2.06-.4-3.07a1.65 1.65 0 0 0-1.35-1.51c-1.19-.25-2.35-.64-3.54-.86a7 7 0 0 0-2.57-.13 8.65 8.65 0 0 1-4.38-.19 5.64 5.64 0 0 0-2.72-.16 25.64 25.64 0 0 0-3.58 1.32c.33 1.75-.5 3.14-1.5 4.62zm10-16.54c.38 1.15.62 1.25 1.86.62l.38-.22c.53-.3.59-.63.3-1.21a3 3 0 0 1-.33-1.8 4.09 4.09 0 0 1 4.56-2.93 2.28 2.28 0 0 0 .86.06 1.27 1.27 0 0 0 .77-.44c.08-.13-.12-.55-.31-.72a3.8 3.8 0 0 0-3.91-1 10 10 0 0 1-5.74.48 19.19 19.19 0 0 0-3.52-.56 3.74 3.74 0 0 0-3.5 2 6.86 6.86 0 0 0 1.62.19 4.13 4.13 0 0 1 4.49 2.12 2.31 2.31 0 0 1 0 2.63c-.13.2-.27.65-.21.68a9 9 0 0 0 1.93 1c.19.04.57-.62.75-.9z" fill="#120f0d"/><path d="M138.06 224c-1 1.22-2 2.42-3 3.64-.41.51-.75.52-1.18 0-1-1.19-2-2.36-3-3.61-1.49 1.13-3.22 1.77-5.11.89a3.41 3.41 0 0 1-1.53-1.56c-.93-2.06.41-4.28 2.55-5.41.1 1.12.12 2.31 1.63 2.44.91.08 1.33-.19 1.8-1.16-.7-.45-1.39-1-1.21-2a1.83 1.83 0 0 1 .55-1.11.76.76 0 0 0 .33-1.09 17.63 17.63 0 0 0-1.17-2.51 3.1 3.1 0 0 0-3.48-1.21 3.05 3.05 0 0 0-2.17 3.05v2.09a10.33 10.33 0 0 1-3.16-2.18c-2.84-2.76-2.84-8.17 0-10.83a7 7 0 0 1 8-.67 8.63 8.63 0 0 1 .35-1.4 38.13 38.13 0 0 1 2-4.34c1.44-2.42 3.25-4.62 4.2-7.51 1 3.15 3.11 5.47 4.58 8.15a40.56 40.56 0 0 1 1.87 4.66.91.91 0 0 0 .11.19 30.93 30.93 0 0 1 3.61-.7c4-.31 6.53 3.42 6.61 6.53.09 3.64-1.66 6-4.62 7.8a8 8 0 0 1-.81.35v-2.74a3 3 0 0 0-4.5-2.17c-1.48.85-1.94 2.33-2.31 3.84a.68.68 0 0 0 .24.5 1.77 1.77 0 0 1-.16 3l-.26.21a1.46 1.46 0 0 0 1.75 1.19c1-.08 1.37-.58 1.65-2.49a5.11 5.11 0 0 1 2.78 3.7 3.05 3.05 0 0 1-1.25 3.08c-1.46 1.03-3.3.78-5.69-.62z" fill="#ffe500"/><path d="M128 178.17v-3h6.9v9.35h-2.3l-.31-1.81c-.09 0-.19 0-.24.05-4 3.82-9.81 2.71-11.84-2.42a11.16 11.16 0 0 1 .9-10.54c2.92-4.58 10.76-4.28 13.06.25a22.89 22.89 0 0 1 .91 2.46h-3.23a.71.71 0 0 1-.53-.4c-.72-2.83-5.3-3.39-7-.77a6.91 6.91 0 0 0-1.08 2.89 14.3 14.3 0 0 0 .1 4.15 4.19 4.19 0 0 0 4.48 3.46c2.08 0 3.45-1.3 4-3.69zm36.35-1.88c1.57.76 1.82 2.17 1.88 3.67a18.86 18.86 0 0 0 0 2.09 15.38 15.38 0 0 0 .59 2c0 .16.06.32.1.52h-4.07c-.09-1.22-.23-2.42-.25-3.62 0-2.82-.37-3.18-3.15-3.18h-2.66v6.77h-3.46V167.1c.05 0 .13-.1.2-.09 2.94 0 5.88 0 8.82.12a4.37 4.37 0 0 1 4.16 3.51c.51 2.1-.17 4.54-2 5.42-.01.03-.06.12-.16.23zm-7.53-1.63c1.64 0 3.21.08 4.76 0 1-.07 1.51-.88 1.51-2.09s-.52-2.19-1.57-2.26c-1.55-.1-3.11 0-4.71 0zm-6.32 6.73v3.16h-12.59v-17.49h12.16v3.14h-8.66v3.56h7.94V177h-8v4.43zm-47.37-11.17h-4.9V167h13.5v3.15h-5v14.4h-3.64zm10.34-3.22h3.41v17.53h-3.41z" fill="#120f0d"/><path d="M170.55 88.39l-1.45.32a15.18 15.18 0 0 0 1.63 1.67c1 .77 2.15 1.39 3.18 2.14a3.72 3.72 0 0 1 1.78 2.66l-3-.81-.14.3c1.54 2 4.27 2.82 5.29 5.47-1.29-.43-2.16-1.62-3.62-1.4l4 5.18-.19.22-2-1c1.46 2.39 4.08 3.91 4.88 6.9l-3.59-1a7.52 7.52 0 0 0-4.15-4l1.35-.25a12.73 12.73 0 0 0-.8-1.3c-.43-.54-.92-1-1.39-1.55l.14-.16 1.95 1.19a5.73 5.73 0 0 0-1.73-3.48c-1.54-1.57-3.15-3.07-4.75-4.58a2.86 2.86 0 0 0-.81-.38l-.15-.16c-.68-.58-1.18-1.48-2.4-1.41l1.83 3.86c.05 2 .2 4.08.14 6.11a9.7 9.7 0 0 1-2.92 7.16c-1-1.06-1.22-1-1.92.25A5.27 5.27 0 0 1 160 112a28.1 28.1 0 0 1-2.56 1.26 2.51 2.51 0 0 0-1.59 2c-1.91 1.21-3.63 2.58-4.2 5l-.9-.8.62 3.52-.23.1-2.27-2a6 6 0 0 0 1.64 3.49c.87.94 1.8 1.83 2.63 2.8a4.06 4.06 0 0 1 1.22 3.74 4.07 4.07 0 0 1-3 1.71 8.47 8.47 0 0 0-4.6 1.84 3.91 3.91 0 0 0-.56.9l-1 .08a17 17 0 0 0 .45-2.17c.09-1.22.37-2.52-.78-3.47a4.1 4.1 0 0 0-1.05-3c-.07.64-.12 1.14-.19 1.65a1 1 0 0 1-1.42 1 3.21 3.21 0 0 1-.81-.32 5.08 5.08 0 0 0-4.3-.33 9.75 9.75 0 0 1-5.43.06 6.85 6.85 0 0 0-5.54.57c-1.08.65-1.67.23-1.77-1.05 0-.46-.09-.92-.15-1.47a3.76 3.76 0 0 0-1.08 2.4c-.24.24-.64.44-.69.72a24.32 24.32 0 0 0-.25 2.48l-.16 1.87a8.32 8.32 0 0 0-4-1.6 5.12 5.12 0 0 1-3.46-1.59h-.26a5.44 5.44 0 0 1 .52-4.93c1-1.64 2.28-3.16 3.37-4.64l-2.36-.15 1-2.67-2.56.34c.22-.33.35-.52.47-.71a1.5 1.5 0 0 0-.66-2.44 13 13 0 0 0-1.54-.59 2.53 2.53 0 0 0-1.51-2.27c-.62-.32-1.26-.6-1.89-.89a4.46 4.46 0 0 1-2.72-2.52c-.25-.71-.75-.76-1.27-.2a4.11 4.11 0 0 0-.51 1c-.21-.34-.45-.67-.63-1a21.52 21.52 0 0 1-2-6.63c-.16-1-.35-2.08-.53-3.11-.3-3.53.33-6.8 2.76-9.57l-.24-.18-2.25 2.12c-.22.07-.51.07-.66.21-1.53 1.48-3 3-4.59 4.53l2.49-.92c-.36.47-.57.77-.81 1.05L92 104.64l-.12.1h.07a.86.86 0 0 0 .11-.1l1-.23.18.22a5.12 5.12 0 0 1-.89 1c-.69.46-1.5.76-2.18 1.24-.95.65-1.83 1.41-2.75 2.12l-.29.17a15.27 15.27 0 0 1 1.38-2.29c.85-1 1.86-1.84 2.79-2.76a1.88 1.88 0 0 0 .54-1l-2 1-.21-.2 4-5.17c-1.45-.22-2.32.93-3.63 1.44 1-2.69 3.75-3.56 5.32-5.5l-.13-.31-3 .77a2.82 2.82 0 0 1 1.25-2.31c.95-.67 2-1.24 2.94-1.87a4.5 4.5 0 0 0 2.14-2.29l-1.34-.32A20.05 20.05 0 0 1 99.77 86a20.59 20.59 0 0 1 3.23-1.41 1.91 1.91 0 0 0-2.07-.5c-.5.13-1 .31-1.49.48l-.1-.12 5.81-3.83-2-.34c2-1.55 4.32-.64 6.24-1.4l-2.49-2.4.14-.13h-.15c-1.76-1.91-2.54-4.34-3.53-6.7l5 5.19.2-.12-.44-1.54.12-.13a3.14 3.14 0 0 1 1.64 3 1 1 0 0 0 1 1.16c.25 0 .72-.31.73-.5.15-2.4 1.81-3.55 3.74-4.23a54.29 54.29 0 0 1 7.13-2 33 33 0 0 1 5.88-.64 6.66 6.66 0 0 1 4.15 1.65c-.84.34-1.49.64-2.16.87A31.7 31.7 0 0 1 122 74a10.51 10.51 0 0 0-7.44 2.85l.13.28 4-.71.13.28c-1 .55-2 1.15-3.1 1.62a6.48 6.48 0 0 0-3.28 2.74 6.29 6.29 0 0 0 1.82.12 6.54 6.54 0 0 0 2-.92 23.73 23.73 0 0 1 7.83-3.08 6 6 0 0 1 2.49.15 3.05 3.05 0 0 0 2.56-.48 2.11 2.11 0 0 1 2.5-.39 3.82 3.82 0 0 1 1.52 2.73c0 .17-.28.46-.47.65-.58.56-1.21 1.08-1.76 1.67-.37.4-.68.3-.94 0s-.26-.66-.48-.91-.53-.49-.75-.45a38.47 38.47 0 0 0-11.29 4 9.17 9.17 0 0 0-1.31 1.11l-3.6 1.06.65 1.25-2.79.35.87 2c-1.21.7-2.34 2.52-3 4.89-.37.27-.89.45-1.07.81a4.25 4.25 0 0 0-.06 3.7c.23.52.52 1 .79 1.52-1.77 1.46-2 2.11-1.67 4.55 1-.88 1.31-.8 2.07.32a9.69 9.69 0 0 0 2 2.57 15.93 15.93 0 0 0 4 1.92 4.14 4.14 0 0 1 2.65 2.1 4.77 4.77 0 0 0 .42.66.76.76 0 0 0 1.19.24 2.26 2.26 0 0 0 2.48-.63c.15.49.22 1.34.48 1.4a2.27 2.27 0 0 0 1.64-.38 4.28 4.28 0 0 0 1.78-3.84 3 3 0 0 0 1.73-2.81c0-1.79-.08-3.59-.13-5.38a2.77 2.77 0 0 0 1.16-3.56 9.16 9.16 0 0 0-.52-1.1 3.86 3.86 0 0 1-.24-3.36 8.78 8.78 0 0 0 .63-2.17 8.56 8.56 0 0 0-.25-2l.53-1.54-2.19.89 1.77-3.16h-1.84l.23-.87a3.09 3.09 0 0 0 2.53-1.15 2.19 2.19 0 0 1 2.46-.6c2.24.69 2.65.43 3.27-1.91l.1.34c.49 1.9 1.08 2.26 2.94 1.66.92-.3 1.8-.44 2.5.35a3.31 3.31 0 0 0 3.76 1.08l-1 3.56-.7-.36v2.81l-.64-1.66a3.05 3.05 0 0 0-.69 2.54 11.24 11.24 0 0 0 .56 2.1 5.49 5.49 0 0 1 .1 4 3.19 3.19 0 0 0 .92 3.94l1.08-2c-.18.73-.41 1.45-.53 2.19-.29 1.85-.64 3.7-.74 5.56-.09 1.6.41 2.11 1.8 2.56a4.54 4.54 0 0 0 1.47 3.66c.54.49 1.14 1 1.93.67s.47-1.09.52-1.69c.67.32 1.33.65 2 .94.47.2.91.19 1.08-.43a5.59 5.59 0 0 0 1.2-.84 7 7 0 0 1 3-1.92c1.94-.74 3.8-1.62 4.89-3.56 1-1.73 1.27-1.77 3-.75h.21c-.3-1.85-.93-3.47-2.52-4.19a13.53 13.53 0 0 0 .77-2.81 14 14 0 0 0-.37-3.19c-.19-1.06-.37-1.11-1.28-.61.3-2.45-1.13-3.93-3.2-5.31l2.05-1c-.81-.26-1.5-.53-2.21-.69s-1.46-.24-2.23-.36l1.1-1.78-2.66.65 1.09-2.12-2.57.2c-1.14-2.11-3.16-2.67-5.31-3l-6.74-1c-.83 1.67-.83 1.66-2.2.17-.45-.49-.92-1-1.4-1.44a2.09 2.09 0 0 1 .17-2.4 1.25 1.25 0 0 1 1.78-.27 3.41 3.41 0 0 1 .44.29c1.28 1 2.28 1.23 3.58-.14a2.54 2.54 0 0 1 2.79-.62 25.78 25.78 0 0 1 10.84 6.23 1.44 1.44 0 0 0-.42-1.72c-1-.85-2-1.65-3.08-2.41-.81-.59-1.7-1.08-2.55-1.61l.06-.22H151l.13-.3a15 15 0 0 0-1.85-1.28 10.52 10.52 0 0 0-4.63-1.08c-1.89 0-3.79 0-5.67-.23a2.94 2.94 0 0 1-2.89-2c2.24-1 4.45-1.95 7-1.19s4.87 1.5 7.5 2.3l-.93.42v.22h4.16l.14.28-.96 1.17 4.25-.58-.11 2.05.24.15a12.57 12.57 0 0 0 1.35-1.46 17.17 17.17 0 0 1 4.48-4.63c-1.06 2.23-1.69 4.5-3.59 6.12l1.41-.1-1.42 1.53c1.84.39 3.64.78 4.87 2.47l-1.84.34 5.8 3.82-.1.11c-.49-.16-1-.34-1.48-.47a1.87 1.87 0 0 0-2.1.54c.59.23 1.1.38 1.57.62a17.5 17.5 0 0 1 2.37 1.36 20.35 20.35 0 0 1 1.85 1.78zm-22 39.55l-.19.28c.37.31.76.6 1.1.94a4.79 4.79 0 0 1 1 1.2c.28.6.68.9 1.28.76s1.21-.34 1.26-.62a1.85 1.85 0 0 0-.57-1.4c-1.06-1.01-2.48-1.1-3.86-1.16zm-28.22.24l-.13-.24c-1.4.1-2.85.14-3.93 1.2a1.77 1.77 0 0 0-.51 1.41c.07.29.83.46 1.3.57s1-.17 1.2-.74a3.77 3.77 0 0 1 .79-1.08c.42-.4.87-.75 1.3-1.12z" fill="#f68d2d"/><path d="M101.65 99.91c.18 1 .37 2.07.53 3.11a21.52 21.52 0 0 0 2 6.63c.18.36.42.68.63 1a3.51 3.51 0 0 0 2.28 3.39 20.47 20.47 0 0 0 2.79.93c.93.25 1.89.4 2.84.59a13 13 0 0 1 1.54.59 1.5 1.5 0 0 1 .66 2.44c-.12.2-.25.38-.47.71l2.55-.3-1 2.67 2.36.15c-1.09 1.49-2.32 3-3.37 4.64a5.44 5.44 0 0 0-.52 4.93c.55 2.22 2.19 3 4.26 3.35 1.33.21 2.64.54 4 .83.29-.47-.37-.66-.61-1l.16-1.87a24.32 24.32 0 0 1 .25-2.48c.05-.27.45-.48.69-.72 0 .37.09.75.13 1.12a3 3 0 0 0 2.81 2.87 4.4 4.4 0 0 1 3.14 2.22 14.31 14.31 0 0 0 2.28 2.59 4.71 4.71 0 0 1 1.83 3.15 4.15 4.15 0 0 1-1.88 3.72 14.65 14.65 0 0 1-7.5 2.79 7 7 0 0 1-6.17-1.89 15.22 15.22 0 0 1-1.56-2.44c1.54.16 2.73.33 3.94.39a3.53 3.53 0 0 0 3.36-1.2h-5.27a13.36 13.36 0 0 1-2.67-.37 5.3 5.3 0 0 1-3.56-2.74 4.6 4.6 0 0 0-3.61-2.5 11.34 11.34 0 0 1-7.26-3.95c-1.48-1.86-3.52-2-5.64-1.41a6 6 0 0 0-1.59 1.02l.15.32c.26 0 .52-.06.78-.11s.73-.21 1.1-.25c1.16-.14 1.42.12 1.06 1.2-.42 1.28-1 2.53-1.54 4l2.39-1.25-.33 3.53c1.08-.69 1.64-1.66 2.89-1.53a12.79 12.79 0 0 0-.78 1.17 12.51 12.51 0 0 0-.51 1.28c.17 0 .22.07.26.05 1.49-.55 1.61-.47 1.75 1.17a12.5 12.5 0 0 0 .23 1.81c.06.26.36.65.55.64a1.11 1.11 0 0 0 .82-.48 15.61 15.61 0 0 0 .61-1.62c.18-.43.42-.84.56-1.12l1.11 4.32h.25l.51-2.19c1.87 1.36 1.22 3.3 1.67 5a2.29 2.29 0 0 1 2.27-1.81 11.92 11.92 0 0 1 7.88 2 4.72 4.72 0 0 1 .85.75 1.87 1.87 0 0 1 .51 2.22 2.58 2.58 0 0 1-2.2 1.73c-1.57.06-3.13.22-4.69.17a11.2 11.2 0 0 1-2.52-.71l-1.11 2.69c-2.34-1.87-3.26-5-5.93-6.66l-.38 2.23a4.43 4.43 0 0 1-2.11-2.83c-.31-.93-.62-1.87-1-2.79a5.8 5.8 0 0 0-.7-1l-.49 1.92a16.09 16.09 0 0 1-3.73-8.88l-.25-.08c-.49.51-1 1-1.48 1.52s-1 .89-1.57 1.41a12.89 12.89 0 0 1-1-5c-.13-1.44-.29-2.88-.54-4.31a7.63 7.63 0 0 0-.79-1.7l-1 1.15a7.57 7.57 0 0 1 1.46-6.17 4.75 4.75 0 0 0 1.26-3.08l-2.36 2-.23-.08 1.35-7.24-3 1.14a4.93 4.93 0 0 1 1.47-3.61c.86-.91 1.82-1.72 2.71-2.6a7 7 0 0 0 1.05-1.27c.45-.72.21-1.23-.63-1.23a20.42 20.42 0 0 0-2.49.29l-.73.1c.91-.71 1.8-1.46 2.75-2.12.69-.47 1.49-.77 2.18-1.24a5.12 5.12 0 0 0 .89-1l-.18-.22-1 .23h-.06l6.15-7.43c.23-.28.45-.58.81-1.05l-2.27.75c1.55-1.54 3.06-3 4.59-4.53.15-.14.44-.15.66-.21-1 1.87-2 3.74-3.05 5.62-.05.09 0 .26.05.39l-.17-.12.18.12 1.23-.64a4.41 4.41 0 0 1-1.71 2.79 7.22 7.22 0 0 0-2.2 3.56c-.33 1.15-.72 2.28-1.09 3.42l2.53-1.21.27.36c-.62.78-1.27 1.54-1.86 2.34-.47.64-.85 1.34-1.27 2l-.1.08h.17c.46 0 .93.06 1.38.13.91.15 1.19.56 1 1.48-.16.64-.43 1.26-.64 1.89-.35 1.07-.77 2.12-1 3.21s-.35 2.23-.52 3.36l1-1.33c.19.9.31 1.64.51 2.35.8 2.86 2 5.43 4.69 7.07s5 3.15 7.51 4.73l.14.13v-.24c-.55-.55-1.08-1.13-1.67-1.65-1.07-.95-2.19-1.83-3.24-2.8a1.38 1.38 0 0 1-.38-1.89 33.9 33.9 0 0 1 6.18 5.54 4.71 4.71 0 0 0-.66-1.3c-.57-.81-1.19-1.58-1.75-2.39a3.23 3.23 0 0 1-.75-2.6c.1-.44.54-.81.82-1.21.34.33.79.6 1 1a13.46 13.46 0 0 1 .61 2.06c1.06-1.44 1.63-1.53 2.24-.15l2.91-7.77a1.67 1.67 0 0 0-2.08.9c-.48.86-.87 1.77-1.37 2.62s-.95.69-1.3 0a2.75 2.75 0 0 1 0-3.12c.71-.94 1.36-1.92 2.15-3a5.48 5.48 0 0 0-1.28.13 3.71 3.71 0 0 0-1.19.7 8.47 8.47 0 0 1-4.17 2 2.28 2.28 0 0 0-1.1.64 1.09 1.09 0 0 0-.21.86c.17.86-.21 1.31-1.08 1.17a2.26 2.26 0 0 1-1.8-1.8 14.17 14.17 0 0 1-.24-7.83 33.36 33.36 0 0 0 1.11-12 16.93 16.93 0 0 1-.08-1.95zm11.75 35.66l-.41.36a9.5 9.5 0 0 0 1.51 2.55 8.91 8.91 0 0 0 7 2.45c1.58-.17 3.17-.29 4.76-.47a17.34 17.34 0 0 0 1.71-.36v-.27a7.32 7.32 0 0 0-1.4-.35c-1.8-.09-3.6-.09-5.4-.19a11.13 11.13 0 0 1-7-2.68 5.49 5.49 0 0 1-.77-1.04zm12.29 7.14l-.17-.33a8.7 8.7 0 0 0-1.35.39c-.14.06-.16.42-.23.64.22.06.52.24.66.16a8.66 8.66 0 0 0 1.09-.86zm2.49-.78c-1.36-.21-1.69.13-1.22 1.15zm44.14-40.03c.46.51 1 1 1.39 1.55a12.73 12.73 0 0 1 .8 1.3l-1.35.25a7.52 7.52 0 0 1 4.15 4c-.08.25-.3.55-.22.73.6 1.44 1.24 2.87 1.89 4.29a10.18 10.18 0 0 1 1.28 4.86l-3-1.86-.34.28c2.16 3.5 3.67 7.17 3.39 11.47l-1.92-1.58-.22.2c.38 1.71.84 3.41 1.11 5.14a13.79 13.79 0 0 1-.09 2.72H179l-1.63-2.48c-.22 2.92 0 5.68-1.33 8.19l-1.89-1.94c-.62 2.41-.22 4.77-1.73 6.76l-2.42-4.24c.25 2.62.21 5-1.28 7.22l-1.8-1.76-.86 3.76h-.31l-1.8-2.83c-.84 3.4-3 5.85-5.57 8.36-1.83-3.49-5-2.82-7.92-2.8.93-1.45 1.8-2.91 2.78-4.29.36-.51 1-1.16 1.47-1.16.78 0 .75.95.94 1.57 0 .16.09.33.19.67l3.92-5.48 1.22 2.74 4.44-6.85.32.78 3.23-5.74.49 1.17c1.11-2.26 1.7-4.5.64-7.11a8 8 0 0 0-1.36 1.39 9 9 0 0 1-6.5 4.25 9.49 9.49 0 0 0-5.31 3.13 12.57 12.57 0 0 1-8.69 4.07l-2.91.27a3.49 3.49 0 0 0 3.21 1.11c1.15-.06 2.3-.2 3.49-.32a2 2 0 0 1-.76 1.93 8.43 8.43 0 0 1-5.12 2.4 13.88 13.88 0 0 1-10.29-3.44 3.7 3.7 0 0 1 0-5.67 13.54 13.54 0 0 0 3.29-3.67 5.23 5.23 0 0 1 1.74-1.35 2.87 2.87 0 0 1 1-.34 3.46 3.46 0 0 0 3-3.53c1.15 1 .87 2.25.78 3.47a17 17 0 0 1-.45 2.17l1-.08c.08.05.17.17.23.15 1-.28 2-.57 3-.86a20.52 20.52 0 0 0 3.45-1.06 2.65 2.65 0 0 0 1.5-2.68 4.06 4.06 0 0 0-1.22-3.74c-.83-1-1.77-1.86-2.63-2.8a6 6 0 0 1-1.64-3.49l2.27 2 .23-.1-.62-3.52.9.8c.57-2.38 2.29-3.76 4.2-5 .12.14.28.41.35.39 2-.63 4-1.17 5.9-2a3.11 3.11 0 0 0 1.48-3.58 9.7 9.7 0 0 0 2.92-7.16c.06-2-.09-4.07-.14-6.11a12.39 12.39 0 0 1 .7 2.31c.2 1.91.32 3.82.38 5.74a23.72 23.72 0 0 1-.09 5 16.82 16.82 0 0 0 .14 7.41 6.08 6.08 0 0 1-.43 4.34 6.63 6.63 0 0 1-1.47 1.79 1.29 1.29 0 0 1-1.11 0 1 1 0 0 1-.5-.81c.14-1.29 0-1.59-1.29-1.88a8 8 0 0 1-3.8-1.82 4.72 4.72 0 0 0-1.41-.85 5.48 5.48 0 0 0-1.35-.17c.79 1.1 1.43 2 2.12 2.92a2.67 2.67 0 0 1 .21 2.95 1.41 1.41 0 0 1-.81.76c-.2 0-.59-.38-.76-.68-.45-.77-.8-1.61-1.25-2.39a1.62 1.62 0 0 0-2.06-.87l2.86 7.68c.75-1.26 1.07-1.21 2.26.14.27-.8.5-1.62.84-2.4a1 1 0 0 1 .8-.52 1 1 0 0 1 .67.68 5.13 5.13 0 0 1-.23 2.26 22.3 22.3 0 0 1-1.87 2.82c-.35.53-.68 1.07-1 1.6l.2.15a25.89 25.89 0 0 1 6.14-5.58 1.82 1.82 0 0 1-.71 2.16c-.93.84-1.92 1.6-2.86 2.43-.58.51-1.12 1.08-1.68 1.62l-.08.51.22-.33c4-2.34 8-4.79 10.72-8.68l1.33 2.73.33-.1c.15-1.18.37-2.35.44-3.54a26.39 26.39 0 0 0-2.06-11.38l.37-.31 2 2.44.15.14v-.25l-2.15-5 2 .57a9.28 9.28 0 0 1-2.24-4.61c.71-.32.74-1.14.14-2.78a4.28 4.28 0 0 0 .39-1 6.89 6.89 0 0 0-1.43-4.47c-.7-1-1.37-2-2.05-3a2.86 2.86 0 0 1 .81.38c1.6 1.51 3.21 3 4.75 4.58a5.73 5.73 0 0 1 1.73 3.48l-1.95-1.19h-.22zm-31.69 37.82v.31a4.24 4.24 0 0 0 .92.32 36.44 36.44 0 0 1 4.24.41 9.59 9.59 0 0 0 7.81-1.81 4.06 4.06 0 0 0 1.7-3.28 8.47 8.47 0 0 1-5.43 3.22c-2 .34-4.1.27-6.16.42-1.04.09-2.06.27-3.08.41zm2.09 2.69l-.13.33a8 8 0 0 0 1.06.82c.15.09.44-.07.67-.12-.08-.24-.1-.63-.26-.7a7 7 0 0 0-1.34-.33zm-1.34.72c.33-1.13.09-1.37-1.29-1.26zm28.62-1.62v-.22s-.05 0-.05.07a1 1 0 0 0 .05.15zm-44.36-55.94h1.84l-1.77 3.16 2.19-.89-.53 1.54a4.22 4.22 0 0 0-.83 1.07c-.68 2-1.33 4-1.9 6a3 3 0 0 0 .85 2.78 9.62 9.62 0 0 1 1.07 2.3c.05 1.79.16 3.59.13 5.38a3 3 0 0 1-1.73 2.81c-.25-1.52-.51-3-.76-4.55-.57-3.37-2.06-5.24-5-5.71a23.43 23.43 0 0 0-4.85 0 4.49 4.49 0 0 1-4.54-2.27c-.24-.43-.42-.89-.68-1.31a13 13 0 0 0-.84-1.08c.69-2.37 1.82-4.19 3-4.89l-.87-2 2.79-.35-.65-1.25 3.6-1.06c0 .71.48.64.89.52 1.1-.31 2.21-.63 3.29-1a7.61 7.61 0 0 1 5.49-.08l-.22.87h-.11v.07zm-5.74 12.32l.27-.1a6.88 6.88 0 0 0-.23-1.19c-.26-.7-.64-1.37-.89-2.07a3.32 3.32 0 0 1 .95-4 5.7 5.7 0 0 1 2.29-.89c.93-.2 1.55-.56 1.46-1.29a12.33 12.33 0 0 0-.57-2l-.22.07-.49 1.22c-1.41-.52-1.66-.43-2.48.72-.4.57-.89 1.08-1.28 1.65-.58.86-1.1 1.76-1.67 2.62-.11.17-.32.41-.48.41-1.2 0-1.79.79-2.44 1.59a4.18 4.18 0 0 1-2.56 1.72 3.05 3.05 0 0 0 4.8.28l.12-.12a1.45 1.45 0 0 1 2.48.18zm21.82-7.4v-2.81l.7.36 1-3.56a5.61 5.61 0 0 1 4.93.1 16.12 16.12 0 0 0 2.48.86v-.88l2.57-.2-1.09 2.12 2.66-.65-1.05 1.83c.78.12 1.52.19 2.23.36s1.39.43 2.21.69l-2.05 1c2.08 1.38 3.5 2.86 3.2 5.31-.43.94-.89 1.87-1.29 2.82a2.59 2.59 0 0 1-2.77 1.8c-1.33-.1-2.65-.3-4-.36-4-.16-6.58 2-7.11 5.76-.22 1.57-.53 3.14-.8 4.71-1.39-.45-1.88-1-1.8-2.56.1-1.86.46-3.71.74-5.56.11-.74.35-1.46.52-2.18a3 3 0 0 1 .25-.45 3.82 3.82 0 0 0 .26-4.94c-.66-1.15-1.18-2.39-1.79-3.57zm3.81-4.24c-.13.21-.2.31-.25.41-1 2-.68 2.59 1.48 2.95a3.48 3.48 0 0 1 2.87 4.29c-.2.8-.61 1.55-.89 2.34-.17.49-.27 1-.4 1.5l.28.13c.37-.45.73-.92 1.12-1.36a1.35 1.35 0 0 1 2.23-.1l.5.49a3 3 0 0 0 4.45-.57 5.2 5.2 0 0 1-2.7-1.92c-.44-.48-1-1.19-1.49-1.23-1-.07-1.24-.55-1.54-1.28a6.32 6.32 0 0 0-.91-1.37c-.48-.62-1-1.19-1.48-1.83-.7-1-1.35-2-2.76-1zm-38.63-9.76l2.49 2.4c-1.91.76-4.26-.15-6.24 1.4l2 .34-5.81 3.83-.18.2.28-.08c.5-.16 1-.35 1.49-.48a1.91 1.91 0 0 1 2.07.5 20.59 20.59 0 0 0-3.23 1.4 20.05 20.05 0 0 0-2.55 2.36c-1.92 0-3.11-.8-3.4-2.67a8.69 8.69 0 0 0-3.14-5.62c-1.69-1.4-1.83-3.37-1.59-5.36A10.35 10.35 0 0 1 91.53 69c2.85-3.23 6.21-3 9-.21a14.3 14.3 0 0 1 2.82 4.73c.7 1.72 1.6 2.85 3.55 2.86s0 0 0 .06a.61.61 0 0 0 0 .05zm-12.17-2.24l-.19-.13a3.61 3.61 0 0 1 2.74-2.49 6.11 6.11 0 0 0-4.47 1.16A2.43 2.43 0 0 0 91.9 76a9.52 9.52 0 0 0 1.49 2.11c.49.57 1.12 1 1.66 1.55a3 3 0 0 1 .92 3.6c-.41.95-.05 1.59.92 2.06.11-.16.3-.31.32-.48.15-1.54 1.18-2 2.52-2.13a6.68 6.68 0 0 0 1.53-.64l-1.73-.83v-.22l2.25-.61-1.78-1.57 3.27.17a14.83 14.83 0 0 0-1-2.12c-.92-1.35-2.44-1-3.8-1.16v-.29l3.37-1c-1.63-1.16-3.27-.72-5 .07a4 4 0 0 1 2.78-2 4.75 4.75 0 0 0-4.89 1.74zm75.82 14.14a20.35 20.35 0 0 0-1.89-1.78 17.5 17.5 0 0 0-2.37-1.36c-.47-.24-1-.39-1.57-.62a1.87 1.87 0 0 1 2.1-.54c.5.13 1 .31 1.48.47l.27.08-.17-.2-5.8-3.82 1.84-.34c-1.23-1.69-3-2.07-4.87-2.47l1.43-1.52.23-.15a3.89 3.89 0 0 0 2.07-2.55 18.13 18.13 0 0 1 1.51-3.21 7.27 7.27 0 0 1 7.61-3.69c3.22.47 5 2.71 6.08 5.6a6.28 6.28 0 0 1-1.35 6.86c-1 1.09-2 2.17-3 3.3a3.52 3.52 0 0 0-1 3.12c.37 1.51-.47 2.25-1.89 2.7a4.18 4.18 0 0 1-.71.12zm1-15.17c-2.43-1-4.44-.08-6.47 1.41 3.31.15 3.67.24 4.27 1-2.95 0-4.92 1.54-4.6 3.39l2.84-.13-1.51 1.5 2.41.77-1.78.84-.07.26c.78.23 1.54.51 2.33.69a1.58 1.58 0 0 1 1.4 1.33 3.73 3.73 0 0 0 .17.58c.2.56.52.58.9.18a1.38 1.38 0 0 0 .37-1.67 2.94 2.94 0 0 1 .68-3.5c.75-.85 1.55-1.66 2.26-2.55a3.83 3.83 0 0 0-.48-5.53 4.39 4.39 0 0 0-5.85.11 3.78 3.78 0 0 1 3.22 1.26zM124 153.59c1-1.49 1.85-2.87 1.52-4.65a25.64 25.64 0 0 1 3.58-1.32 5.64 5.64 0 0 1 2.72.16 8.65 8.65 0 0 0 4.38.19 7 7 0 0 1 2.57.13c1.19.22 2.35.61 3.54.86a1.65 1.65 0 0 1 1.35 1.51c.17 1 .26 2 .4 3.07a17 17 0 0 0-3 .3 5.51 5.51 0 0 0-2.57 1.3c-2.15 2.32-6.84 2.35-8.9 0-1.23-1.39-2.94-1.53-4.65-1.57z" fill="#fbfbfa"/><path d="M134 137.06c-.21.28-.59 1-.72.93a9 9 0 0 1-1.93-1c-.06 0 .08-.48.21-.68a2.31 2.31 0 0 0 0-2.63 4.13 4.13 0 0 0-4.49-2.12 6.86 6.86 0 0 1-1.62-.19 3.74 3.74 0 0 1 3.5-2 19.19 19.19 0 0 1 3.52.56 10 10 0 0 0 5.74-.48 3.8 3.8 0 0 1 3.91 1c.19.17.39.59.31.72a1.27 1.27 0 0 1-.77.44 2.28 2.28 0 0 1-.86-.06 4.09 4.09 0 0 0-4.56 2.93 3 3 0 0 0 .33 1.8c.29.59.23.91-.3 1.21l-.38.22c-1.24.61-1.48.51-1.89-.65z" fill="#f68d2d"/><path d="M87.23 109.21l.29-.17z" fill="#fbfbfa"/><path d="M161.22 76.15l-.23.15zm-53.1-2.98L108 73l.2.06zm48.71 101.49v-4.41c1.6 0 3.16-.08 4.71 0 1 .07 1.57 1 1.57 2.26s-.48 2-1.51 2.09c-1.6.14-3.13.06-4.77.06z" fill="#f68d2d"/><path d="M108.82 133.9c-2.5-1.58-5-3.18-7.51-4.73s-3.89-4.21-4.69-7.07c-.2-.71-.32-1.45-.51-2.35l-1 1.33c.17-1.14.26-2.27.52-3.36s.67-2.15 1-3.21c.21-.63.48-1.25.64-1.89.23-.92-.05-1.33-1-1.48-.46-.08-.92-.09-1.38-.13l-.07-.06c.42-.68.81-1.38 1.27-2 .58-.81 1.23-1.56 1.86-2.34l-.27-.36-2.53 1.21c.37-1.14.76-2.27 1.09-3.42a7.22 7.22 0 0 1 2.2-3.56 4.41 4.41 0 0 0 1.71-2.79l-1.23.64c0-.13-.1-.29-.05-.39 1-1.88 2-3.75 3.05-5.62l2.25-2.12.24.18c-2.43 2.77-3.06 6-2.76 9.57a16.93 16.93 0 0 0 0 1.91 33.36 33.36 0 0 1-1.11 12 14.17 14.17 0 0 0 .24 7.83 2.26 2.26 0 0 0 1.8 1.8c.87.13 1.25-.31 1.08-1.17a1.09 1.09 0 0 1 .21-.86 2.28 2.28 0 0 1 1.1-.64 8.47 8.47 0 0 0 4.17-2 3.71 3.71 0 0 1 1.19-.7 5.48 5.48 0 0 1 1.28-.13c-.79 1.12-1.45 2.1-2.15 3a2.75 2.75 0 0 0 0 3.12c.36.73.89.75 1.3 0s.89-1.76 1.37-2.62a1.67 1.67 0 0 1 2.08-.9l-2.91 7.77c-.61-1.38-1.19-1.29-2.24.15a13.46 13.46 0 0 0-.61-2.06c-.18-.4-.64-.67-1-1-.28.4-.71.76-.82 1.21a3.23 3.23 0 0 0 .75 2.6c.57.81 1.18 1.59 1.75 2.39a4.71 4.71 0 0 1 .66 1.3 33.9 33.9 0 0 0-6.18-5.54 1.38 1.38 0 0 0 .38 1.89c1 1 2.17 1.85 3.24 2.8.58.52 1.11 1.1 1.67 1.65zm63.52-18.9l-2-2.44-.37.31a26.39 26.39 0 0 1 2.03 11.38c-.08 1.18-.29 2.36-.44 3.54l-.33.1-1.33-2.73c-2.77 3.9-6.71 6.34-10.72 8.68l-.14-.18c.56-.54 1.09-1.11 1.68-1.62.94-.82 1.93-1.59 2.86-2.43a1.82 1.82 0 0 0 .71-2.16 25.89 25.89 0 0 0-6.14 5.58l-.2-.15c.34-.53.67-1.08 1-1.6a22.3 22.3 0 0 0 1.87-2.82 5.13 5.13 0 0 0 .23-2.26 1 1 0 0 0-.67-.68 1 1 0 0 0-.8.52c-.34.77-.57 1.6-.84 2.4-1.19-1.34-1.51-1.4-2.26-.14l-2.86-7.68a1.62 1.62 0 0 1 2.06.87c.45.77.8 1.61 1.25 2.39.17.29.56.72.76.68a1.41 1.41 0 0 0 .81-.76 2.67 2.67 0 0 0-.21-2.95c-.69-.89-1.33-1.82-2.12-2.92a5.48 5.48 0 0 1 1.35.17 4.72 4.72 0 0 1 1.41.85 8 8 0 0 0 3.8 1.82c1.28.29 1.43.59 1.29 1.88a1 1 0 0 0 .5.81 1.29 1.29 0 0 0 1.11 0 6.63 6.63 0 0 0 1.47-1.79 6.08 6.08 0 0 0 .43-4.34 16.82 16.82 0 0 1-.14-7.41 23.72 23.72 0 0 0 .09-5 78.25 78.25 0 0 0-.38-5.74 12.39 12.39 0 0 0-.7-2.31l-1.83-3.86c1.21-.07 1.71.83 2.4 1.41l.15.16c.68 1 1.35 2 2.05 3a6.89 6.89 0 0 1 1.43 4.47 4.28 4.28 0 0 1-.39 1c.6 1.64.57 2.46-.14 2.78a9.28 9.28 0 0 0 2.24 4.61l-2-.57 2.15 5z" fill="#120f0d"/><path d="M108.32 94.82a13 13 0 0 1 .84 1.08c.26.41.44.88.68 1.31a4.49 4.49 0 0 0 4.54 2.27 23.43 23.43 0 0 1 4.85 0c2.91.48 4.4 2.35 5 5.71.26 1.52.51 3 .76 4.55a4.28 4.28 0 0 1-1.78 3.84 2.27 2.27 0 0 1-1.64.38c-.25-.06-.32-.9-.48-1.4.26-.7.56-1.4.79-2.12a1.72 1.72 0 0 0-1.13-2.37 13.22 13.22 0 0 0-2.29-.47c-2.14-.33-4.14-1-5.24-3-.78-1.42-1.71-2.4-3.42-2.32-.44 2.62.21 4 2.59 5.28a14.49 14.49 0 0 0 1.83.8c.92.34 1.88.59 2.79 1 1.91.76 2.39 2 1.6 3.88a.76.76 0 0 1-1.19-.24 4.77 4.77 0 0 1-.42-.66 4.14 4.14 0 0 0-2.63-2.09 15.93 15.93 0 0 1-4-1.92 9.69 9.69 0 0 1-2-2.57c-.76-1.12-1.07-1.2-2.07-.32-.34-2.43-.1-3.09 1.67-4.55-.26-.5-.56-1-.79-1.52a4.25 4.25 0 0 1 .06-3.7c.19-.4.76-.59 1.08-.85zm7.72 6q-2 .56-1.49 2.23a4.49 4.49 0 0 0 .66 1.31 5 5 0 0 0 5.06 1.86c1.76-.22 2.44-1.53 1.65-3.16a3.34 3.34 0 0 1-4.23 2.07c-1.64-.48-2.22-1.97-1.69-4.31zm2.89-.16c-.39.57-.82.93-.77 1.19s.53.58.83.87c.26-.29.71-.57.73-.88s-.39-.62-.79-1.18zm24.65 9.06c.27-1.57.57-3.13.8-4.71.53-3.76 3.16-5.92 7.11-5.76 1.33.05 2.65.26 4 .36a2.59 2.59 0 0 0 2.77-1.8c.4-1 .86-1.88 1.29-2.82.9-.5 1.08-.44 1.28.61a14 14 0 0 1 .37 3.19 13.53 13.53 0 0 1-.77 2.81c1.58.72 2.22 2.34 2.52 4.19h-.21c-1.73-1-2-1-3 .75-1.09 1.95-3 2.82-4.89 3.56a7 7 0 0 0-3 1.92 5.59 5.59 0 0 1-1.2.84 1.65 1.65 0 0 1-.18-2.45 6 6 0 0 1 3-1.74 9.86 9.86 0 0 0 4.59-2.54 3.78 3.78 0 0 0 .58-3.88c-2 .4-2.22.47-3 1.9a6.39 6.39 0 0 1-4.58 3.27c-1 .23-2.08.3-3.07.58a1.8 1.8 0 0 0-1.32 2.5c.18.58.45 1.13.69 1.69l.15.16c-.05.6.24 1.36-.52 1.69s-1.39-.18-1.93-.67a4.54 4.54 0 0 1-1.48-3.65zm3-6.63c-.57 2.12.13 3.09 2.22 3.16a8.37 8.37 0 0 0 1.39 0 4.46 4.46 0 0 0 3.71-2.79c.6-1.39 0-2.43-1.39-2.5.62 2 .17 3.44-1.31 4.09-1.79.72-3.5.04-4.66-1.96zm3.51-2.41c-.42.53-.85.84-.84 1.13s.45.61.71.91c.31-.28.79-.51.87-.84s-.41-.64-.83-1.2z" fill="#120f0d"/><path d="M147.36 112.21c-.23-.56-.51-1.11-.69-1.69A1.8 1.8 0 0 1 148 108c1-.28 2.06-.36 3.07-.58a6.39 6.39 0 0 0 4.58-3.27c.75-1.43.93-1.5 3-1.9a3.78 3.78 0 0 1-.58 3.88 9.86 9.86 0 0 1-4.59 2.54 6 6 0 0 0-3 1.74 1.65 1.65 0 0 0 .18 2.45c-.18.61-.61.63-1.08.43-.68-.29-1.34-.62-2-.94zm-28.77.99c.79-1.9.3-3.11-1.6-3.88-.91-.36-1.87-.61-2.79-1a14.49 14.49 0 0 1-1.83-.8c-2.38-1.27-3-2.66-2.59-5.28 1.71-.07 2.64.9 3.42 2.32 1.11 2 3.1 2.67 5.24 3a13.22 13.22 0 0 1 2.29.47 1.72 1.72 0 0 1 1.13 2.37c-.23.72-.52 1.41-.79 2.12a2.26 2.26 0 0 1-2.48.68z" fill="#fbfbfa"/><path d="M141.72 90.49c.61 1.18 1.13 2.41 1.84 3.53a3.82 3.82 0 0 1-.26 4.94 3 3 0 0 0-.25.45l-1.07 2a3.19 3.19 0 0 1-.92-3.94 5.49 5.49 0 0 0-.1-4 11.24 11.24 0 0 1-.56-2.1 3.05 3.05 0 0 1 .69-2.54zm-15.16 11.07a9.62 9.62 0 0 0-1.07-2.3 3 3 0 0 1-.85-2.78c.57-2 1.22-4 1.9-6a4.22 4.22 0 0 1 .83-1.07 8.56 8.56 0 0 1 .25 2 8.78 8.78 0 0 1-.63 2.17 3.86 3.86 0 0 0 .24 3.36 9.16 9.16 0 0 1 .52 1.1 2.77 2.77 0 0 1-1.19 3.52zm37.07 8.52a3.11 3.11 0 0 1-1.48 3.58c-1.9.82-3.92 1.36-5.9 2-.07 0-.23-.25-.35-.39a2.51 2.51 0 0 1 1.59-2A28.1 28.1 0 0 0 160 112a5.27 5.27 0 0 0 1.67-1.66c.74-1.22.98-1.34 1.96-.26zm-50.94 5.51c-.95-.19-1.91-.34-2.84-.59a20.47 20.47 0 0 1-2.79-.93 3.51 3.51 0 0 1-2.28-3.39 4.12 4.12 0 0 1 .51-1c.52-.56 1-.5 1.27.2a4.46 4.46 0 0 0 2.72 2.52c.63.29 1.27.57 1.89.89a2.53 2.53 0 0 1 1.52 2.3zm9.39 18.96c.24.37.9.56.61 1-1.39-.29-2.7-.62-4-.83-2.07-.33-3.71-1.13-4.26-3.35.09 0 .23-.07.26 0a5.12 5.12 0 0 0 3.46 1.59 8.32 8.32 0 0 1 3.93 1.59zm32.32-3.43a2.65 2.65 0 0 1-1.5 2.68 20.52 20.52 0 0 1-3.45 1.06c-1 .29-2 .58-3 .86-.06 0-.15-.1-.23-.15a3.91 3.91 0 0 1 .56-.9 8.47 8.47 0 0 1 4.6-1.84 4.07 4.07 0 0 0 3.02-1.71zm-5.83-3.18c1.38.1 2.8.15 3.89 1.16a1.85 1.85 0 0 1 .57 1.4c0 .27-.79.51-1.26.62s-1-.16-1.28-.76a4.79 4.79 0 0 0-1-1.2c-.34-.34-.73-.63-1.1-.94zm-28.22.24c-.43.37-.88.71-1.27 1.12a3.77 3.77 0 0 0-.79 1.08c-.25.57-.62.87-1.2.74s-1.23-.28-1.3-.57a1.77 1.77 0 0 1 .51-1.41c1.09-1.06 2.53-1.1 3.93-1.2z" fill="#120f0d"/><path d="M92.1 104.69a.86.86 0 0 1-.11.1h-.07l.12-.1zm75.02-10.18l-.15-.16z" fill="#fbfbfa"/><path d="M106.9 76.49a.61.61 0 0 1 0-.12v-.06h.15zm6.5 59.08a5.49 5.49 0 0 0 .74 1 11.13 11.13 0 0 0 7 2.68c1.8.1 3.6.1 5.4.19a7.32 7.32 0 0 1 1.4.35v.27a17.34 17.34 0 0 1-1.71.36c-1.58.18-3.17.3-4.76.47a8.91 8.91 0 0 1-7-2.45 9.5 9.5 0 0 1-1.51-2.55zm12.29 7.14a8.66 8.66 0 0 1-1.09.86c-.14.08-.43-.1-.66-.16.07-.22.09-.58.23-.64a8.7 8.7 0 0 1 1.35-.39zm2.49-.78l-1.18 1.15c-.52-1.02-.18-1.37 1.18-1.15zm-19.23-8.14v.24l-.14-.13zM94.9 111h-.17l.1-.08zm4.03-12.7l-.18-.12.17.12zm41.7 41.42c1-.14 2-.32 3.07-.4 2.05-.16 4.14-.08 6.16-.42a8.47 8.47 0 0 0 5.43-3.22 4.06 4.06 0 0 1-1.7 3.28 9.59 9.59 0 0 1-7.81 1.81 36.44 36.44 0 0 0-4.24-.41 4.24 4.24 0 0 1-.92-.32zm2.09 2.69a7 7 0 0 1 1.33.33c.16.07.18.46.26.7-.23 0-.52.21-.67.12a8 8 0 0 1-1.06-.82zm-1.34.72l-1.29-1.26c1.38-.12 1.62.13 1.29 1.26zm17.57-8.96l.08-.51.14.18-.22.33zm11.05 7.34a1 1 0 0 1 0-.16l.05-.07v.22zm-11.05-7.34zm13.51-19.28v.25l-.15-.14z" fill="#120f0d"/><path d="M172.32 101.9l-.08-.2h.22z" fill="#f68d2d"/><path d="M119.9 97.89l-.94-1.2a1.45 1.45 0 0 0-2.48-.18l-.12.12a3.05 3.05 0 0 1-4.8-.28 4.18 4.18 0 0 0 2.56-1.72c.65-.81 1.24-1.62 2.44-1.59.16 0 .37-.24.48-.41.57-.87 1.09-1.77 1.67-2.62.39-.58.87-1.09 1.28-1.65.81-1.14 1.07-1.24 2.48-.72l.49-1.22.22-.07a12.33 12.33 0 0 1 .57 2c.09.73-.53 1.09-1.46 1.29a5.7 5.7 0 0 0-2.29.89 3.32 3.32 0 0 0-.95 4c.25.71.63 1.37.89 2.07a6.88 6.88 0 0 1 .23 1.19z" fill="#120f0d"/><path d="M125.64 85.57l-.1.08v-.07h.11z" fill="#f68d2d"/><path d="M145.54 86.26l.52 1.41c1.4-.95 2.06 0 2.76 1 .45.64 1 1.21 1.48 1.83a6.32 6.32 0 0 1 .91 1.37c.3.73.58 1.21 1.54 1.28.53 0 1 .75 1.49 1.23a5.2 5.2 0 0 0 2.7 1.92 3 3 0 0 1-4.45.57l-.5-.49a1.35 1.35 0 0 0-2.23.1c-.39.44-.75.91-1.12 1.36l-.28-.13c.13-.5.23-1 .4-1.5.28-.79.69-1.54.89-2.34a3.48 3.48 0 0 0-2.87-4.29c-2.15-.36-2.47-1-1.48-2.95.04-.07.11-.16.24-.37zM94.73 74.25a4.75 4.75 0 0 1 4.86-1.71 4 4 0 0 0-2.78 2c1.74-.79 3.37-1.23 5-.07l-3.37 1v.29c1.36.12 2.88-.19 3.8 1.16a14.83 14.83 0 0 1 1 2.12l-3.24-.2 1.72 1.57-2.25.59v.22l1.73.83a6.68 6.68 0 0 1-1.53.64c-1.33.17-2.36.6-2.52 2.13 0 .17-.21.32-.32.48-1-.47-1.32-1.12-.92-2.06a3 3 0 0 0-.92-3.6c-.54-.53-1.17-1-1.66-1.55A9.52 9.52 0 0 1 91.9 76a2.43 2.43 0 0 1 .91-3.22 6.11 6.11 0 0 1 4.47-1.16 3.61 3.61 0 0 0-2.74 2.49l-.06.43h.11z" fill="#120f0d"/><path d="M99.44 84.57l-.28.08.18-.2z" fill="#f68d2d"/><path d="M171.69 73.13a3.78 3.78 0 0 0-3.22-1.26 4.39 4.39 0 0 1 5.85-.11 3.83 3.83 0 0 1 .48 5.53c-.71.88-1.51 1.69-2.26 2.55a2.94 2.94 0 0 0-.68 3.5 1.38 1.38 0 0 1-.37 1.67c-.38.4-.71.37-.9-.18a3.73 3.73 0 0 1-.17-.58 1.58 1.58 0 0 0-1.4-1.33c-.79-.17-1.56-.45-2.33-.69l.07-.26 1.78-.84-2.41-.77 1.51-1.5-2.84.13c-.32-1.85 1.66-3.35 4.6-3.39-.6-.72-1-.8-4.27-1 2-1.49 4-2.37 6.47-1.41h.24z" fill="#120f0d"/><path d="M168.41 84.45l.17.2-.27-.08zM116 100.82c-.57 2.35 0 3.83 1.65 4.32a3.34 3.34 0 0 0 4.23-2.07c.79 1.63.11 2.94-1.65 3.16a5 5 0 0 1-5.06-1.86 4.49 4.49 0 0 1-.66-1.31q-.51-1.68 1.49-2.24z" fill="#f68d2d"/><path d="M118.93 100.66c.4.56.82.89.8 1.19s-.47.59-.73.88c-.29-.29-.76-.54-.83-.87s.38-.63.76-1.2z" fill="#fbfbfa"/><path d="M146.54 103.09c1.15 2 2.87 2.68 4.62 1.92 1.48-.64 1.94-2.07 1.31-4.09 1.37.07 2 1.12 1.39 2.5a4.46 4.46 0 0 1-3.71 2.79 8.37 8.37 0 0 1-1.39 0c-2.09-.04-2.76-1-2.22-3.12z" fill="#f68d2d"/><path d="M150 100.68c.37.57.8.95.74 1.2s-.56.57-.87.84c-.25-.3-.69-.6-.71-.91s.47-.61.84-1.13z" fill="#fbfbfa"/><path d="M147.36 112.21l.15.16z" fill="#f68d2d"/><path d="M94.73 74.25l-.14.33h-.11l.06-.43zm76.96-1.12l.15.12h-.24z" fill="#fbfbfa"/></svg>