<svg xmlns="http://www.w3.org/2000/svg" viewBox="0 0 267.22 267.22"><title>webelos</title><path d="M267.22 133.74c-.84.79-1.7 1.56-2.51 2.37L134.4 266.42a10.34 10.34 0 0 0-.66.8h-.27c-1.93-2-3.83-4-5.79-5.92L.89 134.5c-.28-.28-.6-.51-.89-.76v-.27c1.25-1.2 2.52-2.38 3.74-3.6L132.53 1.09c.34-.34.63-.72.94-1.09h.27c.22.27.42.56.66.8l132.1 132.11a7.85 7.85 0 0 0 .71.56zm-262.76-.13l129.15 129.15 129.15-129.15L133.62 4.46z" fill="#003e71"/><path d="M4.46 133.61L133.62 4.46l129.14 129.15-129.15 129.15zm243.26.09L133.54 19.51l-114 114 114.15 114.22z" fill="#ffdc00"/><path d="M247.72 133.7l-114 114L19.51 133.53l114-114zm-121.48 4.88a30.72 30.72 0 0 0 7.15 10.78c2.53-2 5.63-6.52 7.29-10.65 1-2.52 2.17-5 3-7.58 1.78-5.52 3.35-11.1 5.1-16.63a22 22 0 0 1 4.55-8.56 3.28 3.28 0 0 1 5.44.33 27.93 27.93 0 0 1 1.3 2.76 1.7 1.7 0 0 0 1 .87 8.56 8.56 0 0 0 6-1.76c5.28-4.14 7-9.62 5.91-16.07a11.53 11.53 0 0 0-4.73-8.1c-3.58-2.44-7.51-2.57-11.57-1.67a18.14 18.14 0 0 0-7.11 3.86q-1.24-5.55-2.49-11.09c-2.13-9.44-4.31-18.86-8-27.84-1.6-3.88-3.5-7.63-5.39-11.72-.53.94-.84 1.48-1.15 2a110.64 110.64 0 0 0-10.11 26.68c-1.83 7.21-3.45 14.48-5.17 21.72-.33-.22-.67-.42-1-.67a15 15 0 0 0-9-3.43c-4.94-.24-9.12 1.2-11.69 5.74a16.85 16.85 0 0 0 1.53 17.83c2.23 2.73 4.91 4.67 8.67 4.56.73 0 1.11-.18 1.33-.95a8.86 8.86 0 0 1 1.1-2.56c1.45-2.17 3.93-2.42 5.59-.44a15.55 15.55 0 0 1 2.87 4.48c1.94 5.36 3.62 10.81 5.43 16.22 1.43 3.97 2.8 7.93 4.15 11.88zm14.12 62.52c-.72-5.32-5.14-8.63-6.75-13.64-1.61 5.08-6 8.41-6.68 13.65-2.76-1.2-5.38-1.6-7.83.32-2.64 2.07-3.14 4.91-2.47 8 .62 2.87 2.65 4.59 5.29 5.87v-2.43a3 3 0 0 1 2.42-3 3.43 3.43 0 0 1 3.57 1.56 3.29 3.29 0 0 1 .39 3.75 4.26 4.26 0 0 0 .21 2.34c.06.26.47.44 1.06.95-.94.36-1.6.86-2.23.81-1.43-.1-1.56-1.41-1.75-2.56-2.66 1.77-3.52 4.23-2.26 6.16s3.77 1.88 6.63.13l3.68 4.49 3.73-4.54c1.71 1.35 3.57 1.9 5.6.83a3 3 0 0 0 1.48-3.33c-.25-1.73-1.36-2.85-2.89-3.85 0 1.3-.15 2.31-1.43 2.66-1 .28-1.57-.31-2.05-1.06 1.55-1.56 1.54-1.55.33-3.62a1 1 0 0 1 0-.76 12.06 12.06 0 0 1 .82-2.12 3.55 3.55 0 0 1 3.69-1.89 3.18 3.18 0 0 1 2.53 3.2c.07.72 0 1.45 0 2.19 4.54-1.91 6.73-6.78 4.95-11-1.67-3.87-5.32-5.04-10.04-3.11zm-54.48-38.56c.17.7.26 1 .32 1.28.59 2.93 1.14 5.87 1.77 8.8.65 3.08.68 3.07 3.83 2.82.08 0 .15-.08.3-.16l4.79-17h-3.7l-2.8 12.15-2.55-12.15H84l-2.4 12.06-2.72-12.1H75l4.87 17.18h3.43zm27.75-4.32v17.08c3.36 0 6.66.16 9.93-.05a4.55 4.55 0 0 0 4.18-4.08 4.34 4.34 0 0 0-2.08-4.89 11.72 11.72 0 0 0 1.39-2.3c1-3-1-5.54-4.49-5.74-2.92-.15-5.87-.02-8.92-.02zm61.46 8.59v-1.34a7.77 7.77 0 0 0-7.49-7.67c-4.43-.34-7.82 2-8.72 6.21a14.69 14.69 0 0 0-.2 4.26c.5 5.86 5.62 9.08 11.2 7.14 3.5-1.21 5.26-4.11 5.22-8.6zm14.84-3.55c-.17-2.56-1.4-4.48-3.71-5a14.75 14.75 0 0 0-5.53-.15 4.59 4.59 0 0 0-4 4.91c0 2.63 1 3.92 3.82 4.73.56.16 1.13.25 1.69.4a35.82 35.82 0 0 1 3.73 1.05 1.67 1.67 0 0 1 .58 2.83c-1.68 1.69-5.63.93-6.57-1.24a1.18 1.18 0 0 0-.77-.65c-.88-.08-1.77 0-2.64 0a4.64 4.64 0 0 0 2.75 4.87 9.88 9.88 0 0 0 8.44 0c2-.92 3-2.88 2.8-5.33-.17-2.15-1.52-3.25-3.43-3.78s-3.55-.9-5.32-1.36c-.91-.24-1.74-.62-1.71-1.75s.86-1.71 1.89-1.93c2.33-.49 3.71.21 4.71 2.37zm-91.58-5v17.15h13v-3H102v-4.43h8.15v-3H102v-3.68h8.89v-3.07zm31.88 0v17.15h12.93v-3h-9.36v-4.43h8.2v-3.11h-8.16v-3.51h8.94v-3.09zm27.33 17.17v-3.08H149v-14h-3.46v17.13z" fill="#003e71"/><path d="M149.65 86.15a18.14 18.14 0 0 1 7.11-3.86c4.07-.9 8-.77 11.57 1.67a11.53 11.53 0 0 1 4.73 8.1c1.07 6.45-.63 11.93-5.91 16.07a8.56 8.56 0 0 1-6 1.76 1.7 1.7 0 0 1-1-.87 27.93 27.93 0 0 0-1.3-2.76 3.28 3.28 0 0 0-5.44-.33 22 22 0 0 0-4.55 8.56c-1.75 5.53-3.32 11.11-5.1 16.63-.83 2.58-2 5.06-3 7.58-.7-1.73-1.43-3.46-2.11-5.2a37.92 37.92 0 0 0-5.11-9.13c-.74 1.19-1.46 2.15-2 3.21-1.79 3.64-3.5 7.32-5.24 11-1.35-4-2.72-7.91-4-11.88-1.81-5.41-3.48-10.86-5.43-16.22a15.55 15.55 0 0 0-2.97-4.48c-1.66-2-4.14-1.73-5.59.44a8.86 8.86 0 0 0-1.1 2.56c-.21.77-.59.93-1.33.95-3.76.11-6.44-1.82-8.67-4.56a16.85 16.85 0 0 1-1.53-17.83c2.57-4.54 6.75-6 11.69-5.74a15 15 0 0 1 9 3.43c.31.25.65.45 1 .67a2.57 2.57 0 0 0 .31.43 39 39 0 0 1 9 12.72 6.41 6.41 0 0 0 .51.75 71.44 71.44 0 0 1 6.75-16.39l6.47 16.12c.42-.84.87-1.78 1.35-2.72a43.11 43.11 0 0 1 7.89-10.68z" fill="#8ed7f6"/><path d="M149.65 86.15a43.11 43.11 0 0 0-8 10.7c-.47.94-.93 1.88-1.35 2.72l-6.47-16.12a71.44 71.44 0 0 0-6.75 16.39 6.41 6.41 0 0 1-.51-.75 39 39 0 0 0-9-12.72 2.57 2.57 0 0 1-.31-.43c1.72-7.24 3.34-14.51 5.17-21.72a110.64 110.64 0 0 1 10.11-26.68c.3-.54.61-1.08 1.15-2 1.89 4.09 3.79 7.84 5.39 11.72 3.71 9 5.89 18.4 8 27.84q1.33 5.5 2.57 11.05zm-9.29 114.95c4.73-1.93 8.38-.75 10 3.13 1.78 4.21-.4 9.08-4.95 11 0-.73.06-1.46 0-2.19a3.18 3.18 0 0 0-2.53-3.2 3.55 3.55 0 0 0-3.69 1.89 12.06 12.06 0 0 0-.82 2.12 1 1 0 0 0 0 .76c1.21 2.07 1.22 2.06-.33 3.62.48.75 1 1.34 2.05 1.06 1.28-.35 1.39-1.36 1.43-2.66 1.53 1 2.64 2.12 2.89 3.85a3 3 0 0 1-1.41 3.32c-2 1.08-3.88.52-5.6-.83l-3.73 4.54L130 223c-2.85 1.74-5.42 1.71-6.63-.13s-.4-4.39 2.26-6.16c.19 1.15.31 2.46 1.75 2.56.63 0 1.3-.45 2.23-.81-.59-.51-1-.69-1.06-.95a4.26 4.26 0 0 1-.21-2.34 3.29 3.29 0 0 0-.39-3.75 3.43 3.43 0 0 0-3.57-1.56 3 3 0 0 0-2.42 3c-.05.75 0 1.51 0 2.43-2.63-1.28-4.66-3-5.29-5.87-.67-3.07-.17-5.9 2.47-8 2.45-1.92 5.07-1.53 7.83-.32.64-5.23 5.07-8.57 6.68-13.65 1.57 5.01 5.99 8.32 6.71 13.65zm-14.12-62.53c1.74-3.67 3.46-7.35 5.24-11 .52-1.06 1.24-2 2-3.21a37.92 37.92 0 0 1 5.11 9.13c.67 1.75 1.4 3.47 2.11 5.2-1.66 4.13-4.76 8.69-7.29 10.65a30.72 30.72 0 0 1-7.17-10.77z" fill="#ffdc00"/><path d="M85.88 162.54l-2.63 12.88h-3.43L75 158.24h3.92l2.72 12.1 2.36-12.1h3.87l2.55 12.15 2.8-12.15h3.7l-4.79 17c-.15.08-.23.15-.3.16-3.15.25-3.18.25-3.83-2.82-.62-2.92-1.18-5.86-1.77-8.8-.09-.26-.17-.55-.35-1.24zm27.76-4.32c3.05 0 6-.13 8.93 0 3.5.19 5.44 2.75 4.49 5.74a11.72 11.72 0 0 1-1.39 2.3 4.34 4.34 0 0 1 2.08 4.89 4.55 4.55 0 0 1-4.18 4.08c-3.28.21-6.57.05-9.93.05zm3.51 14.2h4.64a2.12 2.12 0 0 0 2.34-2.18 2 2 0 0 0-2.16-2.31c-1.58-.09-3.18 0-4.82 0zm-.06-7.52h4.74a1.78 1.78 0 0 0 1.93-1.8c0-1.19-.73-1.72-1.77-1.77-1.59-.08-3.19 0-4.84 0 0 .38-.06.69-.06 1v2.57zm58.01 1.91c0 4.49-1.72 7.38-5.21 8.6-5.58 1.95-10.69-1.28-11.2-7.14a14.69 14.69 0 0 1 .2-4.26c.9-4.21 4.28-6.55 8.72-6.21a7.77 7.77 0 0 1 7.49 7.67c.02.45 0 .89 0 1.34zm-3.4.22a27.17 27.17 0 0 0-.74-3.32 4.38 4.38 0 0 0-8.22 0 8.5 8.5 0 0 0 .14 6.53 4.11 4.11 0 0 0 3.93 2.55 3.87 3.87 0 0 0 3.82-2.25 24.69 24.69 0 0 0 1.07-3.54zm18.24-3.77h-3.28c-1-2.16-2.37-2.87-4.71-2.37-1 .22-1.86.74-1.89 1.93s.8 1.51 1.71 1.75c1.77.46 3.56.86 5.32 1.36s3.26 1.64 3.43 3.78c.2 2.44-.76 4.41-2.8 5.33a9.88 9.88 0 0 1-8.44 0 4.64 4.64 0 0 1-2.75-4.87c.87 0 1.76-.05 2.64 0a1.18 1.18 0 0 1 .77.65c.93 2.17 4.88 2.93 6.57 1.24a1.67 1.67 0 0 0-.58-2.83 35.82 35.82 0 0 0-3.73-1.05c-.56-.15-1.14-.24-1.69-.4-2.8-.81-3.84-2.1-3.82-4.73a4.59 4.59 0 0 1 4-4.91 14.75 14.75 0 0 1 5.53.15c2.32.5 3.55 2.41 3.72 4.97zm-91.58-5.03h12.51v3.07H102v3.57h8.16v3H102v4.43h9.37v3h-13zm31.88-.01h12.54v3.09h-8.94v3.51H142v3.11h-8.2v4.43h9.37v3h-12.93zm27.33 17.17h-12v-17.13H149v14h8.56z" fill="#8ed7f6"/><path d="M117.15 172.42v-4.52c1.64 0 3.24-.07 4.82 0a2 2 0 0 1 2.16 2.31 2.12 2.12 0 0 1-2.34 2.18c-1.51.05-3.02.03-4.64.03zm-.06-7.52v-2.62c0-.3 0-.61.06-1 1.65 0 3.25-.06 4.84 0 1 .05 1.81.58 1.77 1.77a1.78 1.78 0 0 1-1.93 1.8c-1.51.09-3.03.05-4.74.05zm54.61 2.1a24.69 24.69 0 0 1-1.06 3.55 3.87 3.87 0 0 1-3.82 2.25 4.11 4.11 0 0 1-3.93-2.55 8.5 8.5 0 0 1-.14-6.53 4.38 4.38 0 0 1 8.22 0 27.17 27.17 0 0 1 .73 3.28z" fill="#003e71"/><path d="M199.72 233.16a8 8 0 1 1 2.34-5.67 7.7 7.7 0 0 1-2.34 5.67zm-10.52-10.54a6.65 6.65 0 0 0-2 4.87 6.73 6.73 0 0 0 2 4.9 6.86 6.86 0 0 0 9.74 0 7 7 0 0 0 0-9.77 6.85 6.85 0 0 0-9.73 0zm4.7.45a6.7 6.7 0 0 1 2.4.32 2.18 2.18 0 0 1 1.36 2.22 1.92 1.92 0 0 1-.86 1.73 3.33 3.33 0 0 1-1.27.43 2.13 2.13 0 0 1 1.51.86 2.41 2.41 0 0 1 .48 1.36v1.29a1.41 1.41 0 0 0 .08.46l.05.11h-1.45v-1.16a2.14 2.14 0 0 0-.83-2 3.72 3.72 0 0 0-1.72-.28h-1.22v3.45h-1.55v-8.78zm1.67 1.38a4 4 0 0 0-1.87-.33h-1.32v3.18h1.4a4.2 4.2 0 0 0 1.47-.2 1.58 1.58 0 0 0 .32-2.66z" fill="#231f20"/></svg>