<svg xmlns="http://www.w3.org/2000/svg" viewBox="0 0 267.22 267.22"><title>wolf</title><path d="M267.22 133.88c-.17 0-.38 0-.5.11a9.65 9.65 0 0 0-.78.76q-65.59 65.59-131.18 131.2c-.36.36-1 .58-.88 1.27h-.55c0-.17 0-.38-.11-.5a9.66 9.66 0 0 0-.76-.78Q66.87 200.34 1.27 134.76c-.36-.36-.58-1-1.27-.88v-.55c.17 0 .38 0 .5-.11a9.65 9.65 0 0 0 .78-.76Q66.87 66.87 132.46 1.27c.36-.36 1-.58.88-1.27h.55c0 .17 0 .38.11.5a9.65 9.65 0 0 0 .76.78q65.59 65.59 131.2 131.18c.36.36.58 1 1.27.88zM133.48 4.4a1.44 1.44 0 0 0-.21.17L4.4 133.44a.22.22 0 0 0 0 .12v-.11l129.33 129.37a1.44 1.44 0 0 0 .21-.17l128.87-128.87a.22.22 0 0 0 0-.12v.1z" fill="#ec1e3b"/><path d="M133.48 4.4l129.37 129.37v-.1a.22.22 0 0 1 0 .12l-128.9 128.86a1.44 1.44 0 0 1-.21.17L4.36 133.44v.11a.22.22 0 0 1 0-.12L133.27 4.57a1.44 1.44 0 0 1 .21-.17zM19.57 133.58L133.8 247.8l114-114a.22.22 0 0 0 0-.12v.06L133.64 19.5z" fill="#ffdc00"/><path d="M19.57 133.58L133.64 19.5l114.22 114.22v-.06a.22.22 0 0 1 0 .12l-114 114zm147.85-42c0-.41-.34-.23-.55-.27l-.55-.74c-.08-.83.61-1.65.13-2.54-1.15.22-1.66-.92-2.58-1.22v-1.74h.49c.2-1.4-.2-2.74.31-4l-.57-.2V78.3l-.78-.48a17.3 17.3 0 0 0 .79-2.53 17.93 17.93 0 0 0 .54-1.95c0-1.23.78-2.33.58-3.59.53-.61 0-1.42.34-2s.11-1.49.19-2.24v-1.09a14.94 14.94 0 0 0-.3-3 1.87 1.87 0 0 0-.45-.89 8.19 8.19 0 0 0-.74-.79l-2.24-.3a83.9 83.9 0 0 0-7.93 4.22c-1.21.79-2.49 1.47-3.69 2.29s-2.55 1.51-3.82 2.27c-.91.55-1.79 1.14-2.77 1.78-1-.93-1.84-.24-2.72.18l-.52-1.18-1.4.26-.29-.69a10.89 10.89 0 0 1-1.08.64 10.29 10.29 0 0 1-1.17.36l-.33-.53c-.7-.23-1.27.15-1.74-.34a.52.52 0 0 0-.51 0c-.42.43-.93.26-1.4.25a3.69 3.69 0 0 0-1.84.5 2.48 2.48 0 0 1-1.76.29c-.6-.53-.57-1.58-1.53-1.88-.37.2-.59.84-1.21.5l-.46-.46a2.16 2.16 0 0 0-2 .82 5.71 5.71 0 0 0-3.4.66 2.91 2.91 0 0 1-2 .38 5.15 5.15 0 0 1-.81-.35l-.22.61a1.64 1.64 0 0 1-1.49-.58 11.55 11.55 0 0 0-1.23-1c-.45-.31-.94-.58-1.41-.87-1.9-1.22-3.51-2.82-5.39-4.07a19.74 19.74 0 0 0-4.26-2.23c-.61-.22-1.31 0-1.78-.29a2.25 2.25 0 0 0-1.8-.16 10.48 10.48 0 0 1-1.35.2 4.52 4.52 0 0 0-2.64 3.08c-.18.75-.33 1.51-.45 2.28a21.69 21.69 0 0 0-.45 2.79v5.58c0 .27-.11.63 0 .8.29.36.21.74.26 1.13s.23.83.25 1.25a15.67 15.67 0 0 0 .69 2.72l.17.72-1.12.75.33.44a3.32 3.32 0 0 1-1.66 1.2 1.52 1.52 0 0 1-.86 1.24v1.33a6 6 0 0 0-1 1.64 4.63 4.63 0 0 1-1.45 2.49c.29 1.5-1.32 1.92-1.64 3.2v2c-.82.94-2.34.53-3 1.7a6.5 6.5 0 0 0 .25 1.95c.34.79-.21 1.63-.24 2.46h-1.35c0 .91.17 1.79-.64 2.39.39.48.53.89.09 1.33a4.85 4.85 0 0 0-.6.84c-.2.32-.37.66-.54 1l.32.35c-.65 1.76-.67 1.89-.33 2.77a1.72 1.72 0 0 0-.74 1.45 11.27 11.27 0 0 0 .54 1.74l-.9.91c.2.62.56 1.13.1 1.76-.15.21.11.72.19 1.18a3.27 3.27 0 0 0 .87 3.85v.49l.76.45c.05 1.35.12 1.4-.25 2a1.4 1.4 0 0 0-.19 1.21c1.06.54 2.4.36 3.28 1.38a6.39 6.39 0 0 0-.35 3 1.76 1.76 0 0 0 1.73-.41l1.53-.22.24.24-1.57 2.78 1.12.44v2.3c.69-.51 1.4-.17 2.1-.29l.08 1.48 1.23-.38 1 1.71 2.58-1.25c.09 1.26-1.27 1.88-1 3.05 1.6.33 2.79-1 4.34-1.05a2.46 2.46 0 0 1-1 1.71 2.15 2.15 0 0 0-.85 1.65 7.72 7.72 0 0 0 1.52-.36 1.62 1.62 0 0 1 2 .19l.05 1 1.48-.35c.4.54-.07 1-.18 1.47l.49.43h1.94l.94.68c.32.87-1 1.74.14 2.63a6 6 0 0 0 1.24-.33 2.73 2.73 0 0 1 3.12 0 7.73 7.73 0 0 0 2 .72v1.64l.4.4h2.31l.76-.91 1.56.38.45 1.22a3.23 3.23 0 0 0 2.11.4l1.8 1.08a5 5 0 0 1 3.36 1.12 8.15 8.15 0 0 1 2.92.46 4.23 4.23 0 0 0 2.18.34 6.22 6.22 0 0 1 1-.26 22.53 22.53 0 0 0 2.62-.24 13.08 13.08 0 0 0 3-1 14.79 14.79 0 0 0 4.84-3.45h1.36c.57.51 1 1.23 2.07 1l.36-2.95 3.19.84-.34-1.82c1 .62 1.32-.58 2.1-.43.15 0 .41-.33.56-.55a1.34 1.34 0 0 0 .11-.5l.49-.25 1 .3c.48-.9.52-1.94 1.42-2.51h.89l.27-.63.72-1 1.65.63.48-2.27 1.32.34-.23-2.43c.83-.57 1.84-.23 2.77-.34a2.42 2.42 0 0 0 1-2.21c-.06-.76 0-1.54 0-2.25l.34-.37c1.19-.41 2.09.76 3.21.41v-.75l.27-.27c.58.12.73-.43 1.13-.7v-.86c.51-.23.79.06 1.08.35a.86.86 0 0 0 .31.14l.73-.73a24.78 24.78 0 0 0 .27-2.54 4.19 4.19 0 0 1 .76-3h.49l.63.6 1.09-.31c.23-.93-.54-1.64-.21-2.53l.75-.69a11.78 11.78 0 0 0-2.09-3V117l3-.44V116l-.86-.55.37-1.46-1.4-.73v-.54l1-.61-.94-1.64a8.72 8.72 0 0 1 .6-4.24l-.56-.54-1.56.28-.77-.39a8.45 8.45 0 0 1 1.41-.9c.59-.23.62-.76.92-1.23l-.65-.48v-1.37l-.85-.59.38-3-1.84-1.21.95-.46-2.36-1v-.69c.63.1.77-.47 1.31-.83-1-.41-.59-1.63-1.58-1.89H168c-.06-.45-.37-.27-.58-.31zM128.12 219a1.65 1.65 0 0 1-1.77-.19 4.38 4.38 0 0 1-.78-2.26c-.4.36-.66.59-.91.83a9.18 9.18 0 0 0-1.33 1.36 3.43 3.43 0 0 0-.61 1.64c-.09 2.11.85 3.76 3.44 4a4.75 4.75 0 0 0 3.13-1 5 5 0 0 1 .9-.4 11.23 11.23 0 0 0 3.48 4.13 19.69 19.69 0 0 0 3.63-4.11c3 2 5.07 1.85 7-.43l.27-2.51c-.85-1.37-1.32-2.85-3.09-3.37.16 1.15 0 2.11-1.39 2.53-1.38 0-1.67-.16-1.87-1.33l1.09-.9v-1.79l-1.07-.86.92-2.71a8.42 8.42 0 0 1 1.42-1.37 6.27 6.27 0 0 1 1.66-.51 3.31 3.31 0 0 1 3.13 2.66v3.08c.71-.5 1.3-1 1.95-1.37a7.53 7.53 0 0 0 2.22-2.19 5.46 5.46 0 0 0 1.21-2.77c.07-1 .75-2 0-3a5.69 5.69 0 0 0-1.34-3.4 5.29 5.29 0 0 0-4.65-2.57 10.85 10.85 0 0 0-2.63.22c-.58.14-1 .59-1.66.6a8 8 0 0 1-.35-1 10.24 10.24 0 0 0-1-2.86c-1-1.84-2.26-3.51-3.35-5.3a8.88 8.88 0 0 1-1.68-3.26c0-.27-.35-.5-.6-.83-.34.78-.59 1.45-.91 2.08a50.45 50.45 0 0 1-3.17 5.09 13.55 13.55 0 0 0-2.48 6 1.92 1.92 0 0 1-.3 0 1 1 0 0 1-.37-.09 5.07 5.07 0 0 0-3.11-.73h-1.23a3.84 3.84 0 0 0-2 .68 13 13 0 0 0-1.89 1.67 5.2 5.2 0 0 0-1.6 3.83v1.64a7.49 7.49 0 0 0 2.76 5.66 20.71 20.71 0 0 0 3.1 1.95 5.63 5.63 0 0 1-.06-4.19c.3-.3.61-.63.94-.94a2.46 2.46 0 0 1 2-.59 3.34 3.34 0 0 1 2.89 1.79 4.85 4.85 0 0 1 .95 2.84l-1.08 1.07v1.24l1.31 1.34zm-10.56-57.8h-4.16l-3.15 13.86c-.84-4.65-1.87-9.28-2.86-13.87h-4.22l-.34.34c-.11.49.13 1.06-.3 1.5a44.21 44.21 0 0 1-1.08 5.55c-.14.59-.19 1.19-.28 1.79a10.39 10.39 0 0 1-.3 1.92 5.78 5.78 0 0 0-.26 1.53 2.5 2.5 0 0 1-.38.76c-.34-1.65-.6-3.17-1-4.66s-.61-2.9-1-4.33a31.65 31.65 0 0 0-1.13-4.4H93a3.56 3.56 0 0 0 0 1.09c.37 1.08.63 2.19 1 3.28s.65 2 .88 3c.42 1.86 1 3.69 1.49 5.53.58 2.24 1.24 4.47 1.93 6.62h3.95c1-4.82 2.09-9.57 2.92-14.64l3 14.66h4.12c.28-1 .56-2 .81-3s.71-2 .91-3c.44-2.26 1.4-4.38 1.7-6.66.77-1.56.86-3.34 1.59-4.93a7.77 7.77 0 0 0 .26-1.94zm.78 9.5v1.73a5.08 5.08 0 0 0 .27 1.39 8.44 8.44 0 0 0 1.39 3.78c.34.47.82.83 1.2 1.28 1.42 1.66 3.38 2.17 5.39 2.43a8.38 8.38 0 0 0 3.56-.24 9.44 9.44 0 0 0 3.56-1.6 9 9 0 0 0 2.36-3 15 15 0 0 0 1.08-3.9 6.87 6.87 0 0 0 0-1.77c-.05-.61.18-1.23-.17-1.83s.1-1.15-.36-1.62c-.34-2.24-1.85-3.72-3.43-5.1a7.85 7.85 0 0 0-2.25-1.1 8.1 8.1 0 0 0-1.38-.29c-.5-.1-1 .15-1.55-.24-.37-.27-.92.21-1.36.21a8.3 8.3 0 0 0-2.64.56c-2.61.82-4 2.79-5.11 5.11-.15 1.5-.9 2.89-.56 4.19zm38.49-9.52v19.61h2.06a13.54 13.54 0 0 0 2-.05v-8.14h8.47a.24.24 0 0 0 .12 0v-3.46h-8.47a.22.22 0 0 1-.12 0s-.06-.06 0 0v-4.27h9.71v-3.49zm-16.36.27v19.27H154v-3.48h-9.56a.24.24 0 0 1-.12 0 1.21 1.21 0 0 1-.14-.13v-15.66z" fill="#ec1e3b"/><path d="M168.78 94.62v.69l2.36 1-.95.46 1.62 1.23-.38 3 .85.59V103l.65.48c-.3.47-.32 1-.92 1.23a8.45 8.45 0 0 0-1.41.9l.77.39 1.56-.28.56.54a8.72 8.72 0 0 0-.6 4.24l.94 1.64-1 .61v.54l1.4.73-.37 1.46.86.55v.57l-3 .44v.52a11.78 11.78 0 0 1 2.09 3l-.75.69c-.33.88.45 1.6.21 2.53l-1.09.31-.63-.6h-.49a4.19 4.19 0 0 0-.76 3 24.78 24.78 0 0 1-.27 2.54l-.73.73a.86.86 0 0 1-.31-.14c-.29-.3-.56-.59-1.08-.35v.86c-.4.28-.55.83-1.13.7l.26-.85c-.47-.68-.22-1.41-.24-2.12a1.86 1.86 0 0 1 1.49.53c.52.38.53.38 1.12-.1a14.2 14.2 0 0 0 .39-2.68 15.76 15.76 0 0 1 .32-2.48l-1.54-1.54h-1.18l.31 1.6c-.64 1-1.49 1.73-1.4 2.91l-2.09 1.72a3.51 3.51 0 0 1-2.31-.75 4.16 4.16 0 0 0-2.76-.88 1.56 1.56 0 0 0-.78 1.31l-.47.15v.65l2.45 2.08v1.12c-.17.17-.23.27-.3.3a5.64 5.64 0 0 0-3.22 3.23c-.16.33-.29.67-.44 1l-1.35-.68-.71 1.08v1.07l-.42.38c-1-.16-1.7-1.43-2.85-.45v2.08L150 140c-.31 2-.31 2 .41 4.5h1a1.34 1.34 0 0 1-.11.5c-.15.22-.41.58-.56.55-.78-.15-1.11 1.05-2.1.43l.34 1.82-3.19-.84-.36 2.95c-1 .19-1.51-.53-2.07-1H142a14.79 14.79 0 0 1-4.84 3.45 13.08 13.08 0 0 1-3 1 22.53 22.53 0 0 1-2.62.24 6.22 6.22 0 0 0-1 .26 4.23 4.23 0 0 1-2.18-.34 8.15 8.15 0 0 0-2.92-.46 5 5 0 0 0-3.36-1.12l-1.8-1.08a3.23 3.23 0 0 1-2.11-.4l-.45-1.22-1.56-.38-.76.91H113l-.4-.4v-1.64a7.73 7.73 0 0 1-2-.72 2.73 2.73 0 0 0-3.12 0 6 6 0 0 1-1.24.33c-1.09-.89.18-1.75-.14-2.63l-.94-.68h-1.94l-.49-.43c.11-.49.58-.94.18-1.47l-1.48.35-.05-1a1.62 1.62 0 0 0-2-.19 7.72 7.72 0 0 1-1.52.36 2.15 2.15 0 0 1 .85-1.65 2.46 2.46 0 0 0 1-1.71c-1.55 0-2.74 1.38-4.34 1.05-.23-1.17 1.14-1.79 1-3.05l-2.58 1.25-1-1.71-1.23.38-.08-1.48c-.7.13-1.41-.22-2.1.29v-2.41l-1.12-.44 1.57-2.78-.24-.24-1.53.22a1.76 1.76 0 0 1-1.73.41 6.39 6.39 0 0 1 .35-3c-.89-1-2.23-.84-3.28-1.38a1.4 1.4 0 0 1 .19-1.21c.37-.56.3-.6.25-2l-.76-.45v-.49a3.27 3.27 0 0 1-.87-3.85c-.09-.46-.35-1-.19-1.18.45-.63.1-1.15-.1-1.76l.9-.91a11.27 11.27 0 0 1-.54-1.74 1.72 1.72 0 0 1 .74-1.45c-.34-.89-.32-1 .33-2.77l-.32-.35c.17-.31.34-.65.54-1a4.85 4.85 0 0 1 .6-.84c.44-.45.3-.85-.09-1.33.81-.6.6-1.48.64-2.39h1.08l-.6.87.31.79-.52.52v1.92l-.94.79-.65 3.25 1.16.85H86l-.19-.19.91-.45c-.12-.62-.4-1.15-.27-1.53a21 21 0 0 1 1.33-2.85c.41-.79 1-1.5 1.34-2.31s.56-1.77.85-2.65c.1-.32.23-.84.42-.88.69-.12.67-.74.93-1.13s.52-.88.82-1.4c-.2-.79.35-1.46.72-2.18a7.68 7.68 0 0 0 1.17-4.42 1.78 1.78 0 0 1 .39-1.2c.47-.72 1.07-1.35 1.8-2.22 0 1.38-.86 2.1-1.07 3l.89 2.09h.73c.52-.53.9-.94 1.31-1.32.22-.2.6-.31.71-.54.44-1 1.43-1.32 2.19-1.93 1.95-1.55 4.23-2.57 6.25-4a2.93 2.93 0 0 1 .95-.34 5.09 5.09 0 0 0 2.7-1.08 1.57 1.57 0 0 1 .83-.28 4.05 4.05 0 0 0 2.69-1.4 3 3 0 0 1 2.23-1.09l1.78-1.82c1.48-.19 2.17-1.34 3-2.22A2.27 2.27 0 0 0 122 74l-.79-1.81.48-.47c.9-.13 1.86.19 2.65-.25.67.39 1.38.1 2 .24a11.25 11.25 0 0 1 1.48.5c1.09 1.07.13 2 .27 2.76l.83 1.22v2.15c0 .24.22.47.41.85.68-1 .23-1.92.64-2.56l.16-.67c.8.35.84 1 1.13 1.53a4 4 0 0 0 1.12 1.58H134a1.84 1.84 0 0 0 1 1.1c.73.28.73 1.11 1 1.72l-.5.45h-1l-.75.53V81.1s-.13-.09-.28-.19l-.82.74.05 1.22h1.05l-.81 3.83c.44.58.84 1.16 1.29 1.68a2 2 0 0 0 1.46.91v-1.22a1.6 1.6 0 0 1 .56 0 1.8 1.8 0 0 1 .42.32 4.08 4.08 0 0 1-.41 2.37l-.79-1.06h-.51a2 2 0 0 0-.65 1.83l1.63 1.27c-.13 1.27.45 2.45.27 3.71a10.38 10.38 0 0 0 0 1.42h2.18v1.73c.56.44.58.48 1.12.23a4.7 4.7 0 0 1 3.1-.31 11.56 11.56 0 0 1 2.8 1.09c.74.41 1.49.78 2.25 1.17.06.4-.15.91.47 1.21a3.13 3.13 0 0 0 2.69-.8c.06-.07.26 0 .4 0v1l3 .4 1-1.11h1.28a4.88 4.88 0 0 1 .78.41 3.65 3.65 0 0 0 2.75.94 15.83 15.83 0 0 1 1.61 0l1.29.65.45 1h1.32l2.16-1.59h1.27l.43.63-.92.74v1c.58.3.84 1 1.52 1.24.31.13.49.67.63 1.07a3.14 3.14 0 0 1 0 1l.79.46c.2.65-.32 1.45.41 2h1.55a12.49 12.49 0 0 1-.07-5.34l-1.44-.33-.47.31a1.74 1.74 0 0 1-.77-1.54c.77-.52 1.76-.62 2.22-1.57l-.6-.67c0-.48.08-.94-.5-1.2-.49.11-1-.07-1.62.25a2.46 2.46 0 0 1-1.76.25 6.41 6.41 0 0 0-1.41-.22c-1 .92-1.38 1.17-1.76 1v-.66c.55-.62 1.4-1.14 1.3-2.28h-1.53c-1.19-.39-1.4-1.7-2.29-2.32.11-.46 0-.87.2-1.33.32-.62-.13-1.24-.54-1.74a2.29 2.29 0 0 0-1.76-.54l-.93.33.27 1.45h-1.83v-1.23l1-1h.92a10 10 0 0 0 0-1.8 8.46 8.46 0 0 0-.64-1.57l1.3-.5a4.63 4.63 0 0 0 2.83 1.8 1.56 1.56 0 0 1 .66.38c.81.69 1.6 1.4 2.45 2.15v1.46h1zm-65.44 39.81v-.75a2.81 2.81 0 0 0-2.27.51 28.26 28.26 0 0 0-4.28 3.37v.71a6 6 0 0 0 3.53-1.54 2.05 2.05 0 0 1 1.35-.67 3.27 3.27 0 0 1-.19.6c-.67 1.21-1.35 2.42-2.1 3.76h2.5c.14.7.14.7.65 1.1l1.48-.87c.44 1-.51 1.53-.45 2.33l.41.44h2l.81.65-.59 2.29a2.74 2.74 0 0 0 1.65-.49c1.13 0 2.33.2 3-1v-.71a5.42 5.42 0 0 1-1.42-1 4.18 4.18 0 0 0-1.21-1.05 3.33 3.33 0 0 1-.63-.58 7.49 7.49 0 0 1-1.17-3l-2.31-.67-.64-1.42a8.37 8.37 0 0 1 3-3.13l2.4.33.9-2.2c.14-.34.29-.66.79-.47v1.34a16 16 0 0 0-1.31 3.65l.44.46.74-.27 1.91.3 1.42 1.55c.79-.08.5-1.17 1.37-1.1a5 5 0 0 1 .35 1 18 18 0 0 0 1.32 4.5 11.52 11.52 0 0 0 3.43 4.57 2.75 2.75 0 0 0 2.24.8l2.47 2.14c1 .1 2 .26 3.09.31s2.18 0 3.27 0a10.46 10.46 0 0 0 3.31-.58 4.09 4.09 0 0 0 3-2.43.75.75 0 0 1 .65-.55 2.81 2.81 0 0 0 1.82-1.35c1.06-1.47 1.43-3.23 2.16-4.84a32.86 32.86 0 0 0 1.37-4.61 8.16 8.16 0 0 1 1.77-3.35c1-1.1 2.1-2.15 3.18-3.18a3.71 3.71 0 0 1 2.11-1l2.1-2.45c1.1.63 2.2.16 3.22.35l.41-.41.08-1.56c2.18.51 1.69.88 3.5.1l-.62-1.46a1.8 1.8 0 0 1 .25-.28l.8-.49a4.06 4.06 0 0 0 2.27-.67v-.87a2.91 2.91 0 0 0-2.63-.92l-.62 1-3.23 1.08-.14.78-2.36.79v.87l-.39.39h-.92l-.49.81c-.95-.15-1.94.22-2.89-.27-.18-.1-.5.05-.75.11-1 .22-2 .54-3 .67a5.93 5.93 0 0 0-4.24 1.94l-.4-.77a9.57 9.57 0 0 1 .72-4.74c.56-.45 1.06-1.35 2.09-1.61a1 1 0 0 0 .58-.54c.43-1 1.38-1.29 2.31-1.65a1.77 1.77 0 0 0 1.16-.88 5.3 5.3 0 0 1 1.63-1.54c1-.79 2.3-1.27 3-2.5l-1.1-1.81c1.06-.21 1.06-.21 1.06-1.18l-.68-1.16c.36-.3.64-.53.9-.78s.5-.52.73-.75h1l1.18.58c1.72-.82 1.72-.82 3.25-2.95-.76-.27-1.34-.85-2.27-.53a15.67 15.67 0 0 1-2.18.45 3.09 3.09 0 0 0-2.71-.73 13.27 13.27 0 0 1-2.27.43c-.76.07-1.53 0-2.17 0a3.27 3.27 0 0 0-3.17-.7 12.13 12.13 0 0 0-2.91 1.2 10.86 10.86 0 0 1-2.37.77c-1.56 1.2-1.35 3.39-2.12 5.16a12.85 12.85 0 0 0 1.72 5.05l.46-.44a4 4 0 0 0 0-.9 10.2 10.2 0 0 0-.43-1.18c-.42-1.16-.42-1.16 0-2.07a24.47 24.47 0 0 1 3.8-1.32l.94-1 .85.3 1.08-.32c.46-.46 1-.92 1.41-1.42a2.37 2.37 0 0 1 2.32-.93 3.84 3.84 0 0 1 1.9 2c-.72-.21-1.35-.84-1.76.08V111l.28.57a2 2 0 0 1-1.29 1.58 3.47 3.47 0 0 0-1.09.62c-1.21 1.42-1.22 1.36-3.19 2.14a2.86 2.86 0 0 1-1.92.16 8.53 8.53 0 0 0-1.38-.2l-.46.46v4.45l-.62.29c-.16-.5-.28-.91-.43-1.3a22.12 22.12 0 0 1-.84-2.25 1.81 1.81 0 0 0-1.24-1.44l-1.38-4-1.75-1.44-.86.4.35 2.92-1 .42c-.2-.26-.54-.5-.55-.76 0-.84-.75-1.16-1.23-1.78v-1.92h-.68a3.4 3.4 0 0 0-.29 2.59 11.22 11.22 0 0 1 .47 2.91l-1.67 1.67v1.1a5.17 5.17 0 0 1-1 1.3c-.5.31-.67.86-1.12 1.17a4.88 4.88 0 0 0 0 .82c0 .2.25.38.25.57 0 .88.58 1.71.06 2.66-.21.38.05 1 .11 1.55 0 .21.11.42.12.63a10.7 10.7 0 0 0 .45 4.07l.35.28a3.84 3.84 0 0 1-.89 3.26l.92.79.65-.67 3.31.38 3.48 1.76c-.2.71-.83.84-1.3 1.2h-3.22c-1 0-2.05.58-3.16.15v-1.17l-.56-.79c-1.38-.37-2.37.33-3.51.55a6.5 6.5 0 0 0 0 2.14 16.81 16.81 0 0 0 1.6 3.7c.34.51.77 1 1 1.29l1.26.41h2.2l1.06 1.06a1.36 1.36 0 0 0 1.23-.3 2.54 2.54 0 0 1 1.45-.72 23.68 23.68 0 0 0 2.72-.69 2.77 2.77 0 0 0 .36-.72 6.81 6.81 0 0 1 1.42-2.83 2.69 2.69 0 0 0 .65-1.64 2.26 2.26 0 0 1 .27-.79l-.32-.43a7.73 7.73 0 0 0 .81-1.23c.26-.62.36-1.3.6-1.93s.29-1.52.95-2c.3.57.57 1.14.88 1.68a6.54 6.54 0 0 1 1.26 2.62c0 .11.14.21.22.33-.12.16-.32.32-.3.44a6.39 6.39 0 0 1-.57 2.5 14.53 14.53 0 0 1-1.62 4.1c-.59 1-1.13 1.94-2.34 2.27a3.83 3.83 0 0 0-.87.51h-10.91c-1.12 0-2.18-.36-3.3-.31-.11 0-.22-.12-.34-.16a5.44 5.44 0 0 1-3-3.09c-.66-1.31-1.27-2.66-1.92-4-.26-.53-.57-1-.79-1.42.11-.38.27-.63.23-.86a4 4 0 0 1 1.06-3.12c.05-.07.17-.12.18-.19.09-.63.71-1.21.32-1.86l-1.37.26-.59-.59-.76 1c-.93-1.39-1.33-3-2.52-4-1.23-.07-.89 1.31-1.79 1.65a3.16 3.16 0 0 0-.09-2.43c-1.28-.29-1.8.92-2.82 1.46l-.09-1.47-1-1.17-1.57.34-.51-1.81-1.48.79-.81-.64-.06.14-1.7-.63-.64.3c-.24-.48.14-1.11-.71-1.43h-1.4l-.48-1.07c-1.15 0-1.1-.9-1.32-1.54L95.2 120a4.08 4.08 0 0 0-3 .86v1h1l1.53 1.88 1.07.09c-.22.77-1 1.32-.45 2.17h1.15l-.3 1.56h1a3 3 0 0 1 1.6-1.09c.26.37.48 1 .77 1 .76.09 1.15.75 1.81.93.18.05.29.34.48.59h2v.59l1.09.73 2.54-.35-.39 1.52a10.23 10.23 0 0 1-3.76 2.95zm19.51-43.25l1.44-.88c.37-1.84 1-3.82.2-5.93l3.2-2.43-.33-1.39.8-.66v-1.37c-.41-.44-.86-1-1.36-1.48a1.43 1.43 0 0 1-.51-1.53 6.68 6.68 0 0 0 .26-2.1 1.35 1.35 0 0 1-.43-.07 3.41 3.41 0 0 1-.47-.42L123.89 75l-.42 2.69-1 .55-1.25-.32.4 1.81a3.83 3.83 0 0 1-.85.69 6.89 6.89 0 0 1-2.87.28 7.22 7.22 0 0 1-4.36 2.3l-.46 1.26a5.92 5.92 0 0 1-1.25.26 2.18 2.18 0 0 0-1.71.74l.31 1.5c-1.06-.1-1.66-1-2.66-1.14v1.28c.18.27.68.39.38.89l-1.15-.33-.57.9a2.09 2.09 0 0 0-1.57.46l1 1.56-.66.45a4 4 0 0 1-1.76-1.15l-.85.1.26 2.12h-1.12a1.8 1.8 0 0 1-1.08 1.39l.62.59c.86-.61 1.69-.25 2.49-.38l.65.83v.12l-1 1h-.82l-1.95-1.32h-1.39v.83c-.33.41-.55.74-.83 1a10.47 10.47 0 0 1-.88.73v.89a4.94 4.94 0 0 0-1.74.21l3.44 4.67-.54 1.36c-.93.08-.93.08-1.42.69l1.17 1.17c-.22.88-1 1-1.54 1.16-.75.2-.61.86-1 1.2l.79.76a2.83 2.83 0 0 1 2.69 1.09h1.3a7.37 7.37 0 0 1 .74-.54 1.53 1.53 0 0 1 2 .21 2.91 2.91 0 0 1 .87 3.34 2.48 2.48 0 0 0 .88 3h.82l.9-1 2.09-.3.61.36v.87l-1.43 1 .33 1.17c1.38 0 1.45-.06 2.22-1.18.08-.11.33-.09.55-.15l-.33 1.37.61.69a14.42 14.42 0 0 1 2.75.69 6.6 6.6 0 0 1 3.11 2.38 11.65 11.65 0 0 1 1.15 3.07c.6 2.12 1.38 4.16 2 6.16l2.1.37c0-1 .5-1.81.32-2.71a.5.5 0 0 1 .07-.24 3.63 3.63 0 0 0-.67-3.51c0-.06-.15-.06-.38-.16l-.24.58a8.78 8.78 0 0 1-.62 3.13c-.13-.83-.3-1.51-.34-2.2a10.52 10.52 0 0 1 .52-3.87.85.85 0 0 0 0-.66c-.4-.48-.23-1-.25-1.54s0-1.09 0-1.64a1.4 1.4 0 0 0-1-1.47c-.32-.09-.62-.26-.93-.38a37.78 37.78 0 0 0-4-1.47 6.75 6.75 0 0 1-2-.78c-.57-.38-1.16-.75-1.7-1.16s-1.33-.6-1.44-1.4c-.08-.61-.58-.74-1-.93a10.32 10.32 0 0 0-1.61-.47c.29-2.06 2.17-2.28 3.51-3.16h1.31c.87.71 1.09 1.82 1.61 2.68.32.13.6.22.86.34a5.92 5.92 0 0 1 2.29 1.42 1.51 1.51 0 0 0 1.29.48 16.45 16.45 0 0 1 1.7 0l1.13 1v.8l.5.5a22.71 22.71 0 0 0 .13 2.74c1.36-.78 1-2.33 1.76-3.25a6.35 6.35 0 0 0-1-4.34 27.27 27.27 0 0 1-1.25-2.61c-1.69 0-3-.94-4.53-1.66h-3.11a7.89 7.89 0 0 0-2.91.55c-.95.33-1.91.59-2.92.9v-1.55a6.28 6.28 0 0 0 1.52-.54 19.58 19.58 0 0 0 2-1.72 24.8 24.8 0 0 1 2.29-2 5.71 5.71 0 0 1 3.43-1.32 2.9 2.9 0 0 0 .83-.25 4.74 4.74 0 0 0 .58.26c.25.07.52.07.75.16a11.28 11.28 0 0 0 2.17.7c.72.13 1.55.36 1.74 1.3.09.42.16.85.23 1.26.25.49.49 1 .75 1.46a7 7 0 0 1 .52 2c.19.88.24 1.8.36 2.85l1-.7c.39.1.84-.18 1.26.2a.9.9 0 0 0 .77.06c.63-.24 1.35-.08 1.92-.3a8.87 8.87 0 0 1 3.62-.49l.5.47h1.35c-.1-.41-.17-.74-.26-1.07a2.41 2.41 0 0 1 .07-1.39 14.3 14.3 0 0 1 1.75-3.37c.46-.75.79-1.57 1.17-2.35l-.86-.81-2.06.36-.76-.77a3.39 3.39 0 0 1 .25-.94c.34-.59-.26-1-.26-1.48s-.63-.34-1-.46c-.39-1.27 1.06-1.85 1-3.1l-2.54-1.84.32-2.57-.68-.11-.37-.72v-1.69l-.56-.4V82.8c-.34-.52-.5-1.12-1.13-1.28a2.82 2.82 0 0 0-.77 1.28 4.1 4.1 0 0 1-1.19 2.27c-.51 1.21-.42 2.45-1.54 3.1v1.39l.86 1.28a4.55 4.55 0 0 0-1.5 2.07l-.92.42c-.47 1.34.54 2.19 1 3.16-.24.66-.93.86-1.15 1.51a1.77 1.77 0 0 1-1.5 1.25l-.47-.64 1.7-1.35v-1a6.65 6.65 0 0 0-1.16-.51.79.79 0 0 1-.72-1c.52-.68 1.39-1.17 1.64-2.17zM89.1 131.84c.47.23 1.14 0 1.15.82l-.33 1 .5.53h2v.91l.39.39h.8l.51.76c1.14.25 1.69-.69 2.78-1.08h.85c.4-.4.76-.75 1.1-1.11a1 1 0 0 0 .13-.35l-.82-.47-.07-1.43-2.33 1.19h-1.6a3.1 3.1 0 0 0-1.79-2 2.49 2.49 0 0 1 .27-.71c.52-.66 1.08-1.28 1.62-1.92a1.06 1.06 0 0 0 .1-.29l-.54-.62c0-.32 0-.59-.07-.86l-.06-.06c-1.18-.3-1.9 1.1-3.12.72v-1.12l-1.41-1.41a3.51 3.51 0 0 0-1.33-3.23 8.66 8.66 0 0 0-1.6-1.38 5.73 5.73 0 0 1-1.23-1.18l1.05-1.11a4.1 4.1 0 0 0-.46-2.5 3.71 3.71 0 0 0 .53-.86 8.29 8.29 0 0 0 .56-2.52l-1.87-1h-1.09l-1 .77.68.73v.93l-.63 1.38.59.67-.77.5c-.08 1 .73 1.89-.09 2.8l.86.52c-.22.31-.42.63-.05 1 .15.15.35.34.36.53 0 .71.56.93 1.11 1.19-.08.45.13.91-.24 1.38a1.37 1.37 0 0 0 .1 1.78 3.49 3.49 0 0 1 2.59.91 6.55 6.55 0 0 1-.4 3l3.71-.92 1.15.43c-.77 1.24-2.06 1.88-2.59 3.29zm40 21.13h1.77a1.67 1.67 0 0 0 .83-.27 3.81 3.81 0 0 1 2.64-.53 6.32 6.32 0 0 0 4.33-1.69c.86-.67 1.65-1.42 2.57-2a3.27 3.27 0 0 0 .58-.64c-.37-.7-.87-.61-1.4-.49 0 .53-.07.88-.63 1-.35.1-.63.45-1.14.83h-1.12l-1.53 1.59-1.14-.25c-.67.71-1.54.51-2.36.55a3.38 3.38 0 0 0-.59.21c-.45.12-1 .44-1.34.27a3.9 3.9 0 0 0-1.82-.22 13.78 13.78 0 0 0-1.5 0A4.41 4.41 0 0 1 126 151c-.45-.12-1 0-1.33-.35a2.93 2.93 0 0 0-1.51-.65 2.05 2.05 0 0 1-.76-.48 2 2 0 0 0-.33-.15h-.66l-.17-.49h-.82l-.78.68c-.26-.42-.26-1-.85-1-.58.68-.58.68 0 1.37h1.73c1.09.6 1.82 1.63 3.06 1.35a6 6 0 0 0 3.72 1.1 2 2 0 0 1 1.81.62zM93 110.61c-.32-.24-.46-.71-.88-.74a3.28 3.28 0 0 0-1.75 1.63 2.79 2.79 0 0 1-.58.84 7.21 7.21 0 0 1-.84.59c-.06 0-.06.15-.09.23.13.76 1.07.33 1.33.93v.91l-.47.47v1.23l.69.07c.4.82-.62 1.59-.06 2.41h.51l2.9-2.88a5.3 5.3 0 0 0 0-1.87c-.24-.59-.34-1.22-.65-1.83h-1zm76.57-9.5h1.28l.33-2.88a3.61 3.61 0 0 0-.58-.34c-.43-.17-.88-.29-1.31-.45-.1 0-.16-.17-.24-.27.36-.18.84-.2.8-.78l-.38-.4h-1.72l-1.15.87v1.45l.56.56V100c.77 1 1.61-.3 2.41.22zm-57.4 42.59c-1 1.08-1 1.11-.83 3.06l1.69-.3a.87.87 0 0 1 .29 1.23c-.31.49-.08.93-.21 1.39a3.51 3.51 0 0 0 3.27-1.2v-1.17a4.92 4.92 0 0 0-1.29-.79 4 4 0 0 0-1.43.2l.33-1.91-.44-.5h-1.39zm35.41-2.17a2.93 2.93 0 0 1-1.52 2.37 8.11 8.11 0 0 0-.62.63l1.37 2.1h1.48c.16-.66-.55-1.18-.2-1.73l1.21.19.41-1-1-2.57zM93.3 102.28l-.11 1.07-1.26.65v.86l1.28.65c.6.05 1.26-.14 1.77.3a1.25 1.25 0 0 0 1.18.21c.36-.32.56-.62.22-1.05a11.75 11.75 0 0 1-.68-1.07c-.53-.9-1.01-1.84-2.4-1.62zm77.53 15.78l-.64.64a4 4 0 0 0 1.67 4.1l1-1.29V120a10.93 10.93 0 0 0-.65-1 11.29 11.29 0 0 0-.83-.86zm-80.09-11.22a1 1 0 0 1 .07 1.39c-.09.1 0 .33 0 .47l1 .4c1.35-.64 2.32-1.63 2.32-2.35l-.38-.37h-2.58zm80.26 7.5c-.15.52-.56 1-.19 1.57l.87.51a2.45 2.45 0 0 0 2.06-.54l-.68-1.57-.86-.37zM123.61 124l-.36-2.8-.91-1.26-.27.8-.17-.16V123l.71 1.39zM145 146.12c-.28.06-.53.08-.77.15-.49.15-.15.66-.37.93l-1.33.1a2.71 2.71 0 0 0 2.47 1.46zm19.1-25.76c.46-.44 1-.68.8-1.48l-1.52-1.13c-.74.27-.61.8-.61 1.19zM166 116a7.68 7.68 0 0 0 1 .57c1 .4 1.51.07 1.52-.93a2.21 2.21 0 0 0-2.15-.54zm-49.64 11.9c-.54-.07-.94 0-1 .6a1.77 1.77 0 0 0 .85 1.62l.74-.36a2.11 2.11 0 0 0-.59-1.86zm50.1-20.18c-1.06 0-1.77.38-1.77.93l.38.4h1.42c.45-.4.6-.8-.03-1.33z" fill="#f8f7f6"/><path d="M133.88 82.89l.75-.53h1l.5-.45c-.3-.61-.3-1.45-1-1.72a1.84 1.84 0 0 1-1-1.1h-1.6a4 4 0 0 1-1.12-1.58C131 77 131 76.33 130.2 76l-.16.67c-.4.64 0 1.58-.64 2.56-.19-.38-.4-.61-.41-.85v-2.15l-.85-1.23c-.15-.76.81-1.69-.27-2.76a11.25 11.25 0 0 0-1.48-.5c-.63-.14-1.33.15-2-.24-.79.44-1.75.12-2.65.25l-.48.47L122 74a2.27 2.27 0 0 1-.64 2.35c-.81.89-1.5 2-3 2.22l-1.78 1.82a3 3 0 0 0-2.23 1.09 4.05 4.05 0 0 1-2.69 1.4 1.57 1.57 0 0 0-.83.28 5.09 5.09 0 0 1-2.7 1.08 2.93 2.93 0 0 0-.95.34c-2 1.44-4.3 2.46-6.25 4-.76.61-1.75.93-2.19 1.93-.11.24-.49.34-.71.54-.41.38-.79.79-1.31 1.32h-.73l-.89-2.09c.21-.93 1.12-1.65 1.07-3-.72.88-1.32 1.51-1.8 2.22a1.78 1.78 0 0 0-.39 1.2 7.68 7.68 0 0 1-1.17 4.42c-.37.72-.92 1.39-.72 2.18-.31.52-.54 1-.82 1.4s-.25 1-.93 1.13c-.19 0-.31.56-.42.88-.29.88-.47 1.8-.85 2.65s-.93 1.52-1.34 2.31a21 21 0 0 0-1.33 2.85c-.13.38.15.91.27 1.53l-.91.45.19.19h-1.3l-1.16-.85.65-3.25.94-.79v-1.92l.52-.52-.31-.79.6-.87h.27l.84-.41v-4.15a3.43 3.43 0 0 0 3-1.91v-1.9c1-.21 1.22-1 1.44-1.72A4.91 4.91 0 0 1 93 89.27c-.37-1.5 1.24-2.39 1.07-3.73a6.17 6.17 0 0 1 1.17-1.48 5 5 0 0 0 1.32-1.2l-.32-.38.8-.71a16.72 16.72 0 0 0-.23-2.36 15.79 15.79 0 0 1-.56-3.41c-.51-.48 0-1.21-.31-1.63-.38-.58-.19-1.13-.22-1.68-.05-.91 0-1.82 0-2.73a20.72 20.72 0 0 1 .52-2.64 20.09 20.09 0 0 1 .83-3.61 2.18 2.18 0 0 1 1-1.45 9 9 0 0 1-.26 2.48 7.08 7.08 0 0 0-.22 1.82 11 11 0 0 0-.26 1.93 42.39 42.39 0 0 0 .21 6.3c.22 1.23.51 2.42.82 3.62a32.59 32.59 0 0 0 2 4.36 1.78 1.78 0 0 0 1.93 1 5.1 5.1 0 0 0-.22-.81c-.2-.42-.43-.82-.67-1.22a21.44 21.44 0 0 1-1.4-3.16 18.2 18.2 0 0 1-1.52-5c-.49-.69 0-1.54-.31-2.19a5.84 5.84 0 0 1-.21-2.36c0-.55.22-1.1.24-1.66a18.59 18.59 0 0 1 .8-3.81h1a5 5 0 0 1 1.5 2c.12.43.65.75.75 1.18a3.71 3.71 0 0 1-.25 1.36 3.71 3.71 0 0 1 2.69 2.15 2.19 2.19 0 0 0 .72 2H108v1.15c.89 1.58.89 1.58.39 2.51-.49.69-1.52.36-2.11 1.25a8.29 8.29 0 0 1 3.43.39 2.23 2.23 0 0 0 1.08 1.56l3.31-.32c.36-.36.86-.62.89-.94.08-.83.78-1.14 1.15-1.67a21.9 21.9 0 0 0-3.27-3.57c-1.14-1.14-2.28-2.27-3.52-3.31s-2.76-2.3-4.23-3.3a36.61 36.61 0 0 0-6.81-4 9 9 0 0 1 1.17-.39 7.46 7.46 0 0 1 3 .37 19.16 19.16 0 0 1 5.44 2.66c1.66 1.14 3.34 2.25 5 3.38a22.75 22.75 0 0 1 2.53 1.76 7.19 7.19 0 0 0 2.24 1.4l.55-.85h1.56a4.29 4.29 0 0 1 .92-.53c.34-.09.74.05 1.07-.06 1.05-.37 2.22-.19 3.23-.76a.73.73 0 0 1 .66 0c.59.53 1.14.08 1.79-.08l1.41 1.77c2.16-.54 4.3-1.3 6.34-1.16l1.54.9 1.92-1 .72.9a3.4 3.4 0 0 1 .8 0 2.59 2.59 0 0 0 2.24 0 .4.4 0 0 1 .37.05c.43.41.93.1 1.31.22.2-.2.31-.38.46-.45 1.18-.58 2.27-1.34 3.41-2 2.23-1.23 4.31-2.7 6.53-4 2.06-1.17 4.13-2.32 6.22-3.42a3.94 3.94 0 0 1 2.76-.52c.19.16.37.42.6.48a1.16 1.16 0 0 1 .84 1.17c0 .89.3 1.75.29 2.61 0 1.46-.16 2.92-.25 4.39v.13c-.62.42.08 1.27-.54 1.69a4 4 0 0 1-.28 1.79q-.42 1.73-.9 3.45a6.06 6.06 0 0 0-.45 2.36l.89.59a1.87 1.87 0 0 0 .19 2.42v3.68a3.54 3.54 0 0 1-2.05-.31l-.88 1.06 1.84.11v.89c-.28.3-.56.59-.81.9 0 .06.05.23.11.46l.88-.65h1.1l.46.73 1.24.43V90l-.31.6a2.11 2.11 0 0 0 1.41.71c0 .41.34.23.55.27 0 .41.34.23.55.27v.4c1.08.58 1.22.94.82 2.06a.84.84 0 0 0 0 .26l-2 1.06h-1v-1.42c-.84-.74-1.64-1.45-2.45-2.15a1.56 1.56 0 0 0-.66-.38 4.63 4.63 0 0 1-2.83-1.8l-1.3.5a8.46 8.46 0 0 1 .64 1.57 10 10 0 0 1 0 1.8h-.92l-1 1v1.21h1.83l-.27-1.45.93-.33a2.29 2.29 0 0 1 1.76.54c.41.5.85 1.12.54 1.74-.24.46-.09.87-.2 1.33.89.62 1.1 1.93 2.29 2.32h1.53c.1 1.14-.75 1.65-1.3 2.28v.61c.38.15.8-.11 1.76-1a6.41 6.41 0 0 1 1.41.22 2.46 2.46 0 0 0 1.76-.25c.58-.32 1.13-.13 1.62-.25.58.26.53.72.5 1.2l.6.67c-.46 1-1.45 1.05-2.22 1.57a1.74 1.74 0 0 0 .77 1.54l.47-.31 1.44.33a12.49 12.49 0 0 0 .07 5.34h-1.55c-.73-.58-.22-1.38-.41-2l-.79-.46a3.14 3.14 0 0 0 0-1c-.14-.39-.32-.94-.63-1.07-.68-.28-.95-.94-1.52-1.24v-1l.92-.74-.43-.63h-1.27l-2.16 1.59h-1.32l-.45-1-1.29-.65a15.83 15.83 0 0 0-1.61 0 3.65 3.65 0 0 1-2.75-.94 4.88 4.88 0 0 0-.78-.41h-1.28l-1 1.11-3-.4a5.15 5.15 0 0 1 .16-1.34c-.05-.14-.15-.09-.15-.05a2.25 2.25 0 0 0 .12.38c0-.16.09-.33 0-.33-.29.33-.49.27-.56.34a3.13 3.13 0 0 1-2.69.8c-.62-.3-.41-.81-.47-1.21-.76-.39-1.51-.77-2.25-1.17a11.56 11.56 0 0 0-2.8-1.09 4.7 4.7 0 0 0-3.1.31c-.53.25-.55.21-1.12-.23V97.9h-2.18a10.38 10.38 0 0 1 0-1.42c.18-1.26-.4-2.44-.27-3.71l-1.63-1.27a2 2 0 0 1 .65-1.83h.51l.79 1.06a4.08 4.08 0 0 0 .41-2.37 1.8 1.8 0 0 0-.42-.32 1.6 1.6 0 0 0-.56 0v1.24a2 2 0 0 1-1.46-.91c-.45-.52-.85-1.1-1.29-1.68zm18.7 11.47h.61v-1h-.17a4.5 4.5 0 0 0-.32 1.11l-.27.27a2.09 2.09 0 0 0-1.93 1.33c1 1.9 1.48 2.49 2.15 2.76v-1.46l-1.37-1.14 1.15-1.62c.08-.08.17-.18.15-.25zM150 92.57l1.35-1.35c.58 0 1.06.26 1.55-.11a.81.81 0 0 1 1.19.47l-.87 1.42h2.45a.76.76 0 0 0 .82-.46 3.73 3.73 0 0 1-.24-1 1.66 1.66 0 0 0-.5-1.29 1.32 1.32 0 0 1-.31-1.22l.33-.34h.88c.51.28.35 1 1 1 .28-.58 1-.71 1.32-1.38v-1.26l.43-.29a.92.92 0 0 0-1.31-.18c-.18.1-.51.19-.62.1-.5-.41-1.2-.17-1.69-.55s-.95-.78-1.43-1.15a4.69 4.69 0 0 0-.85-.57c-1.14-.53-2.34-.92-3.47-1.51a6.59 6.59 0 0 0-1.67-.37c-.12-.12-.35-.25-.43-.45A1.81 1.81 0 0 0 146.4 81a6.92 6.92 0 0 1-1.79-.59c-.43-.19-.86-.35-1.28-.52a12.72 12.72 0 0 1-2.43-1 7.94 7.94 0 0 1-3.72-5.1l.62-1.59c-.71-.24-1.24-.68-1.94-.17-.23.17-.76 0-1.14-.11A4.33 4.33 0 0 0 132 72l-1.51-.56-.5.79a2.07 2.07 0 0 0 .24 2h.73l1.15-1.32h1.13a2.92 2.92 0 0 1 1.23 2.81 5.18 5.18 0 0 0 .46 2.19l1.29-1.05.54 1.2h1.85a4.16 4.16 0 0 1 .79 3h1.26l.82 1.6 1.62-.33.53.92c.53-.1 1.07-.22 1.62-.31a1 1 0 0 1 .33 0l.43 1 3.14.41a2.18 2.18 0 0 1 .87 1.51l-.66 1.34c1.46.18 2.21-1.2 3.49-1.28.92.22 1.07 1.15 1.53 1.86-.06.66.17 1.4-.47 1.94-1.09.19-.86-1.28-1.74-1.36l-.79.4c0 .17-.08.42 0 .52.63.65.08 1.14-.24 1.6A9.49 9.49 0 0 1 150 92a6 6 0 0 0 0 .71l-.05-.05-.22.19.09.09a.63.63 0 0 0 .18-.37zM153.56 74l-.36-.73.51-.51 3.06.35v-.55a8.44 8.44 0 0 1-1.77-.32c-.76-.31-1.74-.12-2.27-.94a5.34 5.34 0 0 1 3.37-.66l.46-.46v-1.12c.51-.22 1-.4 1.44-.62a1.46 1.46 0 0 0 1.1-1.44c2-.64 2.66-2.29 3.2-4h1.08c-.23 1.59.06 3.13-.27 4.7-.27 1.3-.52 2.6-.89 3.87a20.39 20.39 0 0 1-1.2 3 38.06 38.06 0 0 1-3 5.57 2.43 2.43 0 0 0-.67 1.91.77.77 0 0 0 1.15.37 39.84 39.84 0 0 0 2.28-4 35.3 35.3 0 0 0 1.59-4c.23-.8.7-1.53.93-2.34a18.16 18.16 0 0 0 .55-2.62 23 23 0 0 0 .35-4 12.17 12.17 0 0 0-1-4.1 15.48 15.48 0 0 0-1.48.86c-1.85 1.36-3.64 2.81-5.52 4.12-2.21 1.54-4.51 2.94-6.73 4.46a20.76 20.76 0 0 0-4.12 3.2v.57c.5.52 1.75.08 1.62 1.35a10.61 10.61 0 0 0 3.51 2.11v-1.56a2.2 2.2 0 0 1-.43-2h3.07zm-16.95 7.3c.11 1.14-.59 2.13-.18 3.2.38.48.82.37 1.35.2a1.63 1.63 0 0 1 .16-2.18v-1.23zm11.66 13.13l-3.15.27c-.29.26-.51.56-.21 1a2 2 0 0 0 1.12-.21c.45-.29 1.06-.62 1.67-.07.17.15.58 0 .91 0a1.85 1.85 0 0 0 0-.64 1.45 1.45 0 0 0-.34-.36zM141.4 96a4.12 4.12 0 0 0 1.66-3c-.61 1-1.82 1.57-1.66 3z" fill="#2d2b2c"/><path d="M128.12 219l1.07-.9-1.31-1.34v-1.24l1.08-1.07a4.85 4.85 0 0 0-.95-2.84 3.34 3.34 0 0 0-2.89-1.79 2.46 2.46 0 0 0-2 .59c-.33.31-.64.64-.94.94a5.63 5.63 0 0 0 .06 4.19 20.71 20.71 0 0 1-3.1-1.95 7.49 7.49 0 0 1-2.76-5.66v-1.64a5.2 5.2 0 0 1 1.6-3.83 13 13 0 0 1 1.89-1.67 3.84 3.84 0 0 1 2-.68h1.23a5.07 5.07 0 0 1 3.11.73 1 1 0 0 0 .37.09 1.92 1.92 0 0 0 .3 0 13.55 13.55 0 0 1 2.48-6 50.45 50.45 0 0 0 3.17-5.09c.32-.63.57-1.3.91-2.08.25.33.56.56.6.83a8.88 8.88 0 0 0 1.68 3.26c1.09 1.78 2.35 3.46 3.35 5.3a10.24 10.24 0 0 1 1 2.86 8 8 0 0 0 .35 1c.62 0 1.08-.46 1.66-.6a10.85 10.85 0 0 1 2.63-.22 5.29 5.29 0 0 1 4.65 2.57 5.69 5.69 0 0 1 1.34 3.4c.71 1 0 2 0 3a5.46 5.46 0 0 1-1.21 2.77 7.53 7.53 0 0 1-2.22 2.19c-.65.38-1.24.87-1.95 1.37v-3.08a3.31 3.31 0 0 0-3.13-2.66 6.27 6.27 0 0 0-1.66.51 8.42 8.42 0 0 0-1.42 1.37l-.92 2.71 1.07.86v1.8l-1.09.9c.2 1.18.49 1.34 1.87 1.33 1.38-.41 1.54-1.37 1.39-2.53 1.77.52 2.25 2 3.09 3.37l-.27 2.51c-1.92 2.28-4 2.46-7 .43a19.69 19.69 0 0 1-3.62 4.15 11.23 11.23 0 0 1-3.43-4.16 5 5 0 0 0-.9.4 4.75 4.75 0 0 1-3.13 1c-2.59-.23-3.54-1.88-3.44-4a3.43 3.43 0 0 1 .61-1.64 9.18 9.18 0 0 1 1.33-1.36c.25-.24.51-.47.91-.83a4.38 4.38 0 0 0 .78 2.26 1.65 1.65 0 0 0 1.76.17z" fill="#ffdc00"/><path d="M117.56 161.2a7.77 7.77 0 0 1-.33 2c-.73 1.59-.81 3.37-1.59 4.93-.3 2.29-1.25 4.41-1.7 6.66-.2 1-.65 2-.91 3s-.53 2-.81 3h-4.12l-3-14.66c-.84 5.07-1.93 9.82-2.92 14.64h-3.91c-.69-2.16-1.35-4.39-1.93-6.62-.48-1.84-1.06-3.67-1.49-5.53-.23-1-.56-2-.88-3s-.6-2.2-1-3.28a3.56 3.56 0 0 1 0-1.09h4.09a31.65 31.65 0 0 1 1.13 4.4c.42 1.43.66 2.9 1 4.33s.64 3 1 4.66a2.5 2.5 0 0 0 .38-.76 5.78 5.78 0 0 1 .26-1.53 10.39 10.39 0 0 0 .3-1.92c.09-.6.14-1.21.28-1.79a44.21 44.21 0 0 0 1.08-5.55c.44-.43.19-1 .3-1.5l.34-.34h4.22c1 4.59 2 9.21 2.86 13.87l3.15-13.86z" fill="#2d2b2c"/><path d="M163.87 85.07v-3.68a1.87 1.87 0 0 1-.19-2.42l-.89-.59a6.06 6.06 0 0 1 .45-2.36q.48-1.71.9-3.45a4 4 0 0 0 .28-1.79c.62-.42-.07-1.26.54-1.69v-.13c.09-1.46.24-2.92.25-4.39 0-.87-.29-1.72-.29-2.61a1.16 1.16 0 0 0-.84-1.17c-.23-.06-.41-.32-.6-.48a3.94 3.94 0 0 0-2.76.52c-2.09 1.1-4.16 2.25-6.22 3.42-2.22 1.26-4.3 2.72-6.53 4-1.15.63-2.23 1.39-3.41 2-.15.08-.26.25-.46.45-.39-.11-.88.2-1.31-.22a.4.4 0 0 0-.37-.05 2.59 2.59 0 0 1-2.24 0 3.4 3.4 0 0 0-.8 0l-.72-.9-1.92 1-1.54-.9c-2-.14-4.18.62-6.34 1.16l-1.41-1.77c-.65.16-1.19.61-1.79.08a.73.73 0 0 0-.66 0c-1 .57-2.18.39-3.23.76-.32.11-.73 0-1.07.06a4.29 4.29 0 0 0-.92.53h-1.56l-.55.85a7.19 7.19 0 0 1-2.24-1.4 22.75 22.75 0 0 0-2.53-1.9c-1.67-1.13-3.35-2.23-5-3.38a19.16 19.16 0 0 0-5.44-2.62 7.46 7.46 0 0 0-3-.37 9 9 0 0 0-1.17.39 36.61 36.61 0 0 1 6.81 4c1.47 1 2.84 2.18 4.22 3.34s2.38 2.17 3.52 3.31a21.9 21.9 0 0 1 3.27 3.57c-.37.54-1.07.84-1.15 1.67 0 .31-.54.58-.89.94l-3.31.32a2.23 2.23 0 0 1-1.08-1.56 8.29 8.29 0 0 0-3.43-.39c.59-.89 1.62-.56 2.11-1.25.5-.93.5-.93-.39-2.51v-1.17h-2.54a2.19 2.19 0 0 1-.72-2A3.71 3.71 0 0 0 102 68.1a3.71 3.71 0 0 0 .19-1.34c-.1-.43-.63-.75-.75-1.18a5 5 0 0 0-1.5-2H99a18.59 18.59 0 0 0-.87 3.85c0 .56-.26 1.11-.24 1.66a5.84 5.84 0 0 0 .21 2.36c.28.65-.17 1.5.31 2.19a18.2 18.2 0 0 0 1.52 5 21.44 21.44 0 0 0 1.47 3.07c.23.4.47.8.67 1.22a5.1 5.1 0 0 1 .22.81 1.78 1.78 0 0 1-1.93-1 32.59 32.59 0 0 1-2-4.36c-.31-1.2-.59-2.4-.82-3.62a42.39 42.39 0 0 1-.21-6.3 11 11 0 0 1 .26-1.93 7.08 7.08 0 0 1 .22-1.82 9 9 0 0 0 .26-2.48 2.18 2.18 0 0 0-1 1.45 20.09 20.09 0 0 0-.83 3.61 20.72 20.72 0 0 0-.52 2.64v2.73c0 .55-.16 1.11.22 1.68.28.43-.2 1.15.31 1.63a15.79 15.79 0 0 0 .59 3.45 16.72 16.72 0 0 1 .23 2.36l-.8.71.32.38a5 5 0 0 1-1.32 1.2 6.17 6.17 0 0 0-1.17 1.48c.17 1.33-1.44 2.22-1.07 3.73a4.91 4.91 0 0 0-1.57 2.33c-.23.69-.48 1.52-1.44 1.72v1.9a3.43 3.43 0 0 1-3 1.91v4.16l-.84.41c0-.83.58-1.67.24-2.46a6.5 6.5 0 0 1-.25-1.95c.64-1.18 2.16-.77 3-1.7v-2c.32-1.27 1.93-1.69 1.64-3.2a4.63 4.63 0 0 0 1.45-2.49 6 6 0 0 1 1-1.64V85a1.52 1.52 0 0 0 .86-1.15 3.32 3.32 0 0 0 1.66-1.2l-.33-.44 1.12-.75-.17-.72a15.67 15.67 0 0 1-.7-2.74c0-.42-.2-.83-.25-1.25s0-.77-.26-1.13c-.13-.17 0-.53 0-.8v-5.58a21.69 21.69 0 0 1 .45-2.79c.12-.77.27-1.53.45-2.28a4.52 4.52 0 0 1 2.64-3.08 10.48 10.48 0 0 0 1.35-.2 2.25 2.25 0 0 1 1.8.16c.47.27 1.16.07 1.78.29a19.74 19.74 0 0 1 4.26 2.23c1.88 1.25 3.49 2.85 5.39 4.07.47.3 1 .56 1.41.87a11.55 11.55 0 0 1 1.23 1 1.64 1.64 0 0 0 1.49.58l.22-.61a5.15 5.15 0 0 0 .81.35 2.91 2.91 0 0 0 2-.38 5.71 5.71 0 0 1 3.4-.66 2.16 2.16 0 0 1 2-.82l.46.46c.61.34.84-.3 1.21-.5 1 .3.93 1.35 1.53 1.88a2.48 2.48 0 0 0 1.76-.29 3.69 3.69 0 0 1 1.84-.5c.47 0 1 .18 1.4-.25a.52.52 0 0 1 .51 0c.47.49 1 .11 1.74.34l.33.53a10.29 10.29 0 0 0 1.17-.36 10.89 10.89 0 0 0 1.08-.64l.29.69 1.4-.26.54 1.08c.87-.42 1.75-1.1 2.72-.18 1-.63 1.87-1.23 2.77-1.78 1.27-.77 2.6-1.44 3.82-2.27s2.48-1.5 3.69-2.29a83.9 83.9 0 0 1 7.93-4.22l2.24.3a8.19 8.19 0 0 1 .74.79 1.87 1.87 0 0 1 .45.89 14.94 14.94 0 0 1 .3 3c-.06.35 0 .73 0 1.09-.09.74.18 1.49-.19 2.24s.19 1.42-.34 2c.2 1.25-.55 2.35-.58 3.59a17.93 17.93 0 0 1-.54 1.95 17.3 17.3 0 0 1-.79 2.53l.78.48v2.57l.57.2c-.51 1.27-.11 2.61-.31 4z" fill="#f8f7f6"/><path d="M118.34 170.69c-.31-1.3.41-2.7.55-4.17 1.09-2.32 2.51-4.29 5.11-5.11a8.3 8.3 0 0 1 2.64-.56c.44 0 1-.48 1.36-.21.53.39 1 .13 1.55.24a8.1 8.1 0 0 1 1.38.29 7.85 7.85 0 0 1 2.25 1.1c1.59 1.37 3.1 2.86 3.43 5.1.46.47.09 1.14.36 1.62s.12 1.23.17 1.83a6.87 6.87 0 0 1 0 1.77 15 15 0 0 1-1.08 3.9 9 9 0 0 1-2.36 3 9.44 9.44 0 0 1-3.56 1.6 8.38 8.38 0 0 1-3.56.24c-2-.26-4-.77-5.39-2.43-.38-.44-.86-.81-1.2-1.28a8.44 8.44 0 0 1-1.39-3.78 5.08 5.08 0 0 1-.27-1.39c.05-.53.01-1.03.01-1.76zm4.08.14a13.16 13.16 0 0 0 .24 2.51 6.67 6.67 0 0 0 1.34 2.86 5 5 0 0 0 5.82 1.13 4.31 4.31 0 0 0 1.57-1.08 6.4 6.4 0 0 0 1.28-2.59 14.63 14.63 0 0 0 .4-2.43 9.43 9.43 0 0 0-.28-1.93c-.21-1-.23-2.07-1.09-2.82a2.34 2.34 0 0 0-1.29-1.46 3.11 3.11 0 0 0-1.79-.63c-.6 0-1.21-.51-1.82 0a4.49 4.49 0 0 0-3.78 3.15 6.15 6.15 0 0 0-.6 3.29zm34.41-9.66h13.81v3.49c-1.56.07-3.17 0-4.78 0h-4.93V169a.22.22 0 0 0 .12 0h8.47v3.46a.24.24 0 0 1-.12 0h-8.47v8.12a13.54 13.54 0 0 1-2 .05h-2.06zm-16.36.28h3.73v15.61a1.21 1.21 0 0 0 .14.13.24.24 0 0 0 .12 0H154v3.48h-13.53z" fill="#2d2b2c"/><path d="M166.6 131.15v.75c-1.12.36-2-.82-3.21-.41l-.34.37v2.25a2.42 2.42 0 0 1-1 2.21c-.93.12-1.94-.23-2.77.34l.23 2.43-1.32-.34-.48 2.27-1.65-.63-.72 1-.27.63h-.89c-.9.58-.94 1.61-1.42 2.51l-1-.3-.49.25.33-1.07 1-.05a3.37 3.37 0 0 0 .6-2.28l1.45.16c.65-.49.55-1.4 1.19-1.65l1.68.65V139l-.62-1.3c.42.06.66.08.9.14s.48.15.76.24a2.1 2.1 0 0 1 .11-.44 3.36 3.36 0 0 1 .28-.4c-.42-.92-.41-1 .15-1.72l1.83.36c1.45-1.21 1.16-3 1.82-4.42-.33-.47-.53-1.07-.94-1.28a9.14 9.14 0 0 1-1.21-1 .65.65 0 0 1-.29-.7c.51-.12.68.33 1 .57 1.56 1.16 3.18 2.23 5.29 2.1zm.27-39.81a2.11 2.11 0 0 1-1.41-.71l.31-.6V88.7l-1.24-.43-.46-.73H163l-.88.65c-.06-.23-.16-.41-.11-.46.25-.31.53-.6.81-.9v-.89l-1.84-.11.88-1.06a3.54 3.54 0 0 0 2.05.31v1.76c.92.3 1.44 1.44 2.58 1.22.48.9-.21 1.71-.13 2.54zm1.91 3.28a.84.84 0 0 1 0-.26c.4-1.12.26-1.48-.82-2.06v-.4h.54c1 .26.63 1.48 1.58 1.89-.52.36-.67.92-1.3.83zm-.78-2.73c-.21 0-.52.14-.55-.27.18.04.49-.14.55.27zm-.58-.27c-.21 0-.52.14-.55-.27.21.04.53-.14.55.27zm-.55 39.26l-.27.27z" fill="#f8f7f6"/><path d="M101.71 136.06a2.05 2.05 0 0 0-1.35.67 6 6 0 0 1-3.53 1.54v-.71a28.26 28.26 0 0 1 4.28-3.37 2.81 2.81 0 0 1 2.27-.51v.76l-.22.19.09.09a1.53 1.53 0 0 0 .18-.24 10.47 10.47 0 0 0 3.77-2.91l.39-1.52-2.54.35-1.09-.73V129h-2c-.19-.24-.3-.54-.48-.59-.67-.19-1.06-.84-1.81-.93-.29 0-.51-.65-.77-1a3 3 0 0 0-1.6 1.09h-1l.3-1.56h-1.27c-.51-.85.23-1.41.45-2.17l-1.07-.09-1.53-1.88h-1v-1a4.08 4.08 0 0 1 3-.86l1.26.64c.22.64.17 1.58 1.32 1.54l.48 1.07h1.46c.86.31.48.95.71 1.43l.64-.3 1.7.63.06-.14.81.64 1.48-.79.51 1.81 1.57-.34 1 1.17.09 1.47c1-.53 1.53-1.75 2.82-1.46a3.16 3.16 0 0 1 .09 2.43c.89-.34.56-1.72 1.79-1.65 1.19 1 1.59 2.62 2.52 4l.76-1 .59.59 1.37-.26c.39.65-.23 1.22-.32 1.86 0 .07-.13.12-.18.19a4 4 0 0 0-1.06 3.12c0 .22-.12.48-.23.86.22.39.53.89.79 1.42.65 1.32 1.26 2.66 1.92 4a5.44 5.44 0 0 0 3 3.09c.12 0 .23.17.34.16 1.11-.06 2.17.33 3.3.31 3.63-.07 7.27 0 10.91 0a3.83 3.83 0 0 1 .87-.51c1.21-.33 1.76-1.3 2.34-2.27a14.53 14.53 0 0 0 1.62-4.1 6.39 6.39 0 0 0 .57-2.5c0-.12.18-.27.3-.44-.08-.12-.21-.22-.22-.33a6.54 6.54 0 0 0-1.26-2.62c-.32-.55-.59-1.12-.88-1.68-.66.51-.68 1.33-.95 2s-.34 1.31-.6 1.93a7.73 7.73 0 0 1-.81 1.23l.32.43a2.26 2.26 0 0 0-.27.79 2.69 2.69 0 0 1-.65 1.64 6.81 6.81 0 0 0-1.42 2.83 2.77 2.77 0 0 1-.36.72 23.68 23.68 0 0 1-2.72.69 2.54 2.54 0 0 0-1.45.72 1.36 1.36 0 0 1-1.23.3l-1.06-1.06h-2.2l-1.26-.41c-.26-.32-.68-.78-1-1.29a16.81 16.81 0 0 1-1.6-3.7 6.5 6.5 0 0 1 0-2.14c1.14-.22 2.14-.92 3.51-.55l.56.79v1.17c1.11.43 2.12-.16 3.16-.15h3.22c.48-.36 1.1-.48 1.3-1.2L131 135l-3.25-.38-.65.67-.92-.79a3.84 3.84 0 0 0 .89-3.26l-.35-.28a10.7 10.7 0 0 1-.45-4.07c0-.21-.09-.42-.12-.63-.06-.52-.32-1.17-.11-1.55.53-1-.09-1.78-.06-2.66 0-.19-.21-.37-.25-.57a4.93 4.93 0 0 1 0-.82c.45-.31.62-.86 1.12-1.17a5.17 5.17 0 0 0 1-1.3v-1.1l1.67-1.67a11.22 11.22 0 0 0-.47-2.91 3.4 3.4 0 0 1 .29-2.59h.66v1.92c.47.62 1.18.94 1.23 1.78 0 .26.35.5.55.76l1-.42-.35-2.92.86-.4 1.75 1.44 1.38 4a1.81 1.81 0 0 1 1.24 1.44 22.12 22.12 0 0 0 .84 2.25c.15.4.26.8.43 1.3l.62-.29v-4.45l.46-.46a8.53 8.53 0 0 1 1.38.2 2.86 2.86 0 0 0 1.92-.16c2-.78 2-.72 3.19-2.14a3.47 3.47 0 0 1 1.09-.62 2 2 0 0 0 1.29-1.58l-.28-.57v-1.46c.41-.92 1-.29 1.76-.08a3.84 3.84 0 0 0-1.9-2 2.37 2.37 0 0 0-2.32.93c-.46.5-1 1-1.41 1.42l-1.08.32-.85-.3-.94 1a24.47 24.47 0 0 0-3.8 1.32c-.41.91-.41.91 0 2.07a10.2 10.2 0 0 1 .43 1.18 4 4 0 0 1 0 .9l-.46.44a12.85 12.85 0 0 1-1.72-5.05c.77-1.77.56-4 2.12-5.16a10.86 10.86 0 0 0 2.37-.77 12.13 12.13 0 0 1 2.91-1.2 3.27 3.27 0 0 1 3.17.7c.64 0 1.41.06 2.17 0a13.27 13.27 0 0 0 2.27-.43 3.09 3.09 0 0 1 2.71.73 15.67 15.67 0 0 0 2.18-.45c.93-.32 1.51.25 2.27.53-1.53 2.13-1.53 2.13-3.25 2.95l-1.18-.58h-1c-.22.23-.46.5-.73.75s-.54.47-.9.78l.68 1.16c0 1 0 1-1.06 1.18l1.1 1.81c-.66 1.23-1.94 1.71-3 2.5a5.3 5.3 0 0 0-1.63 1.54 1.77 1.77 0 0 1-1.16.88c-.93.35-1.87.6-2.31 1.65a1 1 0 0 1-.58.54c-1 .26-1.53 1.16-2.09 1.61a9.57 9.57 0 0 0-.72 4.74l.4.77a5.93 5.93 0 0 1 4.24-1.94c1-.13 2-.44 3-.67.25-.06.57-.21.75-.11.94.49 1.94.13 2.89.27l.49-.81h.92l.39-.39v-.87l2.36-.79.14-.78 3.23-1.08.62-1a2.91 2.91 0 0 1 2.63.92v.87a4.06 4.06 0 0 1-2.27.67l-.8.49a1.8 1.8 0 0 0-.25.28l.62 1.46c-1.8.78-1.31.41-3.5-.1l-.08 1.56-.41.41c-1-.19-2.12.27-3.22-.35l-2.1 2.45a3.71 3.71 0 0 0-2.11 1c-1.08 1-2.16 2.08-3.18 3.18a8.16 8.16 0 0 0-1.77 3.35 32.86 32.86 0 0 1-1.37 4.61c-.73 1.61-1.09 3.37-2.16 4.84a2.81 2.81 0 0 1-1.82 1.35.75.75 0 0 0-.65.55 4.09 4.09 0 0 1-3 2.43 10.46 10.46 0 0 1-3.31.58h-3.27c-1.09 0-2.1-.21-3.09-.31l-2.47-2.14a2.75 2.75 0 0 1-2.24-.8 11.52 11.52 0 0 1-3.43-4.57 18 18 0 0 1-1.32-4.5 5 5 0 0 0-.35-1c-.87-.07-.58 1-1.37 1.1l-1.42-1.55-1.91-.3-.74.27-.44-.46a16 16 0 0 1 1.31-3.65v-1.34c-.5-.19-.65.13-.79.47l-.9 2.2-2.4-.33a8.37 8.37 0 0 0-3 3.13l.64 1.42 2.31.67a7.49 7.49 0 0 0 1.17 3 3.33 3.33 0 0 0 .63.58 4.18 4.18 0 0 1 1.21 1.05 5.42 5.42 0 0 0 1.42 1v.71c-.67 1.18-1.87 1-3 1a2.74 2.74 0 0 1-1.65.49l.59-2.29-.81-.65h-2l-.41-.44c-.06-.79.89-1.36.45-2.33l-1.48.87c-.51-.41-.51-.41-.65-1.1h-2.5c.75-1.34 1.43-2.55 2.1-3.76a3.27 3.27 0 0 0 .19-.6 2.62 2.62 0 0 0 .26-.29l.22-.19-.09-.09a1.53 1.53 0 0 0-.18.24 2.61 2.61 0 0 1-.21.25zm24.82 12.34a13.22 13.22 0 0 0 7.07 0zm-1.1-.27v.14h.57v-.14z" fill="#2d2b2c"/><path d="M122.85 91.18l1 1.44c-.25 1-1.12 1.48-1.64 2.17a.79.79 0 0 0 .72 1 6.65 6.65 0 0 1 1.16.51v1l-1.7 1.35.47.64a1.77 1.77 0 0 0 1.5-1.25c.21-.66.9-.85 1.15-1.51-.5-1-1.51-1.82-1-3.16l.92-.42a4.55 4.55 0 0 1 1.5-2.07l-.93-1.32v-1.39c1.12-.65 1-1.9 1.54-3.1a4.1 4.1 0 0 0 1.19-2.27 2.82 2.82 0 0 1 .77-1.28c.63.16.79.76 1.13 1.28v3.25l.56.4v1.67l.37.72.68.11-.32 2.57 2.54 1.84c0 1.24-1.44 1.83-1 3.1.34.12 1 0 1 .46s.61.9.26 1.48a3.39 3.39 0 0 0-.25.94l.76.77 2.06-.36.86.81c-.38.78-.71 1.6-1.17 2.35a14.3 14.3 0 0 0-1.75 3.37 2.41 2.41 0 0 0-.07 1.39c.09.33.16.66.26 1.07H134l-.5-.47a8.87 8.87 0 0 0-3.62.49c-.57.21-1.29.05-1.92.3a.9.9 0 0 1-.77-.06c-.41-.38-.87-.1-1.26-.2l-1 .7c-.13-1.05-.17-2-.36-2.85a7 7 0 0 0-.52-2c-.26-.48-.5-1-.75-1.46-.08-.41-.14-.84-.23-1.26-.2-.93-1-1.17-1.74-1.3a11.28 11.28 0 0 1-2.17-.7c-.23-.09-.51-.09-.75-.16a4.74 4.74 0 0 1-.58-.26 2.9 2.9 0 0 1-.83.25 5.71 5.71 0 0 0-3.42 1.32 24.8 24.8 0 0 0-2.29 2 19.58 19.58 0 0 1-2 1.72 6.28 6.28 0 0 1-1.52.54V107c1-.31 2-.57 2.92-.9a7.89 7.89 0 0 1 2.91-.55h3.11c1.55.72 2.84 1.7 4.53 1.66a27.27 27.27 0 0 0 1.25 2.61 6.35 6.35 0 0 1 1 4.34c-.76.92-.4 2.46-1.76 3.25a22.71 22.71 0 0 1-.13-2.74l-.5-.5v-.8l-1.13-1a16.45 16.45 0 0 0-1.7 0 1.51 1.51 0 0 1-1.29-.48 5.92 5.92 0 0 0-2.29-1.42c-.27-.12-.54-.22-.86-.34-.52-.85-.73-2-1.61-2.68h-1.31c-1.34.88-3.22 1.11-3.51 3.16a10.32 10.32 0 0 1 1.61.47c.39.18.89.32 1 .93.11.8.91 1 1.44 1.4s1.13.78 1.7 1.16a6.75 6.75 0 0 0 2 .78 37.78 37.78 0 0 1 4 1.47c.31.12.61.28.93.38a1.4 1.4 0 0 1 1 1.47v1.64c0 .55-.15 1.06.25 1.54a.85.85 0 0 1 0 .66 10.52 10.52 0 0 0-.52 3.87c0 .68.2 1.36.34 2.2a8.78 8.78 0 0 0 .62-3.13l.24-.58c.23.09.35.1.38.16a3.63 3.63 0 0 1 .67 3.51.5.5 0 0 0-.07.24c.18.9-.28 1.72-.32 2.71l-2.1-.37c-.62-2-1.4-4-2-6.16a11.65 11.65 0 0 0-1.15-3.07 6.6 6.6 0 0 0-3.11-2.38 14.42 14.42 0 0 0-2.75-.69l-.61-.69.33-1.37c-.22.05-.47 0-.55.15-.77 1.12-.84 1.17-2.22 1.18l-.33-1.17 1.43-1V115l-.61-.36-2.09.3-.9 1h-.82a2.48 2.48 0 0 1-.88-3 2.91 2.91 0 0 0-.87-3.34 1.53 1.53 0 0 0-2-.21 7.37 7.37 0 0 0-.74.54h-1.3a2.83 2.83 0 0 0-2.69-1.09l-.81-.84c.41-.34.28-1 1-1.2.56-.15 1.32-.28 1.54-1.16l-1.17-1.17c.49-.61.49-.61 1.42-.69l.54-1.36-3.42-4.62a4.94 4.94 0 0 1 1.74-.21v-.89a10.47 10.47 0 0 0 .88-.73c.27-.28.5-.62.83-1v-.83h1.46l1.95 1.32h.82l1-1v-.12l-.65-.83c-.8.14-1.63-.22-2.49.38l-.62-.59a1.8 1.8 0 0 0 1.08-1.39h1.12l-.26-2.12.85-.1a4 4 0 0 0 1.76 1.15l.66-.45-1-1.56a2.09 2.09 0 0 1 1.57-.46l.57-.9 1.12.34c.3-.51-.2-.62-.38-.89v-1.31c1 .12 1.6 1 2.66 1.14l-.31-1.5a2.18 2.18 0 0 1 1.71-.74 5.92 5.92 0 0 0 1.25-.26l.46-1.26A7.22 7.22 0 0 0 118 80.7a6.89 6.89 0 0 0 2.87-.28 3.83 3.83 0 0 0 .85-.69l-.4-1.81 1.25.32 1-.55.42-2.69 1.76-2.08a3.41 3.41 0 0 0 .47.42 1.35 1.35 0 0 0 .43.07 6.68 6.68 0 0 1-.26 2.1 1.43 1.43 0 0 0 .41 1.49c.49.5 1 1 1.36 1.48v1.37l-.8.66.33 1.39-3.2 2.43c.83 2.1.17 4.09-.2 5.93zm-17.53 6.75h-.87v.6c.39.46.91.82 1 1.28a1.41 1.41 0 0 0 .84 1.07 8.79 8.79 0 0 0 1.52.36l-.48-1.44c-1.49.14-1.05-1.45-1.84-1.95l1.75.37-.38-1.58-.93-.41-.44.61a2.55 2.55 0 0 1-.17 1.09zm-5 3.53l.05-.05-.19-.22-.09.09c.07.06.15.13.19.1.21.76.42 1.44.59 2.14a2.42 2.42 0 0 0 1.56 1.71l-1 .75c1 .74 2.13 1.22 3.13 2a2.08 2.08 0 0 0 1.6.27 1.54 1.54 0 0 0 1.27-1.15c-.56-.6-1.05.46-1.7 0a5.88 5.88 0 0 0-1.92-.52c-.06-1.48-1.08-2.71-1.09-4.27a5.65 5.65 0 0 0-.69-.34 11.54 11.54 0 0 0-1.71-.51zm3.25-1.62v-1c-1-.62-1.74-1.51-2.94-1.84v1.33l-1.32.88h1.77l1 1.15zm18.17 11.5l-.45-.9h-1.36l-1 .7v.51a2.3 2.3 0 0 0 1.8.41zM105 101.71v2.06c.3.39.61.59 1 .28v-1.45zm17.21-17.54a1.12 1.12 0 0 0-.53 1.62 4.09 4.09 0 0 1 .18 1c0 .06.09.11.12.14l.68-1a2.4 2.4 0 0 0-.42-1.76zm44.66 46.71l-.27.27c-2.11.13-3.73-.95-5.29-2.16-.3-.23-.47-.69-1-.55l-.19-.22-.09.09a1.53 1.53 0 0 0 .24.18.66.66 0 0 0 .3.68 9.14 9.14 0 0 0 1.21 1c.41.21.61.81.94 1.28-.66 1.38-.37 3.21-1.82 4.42l-1.83-.36c-.56.75-.57.8-.15 1.72a3.36 3.36 0 0 0-.28.4 2.1 2.1 0 0 0-.11.44c-.28-.09-.52-.18-.76-.24s-.48-.08-.9-.14l.62 1.3v1.31l-1.68-.65c-.64.26-.54 1.17-1.19 1.65l-1.45-.16a3.37 3.37 0 0 1-.6 2.28l-1 .05-.33 1.07h-1c-.72-2.49-.72-2.49-.41-4.5l1.07-.41v-2.08c1.15-1 1.89.29 2.85.45l.42-.38v-1.07l.71-1.08 1.35.68c.15-.36.28-.71.44-1a5.64 5.64 0 0 1 3.22-3.23c.08 0 .13-.12.3-.3v-1.12l-2.45-2.08v-.65l.47-.15a1.56 1.56 0 0 1 .78-1.31 4.16 4.16 0 0 1 2.76.88 3.51 3.51 0 0 0 2.31.75l2.09-1.72c-.08-1.18.77-1.88 1.4-2.91l-.31-1.6h1.29l1.54 1.54a15.76 15.76 0 0 0-.32 2.48 14.2 14.2 0 0 1-.39 2.68c-.59.47-.6.48-1.12.1a1.86 1.86 0 0 0-1.49-.53c0 .71-.23 1.45.24 2.12zm-77.77.96c.52-1.41 1.82-2.05 2.62-3.23l-1.15-.43-3.71.92a6.55 6.55 0 0 0 .4-3 3.49 3.49 0 0 0-2.59-.91 1.37 1.37 0 0 1-.1-1.78c.37-.47.16-.93.24-1.38-.55-.26-1.08-.47-1.11-1.19 0-.18-.21-.37-.36-.53-.37-.38-.17-.7.05-1l-.86-.52c.82-.91 0-1.82.09-2.8l.77-.5-.59-.67.63-1.38v-.93l-.68-.73 1-.77h1.12l1.87 1a8.29 8.29 0 0 1-.56 2.52 3.71 3.71 0 0 1-.53.86 4.1 4.1 0 0 1 .46 2.5L85 118.94a5.73 5.73 0 0 0 1.19 1.18 8.66 8.66 0 0 1 1.6 1.38 3.51 3.51 0 0 1 1.33 3.23l1.41 1.41v1.12c1.22.38 1.94-1 3.12-.72 0 0 .06 0 .07.06 0 .26 0 .53.07.86l.54.62a1.06 1.06 0 0 1-.1.29c-.54.64-1.1 1.26-1.62 1.92a2.49 2.49 0 0 0-.27.71 3.1 3.1 0 0 1 1.79 2h1.6l2.36-1.17.07 1.43.82.47a1 1 0 0 1-.13.35c-.34.37-.7.71-1.1 1.11h-.85c-1.1.39-1.65 1.33-2.78 1.08l-.51-.76h-.8l-.39-.39v-.91h-2l-.5-.53.33-1c-.01-.83-.68-.61-1.15-.84zM129.11 153a2 2 0 0 0-1.82-.54 6 6 0 0 1-3.72-1.1c-1.23.28-2-.75-3.06-1.35h-1.73c-.59-.69-.59-.69 0-1.37.59-.05.58.54.85 1l.78-.68h.82l.17.49h.66a2 2 0 0 1 .33.15 2.05 2.05 0 0 0 .76.48 2.93 2.93 0 0 1 1.51.65c.31.31.89.23 1.33.35a4.41 4.41 0 0 0 1.23.33 13.78 13.78 0 0 1 1.5 0 3.9 3.9 0 0 1 1.82.22c.3.17.89-.16 1.34-.27a3.38 3.38 0 0 1 .59-.21c.82 0 1.69.16 2.36-.55l1.14.25 1.58-1.58h1.12c.5-.38.78-.73 1.14-.83.56-.17.65-.52.63-1 .53-.12 1-.21 1.4.49a3.27 3.27 0 0 1-.58.64c-.92.6-1.71 1.35-2.57 2a6.32 6.32 0 0 1-4.33 1.69 3.81 3.81 0 0 0-2.64.53 1.67 1.67 0 0 1-.83.27c-.6-.06-1.19-.06-1.78-.06z" fill="#2d2b2c"/><path d="M93 110.61l-.94 2h1c.31.61.41 1.24.65 1.83a5.3 5.3 0 0 1 0 1.87l-2.9 2.88h-.51c-.55-.82.46-1.59.06-2.41l-.69-.07v-1.23l.47-.47v-.86c-.26-.6-1.2-.17-1.34-.93 0-.08 0-.19.09-.23a7.21 7.21 0 0 0 .84-.59 2.79 2.79 0 0 0 .58-.84 3.28 3.28 0 0 1 1.75-1.63c.5-.03.64.44.94.68zm76.59-9.5v-.93c-.79-.52-1.64.75-2.41-.22v-1.08l-.56-.56v-1.44l1.15-.87h1.72l.38.4c0 .58-.44.6-.8.78.08.09.14.23.24.27.43.16.88.28 1.31.45a3.61 3.61 0 0 1 .58.34l-.33 2.88zm-57.4 42.6h1.39l.44.5-.33 1.91a4 4 0 0 1 1.43-.2 4.92 4.92 0 0 1 1.29.79v1.17a3.51 3.51 0 0 1-3.27 1.2c.13-.45-.1-.9.21-1.39a.87.87 0 0 0-.29-1.23l-1.69.3c-.23-1.94-.22-1.98.82-3.05zm35.42-2.17h1.14l1 2.57-.41 1-1.21-.19c-.36.55.35 1.07.2 1.73h-1.48l-1.37-2.1a8.11 8.11 0 0 1 .62-.63 2.93 2.93 0 0 0 1.51-2.38zM93.3 102.28c1.39-.22 1.87.73 2.41 1.61a11.75 11.75 0 0 0 .68 1.07c.33.44.14.73-.22 1.05a1.25 1.25 0 0 1-1.18-.21c-.51-.43-1.17-.24-1.77-.3l-1.28-.65V104l1.26-.65zm77.53 15.79h.56a11.29 11.29 0 0 1 .83.86 10.93 10.93 0 0 1 .65 1v1.57l-1 1.29a4 4 0 0 1-1.67-4.1zm-80.09-11.23l.43-.46h2.53l.38.37c0 .71-1 1.71-2.32 2.35l-1-.4c0-.14-.07-.38 0-.47a1 1 0 0 0-.02-1.39zm80.26 7.5l1.2-.39.86.37.68 1.57a2.45 2.45 0 0 1-2.06.54l-.87-.51c-.35-.6.06-1.05.19-1.58zM123.61 124l-1 .38-.71-1.39v-2.4l.17.16.27-.8.91 1.26zM145 146.12v2.64a2.71 2.71 0 0 1-2.47-1.46l1.33-.1c.22-.27-.12-.78.37-.93.26-.06.51-.09.77-.15zm19.12-25.75l-1.33-1.43c0-.39-.13-.92.61-1.19l1.52 1.13c.2.8-.34 1.04-.8 1.49zM166 116l.33-.9a2.21 2.21 0 0 1 2.15.54c0 1-.53 1.33-1.52.93a7.68 7.68 0 0 1-.96-.57zm-49.64 11.9a2.11 2.11 0 0 1 .57 1.87l-.74.36a1.77 1.77 0 0 1-.85-1.62c.08-.58.48-.67 1.02-.61zm50.1-20.18c.63.53.48.93 0 1.33h-1.42l-.38-.4c.03-.56.73-.91 1.8-.93zm-32.58-24.83h-1.05l-.05-1.22.82-.74c.15.1.28.15.28.19.01.59 0 1.18 0 1.77z" fill="#2d2b2c"/><path d="M150 92.57v-.55a9.43 9.43 0 0 0 1.14-1.17c.32-.46.86-.95.24-1.6-.09-.09 0-.35 0-.52l.79-.4c.89.08.66 1.56 1.74 1.36.64-.54.41-1.28.47-1.94-.46-.71-.61-1.64-1.53-1.86-1.29.08-2 1.46-3.49 1.28l.66-1.34a2.18 2.18 0 0 0-.87-1.51l-3.15-.38-.43-1a1 1 0 0 0-.33 0c-.55.09-1.09.21-1.62.31l-.53-.92-1.62.33-.82-1.6h-1.26a4.16 4.16 0 0 0-.79-3h-1.85l-.54-1.2-1.29 1.05a5.18 5.18 0 0 1-.46-2.19 2.92 2.92 0 0 0-1.23-2.81h-1.13l-1.15 1.32h-.73a2.07 2.07 0 0 1-.24-2l.5-.79L132 72a4.33 4.33 0 0 1 2.75-.11c.38.08.91.28 1.14.11.7-.52 1.22-.07 1.94.17l-.62 1.59a7.94 7.94 0 0 0 3.72 5.1 12.72 12.72 0 0 0 2.43 1c.43.17.86.33 1.28.52a6.92 6.92 0 0 0 1.79.59A1.81 1.81 0 0 1 148 82.1c.08.19.31.33.43.45a6.59 6.59 0 0 1 1.67.37c1.12.59 2.32 1 3.47 1.51a4.69 4.69 0 0 1 .85.57c.48.37.95.78 1.43 1.15s1.18.14 1.69.55c.11.09.44 0 .62-.1a.92.92 0 0 1 1.31.18l-.43.29v1.28c-.29.67-1 .79-1.32 1.38-.67 0-.51-.76-1-1h-.88l-.33.34a1.32 1.32 0 0 0 .31 1.22 1.66 1.66 0 0 1 .5 1.29 3.73 3.73 0 0 0 .24 1 .76.76 0 0 1-.82.46h-2.45l.84-1.39a.81.81 0 0 0-1.19-.47c-.49.37-1 .08-1.55.11zM153.56 74l-.45.45H150a2.2 2.2 0 0 0 .43 2v1.58a10.61 10.61 0 0 1-3.43-2.09c.13-1.27-1.12-.83-1.62-1.35V74a20.76 20.76 0 0 1 4.09-3.12c2.22-1.52 4.52-2.92 6.73-4.46 1.88-1.31 3.67-2.76 5.52-4.12a15.48 15.48 0 0 1 1.48-.86 12.17 12.17 0 0 1 1 4.1 23 23 0 0 1-.35 4 18.16 18.16 0 0 1-.55 2.62c-.22.8-.69 1.54-.93 2.34a35.3 35.3 0 0 1-1.59 4 39.84 39.84 0 0 1-2.28 4 .77.77 0 0 1-1.15-.37 2.43 2.43 0 0 1 .67-1.91 38.06 38.06 0 0 0 3-5.57 20.39 20.39 0 0 0 1.2-3c.37-1.27.62-2.57.89-3.87.33-1.57 0-3.11.27-4.7h-1.08c-.54 1.66-1.25 3.32-3.2 4a1.46 1.46 0 0 1-1.1 1.35c-.45.23-.92.4-1.44.62v1.11l-.46.46a5.34 5.34 0 0 0-3.37.66c.53.82 1.51.63 2.27.94a8.44 8.44 0 0 0 1.77.32v.55l-3.06-.35-.51.51z" fill="#f8f7f6"/><path d="M136.61 81.29h1.33v1.22a1.63 1.63 0 0 0-.16 2.18c-.53.17-1 .28-1.35-.2-.43-1.07.29-2.06.18-3.2zm15.82 13.32l-1.16 1.62 1.37 1.14v1.32c-.67-.26-1.13-.86-2.15-2.76a2.09 2.09 0 0 1 1.94-1.32zm-4.16-.19a1.45 1.45 0 0 1 .32.38 1.85 1.85 0 0 1 0 .64c-.33 0-.74.13-.91 0-.61-.56-1.21-.22-1.67.07a2 2 0 0 1-1.12.21c-.3-.44-.08-.75.21-1zM141.4 96c-.16-1.39 1-2 1.65-2.94A4.12 4.12 0 0 1 141.4 96zm11.18-1.64l.43-1.12h.17v1zm-.93 7.23l-.19.66a2.25 2.25 0 0 1-.12-.38l.31-.28zM150 92.73l-.19.22-.09-.09.22-.19zm2.7 1.61l-.27.27z" fill="#f8f7f6"/><path d="M122.42 170.83a6.15 6.15 0 0 1 .61-3.26 4.49 4.49 0 0 1 3.78-3.15c.61-.55 1.22 0 1.82 0a3.11 3.11 0 0 1 1.79.63 2.34 2.34 0 0 1 1.29 1.46c.86.75.88 1.81 1.09 2.82a9.43 9.43 0 0 1 .28 1.93 14.63 14.63 0 0 1-.4 2.43 6.4 6.4 0 0 1-1.28 2.59 4.31 4.31 0 0 1-1.57 1.08 5 5 0 0 1-5.83-1.16 6.67 6.67 0 0 1-1.35-2.85 13.16 13.16 0 0 1-.23-2.52z" fill="#ec1e3b"/><path d="M126.53 148.4h7.07a13.22 13.22 0 0 1-7.07 0zm-1.1-.27h.57v.14h-.55zm-23.72-12.07l.27-.27zm.24-.3l.19-.22.09.09-.22.19zm1.42-1.31l-.19.22-.09-.09.22-.19zm-3.08-33.07c.63.19 1.2.35 1.75.54a5.65 5.65 0 0 1 .69.34c0 1.55 1 2.79 1.09 4.27a5.88 5.88 0 0 1 1.92.52c.65.47 1.14-.59 1.7 0a1.54 1.54 0 0 1-1.27 1.15 2.08 2.08 0 0 1-1.6-.27c-1-.74-2.15-1.22-3.13-2l1-.75a2.42 2.42 0 0 1-1.56-1.71c-.17-.65-.38-1.34-.59-2.09zm3.28-1.54l-1.49.53-1-1.15h-1.77l1.32-.88V97c1.2.33 1.94 1.22 2.94 1.84zm1.75-1.91c1 .41.55 2 2 1.86l.48 1.44a8.79 8.79 0 0 1-1.52-.36 1.41 1.41 0 0 1-.84-1.07c-.1-.46-.63-.82-1-1.28v-.6zm16.42 13.4l-1.06.73a2.3 2.3 0 0 1-1.8-.41v-.51l1-.7h1.36zm-16.22-13.49v-1l.44-.61.93.41.38 1.58zm-.52 3.87l1 .89v1.45c-.4.31-.71.11-1-.28zm17.24-17.54a2.4 2.4 0 0 1 .45 1.79l-.68 1s-.11-.08-.12-.14a4.09 4.09 0 0 0-.18-1 1.12 1.12 0 0 1 .53-1.65z" fill="#f8f7f6"/><path d="M100.32 101.46l-.22-.19.09-.09.19.22zm59.99 27l-.22-.19.09-.09.19.22z" fill="#f8f7f6"/><path d="M184.66 248.36a8.13 8.13 0 1 1 2.34-5.76 7.81 7.81 0 0 1-2.34 5.76zM174 237.67a6.75 6.75 0 0 0-2 4.94 6.83 6.83 0 0 0 2 5 7 7 0 0 0 9.89 0 7.06 7.06 0 0 0 0-9.92 7 7 0 0 0-9.87 0zm4.78.45a6.8 6.8 0 0 1 2.43.32 2.21 2.21 0 0 1 1.38 2.26 2 2 0 0 1-.87 1.76 3.38 3.38 0 0 1-1.29.43 2.16 2.16 0 0 1 1.53.87 2.45 2.45 0 0 1 .48 1.38v1.31a1.43 1.43 0 0 0 .08.46l.06.11h-1.47v-1.19a2.18 2.18 0 0 0-.84-2 3.78 3.78 0 0 0-1.75-.29h-1.32V247h-1.57v-8.91zm1.7 1.4a4.09 4.09 0 0 0-1.9-.33h-1.38v3.23h1.42a4.27 4.27 0 0 0 1.5-.2 1.6 1.6 0 0 0 .33-2.7z" fill="#231f20"/></svg>